<svg xmlns="http://www.w3.org/2000/svg" width="1000" height="520" viewBox="0 0 1000 520">
<rect width="100%" height="100%" fill="#ffffff"/>
<text x="500.0" y="34" text-anchor="middle" font-family="Arial, sans-serif" font-size="24" font-weight="700" fill="#1f2937">Distribuição de carga por trabalhador</text>
<line x1="90" y1="70" x2="90" y2="405" stroke="#374151" stroke-width="1.5"/>
<line x1="90" y1="405" x2="960" y2="405" stroke="#374151" stroke-width="1.5"/>
<line x1="90" y1="405.00" x2="960" y2="405.00" stroke="#e5e7eb" stroke-width="1"/>
<text x="80" y="409.00" text-anchor="end" font-family="Arial, sans-serif" font-size="12" fill="#4b5563">0,00</text>
<line x1="90" y1="338.00" x2="960" y2="338.00" stroke="#e5e7eb" stroke-width="1"/>
<text x="80" y="342.00" text-anchor="end" font-family="Arial, sans-serif" font-size="12" fill="#4b5563">15.332.800</text>
<line x1="90" y1="271.00" x2="960" y2="271.00" stroke="#e5e7eb" stroke-width="1"/>
<text x="80" y="275.00" text-anchor="end" font-family="Arial, sans-serif" font-size="12" fill="#4b5563">30.665.600</text>
<line x1="90" y1="204.00" x2="960" y2="204.00" stroke="#e5e7eb" stroke-width="1"/>
<text x="80" y="208.00" text-anchor="end" font-family="Arial, sans-serif" font-size="12" fill="#4b5563">45.998.400</text>
<line x1="90" y1="137.00" x2="960" y2="137.00" stroke="#e5e7eb" stroke-width="1"/>
<text x="80" y="141.00" text-anchor="end" font-family="Arial, sans-serif" font-size="12" fill="#4b5563">61.331.200</text>
<line x1="90" y1="70.00" x2="960" y2="70.00" stroke="#e5e7eb" stroke-width="1"/>
<text x="80" y="74.00" text-anchor="end" font-family="Arial, sans-serif" font-size="12" fill="#4b5563">76.664.000</text>
<text x="500.0" y="502" text-anchor="middle" font-family="Arial, sans-serif" font-size="14" fill="#1f2937">Trabalhador</text>
<text x="18" y="237.5" text-anchor="middle" font-family="Arial, sans-serif" font-size="14" fill="#1f2937" transform="rotate(-90 18 237.5)">Números processados</text>
<rect x="135.00" y="260.58" width="55.00" height="144.42" fill="#2563eb"/>
<text x="162.50" y="253.58" text-anchor="middle" font-family="Arial, sans-serif" font-size="11" fill="#1f2937">33.050.000</text>
<text x="162.50" y="423" text-anchor="end" font-family="Arial, sans-serif" font-size="11" fill="#4b5563" transform="rotate(-35 162.50 423)">1-cmf</text>
<rect x="280.00" y="112.45" width="55.00" height="292.55" fill="#059669"/>
<text x="307.50" y="105.45" text-anchor="middle" font-family="Arial, sans-serif" font-size="11" fill="#1f2937">66.950.000</text>
<text x="307.50" y="423" text-anchor="end" font-family="Arial, sans-serif" font-size="11" fill="#4b5563" transform="rotate(-35 307.50 423)">1-ubuntu]</text>
<rect x="425.00" y="258.40" width="55.00" height="146.60" fill="#dc2626"/>
<text x="452.50" y="251.40" text-anchor="middle" font-family="Arial, sans-serif" font-size="11" fill="#1f2937">33.550.000</text>
<text x="452.50" y="423" text-anchor="end" font-family="Arial, sans-serif" font-size="11" fill="#4b5563" transform="rotate(-35 452.50 423)">2-cmf</text>
<rect x="570.00" y="114.63" width="55.00" height="290.37" fill="#7c3aed"/>
<text x="597.50" y="107.63" text-anchor="middle" font-family="Arial, sans-serif" font-size="11" fill="#1f2937">66.450.000</text>
<text x="597.50" y="423" text-anchor="end" font-family="Arial, sans-serif" font-size="11" fill="#4b5563" transform="rotate(-35 597.50 423)">2-ubuntu]</text>
<rect x="715.00" y="267.14" width="55.00" height="137.86" fill="#ea580c"/>
<text x="742.50" y="260.14" text-anchor="middle" font-family="Arial, sans-serif" font-size="11" fill="#1f2937">31.550.000</text>
<text x="742.50" y="423" text-anchor="end" font-family="Arial, sans-serif" font-size="11" fill="#4b5563" transform="rotate(-35 742.50 423)">3-cmf</text>
<rect x="860.00" y="105.89" width="55.00" height="299.11" fill="#0891b2"/>
<text x="887.50" y="98.89" text-anchor="middle" font-family="Arial, sans-serif" font-size="11" fill="#1f2937">68.450.000</text>
<text x="887.50" y="423" text-anchor="end" font-family="Arial, sans-serif" font-size="11" fill="#4b5563" transform="rotate(-35 887.50 423)">3-ubuntu]</text>
</svg>
