<svg xmlns="http://www.w3.org/2000/svg" width="1000" height="520" viewBox="0 0 1000 520">
<rect width="100%" height="100%" fill="#ffffff"/>
<text x="500.0" y="34" text-anchor="middle" font-family="Arial, sans-serif" font-size="24" font-weight="700" fill="#1f2937">Comparação de tempo total por execução</text>
<line x1="90" y1="70" x2="90" y2="405" stroke="#374151" stroke-width="1.5"/>
<line x1="90" y1="405" x2="960" y2="405" stroke="#374151" stroke-width="1.5"/>
<line x1="90" y1="405.00" x2="960" y2="405.00" stroke="#e5e7eb" stroke-width="1"/>
<text x="80" y="409.00" text-anchor="end" font-family="Arial, sans-serif" font-size="12" fill="#4b5563">0,00</text>
<line x1="90" y1="338.00" x2="960" y2="338.00" stroke="#e5e7eb" stroke-width="1"/>
<text x="80" y="342.00" text-anchor="end" font-family="Arial, sans-serif" font-size="12" fill="#4b5563">88,1</text>
<line x1="90" y1="271.00" x2="960" y2="271.00" stroke="#e5e7eb" stroke-width="1"/>
<text x="80" y="275.00" text-anchor="end" font-family="Arial, sans-serif" font-size="12" fill="#4b5563">176,1</text>
<line x1="90" y1="204.00" x2="960" y2="204.00" stroke="#e5e7eb" stroke-width="1"/>
<text x="80" y="208.00" text-anchor="end" font-family="Arial, sans-serif" font-size="12" fill="#4b5563">264,2</text>
<line x1="90" y1="137.00" x2="960" y2="137.00" stroke="#e5e7eb" stroke-width="1"/>
<text x="80" y="141.00" text-anchor="end" font-family="Arial, sans-serif" font-size="12" fill="#4b5563">352,3</text>
<line x1="90" y1="70.00" x2="960" y2="70.00" stroke="#e5e7eb" stroke-width="1"/>
<text x="80" y="74.00" text-anchor="end" font-family="Arial, sans-serif" font-size="12" fill="#4b5563">440,4</text>
<text x="500.0" y="502" text-anchor="middle" font-family="Arial, sans-serif" font-size="14" fill="#1f2937">Execução</text>
<text x="18" y="237.5" text-anchor="middle" font-family="Arial, sans-serif" font-size="14" fill="#1f2937" transform="rotate(-90 18 237.5)">Tempo total (s)</text>
<rect x="207.50" y="118.17" width="55.00" height="286.83" fill="#2563eb"/>
<text x="235.00" y="111.17" text-anchor="middle" font-family="Arial, sans-serif" font-size="11" fill="#1f2937">377,1</text>
<text x="235.00" y="423" text-anchor="end" font-family="Arial, sans-serif" font-size="11" fill="#4b5563" transform="rotate(-35 235.00 423)">1-estatico</text>
<rect x="497.50" y="117.46" width="55.00" height="287.54" fill="#059669"/>
<text x="525.00" y="110.46" text-anchor="middle" font-family="Arial, sans-serif" font-size="11" fill="#1f2937">378,0</text>
<text x="525.00" y="423" text-anchor="end" font-family="Arial, sans-serif" font-size="11" fill="#4b5563" transform="rotate(-35 525.00 423)">2-estatico</text>
<rect x="787.50" y="105.89" width="55.00" height="299.11" fill="#dc2626"/>
<text x="815.00" y="98.89" text-anchor="middle" font-family="Arial, sans-serif" font-size="11" fill="#1f2937">393,2</text>
<text x="815.00" y="423" text-anchor="end" font-family="Arial, sans-serif" font-size="11" fill="#4b5563" transform="rotate(-35 815.00 423)">3-estatico</text>
</svg>
