<svg xmlns="http://www.w3.org/2000/svg" width="1000" height="520" viewBox="0 0 1000 520">
<rect width="100%" height="100%" fill="#ffffff"/>
<text x="500.0" y="34" text-anchor="middle" font-family="Arial, sans-serif" font-size="24" font-weight="700" fill="#1f2937">Evolução da janela adaptativa - execução 3</text>
<line x1="90" y1="70" x2="90" y2="405" stroke="#374151" stroke-width="1.5"/>
<line x1="90" y1="405" x2="960" y2="405" stroke="#374151" stroke-width="1.5"/>
<line x1="90" y1="405.00" x2="960" y2="405.00" stroke="#e5e7eb" stroke-width="1"/>
<text x="80" y="409.00" text-anchor="end" font-family="Arial, sans-serif" font-size="12" fill="#4b5563">0,00</text>
<line x1="90" y1="338.00" x2="960" y2="338.00" stroke="#e5e7eb" stroke-width="1"/>
<text x="80" y="342.00" text-anchor="end" font-family="Arial, sans-serif" font-size="12" fill="#4b5563">20,0</text>
<line x1="90" y1="271.00" x2="960" y2="271.00" stroke="#e5e7eb" stroke-width="1"/>
<text x="80" y="275.00" text-anchor="end" font-family="Arial, sans-serif" font-size="12" fill="#4b5563">40,0</text>
<line x1="90" y1="204.00" x2="960" y2="204.00" stroke="#e5e7eb" stroke-width="1"/>
<text x="80" y="208.00" text-anchor="end" font-family="Arial, sans-serif" font-size="12" fill="#4b5563">60,0</text>
<line x1="90" y1="137.00" x2="960" y2="137.00" stroke="#e5e7eb" stroke-width="1"/>
<text x="80" y="141.00" text-anchor="end" font-family="Arial, sans-serif" font-size="12" fill="#4b5563">80,0</text>
<line x1="90" y1="70.00" x2="960" y2="70.00" stroke="#e5e7eb" stroke-width="1"/>
<text x="80" y="74.00" text-anchor="end" font-family="Arial, sans-serif" font-size="12" fill="#4b5563">100,0</text>
<text x="500.0" y="502" text-anchor="middle" font-family="Arial, sans-serif" font-size="14" fill="#1f2937">Tarefa</text>
<text x="18" y="237.5" text-anchor="middle" font-family="Arial, sans-serif" font-size="14" fill="#1f2937" transform="rotate(-90 18 237.5)">Janela após ajuste</text>
<polyline points="91.34,394.95 92.68,391.60 94.02,388.25 95.35,384.90 96.69,381.55 98.03,378.20 99.37,374.85 100.71,371.50 102.05,368.15 103.38,364.80 104.72,361.45 106.06,358.10 107.40,354.75 108.74,351.40 110.08,348.05 111.42,344.70 112.75,341.35 114.09,338.00 115.43,334.65 116.77,331.30 118.11,327.95 119.45,324.60 120.78,321.25 122.12,317.90 123.46,314.55 124.80,311.20 126.14,307.85 127.48,304.50 128.82,301.15 130.15,297.80 131.49,294.45 132.83,291.10 134.17,287.75 135.51,284.40 136.85,281.05 138.18,343.02 139.52,339.68 140.86,336.32 142.20,332.98 143.54,329.62 144.88,326.27 146.22,322.93 147.55,319.57 152.91,316.23 156.92,312.88 162.28,309.52 168.97,306.18 174.32,302.82 178.34,299.48 183.69,296.12 186.37,292.77 191.72,289.43 195.74,286.07 199.75,282.73 203.77,343.86 207.78,340.51 210.46,337.16 213.14,333.81 215.82,330.46 219.83,327.11 222.51,323.76 225.18,320.41 227.86,317.06 230.54,313.71 233.22,310.36 235.89,307.01 239.91,303.66 242.58,300.31 245.26,296.96 247.94,293.61 250.62,290.26 253.29,286.91 255.97,345.96 258.65,342.61 261.32,339.26 264.00,335.91 266.68,332.56 269.35,329.21 272.03,325.86 274.71,322.51 277.38,319.16 280.06,315.81 282.74,312.46 285.42,309.11 288.09,305.76 290.77,302.41 293.45,299.06 296.12,295.71 298.80,292.36 301.48,289.01 304.15,347.00 306.83,343.65 309.51,340.30 312.18,336.95 314.86,333.60 318.88,330.25 321.55,326.90 324.23,323.55 326.91,320.20 329.58,316.85 332.26,313.50 334.94,310.15 337.62,306.80 340.29,303.45 344.31,300.10 346.98,296.75 349.66,293.40 351.00,290.05 355.02,347.53 357.69,344.18 359.03,340.83 361.71,337.48 364.38,334.13 365.72,330.78 368.40,327.43 371.08,324.08 373.75,320.73 376.43,317.38 379.11,314.03 383.12,310.68 385.80,307.33 388.48,303.98 392.49,300.63 395.17,297.28 397.85,293.93 400.52,290.58 403.20,347.79 407.22,344.44 409.89,341.09 411.23,337.74 413.91,334.39 416.58,331.04 419.26,327.69 421.94,324.34 424.62,320.99 427.29,317.64 431.31,314.29 433.98,310.94 436.66,307.59 439.34,304.24 443.35,300.89 446.03,297.54 450.05,351.27 452.72,347.92 455.40,344.57 458.08,341.22 460.75,337.87 462.09,334.52 464.77,331.17 467.45,327.82 470.12,324.47 472.80,321.12 475.48,317.77 478.15,314.42 480.83,311.07 484.85,307.72 487.52,304.37 491.54,301.02 494.22,297.67 498.23,351.33 500.91,347.98 503.58,344.63 506.26,341.28 507.60,337.93 510.28,334.58 512.95,331.23 515.63,327.88 518.31,324.53 520.98,321.18 523.66,317.83 526.34,314.48 529.02,311.13 531.69,307.78 533.03,304.43 537.05,301.08 541.06,297.73 543.74,351.37 547.75,348.02 550.43,344.67 553.11,341.32 555.78,337.97 558.46,334.62 561.14,331.27 563.82,327.92 566.49,324.57 569.17,321.22 571.85,317.87 574.52,314.52 577.20,311.17 579.88,307.82 582.55,304.47 585.23,301.12 587.91,297.77 591.92,294.42 595.94,349.71 599.95,346.36 602.63,343.01 605.31,339.66 607.98,336.31 610.66,332.96 613.34,329.61 616.02,326.26 618.69,322.91 621.37,319.56 624.05,316.21 626.72,312.86 629.40,309.51 632.08,306.16 634.75,302.81 637.43,299.46 640.11,352.23 642.78,348.88 645.46,345.53 648.14,342.18 650.82,338.83 654.83,335.48 657.51,332.13 660.18,328.78 662.86,325.43 665.54,322.08 668.22,318.73 670.89,315.38 673.57,312.03 676.25,308.68 678.92,305.33 681.60,301.98 684.28,298.63 686.95,351.81 690.97,348.46 692.31,345.11 694.98,341.76 697.66,338.41 701.68,335.06 704.35,331.71 707.03,328.36 709.71,325.01 713.72,321.66 716.40,318.31 719.08,314.96 721.75,311.61 724.43,308.26 727.11,304.91 729.78,354.96 732.46,351.61 735.14,348.26 737.82,344.91 740.49,341.56 741.83,338.21 744.51,334.86 747.18,331.51 749.86,328.16 752.54,324.81 756.55,321.46 759.23,318.11 761.91,314.76 765.92,311.41 768.60,308.06 771.28,304.71 775.29,301.36 777.97,298.01 780.65,294.66 783.32,349.83 787.34,346.48 788.68,343.13 791.35,339.78 794.03,336.43 796.71,333.08 799.38,329.73 800.72,326.38 803.40,323.03 806.08,319.68 807.42,316.33 811.43,312.98 814.11,309.63 818.12,306.28 820.80,355.64 824.82,352.29 827.49,348.94 828.83,345.59 831.51,342.24 834.18,338.89 836.86,335.54 839.54,332.19 842.22,328.84 844.89,325.49 847.57,322.14 850.25,318.79 852.92,315.44 855.60,312.09 858.28,308.74 860.95,305.39 863.63,302.04 867.65,298.69 871.66,295.34 874.34,291.99 877.02,348.49 881.03,345.14 883.71,341.79 886.38,338.44 887.72,335.09 890.40,331.74 893.08,328.39 895.75,325.04 898.43,321.69 901.11,318.34 903.78,314.99 906.46,311.64 909.14,308.29 911.82,304.94 915.83,301.59 918.51,353.30 922.52,349.95 925.20,346.60 927.88,343.25 930.55,339.90 933.23,336.55 935.91,333.20 938.58,329.85 941.26,326.50 943.94,323.15 946.62,319.80 949.29,316.45 951.97,313.10 954.65,359.05 957.32,355.70 960.00,352.35 962.68,349.00 964.02,345.65 966.69,342.30 969.37,338.95 972.05,335.60 976.06,332.25 978.74,328.90 981.42,325.55 984.09,322.20 988.11,318.85 990.78,315.50 993.46,312.15 996.14,308.80 998.82,305.45 1001.49,302.10 1004.17,353.55 1008.18,350.20 1009.52,346.85 1012.20,343.50 1014.88,340.15 1016.22,336.80 1018.89,333.45 1021.57,330.10 1024.25,326.75 1026.92,323.40 1030.94,320.05 1033.62,316.70 1036.29,313.35 1040.31,310.00 1042.98,306.65 1045.66,303.30 1049.68,299.95 1052.35,352.47 1055.03,349.12 1057.71,345.77 1059.05,342.42 1061.72,339.07 1064.40,335.72 1067.08,332.37 1069.75,329.02 1071.09,325.67 1073.77,322.32 1076.45,318.97" fill="none" stroke="#2563eb" stroke-width="0.3"/>
<circle cx="91.34" cy="394.95" r="0.70" fill="#2563eb"/>
<circle cx="92.68" cy="391.60" r="0.70" fill="#2563eb"/>
<circle cx="94.02" cy="388.25" r="0.70" fill="#2563eb"/>
<circle cx="95.35" cy="384.90" r="0.70" fill="#2563eb"/>
<circle cx="96.69" cy="381.55" r="0.70" fill="#2563eb"/>
<circle cx="98.03" cy="378.20" r="0.70" fill="#2563eb"/>
<circle cx="99.37" cy="374.85" r="0.70" fill="#2563eb"/>
<circle cx="100.71" cy="371.50" r="0.70" fill="#2563eb"/>
<circle cx="102.05" cy="368.15" r="0.70" fill="#2563eb"/>
<circle cx="103.38" cy="364.80" r="0.70" fill="#2563eb"/>
<circle cx="104.72" cy="361.45" r="0.70" fill="#2563eb"/>
<circle cx="106.06" cy="358.10" r="0.70" fill="#2563eb"/>
<circle cx="107.40" cy="354.75" r="0.70" fill="#2563eb"/>
<circle cx="108.74" cy="351.40" r="0.70" fill="#2563eb"/>
<circle cx="110.08" cy="348.05" r="0.70" fill="#2563eb"/>
<circle cx="111.42" cy="344.70" r="0.70" fill="#2563eb"/>
<circle cx="112.75" cy="341.35" r="0.70" fill="#2563eb"/>
<circle cx="114.09" cy="338.00" r="0.70" fill="#2563eb"/>
<circle cx="115.43" cy="334.65" r="0.70" fill="#2563eb"/>
<circle cx="116.77" cy="331.30" r="0.70" fill="#2563eb"/>
<circle cx="118.11" cy="327.95" r="0.70" fill="#2563eb"/>
<circle cx="119.45" cy="324.60" r="0.70" fill="#2563eb"/>
<circle cx="120.78" cy="321.25" r="0.70" fill="#2563eb"/>
<circle cx="122.12" cy="317.90" r="0.70" fill="#2563eb"/>
<circle cx="123.46" cy="314.55" r="0.70" fill="#2563eb"/>
<circle cx="124.80" cy="311.20" r="0.70" fill="#2563eb"/>
<circle cx="126.14" cy="307.85" r="0.70" fill="#2563eb"/>
<circle cx="127.48" cy="304.50" r="0.70" fill="#2563eb"/>
<circle cx="128.82" cy="301.15" r="0.70" fill="#2563eb"/>
<circle cx="130.15" cy="297.80" r="0.70" fill="#2563eb"/>
<circle cx="131.49" cy="294.45" r="0.70" fill="#2563eb"/>
<circle cx="132.83" cy="291.10" r="0.70" fill="#2563eb"/>
<circle cx="134.17" cy="287.75" r="0.70" fill="#2563eb"/>
<circle cx="135.51" cy="284.40" r="0.70" fill="#2563eb"/>
<circle cx="136.85" cy="281.05" r="0.70" fill="#2563eb"/>
<circle cx="138.18" cy="343.02" r="0.70" fill="#2563eb"/>
<circle cx="139.52" cy="339.68" r="0.70" fill="#2563eb"/>
<circle cx="140.86" cy="336.32" r="0.70" fill="#2563eb"/>
<circle cx="142.20" cy="332.98" r="0.70" fill="#2563eb"/>
<circle cx="143.54" cy="329.62" r="0.70" fill="#2563eb"/>
<circle cx="144.88" cy="326.27" r="0.70" fill="#2563eb"/>
<circle cx="146.22" cy="322.93" r="0.70" fill="#2563eb"/>
<circle cx="147.55" cy="319.57" r="0.70" fill="#2563eb"/>
<circle cx="152.91" cy="316.23" r="0.70" fill="#2563eb"/>
<circle cx="156.92" cy="312.88" r="0.70" fill="#2563eb"/>
<circle cx="162.28" cy="309.52" r="0.70" fill="#2563eb"/>
<circle cx="168.97" cy="306.18" r="0.70" fill="#2563eb"/>
<circle cx="174.32" cy="302.82" r="0.70" fill="#2563eb"/>
<circle cx="178.34" cy="299.48" r="0.70" fill="#2563eb"/>
<circle cx="183.69" cy="296.12" r="0.70" fill="#2563eb"/>
<circle cx="186.37" cy="292.77" r="0.70" fill="#2563eb"/>
<circle cx="191.72" cy="289.43" r="0.70" fill="#2563eb"/>
<circle cx="195.74" cy="286.07" r="0.70" fill="#2563eb"/>
<circle cx="199.75" cy="282.73" r="0.70" fill="#2563eb"/>
<circle cx="203.77" cy="343.86" r="0.70" fill="#2563eb"/>
<circle cx="207.78" cy="340.51" r="0.70" fill="#2563eb"/>
<circle cx="210.46" cy="337.16" r="0.70" fill="#2563eb"/>
<circle cx="213.14" cy="333.81" r="0.70" fill="#2563eb"/>
<circle cx="215.82" cy="330.46" r="0.70" fill="#2563eb"/>
<circle cx="219.83" cy="327.11" r="0.70" fill="#2563eb"/>
<circle cx="222.51" cy="323.76" r="0.70" fill="#2563eb"/>
<circle cx="225.18" cy="320.41" r="0.70" fill="#2563eb"/>
<circle cx="227.86" cy="317.06" r="0.70" fill="#2563eb"/>
<circle cx="230.54" cy="313.71" r="0.70" fill="#2563eb"/>
<circle cx="233.22" cy="310.36" r="0.70" fill="#2563eb"/>
<circle cx="235.89" cy="307.01" r="0.70" fill="#2563eb"/>
<circle cx="239.91" cy="303.66" r="0.70" fill="#2563eb"/>
<circle cx="242.58" cy="300.31" r="0.70" fill="#2563eb"/>
<circle cx="245.26" cy="296.96" r="0.70" fill="#2563eb"/>
<circle cx="247.94" cy="293.61" r="0.70" fill="#2563eb"/>
<circle cx="250.62" cy="290.26" r="0.70" fill="#2563eb"/>
<circle cx="253.29" cy="286.91" r="0.70" fill="#2563eb"/>
<circle cx="255.97" cy="345.96" r="0.70" fill="#2563eb"/>
<circle cx="258.65" cy="342.61" r="0.70" fill="#2563eb"/>
<circle cx="261.32" cy="339.26" r="0.70" fill="#2563eb"/>
<circle cx="264.00" cy="335.91" r="0.70" fill="#2563eb"/>
<circle cx="266.68" cy="332.56" r="0.70" fill="#2563eb"/>
<circle cx="269.35" cy="329.21" r="0.70" fill="#2563eb"/>
<circle cx="272.03" cy="325.86" r="0.70" fill="#2563eb"/>
<circle cx="274.71" cy="322.51" r="0.70" fill="#2563eb"/>
<circle cx="277.38" cy="319.16" r="0.70" fill="#2563eb"/>
<circle cx="280.06" cy="315.81" r="0.70" fill="#2563eb"/>
<circle cx="282.74" cy="312.46" r="0.70" fill="#2563eb"/>
<circle cx="285.42" cy="309.11" r="0.70" fill="#2563eb"/>
<circle cx="288.09" cy="305.76" r="0.70" fill="#2563eb"/>
<circle cx="290.77" cy="302.41" r="0.70" fill="#2563eb"/>
<circle cx="293.45" cy="299.06" r="0.70" fill="#2563eb"/>
<circle cx="296.12" cy="295.71" r="0.70" fill="#2563eb"/>
<circle cx="298.80" cy="292.36" r="0.70" fill="#2563eb"/>
<circle cx="301.48" cy="289.01" r="0.70" fill="#2563eb"/>
<circle cx="304.15" cy="347.00" r="0.70" fill="#2563eb"/>
<circle cx="306.83" cy="343.65" r="0.70" fill="#2563eb"/>
<circle cx="309.51" cy="340.30" r="0.70" fill="#2563eb"/>
<circle cx="312.18" cy="336.95" r="0.70" fill="#2563eb"/>
<circle cx="314.86" cy="333.60" r="0.70" fill="#2563eb"/>
<circle cx="318.88" cy="330.25" r="0.70" fill="#2563eb"/>
<circle cx="321.55" cy="326.90" r="0.70" fill="#2563eb"/>
<circle cx="324.23" cy="323.55" r="0.70" fill="#2563eb"/>
<circle cx="326.91" cy="320.20" r="0.70" fill="#2563eb"/>
<circle cx="329.58" cy="316.85" r="0.70" fill="#2563eb"/>
<circle cx="332.26" cy="313.50" r="0.70" fill="#2563eb"/>
<circle cx="334.94" cy="310.15" r="0.70" fill="#2563eb"/>
<circle cx="337.62" cy="306.80" r="0.70" fill="#2563eb"/>
<circle cx="340.29" cy="303.45" r="0.70" fill="#2563eb"/>
<circle cx="344.31" cy="300.10" r="0.70" fill="#2563eb"/>
<circle cx="346.98" cy="296.75" r="0.70" fill="#2563eb"/>
<circle cx="349.66" cy="293.40" r="0.70" fill="#2563eb"/>
<circle cx="351.00" cy="290.05" r="0.70" fill="#2563eb"/>
<circle cx="355.02" cy="347.53" r="0.70" fill="#2563eb"/>
<circle cx="357.69" cy="344.18" r="0.70" fill="#2563eb"/>
<circle cx="359.03" cy="340.83" r="0.70" fill="#2563eb"/>
<circle cx="361.71" cy="337.48" r="0.70" fill="#2563eb"/>
<circle cx="364.38" cy="334.13" r="0.70" fill="#2563eb"/>
<circle cx="365.72" cy="330.78" r="0.70" fill="#2563eb"/>
<circle cx="368.40" cy="327.43" r="0.70" fill="#2563eb"/>
<circle cx="371.08" cy="324.08" r="0.70" fill="#2563eb"/>
<circle cx="373.75" cy="320.73" r="0.70" fill="#2563eb"/>
<circle cx="376.43" cy="317.38" r="0.70" fill="#2563eb"/>
<circle cx="379.11" cy="314.03" r="0.70" fill="#2563eb"/>
<circle cx="383.12" cy="310.68" r="0.70" fill="#2563eb"/>
<circle cx="385.80" cy="307.33" r="0.70" fill="#2563eb"/>
<circle cx="388.48" cy="303.98" r="0.70" fill="#2563eb"/>
<circle cx="392.49" cy="300.63" r="0.70" fill="#2563eb"/>
<circle cx="395.17" cy="297.28" r="0.70" fill="#2563eb"/>
<circle cx="397.85" cy="293.93" r="0.70" fill="#2563eb"/>
<circle cx="400.52" cy="290.58" r="0.70" fill="#2563eb"/>
<circle cx="403.20" cy="347.79" r="0.70" fill="#2563eb"/>
<circle cx="407.22" cy="344.44" r="0.70" fill="#2563eb"/>
<circle cx="409.89" cy="341.09" r="0.70" fill="#2563eb"/>
<circle cx="411.23" cy="337.74" r="0.70" fill="#2563eb"/>
<circle cx="413.91" cy="334.39" r="0.70" fill="#2563eb"/>
<circle cx="416.58" cy="331.04" r="0.70" fill="#2563eb"/>
<circle cx="419.26" cy="327.69" r="0.70" fill="#2563eb"/>
<circle cx="421.94" cy="324.34" r="0.70" fill="#2563eb"/>
<circle cx="424.62" cy="320.99" r="0.70" fill="#2563eb"/>
<circle cx="427.29" cy="317.64" r="0.70" fill="#2563eb"/>
<circle cx="431.31" cy="314.29" r="0.70" fill="#2563eb"/>
<circle cx="433.98" cy="310.94" r="0.70" fill="#2563eb"/>
<circle cx="436.66" cy="307.59" r="0.70" fill="#2563eb"/>
<circle cx="439.34" cy="304.24" r="0.70" fill="#2563eb"/>
<circle cx="443.35" cy="300.89" r="0.70" fill="#2563eb"/>
<circle cx="446.03" cy="297.54" r="0.70" fill="#2563eb"/>
<circle cx="450.05" cy="351.27" r="0.70" fill="#2563eb"/>
<circle cx="452.72" cy="347.92" r="0.70" fill="#2563eb"/>
<circle cx="455.40" cy="344.57" r="0.70" fill="#2563eb"/>
<circle cx="458.08" cy="341.22" r="0.70" fill="#2563eb"/>
<circle cx="460.75" cy="337.87" r="0.70" fill="#2563eb"/>
<circle cx="462.09" cy="334.52" r="0.70" fill="#2563eb"/>
<circle cx="464.77" cy="331.17" r="0.70" fill="#2563eb"/>
<circle cx="467.45" cy="327.82" r="0.70" fill="#2563eb"/>
<circle cx="470.12" cy="324.47" r="0.70" fill="#2563eb"/>
<circle cx="472.80" cy="321.12" r="0.70" fill="#2563eb"/>
<circle cx="475.48" cy="317.77" r="0.70" fill="#2563eb"/>
<circle cx="478.15" cy="314.42" r="0.70" fill="#2563eb"/>
<circle cx="480.83" cy="311.07" r="0.70" fill="#2563eb"/>
<circle cx="484.85" cy="307.72" r="0.70" fill="#2563eb"/>
<circle cx="487.52" cy="304.37" r="0.70" fill="#2563eb"/>
<circle cx="491.54" cy="301.02" r="0.70" fill="#2563eb"/>
<circle cx="494.22" cy="297.67" r="0.70" fill="#2563eb"/>
<circle cx="498.23" cy="351.33" r="0.70" fill="#2563eb"/>
<circle cx="500.91" cy="347.98" r="0.70" fill="#2563eb"/>
<circle cx="503.58" cy="344.63" r="0.70" fill="#2563eb"/>
<circle cx="506.26" cy="341.28" r="0.70" fill="#2563eb"/>
<circle cx="507.60" cy="337.93" r="0.70" fill="#2563eb"/>
<circle cx="510.28" cy="334.58" r="0.70" fill="#2563eb"/>
<circle cx="512.95" cy="331.23" r="0.70" fill="#2563eb"/>
<circle cx="515.63" cy="327.88" r="0.70" fill="#2563eb"/>
<circle cx="518.31" cy="324.53" r="0.70" fill="#2563eb"/>
<circle cx="520.98" cy="321.18" r="0.70" fill="#2563eb"/>
<circle cx="523.66" cy="317.83" r="0.70" fill="#2563eb"/>
<circle cx="526.34" cy="314.48" r="0.70" fill="#2563eb"/>
<circle cx="529.02" cy="311.13" r="0.70" fill="#2563eb"/>
<circle cx="531.69" cy="307.78" r="0.70" fill="#2563eb"/>
<circle cx="533.03" cy="304.43" r="0.70" fill="#2563eb"/>
<circle cx="537.05" cy="301.08" r="0.70" fill="#2563eb"/>
<circle cx="541.06" cy="297.73" r="0.70" fill="#2563eb"/>
<circle cx="543.74" cy="351.37" r="0.70" fill="#2563eb"/>
<circle cx="547.75" cy="348.02" r="0.70" fill="#2563eb"/>
<circle cx="550.43" cy="344.67" r="0.70" fill="#2563eb"/>
<circle cx="553.11" cy="341.32" r="0.70" fill="#2563eb"/>
<circle cx="555.78" cy="337.97" r="0.70" fill="#2563eb"/>
<circle cx="558.46" cy="334.62" r="0.70" fill="#2563eb"/>
<circle cx="561.14" cy="331.27" r="0.70" fill="#2563eb"/>
<circle cx="563.82" cy="327.92" r="0.70" fill="#2563eb"/>
<circle cx="566.49" cy="324.57" r="0.70" fill="#2563eb"/>
<circle cx="569.17" cy="321.22" r="0.70" fill="#2563eb"/>
<circle cx="571.85" cy="317.87" r="0.70" fill="#2563eb"/>
<circle cx="574.52" cy="314.52" r="0.70" fill="#2563eb"/>
<circle cx="577.20" cy="311.17" r="0.70" fill="#2563eb"/>
<circle cx="579.88" cy="307.82" r="0.70" fill="#2563eb"/>
<circle cx="582.55" cy="304.47" r="0.70" fill="#2563eb"/>
<circle cx="585.23" cy="301.12" r="0.70" fill="#2563eb"/>
<circle cx="587.91" cy="297.77" r="0.70" fill="#2563eb"/>
<circle cx="591.92" cy="294.42" r="0.70" fill="#2563eb"/>
<circle cx="595.94" cy="349.71" r="0.70" fill="#2563eb"/>
<circle cx="599.95" cy="346.36" r="0.70" fill="#2563eb"/>
<circle cx="602.63" cy="343.01" r="0.70" fill="#2563eb"/>
<circle cx="605.31" cy="339.66" r="0.70" fill="#2563eb"/>
<circle cx="607.98" cy="336.31" r="0.70" fill="#2563eb"/>
<circle cx="610.66" cy="332.96" r="0.70" fill="#2563eb"/>
<circle cx="613.34" cy="329.61" r="0.70" fill="#2563eb"/>
<circle cx="616.02" cy="326.26" r="0.70" fill="#2563eb"/>
<circle cx="618.69" cy="322.91" r="0.70" fill="#2563eb"/>
<circle cx="621.37" cy="319.56" r="0.70" fill="#2563eb"/>
<circle cx="624.05" cy="316.21" r="0.70" fill="#2563eb"/>
<circle cx="626.72" cy="312.86" r="0.70" fill="#2563eb"/>
<circle cx="629.40" cy="309.51" r="0.70" fill="#2563eb"/>
<circle cx="632.08" cy="306.16" r="0.70" fill="#2563eb"/>
<circle cx="634.75" cy="302.81" r="0.70" fill="#2563eb"/>
<circle cx="637.43" cy="299.46" r="0.70" fill="#2563eb"/>
<circle cx="640.11" cy="352.23" r="0.70" fill="#2563eb"/>
<circle cx="642.78" cy="348.88" r="0.70" fill="#2563eb"/>
<circle cx="645.46" cy="345.53" r="0.70" fill="#2563eb"/>
<circle cx="648.14" cy="342.18" r="0.70" fill="#2563eb"/>
<circle cx="650.82" cy="338.83" r="0.70" fill="#2563eb"/>
<circle cx="654.83" cy="335.48" r="0.70" fill="#2563eb"/>
<circle cx="657.51" cy="332.13" r="0.70" fill="#2563eb"/>
<circle cx="660.18" cy="328.78" r="0.70" fill="#2563eb"/>
<circle cx="662.86" cy="325.43" r="0.70" fill="#2563eb"/>
<circle cx="665.54" cy="322.08" r="0.70" fill="#2563eb"/>
<circle cx="668.22" cy="318.73" r="0.70" fill="#2563eb"/>
<circle cx="670.89" cy="315.38" r="0.70" fill="#2563eb"/>
<circle cx="673.57" cy="312.03" r="0.70" fill="#2563eb"/>
<circle cx="676.25" cy="308.68" r="0.70" fill="#2563eb"/>
<circle cx="678.92" cy="305.33" r="0.70" fill="#2563eb"/>
<circle cx="681.60" cy="301.98" r="0.70" fill="#2563eb"/>
<circle cx="684.28" cy="298.63" r="0.70" fill="#2563eb"/>
<circle cx="686.95" cy="351.81" r="0.70" fill="#2563eb"/>
<circle cx="690.97" cy="348.46" r="0.70" fill="#2563eb"/>
<circle cx="692.31" cy="345.11" r="0.70" fill="#2563eb"/>
<circle cx="694.98" cy="341.76" r="0.70" fill="#2563eb"/>
<circle cx="697.66" cy="338.41" r="0.70" fill="#2563eb"/>
<circle cx="701.68" cy="335.06" r="0.70" fill="#2563eb"/>
<circle cx="704.35" cy="331.71" r="0.70" fill="#2563eb"/>
<circle cx="707.03" cy="328.36" r="0.70" fill="#2563eb"/>
<circle cx="709.71" cy="325.01" r="0.70" fill="#2563eb"/>
<circle cx="713.72" cy="321.66" r="0.70" fill="#2563eb"/>
<circle cx="716.40" cy="318.31" r="0.70" fill="#2563eb"/>
<circle cx="719.08" cy="314.96" r="0.70" fill="#2563eb"/>
<circle cx="721.75" cy="311.61" r="0.70" fill="#2563eb"/>
<circle cx="724.43" cy="308.26" r="0.70" fill="#2563eb"/>
<circle cx="727.11" cy="304.91" r="0.70" fill="#2563eb"/>
<circle cx="729.78" cy="354.96" r="0.70" fill="#2563eb"/>
<circle cx="732.46" cy="351.61" r="0.70" fill="#2563eb"/>
<circle cx="735.14" cy="348.26" r="0.70" fill="#2563eb"/>
<circle cx="737.82" cy="344.91" r="0.70" fill="#2563eb"/>
<circle cx="740.49" cy="341.56" r="0.70" fill="#2563eb"/>
<circle cx="741.83" cy="338.21" r="0.70" fill="#2563eb"/>
<circle cx="744.51" cy="334.86" r="0.70" fill="#2563eb"/>
<circle cx="747.18" cy="331.51" r="0.70" fill="#2563eb"/>
<circle cx="749.86" cy="328.16" r="0.70" fill="#2563eb"/>
<circle cx="752.54" cy="324.81" r="0.70" fill="#2563eb"/>
<circle cx="756.55" cy="321.46" r="0.70" fill="#2563eb"/>
<circle cx="759.23" cy="318.11" r="0.70" fill="#2563eb"/>
<circle cx="761.91" cy="314.76" r="0.70" fill="#2563eb"/>
<circle cx="765.92" cy="311.41" r="0.70" fill="#2563eb"/>
<circle cx="768.60" cy="308.06" r="0.70" fill="#2563eb"/>
<circle cx="771.28" cy="304.71" r="0.70" fill="#2563eb"/>
<circle cx="775.29" cy="301.36" r="0.70" fill="#2563eb"/>
<circle cx="777.97" cy="298.01" r="0.70" fill="#2563eb"/>
<circle cx="780.65" cy="294.66" r="0.70" fill="#2563eb"/>
<circle cx="783.32" cy="349.83" r="0.70" fill="#2563eb"/>
<circle cx="787.34" cy="346.48" r="0.70" fill="#2563eb"/>
<circle cx="788.68" cy="343.13" r="0.70" fill="#2563eb"/>
<circle cx="791.35" cy="339.78" r="0.70" fill="#2563eb"/>
<circle cx="794.03" cy="336.43" r="0.70" fill="#2563eb"/>
<circle cx="796.71" cy="333.08" r="0.70" fill="#2563eb"/>
<circle cx="799.38" cy="329.73" r="0.70" fill="#2563eb"/>
<circle cx="800.72" cy="326.38" r="0.70" fill="#2563eb"/>
<circle cx="803.40" cy="323.03" r="0.70" fill="#2563eb"/>
<circle cx="806.08" cy="319.68" r="0.70" fill="#2563eb"/>
<circle cx="807.42" cy="316.33" r="0.70" fill="#2563eb"/>
<circle cx="811.43" cy="312.98" r="0.70" fill="#2563eb"/>
<circle cx="814.11" cy="309.63" r="0.70" fill="#2563eb"/>
<circle cx="818.12" cy="306.28" r="0.70" fill="#2563eb"/>
<circle cx="820.80" cy="355.64" r="0.70" fill="#2563eb"/>
<circle cx="824.82" cy="352.29" r="0.70" fill="#2563eb"/>
<circle cx="827.49" cy="348.94" r="0.70" fill="#2563eb"/>
<circle cx="828.83" cy="345.59" r="0.70" fill="#2563eb"/>
<circle cx="831.51" cy="342.24" r="0.70" fill="#2563eb"/>
<circle cx="834.18" cy="338.89" r="0.70" fill="#2563eb"/>
<circle cx="836.86" cy="335.54" r="0.70" fill="#2563eb"/>
<circle cx="839.54" cy="332.19" r="0.70" fill="#2563eb"/>
<circle cx="842.22" cy="328.84" r="0.70" fill="#2563eb"/>
<circle cx="844.89" cy="325.49" r="0.70" fill="#2563eb"/>
<circle cx="847.57" cy="322.14" r="0.70" fill="#2563eb"/>
<circle cx="850.25" cy="318.79" r="0.70" fill="#2563eb"/>
<circle cx="852.92" cy="315.44" r="0.70" fill="#2563eb"/>
<circle cx="855.60" cy="312.09" r="0.70" fill="#2563eb"/>
<circle cx="858.28" cy="308.74" r="0.70" fill="#2563eb"/>
<circle cx="860.95" cy="305.39" r="0.70" fill="#2563eb"/>
<circle cx="863.63" cy="302.04" r="0.70" fill="#2563eb"/>
<circle cx="867.65" cy="298.69" r="0.70" fill="#2563eb"/>
<circle cx="871.66" cy="295.34" r="0.70" fill="#2563eb"/>
<circle cx="874.34" cy="291.99" r="0.70" fill="#2563eb"/>
<circle cx="877.02" cy="348.49" r="0.70" fill="#2563eb"/>
<circle cx="881.03" cy="345.14" r="0.70" fill="#2563eb"/>
<circle cx="883.71" cy="341.79" r="0.70" fill="#2563eb"/>
<circle cx="886.38" cy="338.44" r="0.70" fill="#2563eb"/>
<circle cx="887.72" cy="335.09" r="0.70" fill="#2563eb"/>
<circle cx="890.40" cy="331.74" r="0.70" fill="#2563eb"/>
<circle cx="893.08" cy="328.39" r="0.70" fill="#2563eb"/>
<circle cx="895.75" cy="325.04" r="0.70" fill="#2563eb"/>
<circle cx="898.43" cy="321.69" r="0.70" fill="#2563eb"/>
<circle cx="901.11" cy="318.34" r="0.70" fill="#2563eb"/>
<circle cx="903.78" cy="314.99" r="0.70" fill="#2563eb"/>
<circle cx="906.46" cy="311.64" r="0.70" fill="#2563eb"/>
<circle cx="909.14" cy="308.29" r="0.70" fill="#2563eb"/>
<circle cx="911.82" cy="304.94" r="0.70" fill="#2563eb"/>
<circle cx="915.83" cy="301.59" r="0.70" fill="#2563eb"/>
<circle cx="918.51" cy="353.30" r="0.70" fill="#2563eb"/>
<circle cx="922.52" cy="349.95" r="0.70" fill="#2563eb"/>
<circle cx="925.20" cy="346.60" r="0.70" fill="#2563eb"/>
<circle cx="927.88" cy="343.25" r="0.70" fill="#2563eb"/>
<circle cx="930.55" cy="339.90" r="0.70" fill="#2563eb"/>
<circle cx="933.23" cy="336.55" r="0.70" fill="#2563eb"/>
<circle cx="935.91" cy="333.20" r="0.70" fill="#2563eb"/>
<circle cx="938.58" cy="329.85" r="0.70" fill="#2563eb"/>
<circle cx="941.26" cy="326.50" r="0.70" fill="#2563eb"/>
<circle cx="943.94" cy="323.15" r="0.70" fill="#2563eb"/>
<circle cx="946.62" cy="319.80" r="0.70" fill="#2563eb"/>
<circle cx="949.29" cy="316.45" r="0.70" fill="#2563eb"/>
<circle cx="951.97" cy="313.10" r="0.70" fill="#2563eb"/>
<circle cx="954.65" cy="359.05" r="0.70" fill="#2563eb"/>
<circle cx="957.32" cy="355.70" r="0.70" fill="#2563eb"/>
<circle cx="960.00" cy="352.35" r="0.70" fill="#2563eb"/>
<circle cx="962.68" cy="349.00" r="0.70" fill="#2563eb"/>
<circle cx="964.02" cy="345.65" r="0.70" fill="#2563eb"/>
<circle cx="966.69" cy="342.30" r="0.70" fill="#2563eb"/>
<circle cx="969.37" cy="338.95" r="0.70" fill="#2563eb"/>
<circle cx="972.05" cy="335.60" r="0.70" fill="#2563eb"/>
<circle cx="976.06" cy="332.25" r="0.70" fill="#2563eb"/>
<circle cx="978.74" cy="328.90" r="0.70" fill="#2563eb"/>
<circle cx="981.42" cy="325.55" r="0.70" fill="#2563eb"/>
<circle cx="984.09" cy="322.20" r="0.70" fill="#2563eb"/>
<circle cx="988.11" cy="318.85" r="0.70" fill="#2563eb"/>
<circle cx="990.78" cy="315.50" r="0.70" fill="#2563eb"/>
<circle cx="993.46" cy="312.15" r="0.70" fill="#2563eb"/>
<circle cx="996.14" cy="308.80" r="0.70" fill="#2563eb"/>
<circle cx="998.82" cy="305.45" r="0.70" fill="#2563eb"/>
<circle cx="1001.49" cy="302.10" r="0.70" fill="#2563eb"/>
<circle cx="1004.17" cy="353.55" r="0.70" fill="#2563eb"/>
<circle cx="1008.18" cy="350.20" r="0.70" fill="#2563eb"/>
<circle cx="1009.52" cy="346.85" r="0.70" fill="#2563eb"/>
<circle cx="1012.20" cy="343.50" r="0.70" fill="#2563eb"/>
<circle cx="1014.88" cy="340.15" r="0.70" fill="#2563eb"/>
<circle cx="1016.22" cy="336.80" r="0.70" fill="#2563eb"/>
<circle cx="1018.89" cy="333.45" r="0.70" fill="#2563eb"/>
<circle cx="1021.57" cy="330.10" r="0.70" fill="#2563eb"/>
<circle cx="1024.25" cy="326.75" r="0.70" fill="#2563eb"/>
<circle cx="1026.92" cy="323.40" r="0.70" fill="#2563eb"/>
<circle cx="1030.94" cy="320.05" r="0.70" fill="#2563eb"/>
<circle cx="1033.62" cy="316.70" r="0.70" fill="#2563eb"/>
<circle cx="1036.29" cy="313.35" r="0.70" fill="#2563eb"/>
<circle cx="1040.31" cy="310.00" r="0.70" fill="#2563eb"/>
<circle cx="1042.98" cy="306.65" r="0.70" fill="#2563eb"/>
<circle cx="1045.66" cy="303.30" r="0.70" fill="#2563eb"/>
<circle cx="1049.68" cy="299.95" r="0.70" fill="#2563eb"/>
<circle cx="1052.35" cy="352.47" r="0.70" fill="#2563eb"/>
<circle cx="1055.03" cy="349.12" r="0.70" fill="#2563eb"/>
<circle cx="1057.71" cy="345.77" r="0.70" fill="#2563eb"/>
<circle cx="1059.05" cy="342.42" r="0.70" fill="#2563eb"/>
<circle cx="1061.72" cy="339.07" r="0.70" fill="#2563eb"/>
<circle cx="1064.40" cy="335.72" r="0.70" fill="#2563eb"/>
<circle cx="1067.08" cy="332.37" r="0.70" fill="#2563eb"/>
<circle cx="1069.75" cy="329.02" r="0.70" fill="#2563eb"/>
<circle cx="1071.09" cy="325.67" r="0.70" fill="#2563eb"/>
<circle cx="1073.77" cy="322.32" r="0.70" fill="#2563eb"/>
<circle cx="1076.45" cy="318.97" r="0.70" fill="#2563eb"/>
<rect x="740" y="78" width="14" height="14" fill="#2563eb"/>
<text x="762" y="90" font-family="Arial, sans-serif" font-size="12" fill="#1f2937">cmf</text>
<polyline points="148.89,394.95 150.23,391.60 151.57,388.25 154.25,384.90 155.58,381.55 158.26,378.20 159.60,374.85 160.94,371.50 163.62,368.15 164.95,364.80 166.29,361.45 167.63,358.10 170.31,354.75 171.65,351.40 172.98,348.05 175.66,344.70 177.00,341.35 179.68,338.00 181.02,334.65 182.35,331.30 185.03,327.95 187.71,324.60 189.05,321.25 190.38,317.90 193.06,314.55 194.40,311.20 197.08,307.85 198.42,304.50 201.09,301.15 202.43,297.80 205.11,294.45 206.45,291.10 209.12,287.75 211.80,284.40 214.48,281.05 217.15,277.70 218.49,274.35 221.17,271.00 223.85,267.65 226.52,264.30 229.20,260.95 231.88,257.60 234.55,254.25 237.23,250.90 238.57,247.55 241.25,244.20 243.92,240.85 246.60,237.50 249.28,234.15 251.95,230.80 254.63,227.45 257.31,316.23 259.98,312.88 262.66,309.52 265.34,306.18 268.02,302.82 270.69,299.48 273.37,296.12 276.05,292.77 278.72,289.43 281.40,286.07 284.08,282.73 286.75,279.38 289.43,276.02 292.11,272.67 294.78,269.32 297.46,265.98 300.14,262.62 302.82,259.27 305.49,332.14 308.17,328.79 310.85,325.44 313.52,322.09 316.20,318.74 317.54,315.39 320.22,312.04 322.89,308.69 325.57,305.34 328.25,301.99 330.92,298.64 333.60,295.29 336.28,291.94 338.95,288.59 341.63,285.24 342.97,281.89 345.65,278.54 348.32,275.19 352.34,271.84 353.68,268.49 356.35,265.14 360.37,261.79 363.05,258.44 367.06,255.09 369.74,330.04 372.42,326.69 375.09,323.34 377.77,319.99 380.45,316.64 381.78,313.29 384.46,309.94 387.14,306.59 389.82,303.24 391.15,299.89 393.83,296.54 396.51,293.19 399.18,289.84 401.86,286.49 404.54,283.14 405.88,279.79 408.55,276.44 412.57,273.09 415.25,269.74 417.92,266.39 420.60,263.04 423.28,334.02 425.95,330.67 428.63,327.32 429.97,323.97 432.65,320.62 435.32,317.27 438.00,313.92 440.68,310.57 442.02,307.22 444.69,303.87 447.37,300.52 448.71,297.17 451.38,293.82 454.06,290.47 456.74,287.12 459.42,283.77 463.43,280.42 466.11,277.07 468.78,273.72 471.46,270.37 474.14,337.69 476.82,334.34 479.49,330.99 482.17,327.64 483.51,324.29 486.18,320.94 488.86,317.59 490.20,314.24 492.88,310.89 495.55,307.54 496.89,304.19 499.57,300.84 502.25,297.49 504.92,294.14 508.94,290.79 511.62,287.44 514.29,284.09 516.97,280.74 519.65,277.39 522.32,274.04 525.00,270.69 527.68,267.34 530.35,336.17 534.37,332.82 535.71,329.47 538.38,326.12 539.72,322.77 542.40,319.42 545.08,316.07 546.42,312.72 549.09,309.37 551.77,306.02 554.45,302.67 557.12,299.32 559.80,295.97 562.48,292.62 565.15,289.27 567.83,285.92 570.51,282.57 573.18,279.22 575.86,275.87 578.54,272.52 581.22,269.17 583.89,337.08 586.57,333.73 589.25,330.38 590.58,327.03 593.26,323.68 594.60,320.33 597.28,316.98 598.62,313.63 601.29,310.28 603.97,306.93 606.65,303.58 609.32,300.23 612.00,296.88 614.68,293.53 617.35,290.18 620.03,286.83 622.71,283.48 625.38,280.13 628.06,276.78 630.74,273.43 633.42,270.08 636.09,266.73 638.77,335.87 641.45,332.52 644.12,329.17 646.80,325.82 649.48,322.47 652.15,319.12 653.49,315.77 656.17,312.42 658.85,309.07 661.52,305.72 664.20,302.37 666.88,299.02 669.55,295.67 672.23,292.32 674.91,288.97 677.58,285.62 680.26,282.27 682.94,278.92 685.62,275.57 688.29,272.22 689.63,338.61 693.65,335.26 696.32,331.91 699.00,328.56 700.34,325.21 703.02,321.86 705.69,318.51 708.37,315.16 711.05,311.81 712.38,308.46 715.06,305.11 717.74,301.76 720.42,298.41 723.09,295.06 725.77,291.71 728.45,288.36 731.12,285.01 733.80,281.66 736.48,278.31 739.15,274.96 743.17,271.61 745.85,338.30 748.52,334.95 751.20,331.60 753.88,328.25 755.22,324.90 757.89,321.55 760.57,318.20 763.25,314.85 764.58,311.50 767.26,308.15 769.94,304.80 772.62,301.45 773.95,298.10 776.63,294.75 779.31,291.40 781.98,288.05 784.66,284.70 786.00,281.35 790.02,278.00 792.69,274.65 795.37,271.30 798.05,267.95 802.06,264.60 804.74,334.80 808.75,331.45 810.09,328.10 812.77,324.75 815.45,321.40 816.78,318.05 819.46,314.70 822.14,311.35 823.48,308.00 826.15,304.65 830.17,301.30 832.85,297.95 835.52,294.60 838.20,291.25 840.88,287.90 843.55,284.55 846.23,281.20 848.91,277.85 851.58,274.50 854.26,271.15 856.94,338.08 859.62,334.73 862.29,331.38 864.97,328.03 866.31,324.68 868.98,321.33 870.32,317.98 873.00,314.63 875.68,311.28 878.35,307.93 879.69,304.58 882.37,301.23 885.05,297.88 889.06,294.53 891.74,291.18 894.42,287.83 897.09,284.48 899.77,281.13 902.45,277.78 905.12,274.43 907.80,271.08 910.48,338.04 913.15,334.69 914.49,331.34 917.17,327.99 919.85,324.64 921.18,321.29 923.86,317.94 926.54,314.59 929.22,311.24 931.89,307.89 934.57,304.54 937.25,301.19 939.92,297.84 942.60,294.49 945.28,291.14 947.95,287.79 950.63,284.44 953.31,281.09 955.98,277.74 958.66,274.39 961.34,271.04 965.35,338.02 968.03,334.67 970.71,331.32 973.38,327.97 974.72,324.62 977.40,321.27 980.08,317.92 982.75,314.57 985.43,311.22 986.77,307.87 989.45,304.52 992.12,301.17 994.80,297.82 997.48,294.47 1000.15,291.12 1002.83,287.77 1005.51,284.42 1006.85,281.07 1010.86,277.72 1013.54,274.37 1017.55,271.02 1020.23,338.01 1022.91,334.66 1025.58,331.31 1028.26,327.96 1029.60,324.61 1032.28,321.26 1034.95,317.91 1037.63,314.56 1038.97,311.21 1041.65,307.86 1044.32,304.51 1047.00,301.16 1048.34,297.81 1051.02,294.46 1053.69,291.11 1056.37,287.76 1060.38,284.41 1063.06,281.06 1065.74,277.71 1068.42,274.36 1072.43,271.01 1075.11,338.00" fill="none" stroke="#059669" stroke-width="0.3"/>
<circle cx="148.89" cy="394.95" r="0.70" fill="#059669"/>
<circle cx="150.23" cy="391.60" r="0.70" fill="#059669"/>
<circle cx="151.57" cy="388.25" r="0.70" fill="#059669"/>
<circle cx="154.25" cy="384.90" r="0.70" fill="#059669"/>
<circle cx="155.58" cy="381.55" r="0.70" fill="#059669"/>
<circle cx="158.26" cy="378.20" r="0.70" fill="#059669"/>
<circle cx="159.60" cy="374.85" r="0.70" fill="#059669"/>
<circle cx="160.94" cy="371.50" r="0.70" fill="#059669"/>
<circle cx="163.62" cy="368.15" r="0.70" fill="#059669"/>
<circle cx="164.95" cy="364.80" r="0.70" fill="#059669"/>
<circle cx="166.29" cy="361.45" r="0.70" fill="#059669"/>
<circle cx="167.63" cy="358.10" r="0.70" fill="#059669"/>
<circle cx="170.31" cy="354.75" r="0.70" fill="#059669"/>
<circle cx="171.65" cy="351.40" r="0.70" fill="#059669"/>
<circle cx="172.98" cy="348.05" r="0.70" fill="#059669"/>
<circle cx="175.66" cy="344.70" r="0.70" fill="#059669"/>
<circle cx="177.00" cy="341.35" r="0.70" fill="#059669"/>
<circle cx="179.68" cy="338.00" r="0.70" fill="#059669"/>
<circle cx="181.02" cy="334.65" r="0.70" fill="#059669"/>
<circle cx="182.35" cy="331.30" r="0.70" fill="#059669"/>
<circle cx="185.03" cy="327.95" r="0.70" fill="#059669"/>
<circle cx="187.71" cy="324.60" r="0.70" fill="#059669"/>
<circle cx="189.05" cy="321.25" r="0.70" fill="#059669"/>
<circle cx="190.38" cy="317.90" r="0.70" fill="#059669"/>
<circle cx="193.06" cy="314.55" r="0.70" fill="#059669"/>
<circle cx="194.40" cy="311.20" r="0.70" fill="#059669"/>
<circle cx="197.08" cy="307.85" r="0.70" fill="#059669"/>
<circle cx="198.42" cy="304.50" r="0.70" fill="#059669"/>
<circle cx="201.09" cy="301.15" r="0.70" fill="#059669"/>
<circle cx="202.43" cy="297.80" r="0.70" fill="#059669"/>
<circle cx="205.11" cy="294.45" r="0.70" fill="#059669"/>
<circle cx="206.45" cy="291.10" r="0.70" fill="#059669"/>
<circle cx="209.12" cy="287.75" r="0.70" fill="#059669"/>
<circle cx="211.80" cy="284.40" r="0.70" fill="#059669"/>
<circle cx="214.48" cy="281.05" r="0.70" fill="#059669"/>
<circle cx="217.15" cy="277.70" r="0.70" fill="#059669"/>
<circle cx="218.49" cy="274.35" r="0.70" fill="#059669"/>
<circle cx="221.17" cy="271.00" r="0.70" fill="#059669"/>
<circle cx="223.85" cy="267.65" r="0.70" fill="#059669"/>
<circle cx="226.52" cy="264.30" r="0.70" fill="#059669"/>
<circle cx="229.20" cy="260.95" r="0.70" fill="#059669"/>
<circle cx="231.88" cy="257.60" r="0.70" fill="#059669"/>
<circle cx="234.55" cy="254.25" r="0.70" fill="#059669"/>
<circle cx="237.23" cy="250.90" r="0.70" fill="#059669"/>
<circle cx="238.57" cy="247.55" r="0.70" fill="#059669"/>
<circle cx="241.25" cy="244.20" r="0.70" fill="#059669"/>
<circle cx="243.92" cy="240.85" r="0.70" fill="#059669"/>
<circle cx="246.60" cy="237.50" r="0.70" fill="#059669"/>
<circle cx="249.28" cy="234.15" r="0.70" fill="#059669"/>
<circle cx="251.95" cy="230.80" r="0.70" fill="#059669"/>
<circle cx="254.63" cy="227.45" r="0.70" fill="#059669"/>
<circle cx="257.31" cy="316.23" r="0.70" fill="#059669"/>
<circle cx="259.98" cy="312.88" r="0.70" fill="#059669"/>
<circle cx="262.66" cy="309.52" r="0.70" fill="#059669"/>
<circle cx="265.34" cy="306.18" r="0.70" fill="#059669"/>
<circle cx="268.02" cy="302.82" r="0.70" fill="#059669"/>
<circle cx="270.69" cy="299.48" r="0.70" fill="#059669"/>
<circle cx="273.37" cy="296.12" r="0.70" fill="#059669"/>
<circle cx="276.05" cy="292.77" r="0.70" fill="#059669"/>
<circle cx="278.72" cy="289.43" r="0.70" fill="#059669"/>
<circle cx="281.40" cy="286.07" r="0.70" fill="#059669"/>
<circle cx="284.08" cy="282.73" r="0.70" fill="#059669"/>
<circle cx="286.75" cy="279.38" r="0.70" fill="#059669"/>
<circle cx="289.43" cy="276.02" r="0.70" fill="#059669"/>
<circle cx="292.11" cy="272.67" r="0.70" fill="#059669"/>
<circle cx="294.78" cy="269.32" r="0.70" fill="#059669"/>
<circle cx="297.46" cy="265.98" r="0.70" fill="#059669"/>
<circle cx="300.14" cy="262.62" r="0.70" fill="#059669"/>
<circle cx="302.82" cy="259.27" r="0.70" fill="#059669"/>
<circle cx="305.49" cy="332.14" r="0.70" fill="#059669"/>
<circle cx="308.17" cy="328.79" r="0.70" fill="#059669"/>
<circle cx="310.85" cy="325.44" r="0.70" fill="#059669"/>
<circle cx="313.52" cy="322.09" r="0.70" fill="#059669"/>
<circle cx="316.20" cy="318.74" r="0.70" fill="#059669"/>
<circle cx="317.54" cy="315.39" r="0.70" fill="#059669"/>
<circle cx="320.22" cy="312.04" r="0.70" fill="#059669"/>
<circle cx="322.89" cy="308.69" r="0.70" fill="#059669"/>
<circle cx="325.57" cy="305.34" r="0.70" fill="#059669"/>
<circle cx="328.25" cy="301.99" r="0.70" fill="#059669"/>
<circle cx="330.92" cy="298.64" r="0.70" fill="#059669"/>
<circle cx="333.60" cy="295.29" r="0.70" fill="#059669"/>
<circle cx="336.28" cy="291.94" r="0.70" fill="#059669"/>
<circle cx="338.95" cy="288.59" r="0.70" fill="#059669"/>
<circle cx="341.63" cy="285.24" r="0.70" fill="#059669"/>
<circle cx="342.97" cy="281.89" r="0.70" fill="#059669"/>
<circle cx="345.65" cy="278.54" r="0.70" fill="#059669"/>
<circle cx="348.32" cy="275.19" r="0.70" fill="#059669"/>
<circle cx="352.34" cy="271.84" r="0.70" fill="#059669"/>
<circle cx="353.68" cy="268.49" r="0.70" fill="#059669"/>
<circle cx="356.35" cy="265.14" r="0.70" fill="#059669"/>
<circle cx="360.37" cy="261.79" r="0.70" fill="#059669"/>
<circle cx="363.05" cy="258.44" r="0.70" fill="#059669"/>
<circle cx="367.06" cy="255.09" r="0.70" fill="#059669"/>
<circle cx="369.74" cy="330.04" r="0.70" fill="#059669"/>
<circle cx="372.42" cy="326.69" r="0.70" fill="#059669"/>
<circle cx="375.09" cy="323.34" r="0.70" fill="#059669"/>
<circle cx="377.77" cy="319.99" r="0.70" fill="#059669"/>
<circle cx="380.45" cy="316.64" r="0.70" fill="#059669"/>
<circle cx="381.78" cy="313.29" r="0.70" fill="#059669"/>
<circle cx="384.46" cy="309.94" r="0.70" fill="#059669"/>
<circle cx="387.14" cy="306.59" r="0.70" fill="#059669"/>
<circle cx="389.82" cy="303.24" r="0.70" fill="#059669"/>
<circle cx="391.15" cy="299.89" r="0.70" fill="#059669"/>
<circle cx="393.83" cy="296.54" r="0.70" fill="#059669"/>
<circle cx="396.51" cy="293.19" r="0.70" fill="#059669"/>
<circle cx="399.18" cy="289.84" r="0.70" fill="#059669"/>
<circle cx="401.86" cy="286.49" r="0.70" fill="#059669"/>
<circle cx="404.54" cy="283.14" r="0.70" fill="#059669"/>
<circle cx="405.88" cy="279.79" r="0.70" fill="#059669"/>
<circle cx="408.55" cy="276.44" r="0.70" fill="#059669"/>
<circle cx="412.57" cy="273.09" r="0.70" fill="#059669"/>
<circle cx="415.25" cy="269.74" r="0.70" fill="#059669"/>
<circle cx="417.92" cy="266.39" r="0.70" fill="#059669"/>
<circle cx="420.60" cy="263.04" r="0.70" fill="#059669"/>
<circle cx="423.28" cy="334.02" r="0.70" fill="#059669"/>
<circle cx="425.95" cy="330.67" r="0.70" fill="#059669"/>
<circle cx="428.63" cy="327.32" r="0.70" fill="#059669"/>
<circle cx="429.97" cy="323.97" r="0.70" fill="#059669"/>
<circle cx="432.65" cy="320.62" r="0.70" fill="#059669"/>
<circle cx="435.32" cy="317.27" r="0.70" fill="#059669"/>
<circle cx="438.00" cy="313.92" r="0.70" fill="#059669"/>
<circle cx="440.68" cy="310.57" r="0.70" fill="#059669"/>
<circle cx="442.02" cy="307.22" r="0.70" fill="#059669"/>
<circle cx="444.69" cy="303.87" r="0.70" fill="#059669"/>
<circle cx="447.37" cy="300.52" r="0.70" fill="#059669"/>
<circle cx="448.71" cy="297.17" r="0.70" fill="#059669"/>
<circle cx="451.38" cy="293.82" r="0.70" fill="#059669"/>
<circle cx="454.06" cy="290.47" r="0.70" fill="#059669"/>
<circle cx="456.74" cy="287.12" r="0.70" fill="#059669"/>
<circle cx="459.42" cy="283.77" r="0.70" fill="#059669"/>
<circle cx="463.43" cy="280.42" r="0.70" fill="#059669"/>
<circle cx="466.11" cy="277.07" r="0.70" fill="#059669"/>
<circle cx="468.78" cy="273.72" r="0.70" fill="#059669"/>
<circle cx="471.46" cy="270.37" r="0.70" fill="#059669"/>
<circle cx="474.14" cy="337.69" r="0.70" fill="#059669"/>
<circle cx="476.82" cy="334.34" r="0.70" fill="#059669"/>
<circle cx="479.49" cy="330.99" r="0.70" fill="#059669"/>
<circle cx="482.17" cy="327.64" r="0.70" fill="#059669"/>
<circle cx="483.51" cy="324.29" r="0.70" fill="#059669"/>
<circle cx="486.18" cy="320.94" r="0.70" fill="#059669"/>
<circle cx="488.86" cy="317.59" r="0.70" fill="#059669"/>
<circle cx="490.20" cy="314.24" r="0.70" fill="#059669"/>
<circle cx="492.88" cy="310.89" r="0.70" fill="#059669"/>
<circle cx="495.55" cy="307.54" r="0.70" fill="#059669"/>
<circle cx="496.89" cy="304.19" r="0.70" fill="#059669"/>
<circle cx="499.57" cy="300.84" r="0.70" fill="#059669"/>
<circle cx="502.25" cy="297.49" r="0.70" fill="#059669"/>
<circle cx="504.92" cy="294.14" r="0.70" fill="#059669"/>
<circle cx="508.94" cy="290.79" r="0.70" fill="#059669"/>
<circle cx="511.62" cy="287.44" r="0.70" fill="#059669"/>
<circle cx="514.29" cy="284.09" r="0.70" fill="#059669"/>
<circle cx="516.97" cy="280.74" r="0.70" fill="#059669"/>
<circle cx="519.65" cy="277.39" r="0.70" fill="#059669"/>
<circle cx="522.32" cy="274.04" r="0.70" fill="#059669"/>
<circle cx="525.00" cy="270.69" r="0.70" fill="#059669"/>
<circle cx="527.68" cy="267.34" r="0.70" fill="#059669"/>
<circle cx="530.35" cy="336.17" r="0.70" fill="#059669"/>
<circle cx="534.37" cy="332.82" r="0.70" fill="#059669"/>
<circle cx="535.71" cy="329.47" r="0.70" fill="#059669"/>
<circle cx="538.38" cy="326.12" r="0.70" fill="#059669"/>
<circle cx="539.72" cy="322.77" r="0.70" fill="#059669"/>
<circle cx="542.40" cy="319.42" r="0.70" fill="#059669"/>
<circle cx="545.08" cy="316.07" r="0.70" fill="#059669"/>
<circle cx="546.42" cy="312.72" r="0.70" fill="#059669"/>
<circle cx="549.09" cy="309.37" r="0.70" fill="#059669"/>
<circle cx="551.77" cy="306.02" r="0.70" fill="#059669"/>
<circle cx="554.45" cy="302.67" r="0.70" fill="#059669"/>
<circle cx="557.12" cy="299.32" r="0.70" fill="#059669"/>
<circle cx="559.80" cy="295.97" r="0.70" fill="#059669"/>
<circle cx="562.48" cy="292.62" r="0.70" fill="#059669"/>
<circle cx="565.15" cy="289.27" r="0.70" fill="#059669"/>
<circle cx="567.83" cy="285.92" r="0.70" fill="#059669"/>
<circle cx="570.51" cy="282.57" r="0.70" fill="#059669"/>
<circle cx="573.18" cy="279.22" r="0.70" fill="#059669"/>
<circle cx="575.86" cy="275.87" r="0.70" fill="#059669"/>
<circle cx="578.54" cy="272.52" r="0.70" fill="#059669"/>
<circle cx="581.22" cy="269.17" r="0.70" fill="#059669"/>
<circle cx="583.89" cy="337.08" r="0.70" fill="#059669"/>
<circle cx="586.57" cy="333.73" r="0.70" fill="#059669"/>
<circle cx="589.25" cy="330.38" r="0.70" fill="#059669"/>
<circle cx="590.58" cy="327.03" r="0.70" fill="#059669"/>
<circle cx="593.26" cy="323.68" r="0.70" fill="#059669"/>
<circle cx="594.60" cy="320.33" r="0.70" fill="#059669"/>
<circle cx="597.28" cy="316.98" r="0.70" fill="#059669"/>
<circle cx="598.62" cy="313.63" r="0.70" fill="#059669"/>
<circle cx="601.29" cy="310.28" r="0.70" fill="#059669"/>
<circle cx="603.97" cy="306.93" r="0.70" fill="#059669"/>
<circle cx="606.65" cy="303.58" r="0.70" fill="#059669"/>
<circle cx="609.32" cy="300.23" r="0.70" fill="#059669"/>
<circle cx="612.00" cy="296.88" r="0.70" fill="#059669"/>
<circle cx="614.68" cy="293.53" r="0.70" fill="#059669"/>
<circle cx="617.35" cy="290.18" r="0.70" fill="#059669"/>
<circle cx="620.03" cy="286.83" r="0.70" fill="#059669"/>
<circle cx="622.71" cy="283.48" r="0.70" fill="#059669"/>
<circle cx="625.38" cy="280.13" r="0.70" fill="#059669"/>
<circle cx="628.06" cy="276.78" r="0.70" fill="#059669"/>
<circle cx="630.74" cy="273.43" r="0.70" fill="#059669"/>
<circle cx="633.42" cy="270.08" r="0.70" fill="#059669"/>
<circle cx="636.09" cy="266.73" r="0.70" fill="#059669"/>
<circle cx="638.77" cy="335.87" r="0.70" fill="#059669"/>
<circle cx="641.45" cy="332.52" r="0.70" fill="#059669"/>
<circle cx="644.12" cy="329.17" r="0.70" fill="#059669"/>
<circle cx="646.80" cy="325.82" r="0.70" fill="#059669"/>
<circle cx="649.48" cy="322.47" r="0.70" fill="#059669"/>
<circle cx="652.15" cy="319.12" r="0.70" fill="#059669"/>
<circle cx="653.49" cy="315.77" r="0.70" fill="#059669"/>
<circle cx="656.17" cy="312.42" r="0.70" fill="#059669"/>
<circle cx="658.85" cy="309.07" r="0.70" fill="#059669"/>
<circle cx="661.52" cy="305.72" r="0.70" fill="#059669"/>
<circle cx="664.20" cy="302.37" r="0.70" fill="#059669"/>
<circle cx="666.88" cy="299.02" r="0.70" fill="#059669"/>
<circle cx="669.55" cy="295.67" r="0.70" fill="#059669"/>
<circle cx="672.23" cy="292.32" r="0.70" fill="#059669"/>
<circle cx="674.91" cy="288.97" r="0.70" fill="#059669"/>
<circle cx="677.58" cy="285.62" r="0.70" fill="#059669"/>
<circle cx="680.26" cy="282.27" r="0.70" fill="#059669"/>
<circle cx="682.94" cy="278.92" r="0.70" fill="#059669"/>
<circle cx="685.62" cy="275.57" r="0.70" fill="#059669"/>
<circle cx="688.29" cy="272.22" r="0.70" fill="#059669"/>
<circle cx="689.63" cy="338.61" r="0.70" fill="#059669"/>
<circle cx="693.65" cy="335.26" r="0.70" fill="#059669"/>
<circle cx="696.32" cy="331.91" r="0.70" fill="#059669"/>
<circle cx="699.00" cy="328.56" r="0.70" fill="#059669"/>
<circle cx="700.34" cy="325.21" r="0.70" fill="#059669"/>
<circle cx="703.02" cy="321.86" r="0.70" fill="#059669"/>
<circle cx="705.69" cy="318.51" r="0.70" fill="#059669"/>
<circle cx="708.37" cy="315.16" r="0.70" fill="#059669"/>
<circle cx="711.05" cy="311.81" r="0.70" fill="#059669"/>
<circle cx="712.38" cy="308.46" r="0.70" fill="#059669"/>
<circle cx="715.06" cy="305.11" r="0.70" fill="#059669"/>
<circle cx="717.74" cy="301.76" r="0.70" fill="#059669"/>
<circle cx="720.42" cy="298.41" r="0.70" fill="#059669"/>
<circle cx="723.09" cy="295.06" r="0.70" fill="#059669"/>
<circle cx="725.77" cy="291.71" r="0.70" fill="#059669"/>
<circle cx="728.45" cy="288.36" r="0.70" fill="#059669"/>
<circle cx="731.12" cy="285.01" r="0.70" fill="#059669"/>
<circle cx="733.80" cy="281.66" r="0.70" fill="#059669"/>
<circle cx="736.48" cy="278.31" r="0.70" fill="#059669"/>
<circle cx="739.15" cy="274.96" r="0.70" fill="#059669"/>
<circle cx="743.17" cy="271.61" r="0.70" fill="#059669"/>
<circle cx="745.85" cy="338.30" r="0.70" fill="#059669"/>
<circle cx="748.52" cy="334.95" r="0.70" fill="#059669"/>
<circle cx="751.20" cy="331.60" r="0.70" fill="#059669"/>
<circle cx="753.88" cy="328.25" r="0.70" fill="#059669"/>
<circle cx="755.22" cy="324.90" r="0.70" fill="#059669"/>
<circle cx="757.89" cy="321.55" r="0.70" fill="#059669"/>
<circle cx="760.57" cy="318.20" r="0.70" fill="#059669"/>
<circle cx="763.25" cy="314.85" r="0.70" fill="#059669"/>
<circle cx="764.58" cy="311.50" r="0.70" fill="#059669"/>
<circle cx="767.26" cy="308.15" r="0.70" fill="#059669"/>
<circle cx="769.94" cy="304.80" r="0.70" fill="#059669"/>
<circle cx="772.62" cy="301.45" r="0.70" fill="#059669"/>
<circle cx="773.95" cy="298.10" r="0.70" fill="#059669"/>
<circle cx="776.63" cy="294.75" r="0.70" fill="#059669"/>
<circle cx="779.31" cy="291.40" r="0.70" fill="#059669"/>
<circle cx="781.98" cy="288.05" r="0.70" fill="#059669"/>
<circle cx="784.66" cy="284.70" r="0.70" fill="#059669"/>
<circle cx="786.00" cy="281.35" r="0.70" fill="#059669"/>
<circle cx="790.02" cy="278.00" r="0.70" fill="#059669"/>
<circle cx="792.69" cy="274.65" r="0.70" fill="#059669"/>
<circle cx="795.37" cy="271.30" r="0.70" fill="#059669"/>
<circle cx="798.05" cy="267.95" r="0.70" fill="#059669"/>
<circle cx="802.06" cy="264.60" r="0.70" fill="#059669"/>
<circle cx="804.74" cy="334.80" r="0.70" fill="#059669"/>
<circle cx="808.75" cy="331.45" r="0.70" fill="#059669"/>
<circle cx="810.09" cy="328.10" r="0.70" fill="#059669"/>
<circle cx="812.77" cy="324.75" r="0.70" fill="#059669"/>
<circle cx="815.45" cy="321.40" r="0.70" fill="#059669"/>
<circle cx="816.78" cy="318.05" r="0.70" fill="#059669"/>
<circle cx="819.46" cy="314.70" r="0.70" fill="#059669"/>
<circle cx="822.14" cy="311.35" r="0.70" fill="#059669"/>
<circle cx="823.48" cy="308.00" r="0.70" fill="#059669"/>
<circle cx="826.15" cy="304.65" r="0.70" fill="#059669"/>
<circle cx="830.17" cy="301.30" r="0.70" fill="#059669"/>
<circle cx="832.85" cy="297.95" r="0.70" fill="#059669"/>
<circle cx="835.52" cy="294.60" r="0.70" fill="#059669"/>
<circle cx="838.20" cy="291.25" r="0.70" fill="#059669"/>
<circle cx="840.88" cy="287.90" r="0.70" fill="#059669"/>
<circle cx="843.55" cy="284.55" r="0.70" fill="#059669"/>
<circle cx="846.23" cy="281.20" r="0.70" fill="#059669"/>
<circle cx="848.91" cy="277.85" r="0.70" fill="#059669"/>
<circle cx="851.58" cy="274.50" r="0.70" fill="#059669"/>
<circle cx="854.26" cy="271.15" r="0.70" fill="#059669"/>
<circle cx="856.94" cy="338.08" r="0.70" fill="#059669"/>
<circle cx="859.62" cy="334.73" r="0.70" fill="#059669"/>
<circle cx="862.29" cy="331.38" r="0.70" fill="#059669"/>
<circle cx="864.97" cy="328.03" r="0.70" fill="#059669"/>
<circle cx="866.31" cy="324.68" r="0.70" fill="#059669"/>
<circle cx="868.98" cy="321.33" r="0.70" fill="#059669"/>
<circle cx="870.32" cy="317.98" r="0.70" fill="#059669"/>
<circle cx="873.00" cy="314.63" r="0.70" fill="#059669"/>
<circle cx="875.68" cy="311.28" r="0.70" fill="#059669"/>
<circle cx="878.35" cy="307.93" r="0.70" fill="#059669"/>
<circle cx="879.69" cy="304.58" r="0.70" fill="#059669"/>
<circle cx="882.37" cy="301.23" r="0.70" fill="#059669"/>
<circle cx="885.05" cy="297.88" r="0.70" fill="#059669"/>
<circle cx="889.06" cy="294.53" r="0.70" fill="#059669"/>
<circle cx="891.74" cy="291.18" r="0.70" fill="#059669"/>
<circle cx="894.42" cy="287.83" r="0.70" fill="#059669"/>
<circle cx="897.09" cy="284.48" r="0.70" fill="#059669"/>
<circle cx="899.77" cy="281.13" r="0.70" fill="#059669"/>
<circle cx="902.45" cy="277.78" r="0.70" fill="#059669"/>
<circle cx="905.12" cy="274.43" r="0.70" fill="#059669"/>
<circle cx="907.80" cy="271.08" r="0.70" fill="#059669"/>
<circle cx="910.48" cy="338.04" r="0.70" fill="#059669"/>
<circle cx="913.15" cy="334.69" r="0.70" fill="#059669"/>
<circle cx="914.49" cy="331.34" r="0.70" fill="#059669"/>
<circle cx="917.17" cy="327.99" r="0.70" fill="#059669"/>
<circle cx="919.85" cy="324.64" r="0.70" fill="#059669"/>
<circle cx="921.18" cy="321.29" r="0.70" fill="#059669"/>
<circle cx="923.86" cy="317.94" r="0.70" fill="#059669"/>
<circle cx="926.54" cy="314.59" r="0.70" fill="#059669"/>
<circle cx="929.22" cy="311.24" r="0.70" fill="#059669"/>
<circle cx="931.89" cy="307.89" r="0.70" fill="#059669"/>
<circle cx="934.57" cy="304.54" r="0.70" fill="#059669"/>
<circle cx="937.25" cy="301.19" r="0.70" fill="#059669"/>
<circle cx="939.92" cy="297.84" r="0.70" fill="#059669"/>
<circle cx="942.60" cy="294.49" r="0.70" fill="#059669"/>
<circle cx="945.28" cy="291.14" r="0.70" fill="#059669"/>
<circle cx="947.95" cy="287.79" r="0.70" fill="#059669"/>
<circle cx="950.63" cy="284.44" r="0.70" fill="#059669"/>
<circle cx="953.31" cy="281.09" r="0.70" fill="#059669"/>
<circle cx="955.98" cy="277.74" r="0.70" fill="#059669"/>
<circle cx="958.66" cy="274.39" r="0.70" fill="#059669"/>
<circle cx="961.34" cy="271.04" r="0.70" fill="#059669"/>
<circle cx="965.35" cy="338.02" r="0.70" fill="#059669"/>
<circle cx="968.03" cy="334.67" r="0.70" fill="#059669"/>
<circle cx="970.71" cy="331.32" r="0.70" fill="#059669"/>
<circle cx="973.38" cy="327.97" r="0.70" fill="#059669"/>
<circle cx="974.72" cy="324.62" r="0.70" fill="#059669"/>
<circle cx="977.40" cy="321.27" r="0.70" fill="#059669"/>
<circle cx="980.08" cy="317.92" r="0.70" fill="#059669"/>
<circle cx="982.75" cy="314.57" r="0.70" fill="#059669"/>
<circle cx="985.43" cy="311.22" r="0.70" fill="#059669"/>
<circle cx="986.77" cy="307.87" r="0.70" fill="#059669"/>
<circle cx="989.45" cy="304.52" r="0.70" fill="#059669"/>
<circle cx="992.12" cy="301.17" r="0.70" fill="#059669"/>
<circle cx="994.80" cy="297.82" r="0.70" fill="#059669"/>
<circle cx="997.48" cy="294.47" r="0.70" fill="#059669"/>
<circle cx="1000.15" cy="291.12" r="0.70" fill="#059669"/>
<circle cx="1002.83" cy="287.77" r="0.70" fill="#059669"/>
<circle cx="1005.51" cy="284.42" r="0.70" fill="#059669"/>
<circle cx="1006.85" cy="281.07" r="0.70" fill="#059669"/>
<circle cx="1010.86" cy="277.72" r="0.70" fill="#059669"/>
<circle cx="1013.54" cy="274.37" r="0.70" fill="#059669"/>
<circle cx="1017.55" cy="271.02" r="0.70" fill="#059669"/>
<circle cx="1020.23" cy="338.01" r="0.70" fill="#059669"/>
<circle cx="1022.91" cy="334.66" r="0.70" fill="#059669"/>
<circle cx="1025.58" cy="331.31" r="0.70" fill="#059669"/>
<circle cx="1028.26" cy="327.96" r="0.70" fill="#059669"/>
<circle cx="1029.60" cy="324.61" r="0.70" fill="#059669"/>
<circle cx="1032.28" cy="321.26" r="0.70" fill="#059669"/>
<circle cx="1034.95" cy="317.91" r="0.70" fill="#059669"/>
<circle cx="1037.63" cy="314.56" r="0.70" fill="#059669"/>
<circle cx="1038.97" cy="311.21" r="0.70" fill="#059669"/>
<circle cx="1041.65" cy="307.86" r="0.70" fill="#059669"/>
<circle cx="1044.32" cy="304.51" r="0.70" fill="#059669"/>
<circle cx="1047.00" cy="301.16" r="0.70" fill="#059669"/>
<circle cx="1048.34" cy="297.81" r="0.70" fill="#059669"/>
<circle cx="1051.02" cy="294.46" r="0.70" fill="#059669"/>
<circle cx="1053.69" cy="291.11" r="0.70" fill="#059669"/>
<circle cx="1056.37" cy="287.76" r="0.70" fill="#059669"/>
<circle cx="1060.38" cy="284.41" r="0.70" fill="#059669"/>
<circle cx="1063.06" cy="281.06" r="0.70" fill="#059669"/>
<circle cx="1065.74" cy="277.71" r="0.70" fill="#059669"/>
<circle cx="1068.42" cy="274.36" r="0.70" fill="#059669"/>
<circle cx="1072.43" cy="271.01" r="0.70" fill="#059669"/>
<circle cx="1075.11" cy="338.00" r="0.70" fill="#059669"/>
<rect x="740" y="100" width="14" height="14" fill="#059669"/>
<text x="762" y="112" font-family="Arial, sans-serif" font-size="12" fill="#1f2937">ubuntu]</text>
<text x="90.00" y="423" text-anchor="middle" font-family="Arial, sans-serif" font-size="11" fill="#4b5563">0,00</text>
<text x="264.00" y="423" text-anchor="middle" font-family="Arial, sans-serif" font-size="11" fill="#4b5563">130,0</text>
<text x="438.00" y="423" text-anchor="middle" font-family="Arial, sans-serif" font-size="11" fill="#4b5563">260,0</text>
<text x="612.00" y="423" text-anchor="middle" font-family="Arial, sans-serif" font-size="11" fill="#4b5563">390,0</text>
<text x="786.00" y="423" text-anchor="middle" font-family="Arial, sans-serif" font-size="11" fill="#4b5563">520,0</text>
<text x="960.00" y="423" text-anchor="middle" font-family="Arial, sans-serif" font-size="11" fill="#4b5563">650,0</text>
</svg>
