<svg xmlns="http://www.w3.org/2000/svg" width="1000" height="520" viewBox="0 0 1000 520">
<rect width="100%" height="100%" fill="#ffffff"/>
<text x="500.0" y="34" text-anchor="middle" font-family="Arial, sans-serif" font-size="24" font-weight="700" fill="#1f2937">Evolução da janela adaptativa - execução 1</text>
<line x1="90" y1="70" x2="90" y2="405" stroke="#374151" stroke-width="1.5"/>
<line x1="90" y1="405" x2="960" y2="405" stroke="#374151" stroke-width="1.5"/>
<line x1="90" y1="405.00" x2="960" y2="405.00" stroke="#e5e7eb" stroke-width="1"/>
<text x="80" y="409.00" text-anchor="end" font-family="Arial, sans-serif" font-size="12" fill="#4b5563">0,00</text>
<line x1="90" y1="338.00" x2="960" y2="338.00" stroke="#e5e7eb" stroke-width="1"/>
<text x="80" y="342.00" text-anchor="end" font-family="Arial, sans-serif" font-size="12" fill="#4b5563">20,0</text>
<line x1="90" y1="271.00" x2="960" y2="271.00" stroke="#e5e7eb" stroke-width="1"/>
<text x="80" y="275.00" text-anchor="end" font-family="Arial, sans-serif" font-size="12" fill="#4b5563">40,0</text>
<line x1="90" y1="204.00" x2="960" y2="204.00" stroke="#e5e7eb" stroke-width="1"/>
<text x="80" y="208.00" text-anchor="end" font-family="Arial, sans-serif" font-size="12" fill="#4b5563">60,0</text>
<line x1="90" y1="137.00" x2="960" y2="137.00" stroke="#e5e7eb" stroke-width="1"/>
<text x="80" y="141.00" text-anchor="end" font-family="Arial, sans-serif" font-size="12" fill="#4b5563">80,0</text>
<line x1="90" y1="70.00" x2="960" y2="70.00" stroke="#e5e7eb" stroke-width="1"/>
<text x="80" y="74.00" text-anchor="end" font-family="Arial, sans-serif" font-size="12" fill="#4b5563">100,0</text>
<text x="500.0" y="502" text-anchor="middle" font-family="Arial, sans-serif" font-size="14" fill="#1f2937">Tarefa</text>
<text x="18" y="237.5" text-anchor="middle" font-family="Arial, sans-serif" font-size="14" fill="#1f2937" transform="rotate(-90 18 237.5)">Janela após ajuste</text>
<polyline points="92.68,394.95 94.02,391.60 95.35,388.25 96.69,384.90 98.03,381.55 99.37,378.20 100.71,374.85 102.05,371.50 103.38,368.15 104.72,364.80 106.06,361.45 107.40,358.10 108.74,354.75 110.08,351.40 111.42,348.05 112.75,344.70 114.09,341.35 115.43,338.00 116.77,334.65 119.45,331.30 127.48,327.95 132.83,324.60 139.52,321.25 143.54,317.90 147.55,314.55 151.57,311.20 154.25,307.85 159.60,304.50 163.62,301.15 167.63,297.80 171.65,294.45 175.66,291.10 178.34,287.75 182.35,284.40 186.37,344.70 189.05,341.35 191.72,338.00 194.40,334.65 198.42,331.30 201.09,327.95 203.77,324.60 206.45,321.25 209.12,317.90 211.80,314.55 214.48,311.20 217.15,307.85 219.83,304.50 222.51,301.15 225.18,297.80 229.20,294.45 231.88,291.10 234.55,287.75 237.23,346.38 239.91,343.02 242.58,339.68 245.26,336.32 247.94,332.98 249.28,329.62 251.95,326.27 254.63,322.93 257.31,319.57 259.98,316.23 262.66,312.88 265.34,309.52 268.02,306.18 270.69,302.82 273.37,299.48 276.05,296.12 278.72,292.77 281.40,348.89 284.08,345.54 286.75,342.19 289.43,338.84 292.11,335.49 294.78,332.14 297.46,328.79 301.48,325.44 304.15,322.09 306.83,318.74 310.85,315.39 313.52,312.04 316.20,308.69 318.88,305.34 321.55,301.99 324.23,298.64 328.25,295.29 330.92,291.94 333.60,348.47 336.28,345.12 337.62,341.77 340.29,338.42 342.97,335.07 345.65,331.72 348.32,328.37 351.00,325.02 355.02,321.67 357.69,318.32 360.37,314.97 363.05,311.62 367.06,308.27 369.74,304.92 372.42,354.96 376.43,351.61 379.11,348.26 380.45,344.91 383.12,341.56 385.80,338.21 388.48,334.86 391.15,331.51 393.83,328.16 396.51,324.81 399.18,321.46 400.52,318.11 403.20,314.76 405.88,311.41 408.55,308.06 412.57,304.71 416.58,301.36 419.26,298.01 421.94,351.50 425.95,348.15 428.63,344.80 431.31,341.45 433.98,338.10 436.66,334.75 439.34,331.40 442.02,328.05 444.69,324.70 447.37,364.85 450.05,361.50 452.72,358.15 455.40,354.80 456.74,351.45 460.75,348.10 463.43,344.75 467.45,341.40 470.12,338.05 472.80,334.70 475.48,331.35 479.49,328.00 482.17,324.65 484.85,321.30 487.52,363.15 491.54,359.80 494.22,356.45 495.55,353.10 498.23,349.75 500.91,346.40 503.58,343.05 506.26,339.70 508.94,336.35 510.28,333.00 512.95,329.65 516.97,326.30 520.98,322.95 523.66,319.60 527.68,362.30 530.35,358.95 533.03,355.60 535.71,352.25 538.38,348.90 541.06,345.55 543.74,342.20 546.42,338.85 549.09,335.50 550.43,332.15 553.11,328.80 555.78,325.45 558.46,322.10 561.14,318.75 563.82,315.40 567.83,360.20 571.85,356.85 574.52,353.50 577.20,350.15 579.88,346.80 582.55,343.45 585.23,340.10 589.25,336.75 591.92,333.40 594.60,330.05 597.28,326.70 599.95,323.35 602.63,320.00 605.31,316.65 607.98,313.30 610.66,359.15 613.34,355.80 616.02,352.45 618.69,349.10 621.37,345.75 625.38,342.40 629.40,339.05 632.08,335.70 634.75,332.35 638.77,329.00 641.45,325.65 644.12,322.30 648.14,318.95 650.82,315.60 653.49,360.30 656.17,356.95 658.85,353.60 661.52,350.25 662.86,346.90 665.54,343.55 668.22,340.20 670.89,336.85 674.91,333.50 677.58,330.15 681.60,326.80 684.28,323.45 688.29,320.10 690.97,316.75 693.65,360.88 696.32,357.53 699.00,354.18 701.68,350.83 704.35,347.48 707.03,344.13 709.71,340.78 712.38,337.43 715.06,334.08 717.74,330.73 720.42,327.38 723.09,324.03 727.11,320.68 729.78,362.84 733.80,359.49 736.48,356.14 739.15,352.79 741.83,349.44 744.51,346.09 747.18,342.74 749.86,339.39 753.88,336.04 756.55,332.69 757.89,329.34 760.57,325.99 763.25,322.64 765.92,319.29 768.60,315.94 771.28,312.59 773.95,309.24 776.63,305.89 780.65,302.54 783.32,353.77 787.34,350.42 790.02,347.07 792.69,343.72 795.37,340.37 798.05,337.02 800.72,333.67 803.40,330.32 806.08,326.97 808.75,323.62 811.43,320.27 814.11,316.92 816.78,313.57 819.46,310.22 822.14,306.87 824.82,355.93 827.49,352.58 830.17,349.23 832.85,345.88 835.52,342.53 839.54,339.18 842.22,335.83 844.89,332.48 848.91,329.13 851.58,325.78 854.26,322.43 856.94,319.08 859.62,315.73 862.29,312.38 864.97,309.03 867.65,305.68 870.32,302.33 873.00,353.67 875.68,350.32 878.35,346.97 881.03,343.62 883.71,340.27 885.05,336.92 887.72,333.57 891.74,330.22 894.42,326.87 897.09,323.52 901.11,320.17 903.78,316.82 906.46,313.47 910.48,310.12 913.15,306.77 915.83,303.42 918.51,354.21 921.18,350.86 923.86,347.51 926.54,344.16 929.22,340.81 931.89,337.46 933.23,334.11 935.91,330.76 938.58,327.41 941.26,324.06 943.94,320.71 947.95,317.36 950.63,314.01 953.31,310.66 957.32,307.31 960.00,303.96 962.68,354.48 966.69,351.13 968.03,347.78 970.71,344.43 973.38,341.08 976.06,337.73 978.74,334.38 980.08,331.03 982.75,327.68 985.43,324.33 988.11,320.98 990.78,317.63 993.46,314.28 996.14,310.93 998.82,307.58 1002.83,304.23 1006.85,300.88 1009.52,297.53 1012.20,294.18 1016.22,349.59 1018.89,346.24 1021.57,342.89 1024.25,339.54 1026.92,336.19 1029.60,332.84 1032.28,329.49 1033.62,326.14 1036.29,322.79 1038.97,319.44 1041.65,316.09 1044.32,312.74 1047.00,309.39 1051.02,306.04 1053.69,355.52 1057.71,352.17 1060.38,348.82 1063.06,345.47 1065.74,342.12 1068.42,338.77 1071.09,335.42 1073.77,332.07 1075.11,328.72 1077.78,325.37 1080.46,322.02 1083.14,318.67 1085.82,315.32 1089.83,311.97 1093.85,308.62 1096.52,305.27 1100.54,301.92" fill="none" stroke="#2563eb" stroke-width="0.3"/>
<circle cx="92.68" cy="394.95" r="0.70" fill="#2563eb"/>
<circle cx="94.02" cy="391.60" r="0.70" fill="#2563eb"/>
<circle cx="95.35" cy="388.25" r="0.70" fill="#2563eb"/>
<circle cx="96.69" cy="384.90" r="0.70" fill="#2563eb"/>
<circle cx="98.03" cy="381.55" r="0.70" fill="#2563eb"/>
<circle cx="99.37" cy="378.20" r="0.70" fill="#2563eb"/>
<circle cx="100.71" cy="374.85" r="0.70" fill="#2563eb"/>
<circle cx="102.05" cy="371.50" r="0.70" fill="#2563eb"/>
<circle cx="103.38" cy="368.15" r="0.70" fill="#2563eb"/>
<circle cx="104.72" cy="364.80" r="0.70" fill="#2563eb"/>
<circle cx="106.06" cy="361.45" r="0.70" fill="#2563eb"/>
<circle cx="107.40" cy="358.10" r="0.70" fill="#2563eb"/>
<circle cx="108.74" cy="354.75" r="0.70" fill="#2563eb"/>
<circle cx="110.08" cy="351.40" r="0.70" fill="#2563eb"/>
<circle cx="111.42" cy="348.05" r="0.70" fill="#2563eb"/>
<circle cx="112.75" cy="344.70" r="0.70" fill="#2563eb"/>
<circle cx="114.09" cy="341.35" r="0.70" fill="#2563eb"/>
<circle cx="115.43" cy="338.00" r="0.70" fill="#2563eb"/>
<circle cx="116.77" cy="334.65" r="0.70" fill="#2563eb"/>
<circle cx="119.45" cy="331.30" r="0.70" fill="#2563eb"/>
<circle cx="127.48" cy="327.95" r="0.70" fill="#2563eb"/>
<circle cx="132.83" cy="324.60" r="0.70" fill="#2563eb"/>
<circle cx="139.52" cy="321.25" r="0.70" fill="#2563eb"/>
<circle cx="143.54" cy="317.90" r="0.70" fill="#2563eb"/>
<circle cx="147.55" cy="314.55" r="0.70" fill="#2563eb"/>
<circle cx="151.57" cy="311.20" r="0.70" fill="#2563eb"/>
<circle cx="154.25" cy="307.85" r="0.70" fill="#2563eb"/>
<circle cx="159.60" cy="304.50" r="0.70" fill="#2563eb"/>
<circle cx="163.62" cy="301.15" r="0.70" fill="#2563eb"/>
<circle cx="167.63" cy="297.80" r="0.70" fill="#2563eb"/>
<circle cx="171.65" cy="294.45" r="0.70" fill="#2563eb"/>
<circle cx="175.66" cy="291.10" r="0.70" fill="#2563eb"/>
<circle cx="178.34" cy="287.75" r="0.70" fill="#2563eb"/>
<circle cx="182.35" cy="284.40" r="0.70" fill="#2563eb"/>
<circle cx="186.37" cy="344.70" r="0.70" fill="#2563eb"/>
<circle cx="189.05" cy="341.35" r="0.70" fill="#2563eb"/>
<circle cx="191.72" cy="338.00" r="0.70" fill="#2563eb"/>
<circle cx="194.40" cy="334.65" r="0.70" fill="#2563eb"/>
<circle cx="198.42" cy="331.30" r="0.70" fill="#2563eb"/>
<circle cx="201.09" cy="327.95" r="0.70" fill="#2563eb"/>
<circle cx="203.77" cy="324.60" r="0.70" fill="#2563eb"/>
<circle cx="206.45" cy="321.25" r="0.70" fill="#2563eb"/>
<circle cx="209.12" cy="317.90" r="0.70" fill="#2563eb"/>
<circle cx="211.80" cy="314.55" r="0.70" fill="#2563eb"/>
<circle cx="214.48" cy="311.20" r="0.70" fill="#2563eb"/>
<circle cx="217.15" cy="307.85" r="0.70" fill="#2563eb"/>
<circle cx="219.83" cy="304.50" r="0.70" fill="#2563eb"/>
<circle cx="222.51" cy="301.15" r="0.70" fill="#2563eb"/>
<circle cx="225.18" cy="297.80" r="0.70" fill="#2563eb"/>
<circle cx="229.20" cy="294.45" r="0.70" fill="#2563eb"/>
<circle cx="231.88" cy="291.10" r="0.70" fill="#2563eb"/>
<circle cx="234.55" cy="287.75" r="0.70" fill="#2563eb"/>
<circle cx="237.23" cy="346.38" r="0.70" fill="#2563eb"/>
<circle cx="239.91" cy="343.02" r="0.70" fill="#2563eb"/>
<circle cx="242.58" cy="339.68" r="0.70" fill="#2563eb"/>
<circle cx="245.26" cy="336.32" r="0.70" fill="#2563eb"/>
<circle cx="247.94" cy="332.98" r="0.70" fill="#2563eb"/>
<circle cx="249.28" cy="329.62" r="0.70" fill="#2563eb"/>
<circle cx="251.95" cy="326.27" r="0.70" fill="#2563eb"/>
<circle cx="254.63" cy="322.93" r="0.70" fill="#2563eb"/>
<circle cx="257.31" cy="319.57" r="0.70" fill="#2563eb"/>
<circle cx="259.98" cy="316.23" r="0.70" fill="#2563eb"/>
<circle cx="262.66" cy="312.88" r="0.70" fill="#2563eb"/>
<circle cx="265.34" cy="309.52" r="0.70" fill="#2563eb"/>
<circle cx="268.02" cy="306.18" r="0.70" fill="#2563eb"/>
<circle cx="270.69" cy="302.82" r="0.70" fill="#2563eb"/>
<circle cx="273.37" cy="299.48" r="0.70" fill="#2563eb"/>
<circle cx="276.05" cy="296.12" r="0.70" fill="#2563eb"/>
<circle cx="278.72" cy="292.77" r="0.70" fill="#2563eb"/>
<circle cx="281.40" cy="348.89" r="0.70" fill="#2563eb"/>
<circle cx="284.08" cy="345.54" r="0.70" fill="#2563eb"/>
<circle cx="286.75" cy="342.19" r="0.70" fill="#2563eb"/>
<circle cx="289.43" cy="338.84" r="0.70" fill="#2563eb"/>
<circle cx="292.11" cy="335.49" r="0.70" fill="#2563eb"/>
<circle cx="294.78" cy="332.14" r="0.70" fill="#2563eb"/>
<circle cx="297.46" cy="328.79" r="0.70" fill="#2563eb"/>
<circle cx="301.48" cy="325.44" r="0.70" fill="#2563eb"/>
<circle cx="304.15" cy="322.09" r="0.70" fill="#2563eb"/>
<circle cx="306.83" cy="318.74" r="0.70" fill="#2563eb"/>
<circle cx="310.85" cy="315.39" r="0.70" fill="#2563eb"/>
<circle cx="313.52" cy="312.04" r="0.70" fill="#2563eb"/>
<circle cx="316.20" cy="308.69" r="0.70" fill="#2563eb"/>
<circle cx="318.88" cy="305.34" r="0.70" fill="#2563eb"/>
<circle cx="321.55" cy="301.99" r="0.70" fill="#2563eb"/>
<circle cx="324.23" cy="298.64" r="0.70" fill="#2563eb"/>
<circle cx="328.25" cy="295.29" r="0.70" fill="#2563eb"/>
<circle cx="330.92" cy="291.94" r="0.70" fill="#2563eb"/>
<circle cx="333.60" cy="348.47" r="0.70" fill="#2563eb"/>
<circle cx="336.28" cy="345.12" r="0.70" fill="#2563eb"/>
<circle cx="337.62" cy="341.77" r="0.70" fill="#2563eb"/>
<circle cx="340.29" cy="338.42" r="0.70" fill="#2563eb"/>
<circle cx="342.97" cy="335.07" r="0.70" fill="#2563eb"/>
<circle cx="345.65" cy="331.72" r="0.70" fill="#2563eb"/>
<circle cx="348.32" cy="328.37" r="0.70" fill="#2563eb"/>
<circle cx="351.00" cy="325.02" r="0.70" fill="#2563eb"/>
<circle cx="355.02" cy="321.67" r="0.70" fill="#2563eb"/>
<circle cx="357.69" cy="318.32" r="0.70" fill="#2563eb"/>
<circle cx="360.37" cy="314.97" r="0.70" fill="#2563eb"/>
<circle cx="363.05" cy="311.62" r="0.70" fill="#2563eb"/>
<circle cx="367.06" cy="308.27" r="0.70" fill="#2563eb"/>
<circle cx="369.74" cy="304.92" r="0.70" fill="#2563eb"/>
<circle cx="372.42" cy="354.96" r="0.70" fill="#2563eb"/>
<circle cx="376.43" cy="351.61" r="0.70" fill="#2563eb"/>
<circle cx="379.11" cy="348.26" r="0.70" fill="#2563eb"/>
<circle cx="380.45" cy="344.91" r="0.70" fill="#2563eb"/>
<circle cx="383.12" cy="341.56" r="0.70" fill="#2563eb"/>
<circle cx="385.80" cy="338.21" r="0.70" fill="#2563eb"/>
<circle cx="388.48" cy="334.86" r="0.70" fill="#2563eb"/>
<circle cx="391.15" cy="331.51" r="0.70" fill="#2563eb"/>
<circle cx="393.83" cy="328.16" r="0.70" fill="#2563eb"/>
<circle cx="396.51" cy="324.81" r="0.70" fill="#2563eb"/>
<circle cx="399.18" cy="321.46" r="0.70" fill="#2563eb"/>
<circle cx="400.52" cy="318.11" r="0.70" fill="#2563eb"/>
<circle cx="403.20" cy="314.76" r="0.70" fill="#2563eb"/>
<circle cx="405.88" cy="311.41" r="0.70" fill="#2563eb"/>
<circle cx="408.55" cy="308.06" r="0.70" fill="#2563eb"/>
<circle cx="412.57" cy="304.71" r="0.70" fill="#2563eb"/>
<circle cx="416.58" cy="301.36" r="0.70" fill="#2563eb"/>
<circle cx="419.26" cy="298.01" r="0.70" fill="#2563eb"/>
<circle cx="421.94" cy="351.50" r="0.70" fill="#2563eb"/>
<circle cx="425.95" cy="348.15" r="0.70" fill="#2563eb"/>
<circle cx="428.63" cy="344.80" r="0.70" fill="#2563eb"/>
<circle cx="431.31" cy="341.45" r="0.70" fill="#2563eb"/>
<circle cx="433.98" cy="338.10" r="0.70" fill="#2563eb"/>
<circle cx="436.66" cy="334.75" r="0.70" fill="#2563eb"/>
<circle cx="439.34" cy="331.40" r="0.70" fill="#2563eb"/>
<circle cx="442.02" cy="328.05" r="0.70" fill="#2563eb"/>
<circle cx="444.69" cy="324.70" r="0.70" fill="#2563eb"/>
<circle cx="447.37" cy="364.85" r="0.70" fill="#2563eb"/>
<circle cx="450.05" cy="361.50" r="0.70" fill="#2563eb"/>
<circle cx="452.72" cy="358.15" r="0.70" fill="#2563eb"/>
<circle cx="455.40" cy="354.80" r="0.70" fill="#2563eb"/>
<circle cx="456.74" cy="351.45" r="0.70" fill="#2563eb"/>
<circle cx="460.75" cy="348.10" r="0.70" fill="#2563eb"/>
<circle cx="463.43" cy="344.75" r="0.70" fill="#2563eb"/>
<circle cx="467.45" cy="341.40" r="0.70" fill="#2563eb"/>
<circle cx="470.12" cy="338.05" r="0.70" fill="#2563eb"/>
<circle cx="472.80" cy="334.70" r="0.70" fill="#2563eb"/>
<circle cx="475.48" cy="331.35" r="0.70" fill="#2563eb"/>
<circle cx="479.49" cy="328.00" r="0.70" fill="#2563eb"/>
<circle cx="482.17" cy="324.65" r="0.70" fill="#2563eb"/>
<circle cx="484.85" cy="321.30" r="0.70" fill="#2563eb"/>
<circle cx="487.52" cy="363.15" r="0.70" fill="#2563eb"/>
<circle cx="491.54" cy="359.80" r="0.70" fill="#2563eb"/>
<circle cx="494.22" cy="356.45" r="0.70" fill="#2563eb"/>
<circle cx="495.55" cy="353.10" r="0.70" fill="#2563eb"/>
<circle cx="498.23" cy="349.75" r="0.70" fill="#2563eb"/>
<circle cx="500.91" cy="346.40" r="0.70" fill="#2563eb"/>
<circle cx="503.58" cy="343.05" r="0.70" fill="#2563eb"/>
<circle cx="506.26" cy="339.70" r="0.70" fill="#2563eb"/>
<circle cx="508.94" cy="336.35" r="0.70" fill="#2563eb"/>
<circle cx="510.28" cy="333.00" r="0.70" fill="#2563eb"/>
<circle cx="512.95" cy="329.65" r="0.70" fill="#2563eb"/>
<circle cx="516.97" cy="326.30" r="0.70" fill="#2563eb"/>
<circle cx="520.98" cy="322.95" r="0.70" fill="#2563eb"/>
<circle cx="523.66" cy="319.60" r="0.70" fill="#2563eb"/>
<circle cx="527.68" cy="362.30" r="0.70" fill="#2563eb"/>
<circle cx="530.35" cy="358.95" r="0.70" fill="#2563eb"/>
<circle cx="533.03" cy="355.60" r="0.70" fill="#2563eb"/>
<circle cx="535.71" cy="352.25" r="0.70" fill="#2563eb"/>
<circle cx="538.38" cy="348.90" r="0.70" fill="#2563eb"/>
<circle cx="541.06" cy="345.55" r="0.70" fill="#2563eb"/>
<circle cx="543.74" cy="342.20" r="0.70" fill="#2563eb"/>
<circle cx="546.42" cy="338.85" r="0.70" fill="#2563eb"/>
<circle cx="549.09" cy="335.50" r="0.70" fill="#2563eb"/>
<circle cx="550.43" cy="332.15" r="0.70" fill="#2563eb"/>
<circle cx="553.11" cy="328.80" r="0.70" fill="#2563eb"/>
<circle cx="555.78" cy="325.45" r="0.70" fill="#2563eb"/>
<circle cx="558.46" cy="322.10" r="0.70" fill="#2563eb"/>
<circle cx="561.14" cy="318.75" r="0.70" fill="#2563eb"/>
<circle cx="563.82" cy="315.40" r="0.70" fill="#2563eb"/>
<circle cx="567.83" cy="360.20" r="0.70" fill="#2563eb"/>
<circle cx="571.85" cy="356.85" r="0.70" fill="#2563eb"/>
<circle cx="574.52" cy="353.50" r="0.70" fill="#2563eb"/>
<circle cx="577.20" cy="350.15" r="0.70" fill="#2563eb"/>
<circle cx="579.88" cy="346.80" r="0.70" fill="#2563eb"/>
<circle cx="582.55" cy="343.45" r="0.70" fill="#2563eb"/>
<circle cx="585.23" cy="340.10" r="0.70" fill="#2563eb"/>
<circle cx="589.25" cy="336.75" r="0.70" fill="#2563eb"/>
<circle cx="591.92" cy="333.40" r="0.70" fill="#2563eb"/>
<circle cx="594.60" cy="330.05" r="0.70" fill="#2563eb"/>
<circle cx="597.28" cy="326.70" r="0.70" fill="#2563eb"/>
<circle cx="599.95" cy="323.35" r="0.70" fill="#2563eb"/>
<circle cx="602.63" cy="320.00" r="0.70" fill="#2563eb"/>
<circle cx="605.31" cy="316.65" r="0.70" fill="#2563eb"/>
<circle cx="607.98" cy="313.30" r="0.70" fill="#2563eb"/>
<circle cx="610.66" cy="359.15" r="0.70" fill="#2563eb"/>
<circle cx="613.34" cy="355.80" r="0.70" fill="#2563eb"/>
<circle cx="616.02" cy="352.45" r="0.70" fill="#2563eb"/>
<circle cx="618.69" cy="349.10" r="0.70" fill="#2563eb"/>
<circle cx="621.37" cy="345.75" r="0.70" fill="#2563eb"/>
<circle cx="625.38" cy="342.40" r="0.70" fill="#2563eb"/>
<circle cx="629.40" cy="339.05" r="0.70" fill="#2563eb"/>
<circle cx="632.08" cy="335.70" r="0.70" fill="#2563eb"/>
<circle cx="634.75" cy="332.35" r="0.70" fill="#2563eb"/>
<circle cx="638.77" cy="329.00" r="0.70" fill="#2563eb"/>
<circle cx="641.45" cy="325.65" r="0.70" fill="#2563eb"/>
<circle cx="644.12" cy="322.30" r="0.70" fill="#2563eb"/>
<circle cx="648.14" cy="318.95" r="0.70" fill="#2563eb"/>
<circle cx="650.82" cy="315.60" r="0.70" fill="#2563eb"/>
<circle cx="653.49" cy="360.30" r="0.70" fill="#2563eb"/>
<circle cx="656.17" cy="356.95" r="0.70" fill="#2563eb"/>
<circle cx="658.85" cy="353.60" r="0.70" fill="#2563eb"/>
<circle cx="661.52" cy="350.25" r="0.70" fill="#2563eb"/>
<circle cx="662.86" cy="346.90" r="0.70" fill="#2563eb"/>
<circle cx="665.54" cy="343.55" r="0.70" fill="#2563eb"/>
<circle cx="668.22" cy="340.20" r="0.70" fill="#2563eb"/>
<circle cx="670.89" cy="336.85" r="0.70" fill="#2563eb"/>
<circle cx="674.91" cy="333.50" r="0.70" fill="#2563eb"/>
<circle cx="677.58" cy="330.15" r="0.70" fill="#2563eb"/>
<circle cx="681.60" cy="326.80" r="0.70" fill="#2563eb"/>
<circle cx="684.28" cy="323.45" r="0.70" fill="#2563eb"/>
<circle cx="688.29" cy="320.10" r="0.70" fill="#2563eb"/>
<circle cx="690.97" cy="316.75" r="0.70" fill="#2563eb"/>
<circle cx="693.65" cy="360.88" r="0.70" fill="#2563eb"/>
<circle cx="696.32" cy="357.53" r="0.70" fill="#2563eb"/>
<circle cx="699.00" cy="354.18" r="0.70" fill="#2563eb"/>
<circle cx="701.68" cy="350.83" r="0.70" fill="#2563eb"/>
<circle cx="704.35" cy="347.48" r="0.70" fill="#2563eb"/>
<circle cx="707.03" cy="344.13" r="0.70" fill="#2563eb"/>
<circle cx="709.71" cy="340.78" r="0.70" fill="#2563eb"/>
<circle cx="712.38" cy="337.43" r="0.70" fill="#2563eb"/>
<circle cx="715.06" cy="334.08" r="0.70" fill="#2563eb"/>
<circle cx="717.74" cy="330.73" r="0.70" fill="#2563eb"/>
<circle cx="720.42" cy="327.38" r="0.70" fill="#2563eb"/>
<circle cx="723.09" cy="324.03" r="0.70" fill="#2563eb"/>
<circle cx="727.11" cy="320.68" r="0.70" fill="#2563eb"/>
<circle cx="729.78" cy="362.84" r="0.70" fill="#2563eb"/>
<circle cx="733.80" cy="359.49" r="0.70" fill="#2563eb"/>
<circle cx="736.48" cy="356.14" r="0.70" fill="#2563eb"/>
<circle cx="739.15" cy="352.79" r="0.70" fill="#2563eb"/>
<circle cx="741.83" cy="349.44" r="0.70" fill="#2563eb"/>
<circle cx="744.51" cy="346.09" r="0.70" fill="#2563eb"/>
<circle cx="747.18" cy="342.74" r="0.70" fill="#2563eb"/>
<circle cx="749.86" cy="339.39" r="0.70" fill="#2563eb"/>
<circle cx="753.88" cy="336.04" r="0.70" fill="#2563eb"/>
<circle cx="756.55" cy="332.69" r="0.70" fill="#2563eb"/>
<circle cx="757.89" cy="329.34" r="0.70" fill="#2563eb"/>
<circle cx="760.57" cy="325.99" r="0.70" fill="#2563eb"/>
<circle cx="763.25" cy="322.64" r="0.70" fill="#2563eb"/>
<circle cx="765.92" cy="319.29" r="0.70" fill="#2563eb"/>
<circle cx="768.60" cy="315.94" r="0.70" fill="#2563eb"/>
<circle cx="771.28" cy="312.59" r="0.70" fill="#2563eb"/>
<circle cx="773.95" cy="309.24" r="0.70" fill="#2563eb"/>
<circle cx="776.63" cy="305.89" r="0.70" fill="#2563eb"/>
<circle cx="780.65" cy="302.54" r="0.70" fill="#2563eb"/>
<circle cx="783.32" cy="353.77" r="0.70" fill="#2563eb"/>
<circle cx="787.34" cy="350.42" r="0.70" fill="#2563eb"/>
<circle cx="790.02" cy="347.07" r="0.70" fill="#2563eb"/>
<circle cx="792.69" cy="343.72" r="0.70" fill="#2563eb"/>
<circle cx="795.37" cy="340.37" r="0.70" fill="#2563eb"/>
<circle cx="798.05" cy="337.02" r="0.70" fill="#2563eb"/>
<circle cx="800.72" cy="333.67" r="0.70" fill="#2563eb"/>
<circle cx="803.40" cy="330.32" r="0.70" fill="#2563eb"/>
<circle cx="806.08" cy="326.97" r="0.70" fill="#2563eb"/>
<circle cx="808.75" cy="323.62" r="0.70" fill="#2563eb"/>
<circle cx="811.43" cy="320.27" r="0.70" fill="#2563eb"/>
<circle cx="814.11" cy="316.92" r="0.70" fill="#2563eb"/>
<circle cx="816.78" cy="313.57" r="0.70" fill="#2563eb"/>
<circle cx="819.46" cy="310.22" r="0.70" fill="#2563eb"/>
<circle cx="822.14" cy="306.87" r="0.70" fill="#2563eb"/>
<circle cx="824.82" cy="355.93" r="0.70" fill="#2563eb"/>
<circle cx="827.49" cy="352.58" r="0.70" fill="#2563eb"/>
<circle cx="830.17" cy="349.23" r="0.70" fill="#2563eb"/>
<circle cx="832.85" cy="345.88" r="0.70" fill="#2563eb"/>
<circle cx="835.52" cy="342.53" r="0.70" fill="#2563eb"/>
<circle cx="839.54" cy="339.18" r="0.70" fill="#2563eb"/>
<circle cx="842.22" cy="335.83" r="0.70" fill="#2563eb"/>
<circle cx="844.89" cy="332.48" r="0.70" fill="#2563eb"/>
<circle cx="848.91" cy="329.13" r="0.70" fill="#2563eb"/>
<circle cx="851.58" cy="325.78" r="0.70" fill="#2563eb"/>
<circle cx="854.26" cy="322.43" r="0.70" fill="#2563eb"/>
<circle cx="856.94" cy="319.08" r="0.70" fill="#2563eb"/>
<circle cx="859.62" cy="315.73" r="0.70" fill="#2563eb"/>
<circle cx="862.29" cy="312.38" r="0.70" fill="#2563eb"/>
<circle cx="864.97" cy="309.03" r="0.70" fill="#2563eb"/>
<circle cx="867.65" cy="305.68" r="0.70" fill="#2563eb"/>
<circle cx="870.32" cy="302.33" r="0.70" fill="#2563eb"/>
<circle cx="873.00" cy="353.67" r="0.70" fill="#2563eb"/>
<circle cx="875.68" cy="350.32" r="0.70" fill="#2563eb"/>
<circle cx="878.35" cy="346.97" r="0.70" fill="#2563eb"/>
<circle cx="881.03" cy="343.62" r="0.70" fill="#2563eb"/>
<circle cx="883.71" cy="340.27" r="0.70" fill="#2563eb"/>
<circle cx="885.05" cy="336.92" r="0.70" fill="#2563eb"/>
<circle cx="887.72" cy="333.57" r="0.70" fill="#2563eb"/>
<circle cx="891.74" cy="330.22" r="0.70" fill="#2563eb"/>
<circle cx="894.42" cy="326.87" r="0.70" fill="#2563eb"/>
<circle cx="897.09" cy="323.52" r="0.70" fill="#2563eb"/>
<circle cx="901.11" cy="320.17" r="0.70" fill="#2563eb"/>
<circle cx="903.78" cy="316.82" r="0.70" fill="#2563eb"/>
<circle cx="906.46" cy="313.47" r="0.70" fill="#2563eb"/>
<circle cx="910.48" cy="310.12" r="0.70" fill="#2563eb"/>
<circle cx="913.15" cy="306.77" r="0.70" fill="#2563eb"/>
<circle cx="915.83" cy="303.42" r="0.70" fill="#2563eb"/>
<circle cx="918.51" cy="354.21" r="0.70" fill="#2563eb"/>
<circle cx="921.18" cy="350.86" r="0.70" fill="#2563eb"/>
<circle cx="923.86" cy="347.51" r="0.70" fill="#2563eb"/>
<circle cx="926.54" cy="344.16" r="0.70" fill="#2563eb"/>
<circle cx="929.22" cy="340.81" r="0.70" fill="#2563eb"/>
<circle cx="931.89" cy="337.46" r="0.70" fill="#2563eb"/>
<circle cx="933.23" cy="334.11" r="0.70" fill="#2563eb"/>
<circle cx="935.91" cy="330.76" r="0.70" fill="#2563eb"/>
<circle cx="938.58" cy="327.41" r="0.70" fill="#2563eb"/>
<circle cx="941.26" cy="324.06" r="0.70" fill="#2563eb"/>
<circle cx="943.94" cy="320.71" r="0.70" fill="#2563eb"/>
<circle cx="947.95" cy="317.36" r="0.70" fill="#2563eb"/>
<circle cx="950.63" cy="314.01" r="0.70" fill="#2563eb"/>
<circle cx="953.31" cy="310.66" r="0.70" fill="#2563eb"/>
<circle cx="957.32" cy="307.31" r="0.70" fill="#2563eb"/>
<circle cx="960.00" cy="303.96" r="0.70" fill="#2563eb"/>
<circle cx="962.68" cy="354.48" r="0.70" fill="#2563eb"/>
<circle cx="966.69" cy="351.13" r="0.70" fill="#2563eb"/>
<circle cx="968.03" cy="347.78" r="0.70" fill="#2563eb"/>
<circle cx="970.71" cy="344.43" r="0.70" fill="#2563eb"/>
<circle cx="973.38" cy="341.08" r="0.70" fill="#2563eb"/>
<circle cx="976.06" cy="337.73" r="0.70" fill="#2563eb"/>
<circle cx="978.74" cy="334.38" r="0.70" fill="#2563eb"/>
<circle cx="980.08" cy="331.03" r="0.70" fill="#2563eb"/>
<circle cx="982.75" cy="327.68" r="0.70" fill="#2563eb"/>
<circle cx="985.43" cy="324.33" r="0.70" fill="#2563eb"/>
<circle cx="988.11" cy="320.98" r="0.70" fill="#2563eb"/>
<circle cx="990.78" cy="317.63" r="0.70" fill="#2563eb"/>
<circle cx="993.46" cy="314.28" r="0.70" fill="#2563eb"/>
<circle cx="996.14" cy="310.93" r="0.70" fill="#2563eb"/>
<circle cx="998.82" cy="307.58" r="0.70" fill="#2563eb"/>
<circle cx="1002.83" cy="304.23" r="0.70" fill="#2563eb"/>
<circle cx="1006.85" cy="300.88" r="0.70" fill="#2563eb"/>
<circle cx="1009.52" cy="297.53" r="0.70" fill="#2563eb"/>
<circle cx="1012.20" cy="294.18" r="0.70" fill="#2563eb"/>
<circle cx="1016.22" cy="349.59" r="0.70" fill="#2563eb"/>
<circle cx="1018.89" cy="346.24" r="0.70" fill="#2563eb"/>
<circle cx="1021.57" cy="342.89" r="0.70" fill="#2563eb"/>
<circle cx="1024.25" cy="339.54" r="0.70" fill="#2563eb"/>
<circle cx="1026.92" cy="336.19" r="0.70" fill="#2563eb"/>
<circle cx="1029.60" cy="332.84" r="0.70" fill="#2563eb"/>
<circle cx="1032.28" cy="329.49" r="0.70" fill="#2563eb"/>
<circle cx="1033.62" cy="326.14" r="0.70" fill="#2563eb"/>
<circle cx="1036.29" cy="322.79" r="0.70" fill="#2563eb"/>
<circle cx="1038.97" cy="319.44" r="0.70" fill="#2563eb"/>
<circle cx="1041.65" cy="316.09" r="0.70" fill="#2563eb"/>
<circle cx="1044.32" cy="312.74" r="0.70" fill="#2563eb"/>
<circle cx="1047.00" cy="309.39" r="0.70" fill="#2563eb"/>
<circle cx="1051.02" cy="306.04" r="0.70" fill="#2563eb"/>
<circle cx="1053.69" cy="355.52" r="0.70" fill="#2563eb"/>
<circle cx="1057.71" cy="352.17" r="0.70" fill="#2563eb"/>
<circle cx="1060.38" cy="348.82" r="0.70" fill="#2563eb"/>
<circle cx="1063.06" cy="345.47" r="0.70" fill="#2563eb"/>
<circle cx="1065.74" cy="342.12" r="0.70" fill="#2563eb"/>
<circle cx="1068.42" cy="338.77" r="0.70" fill="#2563eb"/>
<circle cx="1071.09" cy="335.42" r="0.70" fill="#2563eb"/>
<circle cx="1073.77" cy="332.07" r="0.70" fill="#2563eb"/>
<circle cx="1075.11" cy="328.72" r="0.70" fill="#2563eb"/>
<circle cx="1077.78" cy="325.37" r="0.70" fill="#2563eb"/>
<circle cx="1080.46" cy="322.02" r="0.70" fill="#2563eb"/>
<circle cx="1083.14" cy="318.67" r="0.70" fill="#2563eb"/>
<circle cx="1085.82" cy="315.32" r="0.70" fill="#2563eb"/>
<circle cx="1089.83" cy="311.97" r="0.70" fill="#2563eb"/>
<circle cx="1093.85" cy="308.62" r="0.70" fill="#2563eb"/>
<circle cx="1096.52" cy="305.27" r="0.70" fill="#2563eb"/>
<circle cx="1100.54" cy="301.92" r="0.70" fill="#2563eb"/>
<rect x="740" y="78" width="14" height="14" fill="#2563eb"/>
<text x="762" y="90" font-family="Arial, sans-serif" font-size="12" fill="#1f2937">cmf</text>
<polyline points="118.11,394.95 120.78,391.60 122.12,388.25 123.46,384.90 124.80,381.55 126.14,378.20 128.82,374.85 130.15,371.50 131.49,368.15 134.17,364.80 135.51,361.45 136.85,358.10 138.18,354.75 140.86,351.40 142.20,348.05 144.88,344.70 146.22,341.35 148.89,338.00 150.23,334.65 152.91,331.30 155.58,327.95 156.92,324.60 158.26,321.25 160.94,317.90 162.28,314.55 164.95,311.20 166.29,307.85 168.97,304.50 170.31,301.15 172.98,297.80 174.32,294.45 177.00,291.10 179.68,287.75 181.02,284.40 183.69,281.05 185.03,277.70 187.71,274.35 190.38,271.00 193.06,267.65 195.74,264.30 197.08,260.95 199.75,257.60 202.43,254.25 205.11,250.90 207.78,247.55 210.46,244.20 213.14,240.85 215.82,237.50 218.49,234.15 221.17,230.80 223.85,227.45 226.52,224.10 227.86,220.75 230.54,217.40 233.22,214.05 235.89,210.70 238.57,207.35 241.25,204.00 243.92,200.65 246.60,197.30 250.62,301.15 253.29,297.80 255.97,294.45 258.65,291.10 261.32,287.75 264.00,284.40 266.68,281.05 269.35,277.70 272.03,274.35 274.71,271.00 277.38,267.65 280.06,264.30 282.74,260.95 285.42,332.98 288.09,329.62 290.77,326.27 293.45,322.93 296.12,319.57 298.80,316.23 300.14,312.88 302.82,309.52 305.49,306.18 308.17,302.82 309.51,299.48 312.18,296.12 314.86,292.77 317.54,289.43 320.22,286.07 322.89,282.73 325.57,279.38 326.91,276.02 329.58,272.67 332.26,269.32 334.94,265.98 338.95,262.62 341.63,259.27 344.31,332.14 346.98,328.79 349.66,325.44 352.34,322.09 353.68,318.74 356.35,315.39 359.03,312.04 361.71,308.69 364.38,305.34 365.72,301.99 368.40,298.64 371.08,295.29 373.75,291.94 375.09,288.59 377.77,285.24 381.78,281.89 384.46,278.54 387.14,275.19 389.82,271.84 392.49,268.49 395.17,265.14 397.85,261.79 401.86,258.44 404.54,331.72 407.22,328.37 409.89,325.02 411.23,321.67 413.91,318.32 415.25,314.97 417.92,311.62 420.60,308.27 423.28,304.92 424.62,301.57 427.29,298.22 429.97,294.87 432.65,291.52 435.32,288.17 438.00,284.82 440.68,281.47 443.35,278.12 446.03,274.77 448.71,271.42 451.38,268.07 454.06,336.53 458.08,333.18 459.42,329.83 462.09,326.48 464.77,323.13 466.11,319.78 468.78,316.43 471.46,313.08 474.14,309.73 476.82,306.38 478.15,303.03 480.83,299.68 483.51,296.33 486.18,292.98 488.86,289.63 490.20,286.28 492.88,282.93 496.89,279.58 499.57,276.23 502.25,272.88 504.92,269.53 507.60,266.18 511.62,335.59 514.29,332.24 515.63,328.89 518.31,325.54 519.65,322.19 522.32,318.84 525.00,315.49 526.34,312.14 529.02,308.79 531.69,305.44 534.37,302.09 537.05,298.74 539.72,295.39 542.40,292.04 545.08,288.69 547.75,285.34 551.77,281.99 554.45,278.64 557.12,275.29 559.80,271.94 562.48,338.47 565.15,335.12 566.49,331.77 569.17,328.42 570.51,325.07 573.18,321.72 575.86,318.37 578.54,315.02 581.22,311.67 583.89,308.32 586.57,304.97 587.91,301.62 590.58,298.27 593.26,294.92 595.94,291.57 598.62,288.22 601.29,284.87 603.97,281.52 606.65,278.17 609.32,274.82 612.00,271.47 614.68,268.12 617.35,336.56 620.03,333.21 622.71,329.86 624.05,326.51 626.72,323.16 628.06,319.81 630.74,316.46 633.42,313.11 636.09,309.76 637.43,306.41 640.11,303.06 642.78,299.71 645.46,296.36 646.80,293.01 649.48,289.66 652.15,286.31 654.83,282.96 657.51,279.61 660.18,276.26 664.20,272.91 666.88,338.96 669.55,335.61 672.23,332.26 673.57,328.91 676.25,325.56 678.92,322.21 680.26,318.86 682.94,315.51 685.62,312.16 686.95,308.81 689.63,305.46 692.31,302.11 694.98,298.76 697.66,295.41 700.34,292.06 703.02,288.71 705.69,285.36 708.37,282.01 711.05,278.66 713.72,275.31 716.40,271.96 719.08,338.48 721.75,335.13 724.43,331.78 725.77,328.43 728.45,325.08 731.12,321.73 732.46,318.38 735.14,315.03 737.82,311.68 740.49,308.33 743.17,304.98 745.85,301.63 748.52,298.28 751.20,294.93 752.54,291.58 755.22,288.23 759.23,284.88 761.91,281.53 764.58,278.18 767.26,274.83 769.94,271.48 772.62,338.24 775.29,334.89 777.97,331.54 779.31,328.19 781.98,324.84 784.66,321.49 786.00,318.14 788.68,314.79 791.35,311.44 794.03,308.09 796.71,304.74 799.38,301.39 802.06,298.04 804.74,294.69 807.42,291.34 810.09,287.99 812.77,284.64 815.45,281.29 818.12,277.94 820.80,274.59 823.48,271.24 826.15,267.89 828.83,336.44 831.51,333.09 834.18,329.74 836.86,326.39 838.20,323.04 840.88,319.69 843.55,316.34 846.23,312.99 847.57,309.64 850.25,306.29 852.92,302.94 855.60,299.59 858.28,296.24 860.95,292.89 863.63,289.54 866.31,286.19 868.98,282.84 871.66,279.49 874.34,276.14 877.02,272.79 879.69,269.44 882.37,337.22 886.38,333.87 889.06,330.52 890.40,327.17 893.08,323.82 895.75,320.47 898.43,317.12 899.77,313.77 902.45,310.42 905.12,307.07 907.80,303.72 909.14,300.37 911.82,297.02 914.49,293.67 917.17,290.32 919.85,286.97 922.52,283.62 925.20,280.27 927.88,276.92 930.55,273.57 934.57,270.22 937.25,337.61 939.92,334.26 942.60,330.91 945.28,327.56 946.62,324.21 949.29,320.86 951.97,317.51 954.65,314.16 955.98,310.81 958.66,307.46 961.34,304.11 964.02,300.76 965.35,297.41 969.37,294.06 972.05,290.71 974.72,287.36 977.40,284.01 981.42,280.66 984.09,277.31 986.77,273.96 989.45,270.61 992.12,337.81 994.80,334.46 997.48,331.11 1000.15,327.76 1001.49,324.41 1004.17,321.06 1005.51,317.71 1008.18,314.36 1010.86,311.01 1013.54,307.66 1014.88,304.31 1017.55,300.96 1020.23,297.61 1022.91,294.26 1025.58,290.91 1028.26,287.56 1030.94,284.21 1034.95,280.86 1037.63,277.51 1040.31,274.16 1042.98,339.58 1045.66,336.23 1048.34,332.88 1049.68,329.53 1052.35,326.18 1055.03,322.83 1056.37,319.48 1059.05,316.13 1061.72,312.78 1064.40,309.43 1067.08,306.08 1069.75,302.73 1072.43,299.38 1076.45,296.03 1079.12,292.68 1081.80,348.84 1084.48,345.49 1087.15,342.14 1088.49,338.79 1091.17,335.44 1092.51,332.09 1095.18,328.74 1097.86,325.39 1099.20,322.04 1101.88,318.69" fill="none" stroke="#059669" stroke-width="0.3"/>
<circle cx="118.11" cy="394.95" r="0.70" fill="#059669"/>
<circle cx="120.78" cy="391.60" r="0.70" fill="#059669"/>
<circle cx="122.12" cy="388.25" r="0.70" fill="#059669"/>
<circle cx="123.46" cy="384.90" r="0.70" fill="#059669"/>
<circle cx="124.80" cy="381.55" r="0.70" fill="#059669"/>
<circle cx="126.14" cy="378.20" r="0.70" fill="#059669"/>
<circle cx="128.82" cy="374.85" r="0.70" fill="#059669"/>
<circle cx="130.15" cy="371.50" r="0.70" fill="#059669"/>
<circle cx="131.49" cy="368.15" r="0.70" fill="#059669"/>
<circle cx="134.17" cy="364.80" r="0.70" fill="#059669"/>
<circle cx="135.51" cy="361.45" r="0.70" fill="#059669"/>
<circle cx="136.85" cy="358.10" r="0.70" fill="#059669"/>
<circle cx="138.18" cy="354.75" r="0.70" fill="#059669"/>
<circle cx="140.86" cy="351.40" r="0.70" fill="#059669"/>
<circle cx="142.20" cy="348.05" r="0.70" fill="#059669"/>
<circle cx="144.88" cy="344.70" r="0.70" fill="#059669"/>
<circle cx="146.22" cy="341.35" r="0.70" fill="#059669"/>
<circle cx="148.89" cy="338.00" r="0.70" fill="#059669"/>
<circle cx="150.23" cy="334.65" r="0.70" fill="#059669"/>
<circle cx="152.91" cy="331.30" r="0.70" fill="#059669"/>
<circle cx="155.58" cy="327.95" r="0.70" fill="#059669"/>
<circle cx="156.92" cy="324.60" r="0.70" fill="#059669"/>
<circle cx="158.26" cy="321.25" r="0.70" fill="#059669"/>
<circle cx="160.94" cy="317.90" r="0.70" fill="#059669"/>
<circle cx="162.28" cy="314.55" r="0.70" fill="#059669"/>
<circle cx="164.95" cy="311.20" r="0.70" fill="#059669"/>
<circle cx="166.29" cy="307.85" r="0.70" fill="#059669"/>
<circle cx="168.97" cy="304.50" r="0.70" fill="#059669"/>
<circle cx="170.31" cy="301.15" r="0.70" fill="#059669"/>
<circle cx="172.98" cy="297.80" r="0.70" fill="#059669"/>
<circle cx="174.32" cy="294.45" r="0.70" fill="#059669"/>
<circle cx="177.00" cy="291.10" r="0.70" fill="#059669"/>
<circle cx="179.68" cy="287.75" r="0.70" fill="#059669"/>
<circle cx="181.02" cy="284.40" r="0.70" fill="#059669"/>
<circle cx="183.69" cy="281.05" r="0.70" fill="#059669"/>
<circle cx="185.03" cy="277.70" r="0.70" fill="#059669"/>
<circle cx="187.71" cy="274.35" r="0.70" fill="#059669"/>
<circle cx="190.38" cy="271.00" r="0.70" fill="#059669"/>
<circle cx="193.06" cy="267.65" r="0.70" fill="#059669"/>
<circle cx="195.74" cy="264.30" r="0.70" fill="#059669"/>
<circle cx="197.08" cy="260.95" r="0.70" fill="#059669"/>
<circle cx="199.75" cy="257.60" r="0.70" fill="#059669"/>
<circle cx="202.43" cy="254.25" r="0.70" fill="#059669"/>
<circle cx="205.11" cy="250.90" r="0.70" fill="#059669"/>
<circle cx="207.78" cy="247.55" r="0.70" fill="#059669"/>
<circle cx="210.46" cy="244.20" r="0.70" fill="#059669"/>
<circle cx="213.14" cy="240.85" r="0.70" fill="#059669"/>
<circle cx="215.82" cy="237.50" r="0.70" fill="#059669"/>
<circle cx="218.49" cy="234.15" r="0.70" fill="#059669"/>
<circle cx="221.17" cy="230.80" r="0.70" fill="#059669"/>
<circle cx="223.85" cy="227.45" r="0.70" fill="#059669"/>
<circle cx="226.52" cy="224.10" r="0.70" fill="#059669"/>
<circle cx="227.86" cy="220.75" r="0.70" fill="#059669"/>
<circle cx="230.54" cy="217.40" r="0.70" fill="#059669"/>
<circle cx="233.22" cy="214.05" r="0.70" fill="#059669"/>
<circle cx="235.89" cy="210.70" r="0.70" fill="#059669"/>
<circle cx="238.57" cy="207.35" r="0.70" fill="#059669"/>
<circle cx="241.25" cy="204.00" r="0.70" fill="#059669"/>
<circle cx="243.92" cy="200.65" r="0.70" fill="#059669"/>
<circle cx="246.60" cy="197.30" r="0.70" fill="#059669"/>
<circle cx="250.62" cy="301.15" r="0.70" fill="#059669"/>
<circle cx="253.29" cy="297.80" r="0.70" fill="#059669"/>
<circle cx="255.97" cy="294.45" r="0.70" fill="#059669"/>
<circle cx="258.65" cy="291.10" r="0.70" fill="#059669"/>
<circle cx="261.32" cy="287.75" r="0.70" fill="#059669"/>
<circle cx="264.00" cy="284.40" r="0.70" fill="#059669"/>
<circle cx="266.68" cy="281.05" r="0.70" fill="#059669"/>
<circle cx="269.35" cy="277.70" r="0.70" fill="#059669"/>
<circle cx="272.03" cy="274.35" r="0.70" fill="#059669"/>
<circle cx="274.71" cy="271.00" r="0.70" fill="#059669"/>
<circle cx="277.38" cy="267.65" r="0.70" fill="#059669"/>
<circle cx="280.06" cy="264.30" r="0.70" fill="#059669"/>
<circle cx="282.74" cy="260.95" r="0.70" fill="#059669"/>
<circle cx="285.42" cy="332.98" r="0.70" fill="#059669"/>
<circle cx="288.09" cy="329.62" r="0.70" fill="#059669"/>
<circle cx="290.77" cy="326.27" r="0.70" fill="#059669"/>
<circle cx="293.45" cy="322.93" r="0.70" fill="#059669"/>
<circle cx="296.12" cy="319.57" r="0.70" fill="#059669"/>
<circle cx="298.80" cy="316.23" r="0.70" fill="#059669"/>
<circle cx="300.14" cy="312.88" r="0.70" fill="#059669"/>
<circle cx="302.82" cy="309.52" r="0.70" fill="#059669"/>
<circle cx="305.49" cy="306.18" r="0.70" fill="#059669"/>
<circle cx="308.17" cy="302.82" r="0.70" fill="#059669"/>
<circle cx="309.51" cy="299.48" r="0.70" fill="#059669"/>
<circle cx="312.18" cy="296.12" r="0.70" fill="#059669"/>
<circle cx="314.86" cy="292.77" r="0.70" fill="#059669"/>
<circle cx="317.54" cy="289.43" r="0.70" fill="#059669"/>
<circle cx="320.22" cy="286.07" r="0.70" fill="#059669"/>
<circle cx="322.89" cy="282.73" r="0.70" fill="#059669"/>
<circle cx="325.57" cy="279.38" r="0.70" fill="#059669"/>
<circle cx="326.91" cy="276.02" r="0.70" fill="#059669"/>
<circle cx="329.58" cy="272.67" r="0.70" fill="#059669"/>
<circle cx="332.26" cy="269.32" r="0.70" fill="#059669"/>
<circle cx="334.94" cy="265.98" r="0.70" fill="#059669"/>
<circle cx="338.95" cy="262.62" r="0.70" fill="#059669"/>
<circle cx="341.63" cy="259.27" r="0.70" fill="#059669"/>
<circle cx="344.31" cy="332.14" r="0.70" fill="#059669"/>
<circle cx="346.98" cy="328.79" r="0.70" fill="#059669"/>
<circle cx="349.66" cy="325.44" r="0.70" fill="#059669"/>
<circle cx="352.34" cy="322.09" r="0.70" fill="#059669"/>
<circle cx="353.68" cy="318.74" r="0.70" fill="#059669"/>
<circle cx="356.35" cy="315.39" r="0.70" fill="#059669"/>
<circle cx="359.03" cy="312.04" r="0.70" fill="#059669"/>
<circle cx="361.71" cy="308.69" r="0.70" fill="#059669"/>
<circle cx="364.38" cy="305.34" r="0.70" fill="#059669"/>
<circle cx="365.72" cy="301.99" r="0.70" fill="#059669"/>
<circle cx="368.40" cy="298.64" r="0.70" fill="#059669"/>
<circle cx="371.08" cy="295.29" r="0.70" fill="#059669"/>
<circle cx="373.75" cy="291.94" r="0.70" fill="#059669"/>
<circle cx="375.09" cy="288.59" r="0.70" fill="#059669"/>
<circle cx="377.77" cy="285.24" r="0.70" fill="#059669"/>
<circle cx="381.78" cy="281.89" r="0.70" fill="#059669"/>
<circle cx="384.46" cy="278.54" r="0.70" fill="#059669"/>
<circle cx="387.14" cy="275.19" r="0.70" fill="#059669"/>
<circle cx="389.82" cy="271.84" r="0.70" fill="#059669"/>
<circle cx="392.49" cy="268.49" r="0.70" fill="#059669"/>
<circle cx="395.17" cy="265.14" r="0.70" fill="#059669"/>
<circle cx="397.85" cy="261.79" r="0.70" fill="#059669"/>
<circle cx="401.86" cy="258.44" r="0.70" fill="#059669"/>
<circle cx="404.54" cy="331.72" r="0.70" fill="#059669"/>
<circle cx="407.22" cy="328.37" r="0.70" fill="#059669"/>
<circle cx="409.89" cy="325.02" r="0.70" fill="#059669"/>
<circle cx="411.23" cy="321.67" r="0.70" fill="#059669"/>
<circle cx="413.91" cy="318.32" r="0.70" fill="#059669"/>
<circle cx="415.25" cy="314.97" r="0.70" fill="#059669"/>
<circle cx="417.92" cy="311.62" r="0.70" fill="#059669"/>
<circle cx="420.60" cy="308.27" r="0.70" fill="#059669"/>
<circle cx="423.28" cy="304.92" r="0.70" fill="#059669"/>
<circle cx="424.62" cy="301.57" r="0.70" fill="#059669"/>
<circle cx="427.29" cy="298.22" r="0.70" fill="#059669"/>
<circle cx="429.97" cy="294.87" r="0.70" fill="#059669"/>
<circle cx="432.65" cy="291.52" r="0.70" fill="#059669"/>
<circle cx="435.32" cy="288.17" r="0.70" fill="#059669"/>
<circle cx="438.00" cy="284.82" r="0.70" fill="#059669"/>
<circle cx="440.68" cy="281.47" r="0.70" fill="#059669"/>
<circle cx="443.35" cy="278.12" r="0.70" fill="#059669"/>
<circle cx="446.03" cy="274.77" r="0.70" fill="#059669"/>
<circle cx="448.71" cy="271.42" r="0.70" fill="#059669"/>
<circle cx="451.38" cy="268.07" r="0.70" fill="#059669"/>
<circle cx="454.06" cy="336.53" r="0.70" fill="#059669"/>
<circle cx="458.08" cy="333.18" r="0.70" fill="#059669"/>
<circle cx="459.42" cy="329.83" r="0.70" fill="#059669"/>
<circle cx="462.09" cy="326.48" r="0.70" fill="#059669"/>
<circle cx="464.77" cy="323.13" r="0.70" fill="#059669"/>
<circle cx="466.11" cy="319.78" r="0.70" fill="#059669"/>
<circle cx="468.78" cy="316.43" r="0.70" fill="#059669"/>
<circle cx="471.46" cy="313.08" r="0.70" fill="#059669"/>
<circle cx="474.14" cy="309.73" r="0.70" fill="#059669"/>
<circle cx="476.82" cy="306.38" r="0.70" fill="#059669"/>
<circle cx="478.15" cy="303.03" r="0.70" fill="#059669"/>
<circle cx="480.83" cy="299.68" r="0.70" fill="#059669"/>
<circle cx="483.51" cy="296.33" r="0.70" fill="#059669"/>
<circle cx="486.18" cy="292.98" r="0.70" fill="#059669"/>
<circle cx="488.86" cy="289.63" r="0.70" fill="#059669"/>
<circle cx="490.20" cy="286.28" r="0.70" fill="#059669"/>
<circle cx="492.88" cy="282.93" r="0.70" fill="#059669"/>
<circle cx="496.89" cy="279.58" r="0.70" fill="#059669"/>
<circle cx="499.57" cy="276.23" r="0.70" fill="#059669"/>
<circle cx="502.25" cy="272.88" r="0.70" fill="#059669"/>
<circle cx="504.92" cy="269.53" r="0.70" fill="#059669"/>
<circle cx="507.60" cy="266.18" r="0.70" fill="#059669"/>
<circle cx="511.62" cy="335.59" r="0.70" fill="#059669"/>
<circle cx="514.29" cy="332.24" r="0.70" fill="#059669"/>
<circle cx="515.63" cy="328.89" r="0.70" fill="#059669"/>
<circle cx="518.31" cy="325.54" r="0.70" fill="#059669"/>
<circle cx="519.65" cy="322.19" r="0.70" fill="#059669"/>
<circle cx="522.32" cy="318.84" r="0.70" fill="#059669"/>
<circle cx="525.00" cy="315.49" r="0.70" fill="#059669"/>
<circle cx="526.34" cy="312.14" r="0.70" fill="#059669"/>
<circle cx="529.02" cy="308.79" r="0.70" fill="#059669"/>
<circle cx="531.69" cy="305.44" r="0.70" fill="#059669"/>
<circle cx="534.37" cy="302.09" r="0.70" fill="#059669"/>
<circle cx="537.05" cy="298.74" r="0.70" fill="#059669"/>
<circle cx="539.72" cy="295.39" r="0.70" fill="#059669"/>
<circle cx="542.40" cy="292.04" r="0.70" fill="#059669"/>
<circle cx="545.08" cy="288.69" r="0.70" fill="#059669"/>
<circle cx="547.75" cy="285.34" r="0.70" fill="#059669"/>
<circle cx="551.77" cy="281.99" r="0.70" fill="#059669"/>
<circle cx="554.45" cy="278.64" r="0.70" fill="#059669"/>
<circle cx="557.12" cy="275.29" r="0.70" fill="#059669"/>
<circle cx="559.80" cy="271.94" r="0.70" fill="#059669"/>
<circle cx="562.48" cy="338.47" r="0.70" fill="#059669"/>
<circle cx="565.15" cy="335.12" r="0.70" fill="#059669"/>
<circle cx="566.49" cy="331.77" r="0.70" fill="#059669"/>
<circle cx="569.17" cy="328.42" r="0.70" fill="#059669"/>
<circle cx="570.51" cy="325.07" r="0.70" fill="#059669"/>
<circle cx="573.18" cy="321.72" r="0.70" fill="#059669"/>
<circle cx="575.86" cy="318.37" r="0.70" fill="#059669"/>
<circle cx="578.54" cy="315.02" r="0.70" fill="#059669"/>
<circle cx="581.22" cy="311.67" r="0.70" fill="#059669"/>
<circle cx="583.89" cy="308.32" r="0.70" fill="#059669"/>
<circle cx="586.57" cy="304.97" r="0.70" fill="#059669"/>
<circle cx="587.91" cy="301.62" r="0.70" fill="#059669"/>
<circle cx="590.58" cy="298.27" r="0.70" fill="#059669"/>
<circle cx="593.26" cy="294.92" r="0.70" fill="#059669"/>
<circle cx="595.94" cy="291.57" r="0.70" fill="#059669"/>
<circle cx="598.62" cy="288.22" r="0.70" fill="#059669"/>
<circle cx="601.29" cy="284.87" r="0.70" fill="#059669"/>
<circle cx="603.97" cy="281.52" r="0.70" fill="#059669"/>
<circle cx="606.65" cy="278.17" r="0.70" fill="#059669"/>
<circle cx="609.32" cy="274.82" r="0.70" fill="#059669"/>
<circle cx="612.00" cy="271.47" r="0.70" fill="#059669"/>
<circle cx="614.68" cy="268.12" r="0.70" fill="#059669"/>
<circle cx="617.35" cy="336.56" r="0.70" fill="#059669"/>
<circle cx="620.03" cy="333.21" r="0.70" fill="#059669"/>
<circle cx="622.71" cy="329.86" r="0.70" fill="#059669"/>
<circle cx="624.05" cy="326.51" r="0.70" fill="#059669"/>
<circle cx="626.72" cy="323.16" r="0.70" fill="#059669"/>
<circle cx="628.06" cy="319.81" r="0.70" fill="#059669"/>
<circle cx="630.74" cy="316.46" r="0.70" fill="#059669"/>
<circle cx="633.42" cy="313.11" r="0.70" fill="#059669"/>
<circle cx="636.09" cy="309.76" r="0.70" fill="#059669"/>
<circle cx="637.43" cy="306.41" r="0.70" fill="#059669"/>
<circle cx="640.11" cy="303.06" r="0.70" fill="#059669"/>
<circle cx="642.78" cy="299.71" r="0.70" fill="#059669"/>
<circle cx="645.46" cy="296.36" r="0.70" fill="#059669"/>
<circle cx="646.80" cy="293.01" r="0.70" fill="#059669"/>
<circle cx="649.48" cy="289.66" r="0.70" fill="#059669"/>
<circle cx="652.15" cy="286.31" r="0.70" fill="#059669"/>
<circle cx="654.83" cy="282.96" r="0.70" fill="#059669"/>
<circle cx="657.51" cy="279.61" r="0.70" fill="#059669"/>
<circle cx="660.18" cy="276.26" r="0.70" fill="#059669"/>
<circle cx="664.20" cy="272.91" r="0.70" fill="#059669"/>
<circle cx="666.88" cy="338.96" r="0.70" fill="#059669"/>
<circle cx="669.55" cy="335.61" r="0.70" fill="#059669"/>
<circle cx="672.23" cy="332.26" r="0.70" fill="#059669"/>
<circle cx="673.57" cy="328.91" r="0.70" fill="#059669"/>
<circle cx="676.25" cy="325.56" r="0.70" fill="#059669"/>
<circle cx="678.92" cy="322.21" r="0.70" fill="#059669"/>
<circle cx="680.26" cy="318.86" r="0.70" fill="#059669"/>
<circle cx="682.94" cy="315.51" r="0.70" fill="#059669"/>
<circle cx="685.62" cy="312.16" r="0.70" fill="#059669"/>
<circle cx="686.95" cy="308.81" r="0.70" fill="#059669"/>
<circle cx="689.63" cy="305.46" r="0.70" fill="#059669"/>
<circle cx="692.31" cy="302.11" r="0.70" fill="#059669"/>
<circle cx="694.98" cy="298.76" r="0.70" fill="#059669"/>
<circle cx="697.66" cy="295.41" r="0.70" fill="#059669"/>
<circle cx="700.34" cy="292.06" r="0.70" fill="#059669"/>
<circle cx="703.02" cy="288.71" r="0.70" fill="#059669"/>
<circle cx="705.69" cy="285.36" r="0.70" fill="#059669"/>
<circle cx="708.37" cy="282.01" r="0.70" fill="#059669"/>
<circle cx="711.05" cy="278.66" r="0.70" fill="#059669"/>
<circle cx="713.72" cy="275.31" r="0.70" fill="#059669"/>
<circle cx="716.40" cy="271.96" r="0.70" fill="#059669"/>
<circle cx="719.08" cy="338.48" r="0.70" fill="#059669"/>
<circle cx="721.75" cy="335.13" r="0.70" fill="#059669"/>
<circle cx="724.43" cy="331.78" r="0.70" fill="#059669"/>
<circle cx="725.77" cy="328.43" r="0.70" fill="#059669"/>
<circle cx="728.45" cy="325.08" r="0.70" fill="#059669"/>
<circle cx="731.12" cy="321.73" r="0.70" fill="#059669"/>
<circle cx="732.46" cy="318.38" r="0.70" fill="#059669"/>
<circle cx="735.14" cy="315.03" r="0.70" fill="#059669"/>
<circle cx="737.82" cy="311.68" r="0.70" fill="#059669"/>
<circle cx="740.49" cy="308.33" r="0.70" fill="#059669"/>
<circle cx="743.17" cy="304.98" r="0.70" fill="#059669"/>
<circle cx="745.85" cy="301.63" r="0.70" fill="#059669"/>
<circle cx="748.52" cy="298.28" r="0.70" fill="#059669"/>
<circle cx="751.20" cy="294.93" r="0.70" fill="#059669"/>
<circle cx="752.54" cy="291.58" r="0.70" fill="#059669"/>
<circle cx="755.22" cy="288.23" r="0.70" fill="#059669"/>
<circle cx="759.23" cy="284.88" r="0.70" fill="#059669"/>
<circle cx="761.91" cy="281.53" r="0.70" fill="#059669"/>
<circle cx="764.58" cy="278.18" r="0.70" fill="#059669"/>
<circle cx="767.26" cy="274.83" r="0.70" fill="#059669"/>
<circle cx="769.94" cy="271.48" r="0.70" fill="#059669"/>
<circle cx="772.62" cy="338.24" r="0.70" fill="#059669"/>
<circle cx="775.29" cy="334.89" r="0.70" fill="#059669"/>
<circle cx="777.97" cy="331.54" r="0.70" fill="#059669"/>
<circle cx="779.31" cy="328.19" r="0.70" fill="#059669"/>
<circle cx="781.98" cy="324.84" r="0.70" fill="#059669"/>
<circle cx="784.66" cy="321.49" r="0.70" fill="#059669"/>
<circle cx="786.00" cy="318.14" r="0.70" fill="#059669"/>
<circle cx="788.68" cy="314.79" r="0.70" fill="#059669"/>
<circle cx="791.35" cy="311.44" r="0.70" fill="#059669"/>
<circle cx="794.03" cy="308.09" r="0.70" fill="#059669"/>
<circle cx="796.71" cy="304.74" r="0.70" fill="#059669"/>
<circle cx="799.38" cy="301.39" r="0.70" fill="#059669"/>
<circle cx="802.06" cy="298.04" r="0.70" fill="#059669"/>
<circle cx="804.74" cy="294.69" r="0.70" fill="#059669"/>
<circle cx="807.42" cy="291.34" r="0.70" fill="#059669"/>
<circle cx="810.09" cy="287.99" r="0.70" fill="#059669"/>
<circle cx="812.77" cy="284.64" r="0.70" fill="#059669"/>
<circle cx="815.45" cy="281.29" r="0.70" fill="#059669"/>
<circle cx="818.12" cy="277.94" r="0.70" fill="#059669"/>
<circle cx="820.80" cy="274.59" r="0.70" fill="#059669"/>
<circle cx="823.48" cy="271.24" r="0.70" fill="#059669"/>
<circle cx="826.15" cy="267.89" r="0.70" fill="#059669"/>
<circle cx="828.83" cy="336.44" r="0.70" fill="#059669"/>
<circle cx="831.51" cy="333.09" r="0.70" fill="#059669"/>
<circle cx="834.18" cy="329.74" r="0.70" fill="#059669"/>
<circle cx="836.86" cy="326.39" r="0.70" fill="#059669"/>
<circle cx="838.20" cy="323.04" r="0.70" fill="#059669"/>
<circle cx="840.88" cy="319.69" r="0.70" fill="#059669"/>
<circle cx="843.55" cy="316.34" r="0.70" fill="#059669"/>
<circle cx="846.23" cy="312.99" r="0.70" fill="#059669"/>
<circle cx="847.57" cy="309.64" r="0.70" fill="#059669"/>
<circle cx="850.25" cy="306.29" r="0.70" fill="#059669"/>
<circle cx="852.92" cy="302.94" r="0.70" fill="#059669"/>
<circle cx="855.60" cy="299.59" r="0.70" fill="#059669"/>
<circle cx="858.28" cy="296.24" r="0.70" fill="#059669"/>
<circle cx="860.95" cy="292.89" r="0.70" fill="#059669"/>
<circle cx="863.63" cy="289.54" r="0.70" fill="#059669"/>
<circle cx="866.31" cy="286.19" r="0.70" fill="#059669"/>
<circle cx="868.98" cy="282.84" r="0.70" fill="#059669"/>
<circle cx="871.66" cy="279.49" r="0.70" fill="#059669"/>
<circle cx="874.34" cy="276.14" r="0.70" fill="#059669"/>
<circle cx="877.02" cy="272.79" r="0.70" fill="#059669"/>
<circle cx="879.69" cy="269.44" r="0.70" fill="#059669"/>
<circle cx="882.37" cy="337.22" r="0.70" fill="#059669"/>
<circle cx="886.38" cy="333.87" r="0.70" fill="#059669"/>
<circle cx="889.06" cy="330.52" r="0.70" fill="#059669"/>
<circle cx="890.40" cy="327.17" r="0.70" fill="#059669"/>
<circle cx="893.08" cy="323.82" r="0.70" fill="#059669"/>
<circle cx="895.75" cy="320.47" r="0.70" fill="#059669"/>
<circle cx="898.43" cy="317.12" r="0.70" fill="#059669"/>
<circle cx="899.77" cy="313.77" r="0.70" fill="#059669"/>
<circle cx="902.45" cy="310.42" r="0.70" fill="#059669"/>
<circle cx="905.12" cy="307.07" r="0.70" fill="#059669"/>
<circle cx="907.80" cy="303.72" r="0.70" fill="#059669"/>
<circle cx="909.14" cy="300.37" r="0.70" fill="#059669"/>
<circle cx="911.82" cy="297.02" r="0.70" fill="#059669"/>
<circle cx="914.49" cy="293.67" r="0.70" fill="#059669"/>
<circle cx="917.17" cy="290.32" r="0.70" fill="#059669"/>
<circle cx="919.85" cy="286.97" r="0.70" fill="#059669"/>
<circle cx="922.52" cy="283.62" r="0.70" fill="#059669"/>
<circle cx="925.20" cy="280.27" r="0.70" fill="#059669"/>
<circle cx="927.88" cy="276.92" r="0.70" fill="#059669"/>
<circle cx="930.55" cy="273.57" r="0.70" fill="#059669"/>
<circle cx="934.57" cy="270.22" r="0.70" fill="#059669"/>
<circle cx="937.25" cy="337.61" r="0.70" fill="#059669"/>
<circle cx="939.92" cy="334.26" r="0.70" fill="#059669"/>
<circle cx="942.60" cy="330.91" r="0.70" fill="#059669"/>
<circle cx="945.28" cy="327.56" r="0.70" fill="#059669"/>
<circle cx="946.62" cy="324.21" r="0.70" fill="#059669"/>
<circle cx="949.29" cy="320.86" r="0.70" fill="#059669"/>
<circle cx="951.97" cy="317.51" r="0.70" fill="#059669"/>
<circle cx="954.65" cy="314.16" r="0.70" fill="#059669"/>
<circle cx="955.98" cy="310.81" r="0.70" fill="#059669"/>
<circle cx="958.66" cy="307.46" r="0.70" fill="#059669"/>
<circle cx="961.34" cy="304.11" r="0.70" fill="#059669"/>
<circle cx="964.02" cy="300.76" r="0.70" fill="#059669"/>
<circle cx="965.35" cy="297.41" r="0.70" fill="#059669"/>
<circle cx="969.37" cy="294.06" r="0.70" fill="#059669"/>
<circle cx="972.05" cy="290.71" r="0.70" fill="#059669"/>
<circle cx="974.72" cy="287.36" r="0.70" fill="#059669"/>
<circle cx="977.40" cy="284.01" r="0.70" fill="#059669"/>
<circle cx="981.42" cy="280.66" r="0.70" fill="#059669"/>
<circle cx="984.09" cy="277.31" r="0.70" fill="#059669"/>
<circle cx="986.77" cy="273.96" r="0.70" fill="#059669"/>
<circle cx="989.45" cy="270.61" r="0.70" fill="#059669"/>
<circle cx="992.12" cy="337.81" r="0.70" fill="#059669"/>
<circle cx="994.80" cy="334.46" r="0.70" fill="#059669"/>
<circle cx="997.48" cy="331.11" r="0.70" fill="#059669"/>
<circle cx="1000.15" cy="327.76" r="0.70" fill="#059669"/>
<circle cx="1001.49" cy="324.41" r="0.70" fill="#059669"/>
<circle cx="1004.17" cy="321.06" r="0.70" fill="#059669"/>
<circle cx="1005.51" cy="317.71" r="0.70" fill="#059669"/>
<circle cx="1008.18" cy="314.36" r="0.70" fill="#059669"/>
<circle cx="1010.86" cy="311.01" r="0.70" fill="#059669"/>
<circle cx="1013.54" cy="307.66" r="0.70" fill="#059669"/>
<circle cx="1014.88" cy="304.31" r="0.70" fill="#059669"/>
<circle cx="1017.55" cy="300.96" r="0.70" fill="#059669"/>
<circle cx="1020.23" cy="297.61" r="0.70" fill="#059669"/>
<circle cx="1022.91" cy="294.26" r="0.70" fill="#059669"/>
<circle cx="1025.58" cy="290.91" r="0.70" fill="#059669"/>
<circle cx="1028.26" cy="287.56" r="0.70" fill="#059669"/>
<circle cx="1030.94" cy="284.21" r="0.70" fill="#059669"/>
<circle cx="1034.95" cy="280.86" r="0.70" fill="#059669"/>
<circle cx="1037.63" cy="277.51" r="0.70" fill="#059669"/>
<circle cx="1040.31" cy="274.16" r="0.70" fill="#059669"/>
<circle cx="1042.98" cy="339.58" r="0.70" fill="#059669"/>
<circle cx="1045.66" cy="336.23" r="0.70" fill="#059669"/>
<circle cx="1048.34" cy="332.88" r="0.70" fill="#059669"/>
<circle cx="1049.68" cy="329.53" r="0.70" fill="#059669"/>
<circle cx="1052.35" cy="326.18" r="0.70" fill="#059669"/>
<circle cx="1055.03" cy="322.83" r="0.70" fill="#059669"/>
<circle cx="1056.37" cy="319.48" r="0.70" fill="#059669"/>
<circle cx="1059.05" cy="316.13" r="0.70" fill="#059669"/>
<circle cx="1061.72" cy="312.78" r="0.70" fill="#059669"/>
<circle cx="1064.40" cy="309.43" r="0.70" fill="#059669"/>
<circle cx="1067.08" cy="306.08" r="0.70" fill="#059669"/>
<circle cx="1069.75" cy="302.73" r="0.70" fill="#059669"/>
<circle cx="1072.43" cy="299.38" r="0.70" fill="#059669"/>
<circle cx="1076.45" cy="296.03" r="0.70" fill="#059669"/>
<circle cx="1079.12" cy="292.68" r="0.70" fill="#059669"/>
<circle cx="1081.80" cy="348.84" r="0.70" fill="#059669"/>
<circle cx="1084.48" cy="345.49" r="0.70" fill="#059669"/>
<circle cx="1087.15" cy="342.14" r="0.70" fill="#059669"/>
<circle cx="1088.49" cy="338.79" r="0.70" fill="#059669"/>
<circle cx="1091.17" cy="335.44" r="0.70" fill="#059669"/>
<circle cx="1092.51" cy="332.09" r="0.70" fill="#059669"/>
<circle cx="1095.18" cy="328.74" r="0.70" fill="#059669"/>
<circle cx="1097.86" cy="325.39" r="0.70" fill="#059669"/>
<circle cx="1099.20" cy="322.04" r="0.70" fill="#059669"/>
<circle cx="1101.88" cy="318.69" r="0.70" fill="#059669"/>
<rect x="740" y="100" width="14" height="14" fill="#059669"/>
<text x="762" y="112" font-family="Arial, sans-serif" font-size="12" fill="#1f2937">ubuntu]</text>
<text x="90.00" y="423" text-anchor="middle" font-family="Arial, sans-serif" font-size="11" fill="#4b5563">0,00</text>
<text x="264.00" y="423" text-anchor="middle" font-family="Arial, sans-serif" font-size="11" fill="#4b5563">130,0</text>
<text x="438.00" y="423" text-anchor="middle" font-family="Arial, sans-serif" font-size="11" fill="#4b5563">260,0</text>
<text x="612.00" y="423" text-anchor="middle" font-family="Arial, sans-serif" font-size="11" fill="#4b5563">390,0</text>
<text x="786.00" y="423" text-anchor="middle" font-family="Arial, sans-serif" font-size="11" fill="#4b5563">520,0</text>
<text x="960.00" y="423" text-anchor="middle" font-family="Arial, sans-serif" font-size="11" fill="#4b5563">650,0</text>
</svg>
