<svg xmlns="http://www.w3.org/2000/svg" width="1000" height="520" viewBox="0 0 1000 520">
<rect width="100%" height="100%" fill="#ffffff"/>
<text x="500.0" y="34" text-anchor="middle" font-family="Arial, sans-serif" font-size="24" font-weight="700" fill="#1f2937">Evolução da janela adaptativa - execução 2</text>
<line x1="90" y1="70" x2="90" y2="405" stroke="#374151" stroke-width="1.5"/>
<line x1="90" y1="405" x2="960" y2="405" stroke="#374151" stroke-width="1.5"/>
<line x1="90" y1="405.00" x2="960" y2="405.00" stroke="#e5e7eb" stroke-width="1"/>
<text x="80" y="409.00" text-anchor="end" font-family="Arial, sans-serif" font-size="12" fill="#4b5563">0,00</text>
<line x1="90" y1="338.00" x2="960" y2="338.00" stroke="#e5e7eb" stroke-width="1"/>
<text x="80" y="342.00" text-anchor="end" font-family="Arial, sans-serif" font-size="12" fill="#4b5563">20,0</text>
<line x1="90" y1="271.00" x2="960" y2="271.00" stroke="#e5e7eb" stroke-width="1"/>
<text x="80" y="275.00" text-anchor="end" font-family="Arial, sans-serif" font-size="12" fill="#4b5563">40,0</text>
<line x1="90" y1="204.00" x2="960" y2="204.00" stroke="#e5e7eb" stroke-width="1"/>
<text x="80" y="208.00" text-anchor="end" font-family="Arial, sans-serif" font-size="12" fill="#4b5563">60,0</text>
<line x1="90" y1="137.00" x2="960" y2="137.00" stroke="#e5e7eb" stroke-width="1"/>
<text x="80" y="141.00" text-anchor="end" font-family="Arial, sans-serif" font-size="12" fill="#4b5563">80,0</text>
<line x1="90" y1="70.00" x2="960" y2="70.00" stroke="#e5e7eb" stroke-width="1"/>
<text x="80" y="74.00" text-anchor="end" font-family="Arial, sans-serif" font-size="12" fill="#4b5563">100,0</text>
<text x="500.0" y="502" text-anchor="middle" font-family="Arial, sans-serif" font-size="14" fill="#1f2937">Tarefa</text>
<text x="18" y="237.5" text-anchor="middle" font-family="Arial, sans-serif" font-size="14" fill="#1f2937" transform="rotate(-90 18 237.5)">Janela após ajuste</text>
<polyline points="91.34,394.95 92.68,391.60 94.02,388.25 95.35,384.90 96.69,381.55 98.03,378.20 99.37,374.85 100.71,371.50 102.05,368.15 103.38,364.80 104.72,361.45 106.06,358.10 107.40,354.75 108.74,351.40 110.08,348.05 111.42,344.70 112.75,341.35 114.09,338.00 115.43,334.65 116.77,331.30 118.11,327.95 119.45,324.60 120.78,321.25 122.12,317.90 123.46,314.55 124.80,311.20 126.14,307.85 127.48,304.50 128.82,301.15 130.15,297.80 131.49,294.45 132.83,291.10 134.17,287.75 135.51,284.40 136.85,281.05 144.88,343.02 151.57,339.68 158.26,336.32 160.94,332.98 164.95,329.62 170.31,326.27 174.32,322.93 178.34,319.57 182.35,316.23 186.37,312.88 190.38,309.52 194.40,306.18 197.08,302.82 201.09,299.48 205.11,296.12 207.78,292.77 211.80,289.43 215.82,286.07 218.49,282.73 222.51,279.38 225.18,276.02 227.86,340.51 231.88,337.16 234.55,333.81 235.89,330.46 238.57,327.11 241.25,323.76 243.92,320.41 246.60,317.06 249.28,313.71 251.95,310.36 254.63,307.01 257.31,303.66 259.98,300.31 262.66,296.96 265.34,350.98 269.35,347.63 270.69,344.28 273.37,340.93 276.05,337.58 278.72,334.23 281.40,330.88 284.08,327.53 286.75,366.27 290.77,362.92 293.45,359.57 296.12,356.22 297.46,352.87 300.14,349.52 302.82,346.17 305.49,342.82 306.83,339.47 310.85,336.12 313.52,332.77 317.54,329.42 320.22,326.07 322.89,322.72 325.57,319.37 329.58,362.18 332.26,358.83 334.94,355.48 337.62,352.13 340.29,348.78 342.97,345.43 345.65,342.08 348.32,338.73 351.00,335.38 355.02,370.19 357.69,366.84 360.37,363.49 363.05,384.25 367.06,380.90 369.74,377.55 373.75,391.27 376.43,387.92 379.11,384.57 381.78,394.79 385.80,399.89 388.48,401.65 392.49,401.65 395.17,401.65 399.18,398.30 403.20,401.65 405.88,398.30 408.55,394.95 409.89,391.60 413.91,398.30 417.92,394.95 420.60,391.60 424.62,398.30 427.29,394.95 431.31,391.60 433.98,398.30 438.00,401.65 440.68,398.30 443.35,394.95 446.03,399.98 448.71,396.62 451.38,393.27 454.06,399.14 456.74,395.79 459.42,392.44 462.09,389.09 464.77,385.74 468.78,395.37 471.46,392.02 475.48,388.67 478.15,396.83 482.17,393.48 484.85,390.13 487.52,386.78 490.20,395.89 492.88,392.54 495.55,398.77 499.57,401.65 502.25,398.30 506.26,401.65 508.94,401.65 512.95,401.65 515.63,398.30 518.31,394.95 520.98,391.60 525.00,388.25 527.68,384.90 531.69,394.95 534.37,399.98 538.38,396.62 541.06,393.27 542.40,389.93 545.08,386.57 547.75,383.23 550.43,379.88 553.11,376.52 555.78,373.18 557.12,369.82 559.80,366.48 562.48,363.12 565.15,359.77 569.17,382.39 573.18,379.04 575.86,375.69 578.54,372.34 581.22,368.99 583.89,365.64 586.57,362.29 589.25,358.94 591.92,355.59 594.60,352.24 597.28,348.89 599.95,345.54 602.63,342.19 605.31,338.84 607.98,335.49 610.66,332.14 614.68,328.79 617.35,325.44 620.03,365.22 622.71,361.87 624.05,358.52 628.06,355.17 630.74,351.82 633.42,348.47 636.09,345.12 640.11,341.77 642.78,338.42 645.46,335.07 648.14,331.72 650.82,368.36 654.83,365.01 657.51,361.66 658.85,358.31 661.52,354.96 664.20,351.61 665.54,348.26 668.22,344.91 670.89,341.56 673.57,338.21 674.91,334.86 677.58,331.51 680.26,328.16 684.28,324.81 686.95,321.46 689.63,318.11 693.65,314.76 696.32,311.41 699.00,308.06 703.02,304.71 705.69,301.36 708.37,353.18 711.05,349.83 713.72,346.48 716.40,343.13 717.74,339.78 720.42,336.43 723.09,333.08 725.77,329.73 728.45,326.38 731.12,323.03 733.80,319.68 735.14,316.33 737.82,312.98 740.49,309.63 744.51,306.28 747.18,355.64 749.86,352.29 752.54,348.94 755.22,345.59 757.89,342.24 760.57,338.89 763.25,335.54 765.92,332.19 768.60,328.84 771.28,325.49 773.95,322.14 776.63,318.79 779.31,315.44 781.98,312.09 784.66,308.74 787.34,305.39 790.02,302.04 792.69,298.69 796.71,351.84 800.72,348.49 803.40,345.14 806.08,341.79 808.75,338.44 811.43,335.09 814.11,331.74 816.78,328.39 819.46,325.04 822.14,321.69 824.82,318.34 827.49,314.99 830.17,311.64 832.85,308.29 835.52,304.94 838.20,301.59 840.88,298.24 843.55,294.89 846.23,349.95 848.91,346.60 851.58,343.25 855.60,339.90 858.28,336.55 860.95,333.20 863.63,329.85 866.31,326.50 868.98,323.15 871.66,319.80 874.34,316.45 877.02,313.10 879.69,309.75 882.37,306.40 885.05,303.05 887.72,299.70 890.40,296.35 893.08,350.67 895.75,347.32 898.43,343.97 901.11,340.62 902.45,337.27 905.12,333.92 907.80,330.57 910.48,327.22 914.49,323.87 917.17,320.52 919.85,317.17 922.52,313.82 925.20,310.47 929.22,307.12 931.89,303.77 934.57,300.42 937.25,352.71 939.92,349.36 942.60,346.01 945.28,342.66 947.95,339.31 950.63,335.96 951.97,332.61 954.65,329.26 957.32,325.91 960.00,322.56 962.68,319.21 965.35,315.86 969.37,312.51 973.38,309.16 976.06,305.81 978.74,355.41 982.75,352.06 985.43,348.71 986.77,345.36 989.45,342.01 992.12,338.66 994.80,335.31 997.48,331.96 1000.15,328.61 1002.83,325.26 1005.51,321.91 1008.18,318.56 1010.86,315.21 1012.20,311.86 1014.88,308.51 1017.55,305.16 1020.23,301.81 1024.25,298.46 1028.26,295.11 1032.28,350.05 1034.95,346.70 1037.63,343.35 1040.31,340.00 1042.98,336.65 1045.66,333.30 1047.00,329.95 1049.68,326.60 1052.35,323.25 1055.03,319.90 1057.71,316.55 1060.38,313.20 1063.06,309.85 1065.74,306.50 1068.42,303.15 1071.09,299.80 1073.77,352.40 1076.45,349.05 1079.12,345.70 1083.14,342.35 1085.82,339.00 1088.49,335.65 1091.17,332.30 1093.85,328.95 1096.52,325.60 1099.20,365.30 1103.22,361.95 1105.89,358.60 1107.23,355.25 1109.91,351.90 1112.58,348.55 1115.26,345.20 1117.94,341.85 1120.62,338.50 1123.29,335.15 1125.97,331.80 1128.65,328.45 1131.32,366.73 1135.34,363.38 1138.02,360.03 1140.69,356.68 1143.37,353.33 1146.05,349.98 1148.72,346.63 1151.40,343.28 1154.08,339.93 1156.75,336.58 1159.43,333.23" fill="none" stroke="#2563eb" stroke-width="0.3"/>
<circle cx="91.34" cy="394.95" r="0.70" fill="#2563eb"/>
<circle cx="92.68" cy="391.60" r="0.70" fill="#2563eb"/>
<circle cx="94.02" cy="388.25" r="0.70" fill="#2563eb"/>
<circle cx="95.35" cy="384.90" r="0.70" fill="#2563eb"/>
<circle cx="96.69" cy="381.55" r="0.70" fill="#2563eb"/>
<circle cx="98.03" cy="378.20" r="0.70" fill="#2563eb"/>
<circle cx="99.37" cy="374.85" r="0.70" fill="#2563eb"/>
<circle cx="100.71" cy="371.50" r="0.70" fill="#2563eb"/>
<circle cx="102.05" cy="368.15" r="0.70" fill="#2563eb"/>
<circle cx="103.38" cy="364.80" r="0.70" fill="#2563eb"/>
<circle cx="104.72" cy="361.45" r="0.70" fill="#2563eb"/>
<circle cx="106.06" cy="358.10" r="0.70" fill="#2563eb"/>
<circle cx="107.40" cy="354.75" r="0.70" fill="#2563eb"/>
<circle cx="108.74" cy="351.40" r="0.70" fill="#2563eb"/>
<circle cx="110.08" cy="348.05" r="0.70" fill="#2563eb"/>
<circle cx="111.42" cy="344.70" r="0.70" fill="#2563eb"/>
<circle cx="112.75" cy="341.35" r="0.70" fill="#2563eb"/>
<circle cx="114.09" cy="338.00" r="0.70" fill="#2563eb"/>
<circle cx="115.43" cy="334.65" r="0.70" fill="#2563eb"/>
<circle cx="116.77" cy="331.30" r="0.70" fill="#2563eb"/>
<circle cx="118.11" cy="327.95" r="0.70" fill="#2563eb"/>
<circle cx="119.45" cy="324.60" r="0.70" fill="#2563eb"/>
<circle cx="120.78" cy="321.25" r="0.70" fill="#2563eb"/>
<circle cx="122.12" cy="317.90" r="0.70" fill="#2563eb"/>
<circle cx="123.46" cy="314.55" r="0.70" fill="#2563eb"/>
<circle cx="124.80" cy="311.20" r="0.70" fill="#2563eb"/>
<circle cx="126.14" cy="307.85" r="0.70" fill="#2563eb"/>
<circle cx="127.48" cy="304.50" r="0.70" fill="#2563eb"/>
<circle cx="128.82" cy="301.15" r="0.70" fill="#2563eb"/>
<circle cx="130.15" cy="297.80" r="0.70" fill="#2563eb"/>
<circle cx="131.49" cy="294.45" r="0.70" fill="#2563eb"/>
<circle cx="132.83" cy="291.10" r="0.70" fill="#2563eb"/>
<circle cx="134.17" cy="287.75" r="0.70" fill="#2563eb"/>
<circle cx="135.51" cy="284.40" r="0.70" fill="#2563eb"/>
<circle cx="136.85" cy="281.05" r="0.70" fill="#2563eb"/>
<circle cx="144.88" cy="343.02" r="0.70" fill="#2563eb"/>
<circle cx="151.57" cy="339.68" r="0.70" fill="#2563eb"/>
<circle cx="158.26" cy="336.32" r="0.70" fill="#2563eb"/>
<circle cx="160.94" cy="332.98" r="0.70" fill="#2563eb"/>
<circle cx="164.95" cy="329.62" r="0.70" fill="#2563eb"/>
<circle cx="170.31" cy="326.27" r="0.70" fill="#2563eb"/>
<circle cx="174.32" cy="322.93" r="0.70" fill="#2563eb"/>
<circle cx="178.34" cy="319.57" r="0.70" fill="#2563eb"/>
<circle cx="182.35" cy="316.23" r="0.70" fill="#2563eb"/>
<circle cx="186.37" cy="312.88" r="0.70" fill="#2563eb"/>
<circle cx="190.38" cy="309.52" r="0.70" fill="#2563eb"/>
<circle cx="194.40" cy="306.18" r="0.70" fill="#2563eb"/>
<circle cx="197.08" cy="302.82" r="0.70" fill="#2563eb"/>
<circle cx="201.09" cy="299.48" r="0.70" fill="#2563eb"/>
<circle cx="205.11" cy="296.12" r="0.70" fill="#2563eb"/>
<circle cx="207.78" cy="292.77" r="0.70" fill="#2563eb"/>
<circle cx="211.80" cy="289.43" r="0.70" fill="#2563eb"/>
<circle cx="215.82" cy="286.07" r="0.70" fill="#2563eb"/>
<circle cx="218.49" cy="282.73" r="0.70" fill="#2563eb"/>
<circle cx="222.51" cy="279.38" r="0.70" fill="#2563eb"/>
<circle cx="225.18" cy="276.02" r="0.70" fill="#2563eb"/>
<circle cx="227.86" cy="340.51" r="0.70" fill="#2563eb"/>
<circle cx="231.88" cy="337.16" r="0.70" fill="#2563eb"/>
<circle cx="234.55" cy="333.81" r="0.70" fill="#2563eb"/>
<circle cx="235.89" cy="330.46" r="0.70" fill="#2563eb"/>
<circle cx="238.57" cy="327.11" r="0.70" fill="#2563eb"/>
<circle cx="241.25" cy="323.76" r="0.70" fill="#2563eb"/>
<circle cx="243.92" cy="320.41" r="0.70" fill="#2563eb"/>
<circle cx="246.60" cy="317.06" r="0.70" fill="#2563eb"/>
<circle cx="249.28" cy="313.71" r="0.70" fill="#2563eb"/>
<circle cx="251.95" cy="310.36" r="0.70" fill="#2563eb"/>
<circle cx="254.63" cy="307.01" r="0.70" fill="#2563eb"/>
<circle cx="257.31" cy="303.66" r="0.70" fill="#2563eb"/>
<circle cx="259.98" cy="300.31" r="0.70" fill="#2563eb"/>
<circle cx="262.66" cy="296.96" r="0.70" fill="#2563eb"/>
<circle cx="265.34" cy="350.98" r="0.70" fill="#2563eb"/>
<circle cx="269.35" cy="347.63" r="0.70" fill="#2563eb"/>
<circle cx="270.69" cy="344.28" r="0.70" fill="#2563eb"/>
<circle cx="273.37" cy="340.93" r="0.70" fill="#2563eb"/>
<circle cx="276.05" cy="337.58" r="0.70" fill="#2563eb"/>
<circle cx="278.72" cy="334.23" r="0.70" fill="#2563eb"/>
<circle cx="281.40" cy="330.88" r="0.70" fill="#2563eb"/>
<circle cx="284.08" cy="327.53" r="0.70" fill="#2563eb"/>
<circle cx="286.75" cy="366.27" r="0.70" fill="#2563eb"/>
<circle cx="290.77" cy="362.92" r="0.70" fill="#2563eb"/>
<circle cx="293.45" cy="359.57" r="0.70" fill="#2563eb"/>
<circle cx="296.12" cy="356.22" r="0.70" fill="#2563eb"/>
<circle cx="297.46" cy="352.87" r="0.70" fill="#2563eb"/>
<circle cx="300.14" cy="349.52" r="0.70" fill="#2563eb"/>
<circle cx="302.82" cy="346.17" r="0.70" fill="#2563eb"/>
<circle cx="305.49" cy="342.82" r="0.70" fill="#2563eb"/>
<circle cx="306.83" cy="339.47" r="0.70" fill="#2563eb"/>
<circle cx="310.85" cy="336.12" r="0.70" fill="#2563eb"/>
<circle cx="313.52" cy="332.77" r="0.70" fill="#2563eb"/>
<circle cx="317.54" cy="329.42" r="0.70" fill="#2563eb"/>
<circle cx="320.22" cy="326.07" r="0.70" fill="#2563eb"/>
<circle cx="322.89" cy="322.72" r="0.70" fill="#2563eb"/>
<circle cx="325.57" cy="319.37" r="0.70" fill="#2563eb"/>
<circle cx="329.58" cy="362.18" r="0.70" fill="#2563eb"/>
<circle cx="332.26" cy="358.83" r="0.70" fill="#2563eb"/>
<circle cx="334.94" cy="355.48" r="0.70" fill="#2563eb"/>
<circle cx="337.62" cy="352.13" r="0.70" fill="#2563eb"/>
<circle cx="340.29" cy="348.78" r="0.70" fill="#2563eb"/>
<circle cx="342.97" cy="345.43" r="0.70" fill="#2563eb"/>
<circle cx="345.65" cy="342.08" r="0.70" fill="#2563eb"/>
<circle cx="348.32" cy="338.73" r="0.70" fill="#2563eb"/>
<circle cx="351.00" cy="335.38" r="0.70" fill="#2563eb"/>
<circle cx="355.02" cy="370.19" r="0.70" fill="#2563eb"/>
<circle cx="357.69" cy="366.84" r="0.70" fill="#2563eb"/>
<circle cx="360.37" cy="363.49" r="0.70" fill="#2563eb"/>
<circle cx="363.05" cy="384.25" r="0.70" fill="#2563eb"/>
<circle cx="367.06" cy="380.90" r="0.70" fill="#2563eb"/>
<circle cx="369.74" cy="377.55" r="0.70" fill="#2563eb"/>
<circle cx="373.75" cy="391.27" r="0.70" fill="#2563eb"/>
<circle cx="376.43" cy="387.92" r="0.70" fill="#2563eb"/>
<circle cx="379.11" cy="384.57" r="0.70" fill="#2563eb"/>
<circle cx="381.78" cy="394.79" r="0.70" fill="#2563eb"/>
<circle cx="385.80" cy="399.89" r="0.70" fill="#2563eb"/>
<circle cx="388.48" cy="401.65" r="0.70" fill="#2563eb"/>
<circle cx="392.49" cy="401.65" r="0.70" fill="#2563eb"/>
<circle cx="395.17" cy="401.65" r="0.70" fill="#2563eb"/>
<circle cx="399.18" cy="398.30" r="0.70" fill="#2563eb"/>
<circle cx="403.20" cy="401.65" r="0.70" fill="#2563eb"/>
<circle cx="405.88" cy="398.30" r="0.70" fill="#2563eb"/>
<circle cx="408.55" cy="394.95" r="0.70" fill="#2563eb"/>
<circle cx="409.89" cy="391.60" r="0.70" fill="#2563eb"/>
<circle cx="413.91" cy="398.30" r="0.70" fill="#2563eb"/>
<circle cx="417.92" cy="394.95" r="0.70" fill="#2563eb"/>
<circle cx="420.60" cy="391.60" r="0.70" fill="#2563eb"/>
<circle cx="424.62" cy="398.30" r="0.70" fill="#2563eb"/>
<circle cx="427.29" cy="394.95" r="0.70" fill="#2563eb"/>
<circle cx="431.31" cy="391.60" r="0.70" fill="#2563eb"/>
<circle cx="433.98" cy="398.30" r="0.70" fill="#2563eb"/>
<circle cx="438.00" cy="401.65" r="0.70" fill="#2563eb"/>
<circle cx="440.68" cy="398.30" r="0.70" fill="#2563eb"/>
<circle cx="443.35" cy="394.95" r="0.70" fill="#2563eb"/>
<circle cx="446.03" cy="399.98" r="0.70" fill="#2563eb"/>
<circle cx="448.71" cy="396.62" r="0.70" fill="#2563eb"/>
<circle cx="451.38" cy="393.27" r="0.70" fill="#2563eb"/>
<circle cx="454.06" cy="399.14" r="0.70" fill="#2563eb"/>
<circle cx="456.74" cy="395.79" r="0.70" fill="#2563eb"/>
<circle cx="459.42" cy="392.44" r="0.70" fill="#2563eb"/>
<circle cx="462.09" cy="389.09" r="0.70" fill="#2563eb"/>
<circle cx="464.77" cy="385.74" r="0.70" fill="#2563eb"/>
<circle cx="468.78" cy="395.37" r="0.70" fill="#2563eb"/>
<circle cx="471.46" cy="392.02" r="0.70" fill="#2563eb"/>
<circle cx="475.48" cy="388.67" r="0.70" fill="#2563eb"/>
<circle cx="478.15" cy="396.83" r="0.70" fill="#2563eb"/>
<circle cx="482.17" cy="393.48" r="0.70" fill="#2563eb"/>
<circle cx="484.85" cy="390.13" r="0.70" fill="#2563eb"/>
<circle cx="487.52" cy="386.78" r="0.70" fill="#2563eb"/>
<circle cx="490.20" cy="395.89" r="0.70" fill="#2563eb"/>
<circle cx="492.88" cy="392.54" r="0.70" fill="#2563eb"/>
<circle cx="495.55" cy="398.77" r="0.70" fill="#2563eb"/>
<circle cx="499.57" cy="401.65" r="0.70" fill="#2563eb"/>
<circle cx="502.25" cy="398.30" r="0.70" fill="#2563eb"/>
<circle cx="506.26" cy="401.65" r="0.70" fill="#2563eb"/>
<circle cx="508.94" cy="401.65" r="0.70" fill="#2563eb"/>
<circle cx="512.95" cy="401.65" r="0.70" fill="#2563eb"/>
<circle cx="515.63" cy="398.30" r="0.70" fill="#2563eb"/>
<circle cx="518.31" cy="394.95" r="0.70" fill="#2563eb"/>
<circle cx="520.98" cy="391.60" r="0.70" fill="#2563eb"/>
<circle cx="525.00" cy="388.25" r="0.70" fill="#2563eb"/>
<circle cx="527.68" cy="384.90" r="0.70" fill="#2563eb"/>
<circle cx="531.69" cy="394.95" r="0.70" fill="#2563eb"/>
<circle cx="534.37" cy="399.98" r="0.70" fill="#2563eb"/>
<circle cx="538.38" cy="396.62" r="0.70" fill="#2563eb"/>
<circle cx="541.06" cy="393.27" r="0.70" fill="#2563eb"/>
<circle cx="542.40" cy="389.93" r="0.70" fill="#2563eb"/>
<circle cx="545.08" cy="386.57" r="0.70" fill="#2563eb"/>
<circle cx="547.75" cy="383.23" r="0.70" fill="#2563eb"/>
<circle cx="550.43" cy="379.88" r="0.70" fill="#2563eb"/>
<circle cx="553.11" cy="376.52" r="0.70" fill="#2563eb"/>
<circle cx="555.78" cy="373.18" r="0.70" fill="#2563eb"/>
<circle cx="557.12" cy="369.82" r="0.70" fill="#2563eb"/>
<circle cx="559.80" cy="366.48" r="0.70" fill="#2563eb"/>
<circle cx="562.48" cy="363.12" r="0.70" fill="#2563eb"/>
<circle cx="565.15" cy="359.77" r="0.70" fill="#2563eb"/>
<circle cx="569.17" cy="382.39" r="0.70" fill="#2563eb"/>
<circle cx="573.18" cy="379.04" r="0.70" fill="#2563eb"/>
<circle cx="575.86" cy="375.69" r="0.70" fill="#2563eb"/>
<circle cx="578.54" cy="372.34" r="0.70" fill="#2563eb"/>
<circle cx="581.22" cy="368.99" r="0.70" fill="#2563eb"/>
<circle cx="583.89" cy="365.64" r="0.70" fill="#2563eb"/>
<circle cx="586.57" cy="362.29" r="0.70" fill="#2563eb"/>
<circle cx="589.25" cy="358.94" r="0.70" fill="#2563eb"/>
<circle cx="591.92" cy="355.59" r="0.70" fill="#2563eb"/>
<circle cx="594.60" cy="352.24" r="0.70" fill="#2563eb"/>
<circle cx="597.28" cy="348.89" r="0.70" fill="#2563eb"/>
<circle cx="599.95" cy="345.54" r="0.70" fill="#2563eb"/>
<circle cx="602.63" cy="342.19" r="0.70" fill="#2563eb"/>
<circle cx="605.31" cy="338.84" r="0.70" fill="#2563eb"/>
<circle cx="607.98" cy="335.49" r="0.70" fill="#2563eb"/>
<circle cx="610.66" cy="332.14" r="0.70" fill="#2563eb"/>
<circle cx="614.68" cy="328.79" r="0.70" fill="#2563eb"/>
<circle cx="617.35" cy="325.44" r="0.70" fill="#2563eb"/>
<circle cx="620.03" cy="365.22" r="0.70" fill="#2563eb"/>
<circle cx="622.71" cy="361.87" r="0.70" fill="#2563eb"/>
<circle cx="624.05" cy="358.52" r="0.70" fill="#2563eb"/>
<circle cx="628.06" cy="355.17" r="0.70" fill="#2563eb"/>
<circle cx="630.74" cy="351.82" r="0.70" fill="#2563eb"/>
<circle cx="633.42" cy="348.47" r="0.70" fill="#2563eb"/>
<circle cx="636.09" cy="345.12" r="0.70" fill="#2563eb"/>
<circle cx="640.11" cy="341.77" r="0.70" fill="#2563eb"/>
<circle cx="642.78" cy="338.42" r="0.70" fill="#2563eb"/>
<circle cx="645.46" cy="335.07" r="0.70" fill="#2563eb"/>
<circle cx="648.14" cy="331.72" r="0.70" fill="#2563eb"/>
<circle cx="650.82" cy="368.36" r="0.70" fill="#2563eb"/>
<circle cx="654.83" cy="365.01" r="0.70" fill="#2563eb"/>
<circle cx="657.51" cy="361.66" r="0.70" fill="#2563eb"/>
<circle cx="658.85" cy="358.31" r="0.70" fill="#2563eb"/>
<circle cx="661.52" cy="354.96" r="0.70" fill="#2563eb"/>
<circle cx="664.20" cy="351.61" r="0.70" fill="#2563eb"/>
<circle cx="665.54" cy="348.26" r="0.70" fill="#2563eb"/>
<circle cx="668.22" cy="344.91" r="0.70" fill="#2563eb"/>
<circle cx="670.89" cy="341.56" r="0.70" fill="#2563eb"/>
<circle cx="673.57" cy="338.21" r="0.70" fill="#2563eb"/>
<circle cx="674.91" cy="334.86" r="0.70" fill="#2563eb"/>
<circle cx="677.58" cy="331.51" r="0.70" fill="#2563eb"/>
<circle cx="680.26" cy="328.16" r="0.70" fill="#2563eb"/>
<circle cx="684.28" cy="324.81" r="0.70" fill="#2563eb"/>
<circle cx="686.95" cy="321.46" r="0.70" fill="#2563eb"/>
<circle cx="689.63" cy="318.11" r="0.70" fill="#2563eb"/>
<circle cx="693.65" cy="314.76" r="0.70" fill="#2563eb"/>
<circle cx="696.32" cy="311.41" r="0.70" fill="#2563eb"/>
<circle cx="699.00" cy="308.06" r="0.70" fill="#2563eb"/>
<circle cx="703.02" cy="304.71" r="0.70" fill="#2563eb"/>
<circle cx="705.69" cy="301.36" r="0.70" fill="#2563eb"/>
<circle cx="708.37" cy="353.18" r="0.70" fill="#2563eb"/>
<circle cx="711.05" cy="349.83" r="0.70" fill="#2563eb"/>
<circle cx="713.72" cy="346.48" r="0.70" fill="#2563eb"/>
<circle cx="716.40" cy="343.13" r="0.70" fill="#2563eb"/>
<circle cx="717.74" cy="339.78" r="0.70" fill="#2563eb"/>
<circle cx="720.42" cy="336.43" r="0.70" fill="#2563eb"/>
<circle cx="723.09" cy="333.08" r="0.70" fill="#2563eb"/>
<circle cx="725.77" cy="329.73" r="0.70" fill="#2563eb"/>
<circle cx="728.45" cy="326.38" r="0.70" fill="#2563eb"/>
<circle cx="731.12" cy="323.03" r="0.70" fill="#2563eb"/>
<circle cx="733.80" cy="319.68" r="0.70" fill="#2563eb"/>
<circle cx="735.14" cy="316.33" r="0.70" fill="#2563eb"/>
<circle cx="737.82" cy="312.98" r="0.70" fill="#2563eb"/>
<circle cx="740.49" cy="309.63" r="0.70" fill="#2563eb"/>
<circle cx="744.51" cy="306.28" r="0.70" fill="#2563eb"/>
<circle cx="747.18" cy="355.64" r="0.70" fill="#2563eb"/>
<circle cx="749.86" cy="352.29" r="0.70" fill="#2563eb"/>
<circle cx="752.54" cy="348.94" r="0.70" fill="#2563eb"/>
<circle cx="755.22" cy="345.59" r="0.70" fill="#2563eb"/>
<circle cx="757.89" cy="342.24" r="0.70" fill="#2563eb"/>
<circle cx="760.57" cy="338.89" r="0.70" fill="#2563eb"/>
<circle cx="763.25" cy="335.54" r="0.70" fill="#2563eb"/>
<circle cx="765.92" cy="332.19" r="0.70" fill="#2563eb"/>
<circle cx="768.60" cy="328.84" r="0.70" fill="#2563eb"/>
<circle cx="771.28" cy="325.49" r="0.70" fill="#2563eb"/>
<circle cx="773.95" cy="322.14" r="0.70" fill="#2563eb"/>
<circle cx="776.63" cy="318.79" r="0.70" fill="#2563eb"/>
<circle cx="779.31" cy="315.44" r="0.70" fill="#2563eb"/>
<circle cx="781.98" cy="312.09" r="0.70" fill="#2563eb"/>
<circle cx="784.66" cy="308.74" r="0.70" fill="#2563eb"/>
<circle cx="787.34" cy="305.39" r="0.70" fill="#2563eb"/>
<circle cx="790.02" cy="302.04" r="0.70" fill="#2563eb"/>
<circle cx="792.69" cy="298.69" r="0.70" fill="#2563eb"/>
<circle cx="796.71" cy="351.84" r="0.70" fill="#2563eb"/>
<circle cx="800.72" cy="348.49" r="0.70" fill="#2563eb"/>
<circle cx="803.40" cy="345.14" r="0.70" fill="#2563eb"/>
<circle cx="806.08" cy="341.79" r="0.70" fill="#2563eb"/>
<circle cx="808.75" cy="338.44" r="0.70" fill="#2563eb"/>
<circle cx="811.43" cy="335.09" r="0.70" fill="#2563eb"/>
<circle cx="814.11" cy="331.74" r="0.70" fill="#2563eb"/>
<circle cx="816.78" cy="328.39" r="0.70" fill="#2563eb"/>
<circle cx="819.46" cy="325.04" r="0.70" fill="#2563eb"/>
<circle cx="822.14" cy="321.69" r="0.70" fill="#2563eb"/>
<circle cx="824.82" cy="318.34" r="0.70" fill="#2563eb"/>
<circle cx="827.49" cy="314.99" r="0.70" fill="#2563eb"/>
<circle cx="830.17" cy="311.64" r="0.70" fill="#2563eb"/>
<circle cx="832.85" cy="308.29" r="0.70" fill="#2563eb"/>
<circle cx="835.52" cy="304.94" r="0.70" fill="#2563eb"/>
<circle cx="838.20" cy="301.59" r="0.70" fill="#2563eb"/>
<circle cx="840.88" cy="298.24" r="0.70" fill="#2563eb"/>
<circle cx="843.55" cy="294.89" r="0.70" fill="#2563eb"/>
<circle cx="846.23" cy="349.95" r="0.70" fill="#2563eb"/>
<circle cx="848.91" cy="346.60" r="0.70" fill="#2563eb"/>
<circle cx="851.58" cy="343.25" r="0.70" fill="#2563eb"/>
<circle cx="855.60" cy="339.90" r="0.70" fill="#2563eb"/>
<circle cx="858.28" cy="336.55" r="0.70" fill="#2563eb"/>
<circle cx="860.95" cy="333.20" r="0.70" fill="#2563eb"/>
<circle cx="863.63" cy="329.85" r="0.70" fill="#2563eb"/>
<circle cx="866.31" cy="326.50" r="0.70" fill="#2563eb"/>
<circle cx="868.98" cy="323.15" r="0.70" fill="#2563eb"/>
<circle cx="871.66" cy="319.80" r="0.70" fill="#2563eb"/>
<circle cx="874.34" cy="316.45" r="0.70" fill="#2563eb"/>
<circle cx="877.02" cy="313.10" r="0.70" fill="#2563eb"/>
<circle cx="879.69" cy="309.75" r="0.70" fill="#2563eb"/>
<circle cx="882.37" cy="306.40" r="0.70" fill="#2563eb"/>
<circle cx="885.05" cy="303.05" r="0.70" fill="#2563eb"/>
<circle cx="887.72" cy="299.70" r="0.70" fill="#2563eb"/>
<circle cx="890.40" cy="296.35" r="0.70" fill="#2563eb"/>
<circle cx="893.08" cy="350.67" r="0.70" fill="#2563eb"/>
<circle cx="895.75" cy="347.32" r="0.70" fill="#2563eb"/>
<circle cx="898.43" cy="343.97" r="0.70" fill="#2563eb"/>
<circle cx="901.11" cy="340.62" r="0.70" fill="#2563eb"/>
<circle cx="902.45" cy="337.27" r="0.70" fill="#2563eb"/>
<circle cx="905.12" cy="333.92" r="0.70" fill="#2563eb"/>
<circle cx="907.80" cy="330.57" r="0.70" fill="#2563eb"/>
<circle cx="910.48" cy="327.22" r="0.70" fill="#2563eb"/>
<circle cx="914.49" cy="323.87" r="0.70" fill="#2563eb"/>
<circle cx="917.17" cy="320.52" r="0.70" fill="#2563eb"/>
<circle cx="919.85" cy="317.17" r="0.70" fill="#2563eb"/>
<circle cx="922.52" cy="313.82" r="0.70" fill="#2563eb"/>
<circle cx="925.20" cy="310.47" r="0.70" fill="#2563eb"/>
<circle cx="929.22" cy="307.12" r="0.70" fill="#2563eb"/>
<circle cx="931.89" cy="303.77" r="0.70" fill="#2563eb"/>
<circle cx="934.57" cy="300.42" r="0.70" fill="#2563eb"/>
<circle cx="937.25" cy="352.71" r="0.70" fill="#2563eb"/>
<circle cx="939.92" cy="349.36" r="0.70" fill="#2563eb"/>
<circle cx="942.60" cy="346.01" r="0.70" fill="#2563eb"/>
<circle cx="945.28" cy="342.66" r="0.70" fill="#2563eb"/>
<circle cx="947.95" cy="339.31" r="0.70" fill="#2563eb"/>
<circle cx="950.63" cy="335.96" r="0.70" fill="#2563eb"/>
<circle cx="951.97" cy="332.61" r="0.70" fill="#2563eb"/>
<circle cx="954.65" cy="329.26" r="0.70" fill="#2563eb"/>
<circle cx="957.32" cy="325.91" r="0.70" fill="#2563eb"/>
<circle cx="960.00" cy="322.56" r="0.70" fill="#2563eb"/>
<circle cx="962.68" cy="319.21" r="0.70" fill="#2563eb"/>
<circle cx="965.35" cy="315.86" r="0.70" fill="#2563eb"/>
<circle cx="969.37" cy="312.51" r="0.70" fill="#2563eb"/>
<circle cx="973.38" cy="309.16" r="0.70" fill="#2563eb"/>
<circle cx="976.06" cy="305.81" r="0.70" fill="#2563eb"/>
<circle cx="978.74" cy="355.41" r="0.70" fill="#2563eb"/>
<circle cx="982.75" cy="352.06" r="0.70" fill="#2563eb"/>
<circle cx="985.43" cy="348.71" r="0.70" fill="#2563eb"/>
<circle cx="986.77" cy="345.36" r="0.70" fill="#2563eb"/>
<circle cx="989.45" cy="342.01" r="0.70" fill="#2563eb"/>
<circle cx="992.12" cy="338.66" r="0.70" fill="#2563eb"/>
<circle cx="994.80" cy="335.31" r="0.70" fill="#2563eb"/>
<circle cx="997.48" cy="331.96" r="0.70" fill="#2563eb"/>
<circle cx="1000.15" cy="328.61" r="0.70" fill="#2563eb"/>
<circle cx="1002.83" cy="325.26" r="0.70" fill="#2563eb"/>
<circle cx="1005.51" cy="321.91" r="0.70" fill="#2563eb"/>
<circle cx="1008.18" cy="318.56" r="0.70" fill="#2563eb"/>
<circle cx="1010.86" cy="315.21" r="0.70" fill="#2563eb"/>
<circle cx="1012.20" cy="311.86" r="0.70" fill="#2563eb"/>
<circle cx="1014.88" cy="308.51" r="0.70" fill="#2563eb"/>
<circle cx="1017.55" cy="305.16" r="0.70" fill="#2563eb"/>
<circle cx="1020.23" cy="301.81" r="0.70" fill="#2563eb"/>
<circle cx="1024.25" cy="298.46" r="0.70" fill="#2563eb"/>
<circle cx="1028.26" cy="295.11" r="0.70" fill="#2563eb"/>
<circle cx="1032.28" cy="350.05" r="0.70" fill="#2563eb"/>
<circle cx="1034.95" cy="346.70" r="0.70" fill="#2563eb"/>
<circle cx="1037.63" cy="343.35" r="0.70" fill="#2563eb"/>
<circle cx="1040.31" cy="340.00" r="0.70" fill="#2563eb"/>
<circle cx="1042.98" cy="336.65" r="0.70" fill="#2563eb"/>
<circle cx="1045.66" cy="333.30" r="0.70" fill="#2563eb"/>
<circle cx="1047.00" cy="329.95" r="0.70" fill="#2563eb"/>
<circle cx="1049.68" cy="326.60" r="0.70" fill="#2563eb"/>
<circle cx="1052.35" cy="323.25" r="0.70" fill="#2563eb"/>
<circle cx="1055.03" cy="319.90" r="0.70" fill="#2563eb"/>
<circle cx="1057.71" cy="316.55" r="0.70" fill="#2563eb"/>
<circle cx="1060.38" cy="313.20" r="0.70" fill="#2563eb"/>
<circle cx="1063.06" cy="309.85" r="0.70" fill="#2563eb"/>
<circle cx="1065.74" cy="306.50" r="0.70" fill="#2563eb"/>
<circle cx="1068.42" cy="303.15" r="0.70" fill="#2563eb"/>
<circle cx="1071.09" cy="299.80" r="0.70" fill="#2563eb"/>
<circle cx="1073.77" cy="352.40" r="0.70" fill="#2563eb"/>
<circle cx="1076.45" cy="349.05" r="0.70" fill="#2563eb"/>
<circle cx="1079.12" cy="345.70" r="0.70" fill="#2563eb"/>
<circle cx="1083.14" cy="342.35" r="0.70" fill="#2563eb"/>
<circle cx="1085.82" cy="339.00" r="0.70" fill="#2563eb"/>
<circle cx="1088.49" cy="335.65" r="0.70" fill="#2563eb"/>
<circle cx="1091.17" cy="332.30" r="0.70" fill="#2563eb"/>
<circle cx="1093.85" cy="328.95" r="0.70" fill="#2563eb"/>
<circle cx="1096.52" cy="325.60" r="0.70" fill="#2563eb"/>
<circle cx="1099.20" cy="365.30" r="0.70" fill="#2563eb"/>
<circle cx="1103.22" cy="361.95" r="0.70" fill="#2563eb"/>
<circle cx="1105.89" cy="358.60" r="0.70" fill="#2563eb"/>
<circle cx="1107.23" cy="355.25" r="0.70" fill="#2563eb"/>
<circle cx="1109.91" cy="351.90" r="0.70" fill="#2563eb"/>
<circle cx="1112.58" cy="348.55" r="0.70" fill="#2563eb"/>
<circle cx="1115.26" cy="345.20" r="0.70" fill="#2563eb"/>
<circle cx="1117.94" cy="341.85" r="0.70" fill="#2563eb"/>
<circle cx="1120.62" cy="338.50" r="0.70" fill="#2563eb"/>
<circle cx="1123.29" cy="335.15" r="0.70" fill="#2563eb"/>
<circle cx="1125.97" cy="331.80" r="0.70" fill="#2563eb"/>
<circle cx="1128.65" cy="328.45" r="0.70" fill="#2563eb"/>
<circle cx="1131.32" cy="366.73" r="0.70" fill="#2563eb"/>
<circle cx="1135.34" cy="363.38" r="0.70" fill="#2563eb"/>
<circle cx="1138.02" cy="360.03" r="0.70" fill="#2563eb"/>
<circle cx="1140.69" cy="356.68" r="0.70" fill="#2563eb"/>
<circle cx="1143.37" cy="353.33" r="0.70" fill="#2563eb"/>
<circle cx="1146.05" cy="349.98" r="0.70" fill="#2563eb"/>
<circle cx="1148.72" cy="346.63" r="0.70" fill="#2563eb"/>
<circle cx="1151.40" cy="343.28" r="0.70" fill="#2563eb"/>
<circle cx="1154.08" cy="339.93" r="0.70" fill="#2563eb"/>
<circle cx="1156.75" cy="336.58" r="0.70" fill="#2563eb"/>
<circle cx="1159.43" cy="333.23" r="0.70" fill="#2563eb"/>
<rect x="740" y="78" width="14" height="14" fill="#2563eb"/>
<text x="762" y="90" font-family="Arial, sans-serif" font-size="12" fill="#1f2937">cmf</text>
<polyline points="138.18,394.95 139.52,391.60 140.86,388.25 142.20,384.90 143.54,381.55 146.22,378.20 147.55,374.85 148.89,371.50 150.23,368.15 152.91,364.80 154.25,361.45 155.58,358.10 156.92,354.75 159.60,351.40 162.28,348.05 163.62,344.70 166.29,341.35 167.63,338.00 168.97,334.65 171.65,331.30 172.98,327.95 175.66,324.60 177.00,321.25 179.68,317.90 181.02,314.55 183.69,311.20 185.03,307.85 187.71,304.50 189.05,301.15 191.72,297.80 193.06,294.45 195.74,291.10 198.42,287.75 199.75,284.40 202.43,281.05 203.77,277.70 206.45,274.35 209.12,271.00 210.46,267.65 213.14,264.30 214.48,260.95 217.15,257.60 219.83,254.25 221.17,250.90 223.85,247.55 226.52,244.20 229.20,240.85 230.54,237.50 233.22,234.15 237.23,230.80 239.91,227.45 242.58,224.10 245.26,220.75 247.94,217.40 250.62,214.05 253.29,210.70 255.97,207.35 258.65,204.00 261.32,200.65 264.00,197.30 266.68,193.95 268.02,299.48 272.03,296.12 274.71,292.77 277.38,289.43 280.06,286.07 282.74,282.73 285.42,279.38 288.09,276.02 289.43,272.67 292.11,269.32 294.78,265.98 298.80,262.62 301.48,259.27 304.15,332.14 308.17,328.79 309.51,325.44 312.18,322.09 314.86,318.74 316.20,315.39 318.88,312.04 321.55,308.69 324.23,305.34 326.91,301.99 328.25,298.64 330.92,295.29 333.60,291.94 336.28,288.59 338.95,285.24 341.63,281.89 344.31,278.54 346.98,275.19 349.66,271.84 352.34,268.49 353.68,265.14 356.35,335.07 359.03,331.72 361.71,328.37 364.38,325.02 365.72,321.67 368.40,318.32 371.08,314.97 372.42,311.62 375.09,308.27 377.77,304.92 380.45,301.57 383.12,298.22 384.46,294.87 387.14,291.52 389.82,288.17 391.15,284.82 393.83,281.47 396.51,278.12 397.85,274.77 400.52,271.42 401.86,268.07 404.54,264.72 407.22,334.86 411.23,331.51 412.57,328.16 415.25,324.81 416.58,321.46 419.26,318.11 421.94,314.76 423.28,311.41 425.95,308.06 428.63,304.71 429.97,301.36 432.65,298.01 435.32,294.66 436.66,291.31 439.34,287.96 442.02,284.61 444.69,281.26 447.37,277.91 450.05,274.56 452.72,271.21 455.40,267.86 458.08,264.51 460.75,334.75 463.43,331.40 466.11,328.05 467.45,324.70 470.12,321.35 472.80,318.00 474.14,314.65 476.82,311.30 479.49,307.95 480.83,304.60 483.51,301.25 486.18,297.90 488.86,294.55 491.54,291.20 494.22,287.85 496.89,284.50 498.23,281.15 500.91,277.80 503.58,274.45 504.92,271.10 507.60,267.75 510.28,264.40 511.62,261.05 514.29,333.03 516.97,329.68 519.65,326.33 522.32,322.98 523.66,319.63 526.34,316.28 529.02,312.93 530.35,309.58 533.03,306.23 535.71,302.88 537.05,299.53 539.72,296.18 543.74,292.83 546.42,289.48 549.09,286.13 551.77,282.78 554.45,279.43 558.46,276.08 561.14,272.73 563.82,338.86 566.49,335.51 567.83,332.16 570.51,328.81 571.85,325.46 574.52,322.11 577.20,318.76 579.88,315.41 582.55,312.06 585.23,308.71 587.91,305.36 590.58,302.01 593.26,298.66 595.94,295.31 598.62,291.96 601.29,288.61 603.97,285.26 606.65,281.91 609.32,278.56 612.00,275.21 613.34,271.86 616.02,268.51 618.69,265.16 621.37,335.08 625.38,331.73 626.72,328.38 629.40,325.03 632.08,321.68 634.75,318.33 637.43,314.98 638.77,311.63 641.45,308.28 644.12,304.93 646.80,301.58 649.48,298.23 652.15,294.88 653.49,291.53 656.17,288.18 660.18,284.83 662.86,281.48 666.88,278.13 669.55,274.78 672.23,271.43 676.25,338.22 678.92,334.87 681.60,331.52 682.94,328.17 685.62,324.82 688.29,321.47 690.97,318.12 692.31,314.77 694.98,311.42 697.66,308.07 700.34,304.72 701.68,301.37 704.35,298.02 707.03,294.67 709.71,291.32 712.38,287.97 715.06,284.62 719.08,281.27 721.75,277.92 724.43,274.57 727.11,271.22 729.78,267.87 732.46,264.52 736.48,334.76 739.15,331.41 741.83,328.06 743.17,324.71 745.85,321.36 748.52,318.01 751.20,314.66 753.88,311.31 756.55,307.96 759.23,304.61 761.91,301.26 764.58,297.91 767.26,294.56 769.94,291.21 772.62,287.86 775.29,284.51 777.97,281.16 780.65,277.81 783.32,274.46 786.00,271.11 788.68,338.05 791.35,334.70 794.03,331.35 795.37,328.00 798.05,324.65 799.38,321.30 802.06,317.95 804.74,314.60 807.42,311.25 810.09,307.90 812.77,304.55 815.45,301.20 818.12,297.85 820.80,294.50 823.48,291.15 826.15,287.80 828.83,284.45 831.51,281.10 834.18,277.75 836.86,274.40 839.54,271.05 842.22,267.70 844.89,336.35 847.57,333.00 850.25,329.65 852.92,326.30 854.26,322.95 856.94,319.60 859.62,316.25 862.29,312.90 864.97,309.55 867.65,306.20 870.32,302.85 873.00,299.50 875.68,296.15 878.35,292.80 881.03,289.45 883.71,286.10 886.38,282.75 889.06,279.40 891.74,276.05 894.42,272.70 897.09,269.35 899.77,266.00 903.78,335.50 906.46,332.15 909.14,328.80 911.82,325.45 913.15,322.10 915.83,318.75 918.51,315.40 921.18,312.05 923.86,308.70 926.54,305.35 927.88,302.00 930.55,298.65 933.23,295.30 935.91,291.95 938.58,288.60 941.26,285.25 943.94,281.90 946.62,278.55 949.29,275.20 953.31,271.85 955.98,268.50 958.66,336.75 961.34,333.40 964.02,330.05 966.69,326.70 968.03,323.35 970.71,320.00 972.05,316.65 974.72,313.30 977.40,309.95 980.08,306.60 981.42,303.25 984.09,299.90 988.11,296.55 990.78,293.20 993.46,289.85 996.14,286.50 998.82,283.15 1001.49,279.80 1004.17,276.45 1006.85,273.10 1009.52,269.75 1013.54,266.40 1016.22,263.05 1018.89,334.03 1021.57,330.68 1022.91,327.33 1025.58,323.98 1026.92,320.63 1029.60,317.28 1030.94,313.93 1033.62,310.58 1036.29,307.23 1038.97,303.88 1041.65,300.53 1044.32,297.18 1048.34,293.83 1051.02,290.48 1053.69,287.13 1056.37,283.78 1059.05,280.43 1061.72,277.08 1064.40,273.73 1067.08,270.38 1069.75,267.03 1072.43,336.01 1075.11,332.66 1077.78,329.31 1080.46,325.96 1081.80,322.61 1084.48,319.26 1087.15,315.91 1089.83,312.56 1092.51,309.21 1095.18,305.86 1097.86,302.51 1100.54,299.16 1101.88,295.81 1104.55,292.46 1108.57,289.11 1111.25,285.76 1113.92,282.41 1116.60,279.06 1119.28,275.71 1121.95,272.36 1124.63,269.01 1127.31,337.01 1129.98,333.66 1132.66,330.31 1134.00,326.96 1136.68,323.61 1139.35,320.26 1142.03,316.91 1144.71,313.56 1147.38,310.21 1150.06,306.86 1152.74,303.51 1155.42,300.16 1158.09,296.81 1160.77,293.46" fill="none" stroke="#059669" stroke-width="0.3"/>
<circle cx="138.18" cy="394.95" r="0.70" fill="#059669"/>
<circle cx="139.52" cy="391.60" r="0.70" fill="#059669"/>
<circle cx="140.86" cy="388.25" r="0.70" fill="#059669"/>
<circle cx="142.20" cy="384.90" r="0.70" fill="#059669"/>
<circle cx="143.54" cy="381.55" r="0.70" fill="#059669"/>
<circle cx="146.22" cy="378.20" r="0.70" fill="#059669"/>
<circle cx="147.55" cy="374.85" r="0.70" fill="#059669"/>
<circle cx="148.89" cy="371.50" r="0.70" fill="#059669"/>
<circle cx="150.23" cy="368.15" r="0.70" fill="#059669"/>
<circle cx="152.91" cy="364.80" r="0.70" fill="#059669"/>
<circle cx="154.25" cy="361.45" r="0.70" fill="#059669"/>
<circle cx="155.58" cy="358.10" r="0.70" fill="#059669"/>
<circle cx="156.92" cy="354.75" r="0.70" fill="#059669"/>
<circle cx="159.60" cy="351.40" r="0.70" fill="#059669"/>
<circle cx="162.28" cy="348.05" r="0.70" fill="#059669"/>
<circle cx="163.62" cy="344.70" r="0.70" fill="#059669"/>
<circle cx="166.29" cy="341.35" r="0.70" fill="#059669"/>
<circle cx="167.63" cy="338.00" r="0.70" fill="#059669"/>
<circle cx="168.97" cy="334.65" r="0.70" fill="#059669"/>
<circle cx="171.65" cy="331.30" r="0.70" fill="#059669"/>
<circle cx="172.98" cy="327.95" r="0.70" fill="#059669"/>
<circle cx="175.66" cy="324.60" r="0.70" fill="#059669"/>
<circle cx="177.00" cy="321.25" r="0.70" fill="#059669"/>
<circle cx="179.68" cy="317.90" r="0.70" fill="#059669"/>
<circle cx="181.02" cy="314.55" r="0.70" fill="#059669"/>
<circle cx="183.69" cy="311.20" r="0.70" fill="#059669"/>
<circle cx="185.03" cy="307.85" r="0.70" fill="#059669"/>
<circle cx="187.71" cy="304.50" r="0.70" fill="#059669"/>
<circle cx="189.05" cy="301.15" r="0.70" fill="#059669"/>
<circle cx="191.72" cy="297.80" r="0.70" fill="#059669"/>
<circle cx="193.06" cy="294.45" r="0.70" fill="#059669"/>
<circle cx="195.74" cy="291.10" r="0.70" fill="#059669"/>
<circle cx="198.42" cy="287.75" r="0.70" fill="#059669"/>
<circle cx="199.75" cy="284.40" r="0.70" fill="#059669"/>
<circle cx="202.43" cy="281.05" r="0.70" fill="#059669"/>
<circle cx="203.77" cy="277.70" r="0.70" fill="#059669"/>
<circle cx="206.45" cy="274.35" r="0.70" fill="#059669"/>
<circle cx="209.12" cy="271.00" r="0.70" fill="#059669"/>
<circle cx="210.46" cy="267.65" r="0.70" fill="#059669"/>
<circle cx="213.14" cy="264.30" r="0.70" fill="#059669"/>
<circle cx="214.48" cy="260.95" r="0.70" fill="#059669"/>
<circle cx="217.15" cy="257.60" r="0.70" fill="#059669"/>
<circle cx="219.83" cy="254.25" r="0.70" fill="#059669"/>
<circle cx="221.17" cy="250.90" r="0.70" fill="#059669"/>
<circle cx="223.85" cy="247.55" r="0.70" fill="#059669"/>
<circle cx="226.52" cy="244.20" r="0.70" fill="#059669"/>
<circle cx="229.20" cy="240.85" r="0.70" fill="#059669"/>
<circle cx="230.54" cy="237.50" r="0.70" fill="#059669"/>
<circle cx="233.22" cy="234.15" r="0.70" fill="#059669"/>
<circle cx="237.23" cy="230.80" r="0.70" fill="#059669"/>
<circle cx="239.91" cy="227.45" r="0.70" fill="#059669"/>
<circle cx="242.58" cy="224.10" r="0.70" fill="#059669"/>
<circle cx="245.26" cy="220.75" r="0.70" fill="#059669"/>
<circle cx="247.94" cy="217.40" r="0.70" fill="#059669"/>
<circle cx="250.62" cy="214.05" r="0.70" fill="#059669"/>
<circle cx="253.29" cy="210.70" r="0.70" fill="#059669"/>
<circle cx="255.97" cy="207.35" r="0.70" fill="#059669"/>
<circle cx="258.65" cy="204.00" r="0.70" fill="#059669"/>
<circle cx="261.32" cy="200.65" r="0.70" fill="#059669"/>
<circle cx="264.00" cy="197.30" r="0.70" fill="#059669"/>
<circle cx="266.68" cy="193.95" r="0.70" fill="#059669"/>
<circle cx="268.02" cy="299.48" r="0.70" fill="#059669"/>
<circle cx="272.03" cy="296.12" r="0.70" fill="#059669"/>
<circle cx="274.71" cy="292.77" r="0.70" fill="#059669"/>
<circle cx="277.38" cy="289.43" r="0.70" fill="#059669"/>
<circle cx="280.06" cy="286.07" r="0.70" fill="#059669"/>
<circle cx="282.74" cy="282.73" r="0.70" fill="#059669"/>
<circle cx="285.42" cy="279.38" r="0.70" fill="#059669"/>
<circle cx="288.09" cy="276.02" r="0.70" fill="#059669"/>
<circle cx="289.43" cy="272.67" r="0.70" fill="#059669"/>
<circle cx="292.11" cy="269.32" r="0.70" fill="#059669"/>
<circle cx="294.78" cy="265.98" r="0.70" fill="#059669"/>
<circle cx="298.80" cy="262.62" r="0.70" fill="#059669"/>
<circle cx="301.48" cy="259.27" r="0.70" fill="#059669"/>
<circle cx="304.15" cy="332.14" r="0.70" fill="#059669"/>
<circle cx="308.17" cy="328.79" r="0.70" fill="#059669"/>
<circle cx="309.51" cy="325.44" r="0.70" fill="#059669"/>
<circle cx="312.18" cy="322.09" r="0.70" fill="#059669"/>
<circle cx="314.86" cy="318.74" r="0.70" fill="#059669"/>
<circle cx="316.20" cy="315.39" r="0.70" fill="#059669"/>
<circle cx="318.88" cy="312.04" r="0.70" fill="#059669"/>
<circle cx="321.55" cy="308.69" r="0.70" fill="#059669"/>
<circle cx="324.23" cy="305.34" r="0.70" fill="#059669"/>
<circle cx="326.91" cy="301.99" r="0.70" fill="#059669"/>
<circle cx="328.25" cy="298.64" r="0.70" fill="#059669"/>
<circle cx="330.92" cy="295.29" r="0.70" fill="#059669"/>
<circle cx="333.60" cy="291.94" r="0.70" fill="#059669"/>
<circle cx="336.28" cy="288.59" r="0.70" fill="#059669"/>
<circle cx="338.95" cy="285.24" r="0.70" fill="#059669"/>
<circle cx="341.63" cy="281.89" r="0.70" fill="#059669"/>
<circle cx="344.31" cy="278.54" r="0.70" fill="#059669"/>
<circle cx="346.98" cy="275.19" r="0.70" fill="#059669"/>
<circle cx="349.66" cy="271.84" r="0.70" fill="#059669"/>
<circle cx="352.34" cy="268.49" r="0.70" fill="#059669"/>
<circle cx="353.68" cy="265.14" r="0.70" fill="#059669"/>
<circle cx="356.35" cy="335.07" r="0.70" fill="#059669"/>
<circle cx="359.03" cy="331.72" r="0.70" fill="#059669"/>
<circle cx="361.71" cy="328.37" r="0.70" fill="#059669"/>
<circle cx="364.38" cy="325.02" r="0.70" fill="#059669"/>
<circle cx="365.72" cy="321.67" r="0.70" fill="#059669"/>
<circle cx="368.40" cy="318.32" r="0.70" fill="#059669"/>
<circle cx="371.08" cy="314.97" r="0.70" fill="#059669"/>
<circle cx="372.42" cy="311.62" r="0.70" fill="#059669"/>
<circle cx="375.09" cy="308.27" r="0.70" fill="#059669"/>
<circle cx="377.77" cy="304.92" r="0.70" fill="#059669"/>
<circle cx="380.45" cy="301.57" r="0.70" fill="#059669"/>
<circle cx="383.12" cy="298.22" r="0.70" fill="#059669"/>
<circle cx="384.46" cy="294.87" r="0.70" fill="#059669"/>
<circle cx="387.14" cy="291.52" r="0.70" fill="#059669"/>
<circle cx="389.82" cy="288.17" r="0.70" fill="#059669"/>
<circle cx="391.15" cy="284.82" r="0.70" fill="#059669"/>
<circle cx="393.83" cy="281.47" r="0.70" fill="#059669"/>
<circle cx="396.51" cy="278.12" r="0.70" fill="#059669"/>
<circle cx="397.85" cy="274.77" r="0.70" fill="#059669"/>
<circle cx="400.52" cy="271.42" r="0.70" fill="#059669"/>
<circle cx="401.86" cy="268.07" r="0.70" fill="#059669"/>
<circle cx="404.54" cy="264.72" r="0.70" fill="#059669"/>
<circle cx="407.22" cy="334.86" r="0.70" fill="#059669"/>
<circle cx="411.23" cy="331.51" r="0.70" fill="#059669"/>
<circle cx="412.57" cy="328.16" r="0.70" fill="#059669"/>
<circle cx="415.25" cy="324.81" r="0.70" fill="#059669"/>
<circle cx="416.58" cy="321.46" r="0.70" fill="#059669"/>
<circle cx="419.26" cy="318.11" r="0.70" fill="#059669"/>
<circle cx="421.94" cy="314.76" r="0.70" fill="#059669"/>
<circle cx="423.28" cy="311.41" r="0.70" fill="#059669"/>
<circle cx="425.95" cy="308.06" r="0.70" fill="#059669"/>
<circle cx="428.63" cy="304.71" r="0.70" fill="#059669"/>
<circle cx="429.97" cy="301.36" r="0.70" fill="#059669"/>
<circle cx="432.65" cy="298.01" r="0.70" fill="#059669"/>
<circle cx="435.32" cy="294.66" r="0.70" fill="#059669"/>
<circle cx="436.66" cy="291.31" r="0.70" fill="#059669"/>
<circle cx="439.34" cy="287.96" r="0.70" fill="#059669"/>
<circle cx="442.02" cy="284.61" r="0.70" fill="#059669"/>
<circle cx="444.69" cy="281.26" r="0.70" fill="#059669"/>
<circle cx="447.37" cy="277.91" r="0.70" fill="#059669"/>
<circle cx="450.05" cy="274.56" r="0.70" fill="#059669"/>
<circle cx="452.72" cy="271.21" r="0.70" fill="#059669"/>
<circle cx="455.40" cy="267.86" r="0.70" fill="#059669"/>
<circle cx="458.08" cy="264.51" r="0.70" fill="#059669"/>
<circle cx="460.75" cy="334.75" r="0.70" fill="#059669"/>
<circle cx="463.43" cy="331.40" r="0.70" fill="#059669"/>
<circle cx="466.11" cy="328.05" r="0.70" fill="#059669"/>
<circle cx="467.45" cy="324.70" r="0.70" fill="#059669"/>
<circle cx="470.12" cy="321.35" r="0.70" fill="#059669"/>
<circle cx="472.80" cy="318.00" r="0.70" fill="#059669"/>
<circle cx="474.14" cy="314.65" r="0.70" fill="#059669"/>
<circle cx="476.82" cy="311.30" r="0.70" fill="#059669"/>
<circle cx="479.49" cy="307.95" r="0.70" fill="#059669"/>
<circle cx="480.83" cy="304.60" r="0.70" fill="#059669"/>
<circle cx="483.51" cy="301.25" r="0.70" fill="#059669"/>
<circle cx="486.18" cy="297.90" r="0.70" fill="#059669"/>
<circle cx="488.86" cy="294.55" r="0.70" fill="#059669"/>
<circle cx="491.54" cy="291.20" r="0.70" fill="#059669"/>
<circle cx="494.22" cy="287.85" r="0.70" fill="#059669"/>
<circle cx="496.89" cy="284.50" r="0.70" fill="#059669"/>
<circle cx="498.23" cy="281.15" r="0.70" fill="#059669"/>
<circle cx="500.91" cy="277.80" r="0.70" fill="#059669"/>
<circle cx="503.58" cy="274.45" r="0.70" fill="#059669"/>
<circle cx="504.92" cy="271.10" r="0.70" fill="#059669"/>
<circle cx="507.60" cy="267.75" r="0.70" fill="#059669"/>
<circle cx="510.28" cy="264.40" r="0.70" fill="#059669"/>
<circle cx="511.62" cy="261.05" r="0.70" fill="#059669"/>
<circle cx="514.29" cy="333.03" r="0.70" fill="#059669"/>
<circle cx="516.97" cy="329.68" r="0.70" fill="#059669"/>
<circle cx="519.65" cy="326.33" r="0.70" fill="#059669"/>
<circle cx="522.32" cy="322.98" r="0.70" fill="#059669"/>
<circle cx="523.66" cy="319.63" r="0.70" fill="#059669"/>
<circle cx="526.34" cy="316.28" r="0.70" fill="#059669"/>
<circle cx="529.02" cy="312.93" r="0.70" fill="#059669"/>
<circle cx="530.35" cy="309.58" r="0.70" fill="#059669"/>
<circle cx="533.03" cy="306.23" r="0.70" fill="#059669"/>
<circle cx="535.71" cy="302.88" r="0.70" fill="#059669"/>
<circle cx="537.05" cy="299.53" r="0.70" fill="#059669"/>
<circle cx="539.72" cy="296.18" r="0.70" fill="#059669"/>
<circle cx="543.74" cy="292.83" r="0.70" fill="#059669"/>
<circle cx="546.42" cy="289.48" r="0.70" fill="#059669"/>
<circle cx="549.09" cy="286.13" r="0.70" fill="#059669"/>
<circle cx="551.77" cy="282.78" r="0.70" fill="#059669"/>
<circle cx="554.45" cy="279.43" r="0.70" fill="#059669"/>
<circle cx="558.46" cy="276.08" r="0.70" fill="#059669"/>
<circle cx="561.14" cy="272.73" r="0.70" fill="#059669"/>
<circle cx="563.82" cy="338.86" r="0.70" fill="#059669"/>
<circle cx="566.49" cy="335.51" r="0.70" fill="#059669"/>
<circle cx="567.83" cy="332.16" r="0.70" fill="#059669"/>
<circle cx="570.51" cy="328.81" r="0.70" fill="#059669"/>
<circle cx="571.85" cy="325.46" r="0.70" fill="#059669"/>
<circle cx="574.52" cy="322.11" r="0.70" fill="#059669"/>
<circle cx="577.20" cy="318.76" r="0.70" fill="#059669"/>
<circle cx="579.88" cy="315.41" r="0.70" fill="#059669"/>
<circle cx="582.55" cy="312.06" r="0.70" fill="#059669"/>
<circle cx="585.23" cy="308.71" r="0.70" fill="#059669"/>
<circle cx="587.91" cy="305.36" r="0.70" fill="#059669"/>
<circle cx="590.58" cy="302.01" r="0.70" fill="#059669"/>
<circle cx="593.26" cy="298.66" r="0.70" fill="#059669"/>
<circle cx="595.94" cy="295.31" r="0.70" fill="#059669"/>
<circle cx="598.62" cy="291.96" r="0.70" fill="#059669"/>
<circle cx="601.29" cy="288.61" r="0.70" fill="#059669"/>
<circle cx="603.97" cy="285.26" r="0.70" fill="#059669"/>
<circle cx="606.65" cy="281.91" r="0.70" fill="#059669"/>
<circle cx="609.32" cy="278.56" r="0.70" fill="#059669"/>
<circle cx="612.00" cy="275.21" r="0.70" fill="#059669"/>
<circle cx="613.34" cy="271.86" r="0.70" fill="#059669"/>
<circle cx="616.02" cy="268.51" r="0.70" fill="#059669"/>
<circle cx="618.69" cy="265.16" r="0.70" fill="#059669"/>
<circle cx="621.37" cy="335.08" r="0.70" fill="#059669"/>
<circle cx="625.38" cy="331.73" r="0.70" fill="#059669"/>
<circle cx="626.72" cy="328.38" r="0.70" fill="#059669"/>
<circle cx="629.40" cy="325.03" r="0.70" fill="#059669"/>
<circle cx="632.08" cy="321.68" r="0.70" fill="#059669"/>
<circle cx="634.75" cy="318.33" r="0.70" fill="#059669"/>
<circle cx="637.43" cy="314.98" r="0.70" fill="#059669"/>
<circle cx="638.77" cy="311.63" r="0.70" fill="#059669"/>
<circle cx="641.45" cy="308.28" r="0.70" fill="#059669"/>
<circle cx="644.12" cy="304.93" r="0.70" fill="#059669"/>
<circle cx="646.80" cy="301.58" r="0.70" fill="#059669"/>
<circle cx="649.48" cy="298.23" r="0.70" fill="#059669"/>
<circle cx="652.15" cy="294.88" r="0.70" fill="#059669"/>
<circle cx="653.49" cy="291.53" r="0.70" fill="#059669"/>
<circle cx="656.17" cy="288.18" r="0.70" fill="#059669"/>
<circle cx="660.18" cy="284.83" r="0.70" fill="#059669"/>
<circle cx="662.86" cy="281.48" r="0.70" fill="#059669"/>
<circle cx="666.88" cy="278.13" r="0.70" fill="#059669"/>
<circle cx="669.55" cy="274.78" r="0.70" fill="#059669"/>
<circle cx="672.23" cy="271.43" r="0.70" fill="#059669"/>
<circle cx="676.25" cy="338.22" r="0.70" fill="#059669"/>
<circle cx="678.92" cy="334.87" r="0.70" fill="#059669"/>
<circle cx="681.60" cy="331.52" r="0.70" fill="#059669"/>
<circle cx="682.94" cy="328.17" r="0.70" fill="#059669"/>
<circle cx="685.62" cy="324.82" r="0.70" fill="#059669"/>
<circle cx="688.29" cy="321.47" r="0.70" fill="#059669"/>
<circle cx="690.97" cy="318.12" r="0.70" fill="#059669"/>
<circle cx="692.31" cy="314.77" r="0.70" fill="#059669"/>
<circle cx="694.98" cy="311.42" r="0.70" fill="#059669"/>
<circle cx="697.66" cy="308.07" r="0.70" fill="#059669"/>
<circle cx="700.34" cy="304.72" r="0.70" fill="#059669"/>
<circle cx="701.68" cy="301.37" r="0.70" fill="#059669"/>
<circle cx="704.35" cy="298.02" r="0.70" fill="#059669"/>
<circle cx="707.03" cy="294.67" r="0.70" fill="#059669"/>
<circle cx="709.71" cy="291.32" r="0.70" fill="#059669"/>
<circle cx="712.38" cy="287.97" r="0.70" fill="#059669"/>
<circle cx="715.06" cy="284.62" r="0.70" fill="#059669"/>
<circle cx="719.08" cy="281.27" r="0.70" fill="#059669"/>
<circle cx="721.75" cy="277.92" r="0.70" fill="#059669"/>
<circle cx="724.43" cy="274.57" r="0.70" fill="#059669"/>
<circle cx="727.11" cy="271.22" r="0.70" fill="#059669"/>
<circle cx="729.78" cy="267.87" r="0.70" fill="#059669"/>
<circle cx="732.46" cy="264.52" r="0.70" fill="#059669"/>
<circle cx="736.48" cy="334.76" r="0.70" fill="#059669"/>
<circle cx="739.15" cy="331.41" r="0.70" fill="#059669"/>
<circle cx="741.83" cy="328.06" r="0.70" fill="#059669"/>
<circle cx="743.17" cy="324.71" r="0.70" fill="#059669"/>
<circle cx="745.85" cy="321.36" r="0.70" fill="#059669"/>
<circle cx="748.52" cy="318.01" r="0.70" fill="#059669"/>
<circle cx="751.20" cy="314.66" r="0.70" fill="#059669"/>
<circle cx="753.88" cy="311.31" r="0.70" fill="#059669"/>
<circle cx="756.55" cy="307.96" r="0.70" fill="#059669"/>
<circle cx="759.23" cy="304.61" r="0.70" fill="#059669"/>
<circle cx="761.91" cy="301.26" r="0.70" fill="#059669"/>
<circle cx="764.58" cy="297.91" r="0.70" fill="#059669"/>
<circle cx="767.26" cy="294.56" r="0.70" fill="#059669"/>
<circle cx="769.94" cy="291.21" r="0.70" fill="#059669"/>
<circle cx="772.62" cy="287.86" r="0.70" fill="#059669"/>
<circle cx="775.29" cy="284.51" r="0.70" fill="#059669"/>
<circle cx="777.97" cy="281.16" r="0.70" fill="#059669"/>
<circle cx="780.65" cy="277.81" r="0.70" fill="#059669"/>
<circle cx="783.32" cy="274.46" r="0.70" fill="#059669"/>
<circle cx="786.00" cy="271.11" r="0.70" fill="#059669"/>
<circle cx="788.68" cy="338.05" r="0.70" fill="#059669"/>
<circle cx="791.35" cy="334.70" r="0.70" fill="#059669"/>
<circle cx="794.03" cy="331.35" r="0.70" fill="#059669"/>
<circle cx="795.37" cy="328.00" r="0.70" fill="#059669"/>
<circle cx="798.05" cy="324.65" r="0.70" fill="#059669"/>
<circle cx="799.38" cy="321.30" r="0.70" fill="#059669"/>
<circle cx="802.06" cy="317.95" r="0.70" fill="#059669"/>
<circle cx="804.74" cy="314.60" r="0.70" fill="#059669"/>
<circle cx="807.42" cy="311.25" r="0.70" fill="#059669"/>
<circle cx="810.09" cy="307.90" r="0.70" fill="#059669"/>
<circle cx="812.77" cy="304.55" r="0.70" fill="#059669"/>
<circle cx="815.45" cy="301.20" r="0.70" fill="#059669"/>
<circle cx="818.12" cy="297.85" r="0.70" fill="#059669"/>
<circle cx="820.80" cy="294.50" r="0.70" fill="#059669"/>
<circle cx="823.48" cy="291.15" r="0.70" fill="#059669"/>
<circle cx="826.15" cy="287.80" r="0.70" fill="#059669"/>
<circle cx="828.83" cy="284.45" r="0.70" fill="#059669"/>
<circle cx="831.51" cy="281.10" r="0.70" fill="#059669"/>
<circle cx="834.18" cy="277.75" r="0.70" fill="#059669"/>
<circle cx="836.86" cy="274.40" r="0.70" fill="#059669"/>
<circle cx="839.54" cy="271.05" r="0.70" fill="#059669"/>
<circle cx="842.22" cy="267.70" r="0.70" fill="#059669"/>
<circle cx="844.89" cy="336.35" r="0.70" fill="#059669"/>
<circle cx="847.57" cy="333.00" r="0.70" fill="#059669"/>
<circle cx="850.25" cy="329.65" r="0.70" fill="#059669"/>
<circle cx="852.92" cy="326.30" r="0.70" fill="#059669"/>
<circle cx="854.26" cy="322.95" r="0.70" fill="#059669"/>
<circle cx="856.94" cy="319.60" r="0.70" fill="#059669"/>
<circle cx="859.62" cy="316.25" r="0.70" fill="#059669"/>
<circle cx="862.29" cy="312.90" r="0.70" fill="#059669"/>
<circle cx="864.97" cy="309.55" r="0.70" fill="#059669"/>
<circle cx="867.65" cy="306.20" r="0.70" fill="#059669"/>
<circle cx="870.32" cy="302.85" r="0.70" fill="#059669"/>
<circle cx="873.00" cy="299.50" r="0.70" fill="#059669"/>
<circle cx="875.68" cy="296.15" r="0.70" fill="#059669"/>
<circle cx="878.35" cy="292.80" r="0.70" fill="#059669"/>
<circle cx="881.03" cy="289.45" r="0.70" fill="#059669"/>
<circle cx="883.71" cy="286.10" r="0.70" fill="#059669"/>
<circle cx="886.38" cy="282.75" r="0.70" fill="#059669"/>
<circle cx="889.06" cy="279.40" r="0.70" fill="#059669"/>
<circle cx="891.74" cy="276.05" r="0.70" fill="#059669"/>
<circle cx="894.42" cy="272.70" r="0.70" fill="#059669"/>
<circle cx="897.09" cy="269.35" r="0.70" fill="#059669"/>
<circle cx="899.77" cy="266.00" r="0.70" fill="#059669"/>
<circle cx="903.78" cy="335.50" r="0.70" fill="#059669"/>
<circle cx="906.46" cy="332.15" r="0.70" fill="#059669"/>
<circle cx="909.14" cy="328.80" r="0.70" fill="#059669"/>
<circle cx="911.82" cy="325.45" r="0.70" fill="#059669"/>
<circle cx="913.15" cy="322.10" r="0.70" fill="#059669"/>
<circle cx="915.83" cy="318.75" r="0.70" fill="#059669"/>
<circle cx="918.51" cy="315.40" r="0.70" fill="#059669"/>
<circle cx="921.18" cy="312.05" r="0.70" fill="#059669"/>
<circle cx="923.86" cy="308.70" r="0.70" fill="#059669"/>
<circle cx="926.54" cy="305.35" r="0.70" fill="#059669"/>
<circle cx="927.88" cy="302.00" r="0.70" fill="#059669"/>
<circle cx="930.55" cy="298.65" r="0.70" fill="#059669"/>
<circle cx="933.23" cy="295.30" r="0.70" fill="#059669"/>
<circle cx="935.91" cy="291.95" r="0.70" fill="#059669"/>
<circle cx="938.58" cy="288.60" r="0.70" fill="#059669"/>
<circle cx="941.26" cy="285.25" r="0.70" fill="#059669"/>
<circle cx="943.94" cy="281.90" r="0.70" fill="#059669"/>
<circle cx="946.62" cy="278.55" r="0.70" fill="#059669"/>
<circle cx="949.29" cy="275.20" r="0.70" fill="#059669"/>
<circle cx="953.31" cy="271.85" r="0.70" fill="#059669"/>
<circle cx="955.98" cy="268.50" r="0.70" fill="#059669"/>
<circle cx="958.66" cy="336.75" r="0.70" fill="#059669"/>
<circle cx="961.34" cy="333.40" r="0.70" fill="#059669"/>
<circle cx="964.02" cy="330.05" r="0.70" fill="#059669"/>
<circle cx="966.69" cy="326.70" r="0.70" fill="#059669"/>
<circle cx="968.03" cy="323.35" r="0.70" fill="#059669"/>
<circle cx="970.71" cy="320.00" r="0.70" fill="#059669"/>
<circle cx="972.05" cy="316.65" r="0.70" fill="#059669"/>
<circle cx="974.72" cy="313.30" r="0.70" fill="#059669"/>
<circle cx="977.40" cy="309.95" r="0.70" fill="#059669"/>
<circle cx="980.08" cy="306.60" r="0.70" fill="#059669"/>
<circle cx="981.42" cy="303.25" r="0.70" fill="#059669"/>
<circle cx="984.09" cy="299.90" r="0.70" fill="#059669"/>
<circle cx="988.11" cy="296.55" r="0.70" fill="#059669"/>
<circle cx="990.78" cy="293.20" r="0.70" fill="#059669"/>
<circle cx="993.46" cy="289.85" r="0.70" fill="#059669"/>
<circle cx="996.14" cy="286.50" r="0.70" fill="#059669"/>
<circle cx="998.82" cy="283.15" r="0.70" fill="#059669"/>
<circle cx="1001.49" cy="279.80" r="0.70" fill="#059669"/>
<circle cx="1004.17" cy="276.45" r="0.70" fill="#059669"/>
<circle cx="1006.85" cy="273.10" r="0.70" fill="#059669"/>
<circle cx="1009.52" cy="269.75" r="0.70" fill="#059669"/>
<circle cx="1013.54" cy="266.40" r="0.70" fill="#059669"/>
<circle cx="1016.22" cy="263.05" r="0.70" fill="#059669"/>
<circle cx="1018.89" cy="334.03" r="0.70" fill="#059669"/>
<circle cx="1021.57" cy="330.68" r="0.70" fill="#059669"/>
<circle cx="1022.91" cy="327.33" r="0.70" fill="#059669"/>
<circle cx="1025.58" cy="323.98" r="0.70" fill="#059669"/>
<circle cx="1026.92" cy="320.63" r="0.70" fill="#059669"/>
<circle cx="1029.60" cy="317.28" r="0.70" fill="#059669"/>
<circle cx="1030.94" cy="313.93" r="0.70" fill="#059669"/>
<circle cx="1033.62" cy="310.58" r="0.70" fill="#059669"/>
<circle cx="1036.29" cy="307.23" r="0.70" fill="#059669"/>
<circle cx="1038.97" cy="303.88" r="0.70" fill="#059669"/>
<circle cx="1041.65" cy="300.53" r="0.70" fill="#059669"/>
<circle cx="1044.32" cy="297.18" r="0.70" fill="#059669"/>
<circle cx="1048.34" cy="293.83" r="0.70" fill="#059669"/>
<circle cx="1051.02" cy="290.48" r="0.70" fill="#059669"/>
<circle cx="1053.69" cy="287.13" r="0.70" fill="#059669"/>
<circle cx="1056.37" cy="283.78" r="0.70" fill="#059669"/>
<circle cx="1059.05" cy="280.43" r="0.70" fill="#059669"/>
<circle cx="1061.72" cy="277.08" r="0.70" fill="#059669"/>
<circle cx="1064.40" cy="273.73" r="0.70" fill="#059669"/>
<circle cx="1067.08" cy="270.38" r="0.70" fill="#059669"/>
<circle cx="1069.75" cy="267.03" r="0.70" fill="#059669"/>
<circle cx="1072.43" cy="336.01" r="0.70" fill="#059669"/>
<circle cx="1075.11" cy="332.66" r="0.70" fill="#059669"/>
<circle cx="1077.78" cy="329.31" r="0.70" fill="#059669"/>
<circle cx="1080.46" cy="325.96" r="0.70" fill="#059669"/>
<circle cx="1081.80" cy="322.61" r="0.70" fill="#059669"/>
<circle cx="1084.48" cy="319.26" r="0.70" fill="#059669"/>
<circle cx="1087.15" cy="315.91" r="0.70" fill="#059669"/>
<circle cx="1089.83" cy="312.56" r="0.70" fill="#059669"/>
<circle cx="1092.51" cy="309.21" r="0.70" fill="#059669"/>
<circle cx="1095.18" cy="305.86" r="0.70" fill="#059669"/>
<circle cx="1097.86" cy="302.51" r="0.70" fill="#059669"/>
<circle cx="1100.54" cy="299.16" r="0.70" fill="#059669"/>
<circle cx="1101.88" cy="295.81" r="0.70" fill="#059669"/>
<circle cx="1104.55" cy="292.46" r="0.70" fill="#059669"/>
<circle cx="1108.57" cy="289.11" r="0.70" fill="#059669"/>
<circle cx="1111.25" cy="285.76" r="0.70" fill="#059669"/>
<circle cx="1113.92" cy="282.41" r="0.70" fill="#059669"/>
<circle cx="1116.60" cy="279.06" r="0.70" fill="#059669"/>
<circle cx="1119.28" cy="275.71" r="0.70" fill="#059669"/>
<circle cx="1121.95" cy="272.36" r="0.70" fill="#059669"/>
<circle cx="1124.63" cy="269.01" r="0.70" fill="#059669"/>
<circle cx="1127.31" cy="337.01" r="0.70" fill="#059669"/>
<circle cx="1129.98" cy="333.66" r="0.70" fill="#059669"/>
<circle cx="1132.66" cy="330.31" r="0.70" fill="#059669"/>
<circle cx="1134.00" cy="326.96" r="0.70" fill="#059669"/>
<circle cx="1136.68" cy="323.61" r="0.70" fill="#059669"/>
<circle cx="1139.35" cy="320.26" r="0.70" fill="#059669"/>
<circle cx="1142.03" cy="316.91" r="0.70" fill="#059669"/>
<circle cx="1144.71" cy="313.56" r="0.70" fill="#059669"/>
<circle cx="1147.38" cy="310.21" r="0.70" fill="#059669"/>
<circle cx="1150.06" cy="306.86" r="0.70" fill="#059669"/>
<circle cx="1152.74" cy="303.51" r="0.70" fill="#059669"/>
<circle cx="1155.42" cy="300.16" r="0.70" fill="#059669"/>
<circle cx="1158.09" cy="296.81" r="0.70" fill="#059669"/>
<circle cx="1160.77" cy="293.46" r="0.70" fill="#059669"/>
<rect x="740" y="100" width="14" height="14" fill="#059669"/>
<text x="762" y="112" font-family="Arial, sans-serif" font-size="12" fill="#1f2937">ubuntu]</text>
<text x="90.00" y="423" text-anchor="middle" font-family="Arial, sans-serif" font-size="11" fill="#4b5563">0,00</text>
<text x="264.00" y="423" text-anchor="middle" font-family="Arial, sans-serif" font-size="11" fill="#4b5563">130,0</text>
<text x="438.00" y="423" text-anchor="middle" font-family="Arial, sans-serif" font-size="11" fill="#4b5563">260,0</text>
<text x="612.00" y="423" text-anchor="middle" font-family="Arial, sans-serif" font-size="11" fill="#4b5563">390,0</text>
<text x="786.00" y="423" text-anchor="middle" font-family="Arial, sans-serif" font-size="11" fill="#4b5563">520,0</text>
<text x="960.00" y="423" text-anchor="middle" font-family="Arial, sans-serif" font-size="11" fill="#4b5563">650,0</text>
</svg>
