<svg xmlns="http://www.w3.org/2000/svg" width="1000" height="520" viewBox="0 0 1000 520">
<rect width="100%" height="100%" fill="#ffffff"/>
<text x="500.0" y="34" text-anchor="middle" font-family="Arial, sans-serif" font-size="24" font-weight="700" fill="#1f2937">Throughput por execução</text>
<line x1="90" y1="70" x2="90" y2="405" stroke="#374151" stroke-width="1.5"/>
<line x1="90" y1="405" x2="960" y2="405" stroke="#374151" stroke-width="1.5"/>
<line x1="90" y1="405.00" x2="960" y2="405.00" stroke="#e5e7eb" stroke-width="1"/>
<text x="80" y="409.00" text-anchor="end" font-family="Arial, sans-serif" font-size="12" fill="#4b5563">0,00</text>
<line x1="90" y1="338.00" x2="960" y2="338.00" stroke="#e5e7eb" stroke-width="1"/>
<text x="80" y="342.00" text-anchor="end" font-family="Arial, sans-serif" font-size="12" fill="#4b5563">74.184</text>
<line x1="90" y1="271.00" x2="960" y2="271.00" stroke="#e5e7eb" stroke-width="1"/>
<text x="80" y="275.00" text-anchor="end" font-family="Arial, sans-serif" font-size="12" fill="#4b5563">148.367</text>
<line x1="90" y1="204.00" x2="960" y2="204.00" stroke="#e5e7eb" stroke-width="1"/>
<text x="80" y="208.00" text-anchor="end" font-family="Arial, sans-serif" font-size="12" fill="#4b5563">222.551</text>
<line x1="90" y1="137.00" x2="960" y2="137.00" stroke="#e5e7eb" stroke-width="1"/>
<text x="80" y="141.00" text-anchor="end" font-family="Arial, sans-serif" font-size="12" fill="#4b5563">296.734</text>
<line x1="90" y1="70.00" x2="960" y2="70.00" stroke="#e5e7eb" stroke-width="1"/>
<text x="80" y="74.00" text-anchor="end" font-family="Arial, sans-serif" font-size="12" fill="#4b5563">370.918</text>
<text x="500.0" y="502" text-anchor="middle" font-family="Arial, sans-serif" font-size="14" fill="#1f2937">Execução</text>
<text x="18" y="237.5" text-anchor="middle" font-family="Arial, sans-serif" font-size="14" fill="#1f2937" transform="rotate(-90 18 237.5)">Números processados por segundo</text>
<rect x="207.50" y="125.90" width="55.00" height="279.10" fill="#2563eb"/>
<text x="235.00" y="118.90" text-anchor="middle" font-family="Arial, sans-serif" font-size="11" fill="#1f2937">309.024</text>
<text x="235.00" y="423" text-anchor="end" font-family="Arial, sans-serif" font-size="11" fill="#4b5563" transform="rotate(-35 235.00 423)">1-adaptativo</text>
<rect x="497.50" y="129.61" width="55.00" height="275.39" fill="#059669"/>
<text x="525.00" y="122.61" text-anchor="middle" font-family="Arial, sans-serif" font-size="11" fill="#1f2937">304.913</text>
<text x="525.00" y="423" text-anchor="end" font-family="Arial, sans-serif" font-size="11" fill="#4b5563" transform="rotate(-35 525.00 423)">2-adaptativo</text>
<rect x="787.50" y="105.89" width="55.00" height="299.11" fill="#dc2626"/>
<text x="815.00" y="98.89" text-anchor="middle" font-family="Arial, sans-serif" font-size="11" fill="#1f2937">331.177</text>
<text x="815.00" y="423" text-anchor="end" font-family="Arial, sans-serif" font-size="11" fill="#4b5563" transform="rotate(-35 815.00 423)">3-adaptativo</text>
</svg>
