<svg xmlns="http://www.w3.org/2000/svg" width="1000" height="520" viewBox="0 0 1000 520">
<rect width="100%" height="100%" fill="#ffffff"/>
<text x="500.0" y="34" text-anchor="middle" font-family="Arial, sans-serif" font-size="24" font-weight="700" fill="#1f2937">Evolução da janela adaptativa - execução 4</text>
<line x1="90" y1="70" x2="90" y2="405" stroke="#374151" stroke-width="1.5"/>
<line x1="90" y1="405" x2="960" y2="405" stroke="#374151" stroke-width="1.5"/>
<line x1="90" y1="405.00" x2="960" y2="405.00" stroke="#e5e7eb" stroke-width="1"/>
<text x="80" y="409.00" text-anchor="end" font-family="Arial, sans-serif" font-size="12" fill="#4b5563">0,00</text>
<line x1="90" y1="338.00" x2="960" y2="338.00" stroke="#e5e7eb" stroke-width="1"/>
<text x="80" y="342.00" text-anchor="end" font-family="Arial, sans-serif" font-size="12" fill="#4b5563">20,0</text>
<line x1="90" y1="271.00" x2="960" y2="271.00" stroke="#e5e7eb" stroke-width="1"/>
<text x="80" y="275.00" text-anchor="end" font-family="Arial, sans-serif" font-size="12" fill="#4b5563">40,0</text>
<line x1="90" y1="204.00" x2="960" y2="204.00" stroke="#e5e7eb" stroke-width="1"/>
<text x="80" y="208.00" text-anchor="end" font-family="Arial, sans-serif" font-size="12" fill="#4b5563">60,0</text>
<line x1="90" y1="137.00" x2="960" y2="137.00" stroke="#e5e7eb" stroke-width="1"/>
<text x="80" y="141.00" text-anchor="end" font-family="Arial, sans-serif" font-size="12" fill="#4b5563">80,0</text>
<line x1="90" y1="70.00" x2="960" y2="70.00" stroke="#e5e7eb" stroke-width="1"/>
<text x="80" y="74.00" text-anchor="end" font-family="Arial, sans-serif" font-size="12" fill="#4b5563">100,0</text>
<text x="500.0" y="502" text-anchor="middle" font-family="Arial, sans-serif" font-size="14" fill="#1f2937">Tarefa</text>
<text x="18" y="237.5" text-anchor="middle" font-family="Arial, sans-serif" font-size="14" fill="#1f2937" transform="rotate(-90 18 237.5)">Janela após ajuste</text>
<polyline points="91.34,394.95 92.68,391.60 94.02,388.25 95.35,384.90 96.69,381.55 98.03,378.20 99.37,374.85 100.71,371.50 102.05,368.15 103.38,364.80 104.72,361.45 106.06,358.10 107.40,354.75 108.74,351.40 110.08,348.05 111.42,344.70 112.75,341.35 114.09,338.00 115.43,334.65 116.77,331.30 118.11,327.95 119.45,324.60 120.78,321.25 122.12,317.90 123.46,314.55 124.80,311.20 126.14,307.85 127.48,304.50 128.82,301.15 130.15,297.80 131.49,294.45 132.83,291.10 134.17,287.75 135.51,284.40 136.85,281.05 138.18,277.70 139.52,274.35 140.86,271.00 142.20,267.65 143.54,264.30 144.88,260.95 146.22,257.60 147.55,254.25 148.89,250.90 150.23,247.55 151.57,244.20 152.91,240.85 154.25,237.50 155.58,234.15 156.92,230.80 158.26,227.45 159.60,224.10 160.94,220.75 162.28,217.40 163.62,214.05 164.95,210.70 166.29,207.35 167.63,204.00 168.97,200.65 170.31,302.82 171.65,299.48 172.98,296.12 174.32,292.77 175.66,289.43 177.00,286.07 178.34,282.73 179.68,279.38 181.02,276.02 182.35,272.67 183.69,269.32 185.03,265.98 186.37,262.62 187.71,259.27 189.05,332.14 190.38,328.79 191.72,325.44 193.06,322.09 194.40,318.74 195.74,315.39 197.08,312.04 198.42,308.69 199.75,305.34 201.09,301.99 202.43,298.64 203.77,295.29 205.11,291.94 206.45,288.59 207.78,285.24 209.12,281.89 210.46,278.54 211.80,275.19 213.14,271.84 214.48,268.49 215.82,265.14 217.15,261.79 218.49,258.44 219.83,331.72 221.17,328.37 222.51,325.02 223.85,321.67 225.18,318.32 226.52,314.97 227.86,311.62 229.20,308.27 230.54,304.92 231.88,301.57 233.22,298.22 234.55,294.87 235.89,291.52 237.23,288.17 238.57,284.82 239.91,281.47 241.25,278.12 242.58,274.77 243.92,271.42 245.26,268.07 246.60,264.72 247.94,261.37 249.28,333.18 250.62,329.83 251.95,326.48 253.29,323.13 254.63,319.78 255.97,316.43 257.31,313.08 258.65,309.73 259.98,306.38 261.32,303.03 262.66,299.68 264.00,296.33 265.34,292.98 266.68,289.63 268.02,286.28 269.35,282.93 270.69,279.58 272.03,276.23 273.37,272.88 274.71,269.53 276.05,266.18 277.38,262.83 278.72,259.48 280.06,256.13 281.40,252.78 282.74,328.89 284.08,325.54 285.42,322.19 286.75,318.84 288.09,315.49 289.43,312.14 290.77,308.79 292.11,305.44 293.45,302.09 294.78,298.74 296.12,295.39 297.46,292.04 298.80,288.69 300.14,285.34 301.48,281.99 302.82,278.64 304.15,275.29 305.49,271.94 306.83,268.59 308.17,265.24 309.51,261.89 310.85,333.45 312.18,330.10 313.52,326.75 314.86,323.40 316.20,320.05 317.54,316.70 318.88,313.35 320.22,310.00 321.55,306.65 322.89,303.30 324.23,299.95 325.57,296.60 326.91,293.25 328.25,289.90 329.58,286.55 330.92,283.20 332.26,279.85 333.60,276.50 334.94,273.15 336.28,269.80 337.62,266.45 338.95,263.10 340.29,334.05 341.63,330.70 342.97,327.35 344.31,324.00 345.65,320.65 346.98,317.30 348.32,313.95 349.66,310.60 351.00,307.25 352.34,303.90 353.68,300.55 355.02,297.20 356.35,293.85 357.69,290.50 359.03,287.15 360.37,283.80 361.71,280.45 363.05,277.10 364.38,273.75 365.72,270.40 367.06,267.05 368.40,263.70 369.74,260.35 371.08,332.67 372.42,329.32 373.75,325.97 375.09,322.62 376.43,319.27 377.77,315.92 379.11,312.57 380.45,309.22 381.78,305.87 383.12,302.52 384.46,299.17 385.80,295.82 387.14,292.47 388.48,289.12 389.82,285.77 391.15,282.42 392.49,279.07 393.83,275.72 395.17,272.37 396.51,269.02 397.85,265.67 399.18,335.34 400.52,331.99 401.86,328.64 403.20,325.29 404.54,321.94 405.88,318.59 407.22,315.24 408.55,311.89 409.89,308.54 411.23,305.19 412.57,301.84 413.91,298.49 415.25,295.14 416.58,291.79 417.92,288.44 419.26,285.09 420.60,281.74 421.94,278.39 423.28,275.04 424.62,271.69 425.95,268.34 427.29,336.67 428.63,333.32 429.97,329.97 431.31,326.62 432.65,323.27 433.98,319.92 435.32,316.57 436.66,313.22 438.00,309.87 439.34,306.52 440.68,303.17 442.02,299.82 443.35,296.47 444.69,293.12 446.03,289.77 447.37,286.42 448.71,283.07 450.05,279.72 451.38,276.37 452.72,273.02 454.06,269.67 455.40,266.32 456.74,335.66 458.08,332.31 459.42,328.96 460.75,325.61 462.09,322.26 463.43,318.91 464.77,315.56 466.11,312.21 467.45,308.86 468.78,305.51 470.12,302.16 471.46,298.81 472.80,295.46 474.14,292.11 475.48,288.76 476.82,285.41 478.15,282.06 479.49,278.71 480.83,275.36 482.17,272.01 483.51,268.66 484.85,265.31 486.18,261.96 487.52,258.61 488.86,331.80 490.20,328.45 491.54,325.10 492.88,321.75 494.22,318.40 495.55,315.05 496.89,311.70 498.23,308.35 499.57,305.00 500.91,301.65 502.25,298.30 503.58,294.95 504.92,291.60 506.26,288.25 507.60,284.90 508.94,281.55 510.28,278.20 511.62,274.85 512.95,271.50 514.29,338.25 515.63,334.90 516.97,331.55 518.31,328.20 519.65,324.85 520.98,321.50 522.32,318.15 523.66,314.80 525.00,311.45 526.34,308.10 527.68,304.75 529.02,301.40 530.35,298.05 531.69,294.70 533.03,291.35 534.37,288.00 535.71,284.65 537.05,281.30 538.38,277.95 539.72,274.60 541.06,271.25 542.40,338.13 543.74,334.78 545.08,331.43 546.42,328.08 547.75,324.73 549.09,321.38 550.43,318.03 551.77,314.68 553.11,311.33 554.45,307.98 555.78,304.63 557.12,301.28 558.46,297.93 559.80,294.58 561.14,291.23 562.48,287.88 563.82,284.53 565.15,281.18 566.49,277.83 567.83,274.48 569.17,271.13 570.51,338.06 571.85,334.71 573.18,331.36 574.52,328.01 575.86,324.66 577.20,321.31 578.54,317.96 579.88,314.61 581.22,311.26 582.55,307.91 583.89,304.56 585.23,301.21 586.57,297.86 587.91,294.51 589.25,291.16 590.58,348.08 591.92,344.73 593.26,341.38 594.60,338.03 595.94,334.68 597.28,331.33 598.62,327.98 599.95,324.63 601.29,321.28 602.63,317.93 603.97,314.58 605.31,311.23 606.65,307.88 607.98,304.53 609.32,301.18 610.66,297.83 612.00,294.48 613.34,291.13 614.68,287.78 616.02,284.43 617.35,281.08 618.69,343.04 620.03,339.69 621.37,336.34 622.71,332.99 624.05,329.64 625.38,326.29 626.72,322.94 628.06,319.59 629.40,316.24 630.74,312.89 632.08,309.54 633.42,306.19 634.75,302.84 636.09,299.49 637.43,296.14 638.77,292.79 640.11,289.44 641.45,286.09 642.78,282.74 644.12,279.39 645.46,276.04 646.80,272.69 648.14,269.34 649.48,265.99 650.82,335.50 652.15,332.15 653.49,328.80 654.83,325.45 656.17,322.10 657.51,318.75 658.85,315.40 660.18,312.05 661.52,308.70 662.86,305.35 664.20,302.00 665.54,298.65 666.88,295.30 668.22,291.95 669.55,288.60 670.89,285.25 672.23,281.90 673.57,278.55 674.91,275.20 676.25,271.85 677.58,338.42 678.92,335.07 680.26,331.72 681.60,328.37 682.94,325.02 684.28,321.67 685.62,318.32 686.95,314.97 688.29,311.62 689.63,308.27 690.97,304.92 692.31,301.57 693.65,298.22 694.98,294.87 696.32,291.52 697.66,288.17 699.00,284.82 700.34,281.47 701.68,278.12 703.02,274.77 704.35,271.42 705.69,338.21 707.03,334.86 708.37,331.51 709.71,328.16 711.05,324.81 712.38,321.46 713.72,318.11 715.06,314.76 716.40,311.41 717.74,308.06 719.08,304.71 720.42,301.36 721.75,298.01 723.09,294.66 724.43,291.31 725.77,287.96 727.11,284.61 728.45,281.26 729.78,277.91 731.12,274.56 732.46,271.21 733.80,338.11 735.14,334.76 736.48,331.41 737.82,328.06 739.15,324.71 740.49,321.36 741.83,318.01 743.17,314.66 744.51,311.31 745.85,307.96 747.18,304.61 748.52,301.26 749.86,297.91 751.20,294.56 752.54,291.21 753.88,287.86 755.22,284.51 756.55,281.16 757.89,277.81 759.23,274.46 760.57,339.73 761.91,336.38 763.25,333.03 764.58,329.68 765.92,326.33 767.26,322.98 768.60,319.63 769.94,316.28 771.28,312.93 772.62,309.58 773.95,306.23 775.29,302.88 776.63,299.53 777.97,296.18 779.31,292.83 780.65,289.48 781.98,286.13 783.32,282.78 784.66,279.43 786.00,276.08 787.34,272.73 788.68,269.38 790.02,266.03 791.35,335.51 792.69,332.16 794.03,328.81 795.37,325.46 796.71,322.11 798.05,318.76 799.38,315.41 800.72,312.06 802.06,308.71 803.40,305.36 804.74,302.01 806.08,298.66 807.42,295.31 808.75,291.96 810.09,288.61 811.43,285.26 812.77,345.13 814.11,341.78 815.45,338.43 816.78,335.08 818.12,331.73 819.46,328.38 820.80,325.03 822.14,321.68 823.48,318.33 824.82,314.98 826.15,311.63 827.49,308.28 828.83,304.93 830.17,301.58 831.51,298.23 832.85,294.88 834.18,291.53 835.52,288.18 836.86,284.83 838.20,281.48 839.54,278.13 840.88,274.78 842.22,339.89 843.55,336.54 844.89,333.19 846.23,329.84 847.57,326.49 848.91,323.14 850.25,319.79 851.58,316.44 852.92,313.09 854.26,309.74 855.60,306.39 856.94,303.04 858.28,299.69 859.62,296.34 860.95,292.99 862.29,289.64 863.63,286.29 864.97,282.94 866.31,279.59 867.65,276.24 868.98,272.89 870.32,338.95 871.66,335.60 873.00,332.25 874.34,328.90 875.68,325.55 877.02,322.20 878.35,318.85 879.69,315.50 881.03,312.15 882.37,308.80 883.71,305.45 885.05,302.10 886.38,298.75 887.72,295.40 889.06,292.05 890.40,288.70 891.74,285.35 893.08,282.00 894.42,278.65 895.75,275.30 897.09,271.95 898.43,338.47 899.77,335.12 901.11,331.77 902.45,328.42 903.78,325.07 905.12,321.72 906.46,318.37 907.80,315.02 909.14,311.67 910.48,308.32 911.82,304.97 913.15,301.62 914.49,298.27 915.83,294.92 917.17,291.57 918.51,288.22 919.85,284.87 921.18,281.52 922.52,278.17 923.86,274.82 925.20,271.47 926.54,268.12 927.88,264.77 929.22,334.89 930.55,331.54 931.89,328.19 933.23,324.84 934.57,321.49 935.91,318.14 937.25,314.79 938.58,311.44 939.92,308.09 941.26,304.74 942.60,301.39 943.94,298.04 945.28,294.69 946.62,291.34 947.95,287.99 949.29,346.49 950.63,343.14 951.97,339.79 953.31,336.44 954.65,333.09 955.98,329.74 957.32,326.39 958.66,323.04 960.00,319.69 961.34,316.34 962.68,312.99 964.02,309.64 965.35,306.29" fill="none" stroke="#2563eb" stroke-width="0.3"/>
<circle cx="91.34" cy="394.95" r="0.70" fill="#2563eb"/>
<circle cx="92.68" cy="391.60" r="0.70" fill="#2563eb"/>
<circle cx="94.02" cy="388.25" r="0.70" fill="#2563eb"/>
<circle cx="95.35" cy="384.90" r="0.70" fill="#2563eb"/>
<circle cx="96.69" cy="381.55" r="0.70" fill="#2563eb"/>
<circle cx="98.03" cy="378.20" r="0.70" fill="#2563eb"/>
<circle cx="99.37" cy="374.85" r="0.70" fill="#2563eb"/>
<circle cx="100.71" cy="371.50" r="0.70" fill="#2563eb"/>
<circle cx="102.05" cy="368.15" r="0.70" fill="#2563eb"/>
<circle cx="103.38" cy="364.80" r="0.70" fill="#2563eb"/>
<circle cx="104.72" cy="361.45" r="0.70" fill="#2563eb"/>
<circle cx="106.06" cy="358.10" r="0.70" fill="#2563eb"/>
<circle cx="107.40" cy="354.75" r="0.70" fill="#2563eb"/>
<circle cx="108.74" cy="351.40" r="0.70" fill="#2563eb"/>
<circle cx="110.08" cy="348.05" r="0.70" fill="#2563eb"/>
<circle cx="111.42" cy="344.70" r="0.70" fill="#2563eb"/>
<circle cx="112.75" cy="341.35" r="0.70" fill="#2563eb"/>
<circle cx="114.09" cy="338.00" r="0.70" fill="#2563eb"/>
<circle cx="115.43" cy="334.65" r="0.70" fill="#2563eb"/>
<circle cx="116.77" cy="331.30" r="0.70" fill="#2563eb"/>
<circle cx="118.11" cy="327.95" r="0.70" fill="#2563eb"/>
<circle cx="119.45" cy="324.60" r="0.70" fill="#2563eb"/>
<circle cx="120.78" cy="321.25" r="0.70" fill="#2563eb"/>
<circle cx="122.12" cy="317.90" r="0.70" fill="#2563eb"/>
<circle cx="123.46" cy="314.55" r="0.70" fill="#2563eb"/>
<circle cx="124.80" cy="311.20" r="0.70" fill="#2563eb"/>
<circle cx="126.14" cy="307.85" r="0.70" fill="#2563eb"/>
<circle cx="127.48" cy="304.50" r="0.70" fill="#2563eb"/>
<circle cx="128.82" cy="301.15" r="0.70" fill="#2563eb"/>
<circle cx="130.15" cy="297.80" r="0.70" fill="#2563eb"/>
<circle cx="131.49" cy="294.45" r="0.70" fill="#2563eb"/>
<circle cx="132.83" cy="291.10" r="0.70" fill="#2563eb"/>
<circle cx="134.17" cy="287.75" r="0.70" fill="#2563eb"/>
<circle cx="135.51" cy="284.40" r="0.70" fill="#2563eb"/>
<circle cx="136.85" cy="281.05" r="0.70" fill="#2563eb"/>
<circle cx="138.18" cy="277.70" r="0.70" fill="#2563eb"/>
<circle cx="139.52" cy="274.35" r="0.70" fill="#2563eb"/>
<circle cx="140.86" cy="271.00" r="0.70" fill="#2563eb"/>
<circle cx="142.20" cy="267.65" r="0.70" fill="#2563eb"/>
<circle cx="143.54" cy="264.30" r="0.70" fill="#2563eb"/>
<circle cx="144.88" cy="260.95" r="0.70" fill="#2563eb"/>
<circle cx="146.22" cy="257.60" r="0.70" fill="#2563eb"/>
<circle cx="147.55" cy="254.25" r="0.70" fill="#2563eb"/>
<circle cx="148.89" cy="250.90" r="0.70" fill="#2563eb"/>
<circle cx="150.23" cy="247.55" r="0.70" fill="#2563eb"/>
<circle cx="151.57" cy="244.20" r="0.70" fill="#2563eb"/>
<circle cx="152.91" cy="240.85" r="0.70" fill="#2563eb"/>
<circle cx="154.25" cy="237.50" r="0.70" fill="#2563eb"/>
<circle cx="155.58" cy="234.15" r="0.70" fill="#2563eb"/>
<circle cx="156.92" cy="230.80" r="0.70" fill="#2563eb"/>
<circle cx="158.26" cy="227.45" r="0.70" fill="#2563eb"/>
<circle cx="159.60" cy="224.10" r="0.70" fill="#2563eb"/>
<circle cx="160.94" cy="220.75" r="0.70" fill="#2563eb"/>
<circle cx="162.28" cy="217.40" r="0.70" fill="#2563eb"/>
<circle cx="163.62" cy="214.05" r="0.70" fill="#2563eb"/>
<circle cx="164.95" cy="210.70" r="0.70" fill="#2563eb"/>
<circle cx="166.29" cy="207.35" r="0.70" fill="#2563eb"/>
<circle cx="167.63" cy="204.00" r="0.70" fill="#2563eb"/>
<circle cx="168.97" cy="200.65" r="0.70" fill="#2563eb"/>
<circle cx="170.31" cy="302.82" r="0.70" fill="#2563eb"/>
<circle cx="171.65" cy="299.48" r="0.70" fill="#2563eb"/>
<circle cx="172.98" cy="296.12" r="0.70" fill="#2563eb"/>
<circle cx="174.32" cy="292.77" r="0.70" fill="#2563eb"/>
<circle cx="175.66" cy="289.43" r="0.70" fill="#2563eb"/>
<circle cx="177.00" cy="286.07" r="0.70" fill="#2563eb"/>
<circle cx="178.34" cy="282.73" r="0.70" fill="#2563eb"/>
<circle cx="179.68" cy="279.38" r="0.70" fill="#2563eb"/>
<circle cx="181.02" cy="276.02" r="0.70" fill="#2563eb"/>
<circle cx="182.35" cy="272.67" r="0.70" fill="#2563eb"/>
<circle cx="183.69" cy="269.32" r="0.70" fill="#2563eb"/>
<circle cx="185.03" cy="265.98" r="0.70" fill="#2563eb"/>
<circle cx="186.37" cy="262.62" r="0.70" fill="#2563eb"/>
<circle cx="187.71" cy="259.27" r="0.70" fill="#2563eb"/>
<circle cx="189.05" cy="332.14" r="0.70" fill="#2563eb"/>
<circle cx="190.38" cy="328.79" r="0.70" fill="#2563eb"/>
<circle cx="191.72" cy="325.44" r="0.70" fill="#2563eb"/>
<circle cx="193.06" cy="322.09" r="0.70" fill="#2563eb"/>
<circle cx="194.40" cy="318.74" r="0.70" fill="#2563eb"/>
<circle cx="195.74" cy="315.39" r="0.70" fill="#2563eb"/>
<circle cx="197.08" cy="312.04" r="0.70" fill="#2563eb"/>
<circle cx="198.42" cy="308.69" r="0.70" fill="#2563eb"/>
<circle cx="199.75" cy="305.34" r="0.70" fill="#2563eb"/>
<circle cx="201.09" cy="301.99" r="0.70" fill="#2563eb"/>
<circle cx="202.43" cy="298.64" r="0.70" fill="#2563eb"/>
<circle cx="203.77" cy="295.29" r="0.70" fill="#2563eb"/>
<circle cx="205.11" cy="291.94" r="0.70" fill="#2563eb"/>
<circle cx="206.45" cy="288.59" r="0.70" fill="#2563eb"/>
<circle cx="207.78" cy="285.24" r="0.70" fill="#2563eb"/>
<circle cx="209.12" cy="281.89" r="0.70" fill="#2563eb"/>
<circle cx="210.46" cy="278.54" r="0.70" fill="#2563eb"/>
<circle cx="211.80" cy="275.19" r="0.70" fill="#2563eb"/>
<circle cx="213.14" cy="271.84" r="0.70" fill="#2563eb"/>
<circle cx="214.48" cy="268.49" r="0.70" fill="#2563eb"/>
<circle cx="215.82" cy="265.14" r="0.70" fill="#2563eb"/>
<circle cx="217.15" cy="261.79" r="0.70" fill="#2563eb"/>
<circle cx="218.49" cy="258.44" r="0.70" fill="#2563eb"/>
<circle cx="219.83" cy="331.72" r="0.70" fill="#2563eb"/>
<circle cx="221.17" cy="328.37" r="0.70" fill="#2563eb"/>
<circle cx="222.51" cy="325.02" r="0.70" fill="#2563eb"/>
<circle cx="223.85" cy="321.67" r="0.70" fill="#2563eb"/>
<circle cx="225.18" cy="318.32" r="0.70" fill="#2563eb"/>
<circle cx="226.52" cy="314.97" r="0.70" fill="#2563eb"/>
<circle cx="227.86" cy="311.62" r="0.70" fill="#2563eb"/>
<circle cx="229.20" cy="308.27" r="0.70" fill="#2563eb"/>
<circle cx="230.54" cy="304.92" r="0.70" fill="#2563eb"/>
<circle cx="231.88" cy="301.57" r="0.70" fill="#2563eb"/>
<circle cx="233.22" cy="298.22" r="0.70" fill="#2563eb"/>
<circle cx="234.55" cy="294.87" r="0.70" fill="#2563eb"/>
<circle cx="235.89" cy="291.52" r="0.70" fill="#2563eb"/>
<circle cx="237.23" cy="288.17" r="0.70" fill="#2563eb"/>
<circle cx="238.57" cy="284.82" r="0.70" fill="#2563eb"/>
<circle cx="239.91" cy="281.47" r="0.70" fill="#2563eb"/>
<circle cx="241.25" cy="278.12" r="0.70" fill="#2563eb"/>
<circle cx="242.58" cy="274.77" r="0.70" fill="#2563eb"/>
<circle cx="243.92" cy="271.42" r="0.70" fill="#2563eb"/>
<circle cx="245.26" cy="268.07" r="0.70" fill="#2563eb"/>
<circle cx="246.60" cy="264.72" r="0.70" fill="#2563eb"/>
<circle cx="247.94" cy="261.37" r="0.70" fill="#2563eb"/>
<circle cx="249.28" cy="333.18" r="0.70" fill="#2563eb"/>
<circle cx="250.62" cy="329.83" r="0.70" fill="#2563eb"/>
<circle cx="251.95" cy="326.48" r="0.70" fill="#2563eb"/>
<circle cx="253.29" cy="323.13" r="0.70" fill="#2563eb"/>
<circle cx="254.63" cy="319.78" r="0.70" fill="#2563eb"/>
<circle cx="255.97" cy="316.43" r="0.70" fill="#2563eb"/>
<circle cx="257.31" cy="313.08" r="0.70" fill="#2563eb"/>
<circle cx="258.65" cy="309.73" r="0.70" fill="#2563eb"/>
<circle cx="259.98" cy="306.38" r="0.70" fill="#2563eb"/>
<circle cx="261.32" cy="303.03" r="0.70" fill="#2563eb"/>
<circle cx="262.66" cy="299.68" r="0.70" fill="#2563eb"/>
<circle cx="264.00" cy="296.33" r="0.70" fill="#2563eb"/>
<circle cx="265.34" cy="292.98" r="0.70" fill="#2563eb"/>
<circle cx="266.68" cy="289.63" r="0.70" fill="#2563eb"/>
<circle cx="268.02" cy="286.28" r="0.70" fill="#2563eb"/>
<circle cx="269.35" cy="282.93" r="0.70" fill="#2563eb"/>
<circle cx="270.69" cy="279.58" r="0.70" fill="#2563eb"/>
<circle cx="272.03" cy="276.23" r="0.70" fill="#2563eb"/>
<circle cx="273.37" cy="272.88" r="0.70" fill="#2563eb"/>
<circle cx="274.71" cy="269.53" r="0.70" fill="#2563eb"/>
<circle cx="276.05" cy="266.18" r="0.70" fill="#2563eb"/>
<circle cx="277.38" cy="262.83" r="0.70" fill="#2563eb"/>
<circle cx="278.72" cy="259.48" r="0.70" fill="#2563eb"/>
<circle cx="280.06" cy="256.13" r="0.70" fill="#2563eb"/>
<circle cx="281.40" cy="252.78" r="0.70" fill="#2563eb"/>
<circle cx="282.74" cy="328.89" r="0.70" fill="#2563eb"/>
<circle cx="284.08" cy="325.54" r="0.70" fill="#2563eb"/>
<circle cx="285.42" cy="322.19" r="0.70" fill="#2563eb"/>
<circle cx="286.75" cy="318.84" r="0.70" fill="#2563eb"/>
<circle cx="288.09" cy="315.49" r="0.70" fill="#2563eb"/>
<circle cx="289.43" cy="312.14" r="0.70" fill="#2563eb"/>
<circle cx="290.77" cy="308.79" r="0.70" fill="#2563eb"/>
<circle cx="292.11" cy="305.44" r="0.70" fill="#2563eb"/>
<circle cx="293.45" cy="302.09" r="0.70" fill="#2563eb"/>
<circle cx="294.78" cy="298.74" r="0.70" fill="#2563eb"/>
<circle cx="296.12" cy="295.39" r="0.70" fill="#2563eb"/>
<circle cx="297.46" cy="292.04" r="0.70" fill="#2563eb"/>
<circle cx="298.80" cy="288.69" r="0.70" fill="#2563eb"/>
<circle cx="300.14" cy="285.34" r="0.70" fill="#2563eb"/>
<circle cx="301.48" cy="281.99" r="0.70" fill="#2563eb"/>
<circle cx="302.82" cy="278.64" r="0.70" fill="#2563eb"/>
<circle cx="304.15" cy="275.29" r="0.70" fill="#2563eb"/>
<circle cx="305.49" cy="271.94" r="0.70" fill="#2563eb"/>
<circle cx="306.83" cy="268.59" r="0.70" fill="#2563eb"/>
<circle cx="308.17" cy="265.24" r="0.70" fill="#2563eb"/>
<circle cx="309.51" cy="261.89" r="0.70" fill="#2563eb"/>
<circle cx="310.85" cy="333.45" r="0.70" fill="#2563eb"/>
<circle cx="312.18" cy="330.10" r="0.70" fill="#2563eb"/>
<circle cx="313.52" cy="326.75" r="0.70" fill="#2563eb"/>
<circle cx="314.86" cy="323.40" r="0.70" fill="#2563eb"/>
<circle cx="316.20" cy="320.05" r="0.70" fill="#2563eb"/>
<circle cx="317.54" cy="316.70" r="0.70" fill="#2563eb"/>
<circle cx="318.88" cy="313.35" r="0.70" fill="#2563eb"/>
<circle cx="320.22" cy="310.00" r="0.70" fill="#2563eb"/>
<circle cx="321.55" cy="306.65" r="0.70" fill="#2563eb"/>
<circle cx="322.89" cy="303.30" r="0.70" fill="#2563eb"/>
<circle cx="324.23" cy="299.95" r="0.70" fill="#2563eb"/>
<circle cx="325.57" cy="296.60" r="0.70" fill="#2563eb"/>
<circle cx="326.91" cy="293.25" r="0.70" fill="#2563eb"/>
<circle cx="328.25" cy="289.90" r="0.70" fill="#2563eb"/>
<circle cx="329.58" cy="286.55" r="0.70" fill="#2563eb"/>
<circle cx="330.92" cy="283.20" r="0.70" fill="#2563eb"/>
<circle cx="332.26" cy="279.85" r="0.70" fill="#2563eb"/>
<circle cx="333.60" cy="276.50" r="0.70" fill="#2563eb"/>
<circle cx="334.94" cy="273.15" r="0.70" fill="#2563eb"/>
<circle cx="336.28" cy="269.80" r="0.70" fill="#2563eb"/>
<circle cx="337.62" cy="266.45" r="0.70" fill="#2563eb"/>
<circle cx="338.95" cy="263.10" r="0.70" fill="#2563eb"/>
<circle cx="340.29" cy="334.05" r="0.70" fill="#2563eb"/>
<circle cx="341.63" cy="330.70" r="0.70" fill="#2563eb"/>
<circle cx="342.97" cy="327.35" r="0.70" fill="#2563eb"/>
<circle cx="344.31" cy="324.00" r="0.70" fill="#2563eb"/>
<circle cx="345.65" cy="320.65" r="0.70" fill="#2563eb"/>
<circle cx="346.98" cy="317.30" r="0.70" fill="#2563eb"/>
<circle cx="348.32" cy="313.95" r="0.70" fill="#2563eb"/>
<circle cx="349.66" cy="310.60" r="0.70" fill="#2563eb"/>
<circle cx="351.00" cy="307.25" r="0.70" fill="#2563eb"/>
<circle cx="352.34" cy="303.90" r="0.70" fill="#2563eb"/>
<circle cx="353.68" cy="300.55" r="0.70" fill="#2563eb"/>
<circle cx="355.02" cy="297.20" r="0.70" fill="#2563eb"/>
<circle cx="356.35" cy="293.85" r="0.70" fill="#2563eb"/>
<circle cx="357.69" cy="290.50" r="0.70" fill="#2563eb"/>
<circle cx="359.03" cy="287.15" r="0.70" fill="#2563eb"/>
<circle cx="360.37" cy="283.80" r="0.70" fill="#2563eb"/>
<circle cx="361.71" cy="280.45" r="0.70" fill="#2563eb"/>
<circle cx="363.05" cy="277.10" r="0.70" fill="#2563eb"/>
<circle cx="364.38" cy="273.75" r="0.70" fill="#2563eb"/>
<circle cx="365.72" cy="270.40" r="0.70" fill="#2563eb"/>
<circle cx="367.06" cy="267.05" r="0.70" fill="#2563eb"/>
<circle cx="368.40" cy="263.70" r="0.70" fill="#2563eb"/>
<circle cx="369.74" cy="260.35" r="0.70" fill="#2563eb"/>
<circle cx="371.08" cy="332.67" r="0.70" fill="#2563eb"/>
<circle cx="372.42" cy="329.32" r="0.70" fill="#2563eb"/>
<circle cx="373.75" cy="325.97" r="0.70" fill="#2563eb"/>
<circle cx="375.09" cy="322.62" r="0.70" fill="#2563eb"/>
<circle cx="376.43" cy="319.27" r="0.70" fill="#2563eb"/>
<circle cx="377.77" cy="315.92" r="0.70" fill="#2563eb"/>
<circle cx="379.11" cy="312.57" r="0.70" fill="#2563eb"/>
<circle cx="380.45" cy="309.22" r="0.70" fill="#2563eb"/>
<circle cx="381.78" cy="305.87" r="0.70" fill="#2563eb"/>
<circle cx="383.12" cy="302.52" r="0.70" fill="#2563eb"/>
<circle cx="384.46" cy="299.17" r="0.70" fill="#2563eb"/>
<circle cx="385.80" cy="295.82" r="0.70" fill="#2563eb"/>
<circle cx="387.14" cy="292.47" r="0.70" fill="#2563eb"/>
<circle cx="388.48" cy="289.12" r="0.70" fill="#2563eb"/>
<circle cx="389.82" cy="285.77" r="0.70" fill="#2563eb"/>
<circle cx="391.15" cy="282.42" r="0.70" fill="#2563eb"/>
<circle cx="392.49" cy="279.07" r="0.70" fill="#2563eb"/>
<circle cx="393.83" cy="275.72" r="0.70" fill="#2563eb"/>
<circle cx="395.17" cy="272.37" r="0.70" fill="#2563eb"/>
<circle cx="396.51" cy="269.02" r="0.70" fill="#2563eb"/>
<circle cx="397.85" cy="265.67" r="0.70" fill="#2563eb"/>
<circle cx="399.18" cy="335.34" r="0.70" fill="#2563eb"/>
<circle cx="400.52" cy="331.99" r="0.70" fill="#2563eb"/>
<circle cx="401.86" cy="328.64" r="0.70" fill="#2563eb"/>
<circle cx="403.20" cy="325.29" r="0.70" fill="#2563eb"/>
<circle cx="404.54" cy="321.94" r="0.70" fill="#2563eb"/>
<circle cx="405.88" cy="318.59" r="0.70" fill="#2563eb"/>
<circle cx="407.22" cy="315.24" r="0.70" fill="#2563eb"/>
<circle cx="408.55" cy="311.89" r="0.70" fill="#2563eb"/>
<circle cx="409.89" cy="308.54" r="0.70" fill="#2563eb"/>
<circle cx="411.23" cy="305.19" r="0.70" fill="#2563eb"/>
<circle cx="412.57" cy="301.84" r="0.70" fill="#2563eb"/>
<circle cx="413.91" cy="298.49" r="0.70" fill="#2563eb"/>
<circle cx="415.25" cy="295.14" r="0.70" fill="#2563eb"/>
<circle cx="416.58" cy="291.79" r="0.70" fill="#2563eb"/>
<circle cx="417.92" cy="288.44" r="0.70" fill="#2563eb"/>
<circle cx="419.26" cy="285.09" r="0.70" fill="#2563eb"/>
<circle cx="420.60" cy="281.74" r="0.70" fill="#2563eb"/>
<circle cx="421.94" cy="278.39" r="0.70" fill="#2563eb"/>
<circle cx="423.28" cy="275.04" r="0.70" fill="#2563eb"/>
<circle cx="424.62" cy="271.69" r="0.70" fill="#2563eb"/>
<circle cx="425.95" cy="268.34" r="0.70" fill="#2563eb"/>
<circle cx="427.29" cy="336.67" r="0.70" fill="#2563eb"/>
<circle cx="428.63" cy="333.32" r="0.70" fill="#2563eb"/>
<circle cx="429.97" cy="329.97" r="0.70" fill="#2563eb"/>
<circle cx="431.31" cy="326.62" r="0.70" fill="#2563eb"/>
<circle cx="432.65" cy="323.27" r="0.70" fill="#2563eb"/>
<circle cx="433.98" cy="319.92" r="0.70" fill="#2563eb"/>
<circle cx="435.32" cy="316.57" r="0.70" fill="#2563eb"/>
<circle cx="436.66" cy="313.22" r="0.70" fill="#2563eb"/>
<circle cx="438.00" cy="309.87" r="0.70" fill="#2563eb"/>
<circle cx="439.34" cy="306.52" r="0.70" fill="#2563eb"/>
<circle cx="440.68" cy="303.17" r="0.70" fill="#2563eb"/>
<circle cx="442.02" cy="299.82" r="0.70" fill="#2563eb"/>
<circle cx="443.35" cy="296.47" r="0.70" fill="#2563eb"/>
<circle cx="444.69" cy="293.12" r="0.70" fill="#2563eb"/>
<circle cx="446.03" cy="289.77" r="0.70" fill="#2563eb"/>
<circle cx="447.37" cy="286.42" r="0.70" fill="#2563eb"/>
<circle cx="448.71" cy="283.07" r="0.70" fill="#2563eb"/>
<circle cx="450.05" cy="279.72" r="0.70" fill="#2563eb"/>
<circle cx="451.38" cy="276.37" r="0.70" fill="#2563eb"/>
<circle cx="452.72" cy="273.02" r="0.70" fill="#2563eb"/>
<circle cx="454.06" cy="269.67" r="0.70" fill="#2563eb"/>
<circle cx="455.40" cy="266.32" r="0.70" fill="#2563eb"/>
<circle cx="456.74" cy="335.66" r="0.70" fill="#2563eb"/>
<circle cx="458.08" cy="332.31" r="0.70" fill="#2563eb"/>
<circle cx="459.42" cy="328.96" r="0.70" fill="#2563eb"/>
<circle cx="460.75" cy="325.61" r="0.70" fill="#2563eb"/>
<circle cx="462.09" cy="322.26" r="0.70" fill="#2563eb"/>
<circle cx="463.43" cy="318.91" r="0.70" fill="#2563eb"/>
<circle cx="464.77" cy="315.56" r="0.70" fill="#2563eb"/>
<circle cx="466.11" cy="312.21" r="0.70" fill="#2563eb"/>
<circle cx="467.45" cy="308.86" r="0.70" fill="#2563eb"/>
<circle cx="468.78" cy="305.51" r="0.70" fill="#2563eb"/>
<circle cx="470.12" cy="302.16" r="0.70" fill="#2563eb"/>
<circle cx="471.46" cy="298.81" r="0.70" fill="#2563eb"/>
<circle cx="472.80" cy="295.46" r="0.70" fill="#2563eb"/>
<circle cx="474.14" cy="292.11" r="0.70" fill="#2563eb"/>
<circle cx="475.48" cy="288.76" r="0.70" fill="#2563eb"/>
<circle cx="476.82" cy="285.41" r="0.70" fill="#2563eb"/>
<circle cx="478.15" cy="282.06" r="0.70" fill="#2563eb"/>
<circle cx="479.49" cy="278.71" r="0.70" fill="#2563eb"/>
<circle cx="480.83" cy="275.36" r="0.70" fill="#2563eb"/>
<circle cx="482.17" cy="272.01" r="0.70" fill="#2563eb"/>
<circle cx="483.51" cy="268.66" r="0.70" fill="#2563eb"/>
<circle cx="484.85" cy="265.31" r="0.70" fill="#2563eb"/>
<circle cx="486.18" cy="261.96" r="0.70" fill="#2563eb"/>
<circle cx="487.52" cy="258.61" r="0.70" fill="#2563eb"/>
<circle cx="488.86" cy="331.80" r="0.70" fill="#2563eb"/>
<circle cx="490.20" cy="328.45" r="0.70" fill="#2563eb"/>
<circle cx="491.54" cy="325.10" r="0.70" fill="#2563eb"/>
<circle cx="492.88" cy="321.75" r="0.70" fill="#2563eb"/>
<circle cx="494.22" cy="318.40" r="0.70" fill="#2563eb"/>
<circle cx="495.55" cy="315.05" r="0.70" fill="#2563eb"/>
<circle cx="496.89" cy="311.70" r="0.70" fill="#2563eb"/>
<circle cx="498.23" cy="308.35" r="0.70" fill="#2563eb"/>
<circle cx="499.57" cy="305.00" r="0.70" fill="#2563eb"/>
<circle cx="500.91" cy="301.65" r="0.70" fill="#2563eb"/>
<circle cx="502.25" cy="298.30" r="0.70" fill="#2563eb"/>
<circle cx="503.58" cy="294.95" r="0.70" fill="#2563eb"/>
<circle cx="504.92" cy="291.60" r="0.70" fill="#2563eb"/>
<circle cx="506.26" cy="288.25" r="0.70" fill="#2563eb"/>
<circle cx="507.60" cy="284.90" r="0.70" fill="#2563eb"/>
<circle cx="508.94" cy="281.55" r="0.70" fill="#2563eb"/>
<circle cx="510.28" cy="278.20" r="0.70" fill="#2563eb"/>
<circle cx="511.62" cy="274.85" r="0.70" fill="#2563eb"/>
<circle cx="512.95" cy="271.50" r="0.70" fill="#2563eb"/>
<circle cx="514.29" cy="338.25" r="0.70" fill="#2563eb"/>
<circle cx="515.63" cy="334.90" r="0.70" fill="#2563eb"/>
<circle cx="516.97" cy="331.55" r="0.70" fill="#2563eb"/>
<circle cx="518.31" cy="328.20" r="0.70" fill="#2563eb"/>
<circle cx="519.65" cy="324.85" r="0.70" fill="#2563eb"/>
<circle cx="520.98" cy="321.50" r="0.70" fill="#2563eb"/>
<circle cx="522.32" cy="318.15" r="0.70" fill="#2563eb"/>
<circle cx="523.66" cy="314.80" r="0.70" fill="#2563eb"/>
<circle cx="525.00" cy="311.45" r="0.70" fill="#2563eb"/>
<circle cx="526.34" cy="308.10" r="0.70" fill="#2563eb"/>
<circle cx="527.68" cy="304.75" r="0.70" fill="#2563eb"/>
<circle cx="529.02" cy="301.40" r="0.70" fill="#2563eb"/>
<circle cx="530.35" cy="298.05" r="0.70" fill="#2563eb"/>
<circle cx="531.69" cy="294.70" r="0.70" fill="#2563eb"/>
<circle cx="533.03" cy="291.35" r="0.70" fill="#2563eb"/>
<circle cx="534.37" cy="288.00" r="0.70" fill="#2563eb"/>
<circle cx="535.71" cy="284.65" r="0.70" fill="#2563eb"/>
<circle cx="537.05" cy="281.30" r="0.70" fill="#2563eb"/>
<circle cx="538.38" cy="277.95" r="0.70" fill="#2563eb"/>
<circle cx="539.72" cy="274.60" r="0.70" fill="#2563eb"/>
<circle cx="541.06" cy="271.25" r="0.70" fill="#2563eb"/>
<circle cx="542.40" cy="338.13" r="0.70" fill="#2563eb"/>
<circle cx="543.74" cy="334.78" r="0.70" fill="#2563eb"/>
<circle cx="545.08" cy="331.43" r="0.70" fill="#2563eb"/>
<circle cx="546.42" cy="328.08" r="0.70" fill="#2563eb"/>
<circle cx="547.75" cy="324.73" r="0.70" fill="#2563eb"/>
<circle cx="549.09" cy="321.38" r="0.70" fill="#2563eb"/>
<circle cx="550.43" cy="318.03" r="0.70" fill="#2563eb"/>
<circle cx="551.77" cy="314.68" r="0.70" fill="#2563eb"/>
<circle cx="553.11" cy="311.33" r="0.70" fill="#2563eb"/>
<circle cx="554.45" cy="307.98" r="0.70" fill="#2563eb"/>
<circle cx="555.78" cy="304.63" r="0.70" fill="#2563eb"/>
<circle cx="557.12" cy="301.28" r="0.70" fill="#2563eb"/>
<circle cx="558.46" cy="297.93" r="0.70" fill="#2563eb"/>
<circle cx="559.80" cy="294.58" r="0.70" fill="#2563eb"/>
<circle cx="561.14" cy="291.23" r="0.70" fill="#2563eb"/>
<circle cx="562.48" cy="287.88" r="0.70" fill="#2563eb"/>
<circle cx="563.82" cy="284.53" r="0.70" fill="#2563eb"/>
<circle cx="565.15" cy="281.18" r="0.70" fill="#2563eb"/>
<circle cx="566.49" cy="277.83" r="0.70" fill="#2563eb"/>
<circle cx="567.83" cy="274.48" r="0.70" fill="#2563eb"/>
<circle cx="569.17" cy="271.13" r="0.70" fill="#2563eb"/>
<circle cx="570.51" cy="338.06" r="0.70" fill="#2563eb"/>
<circle cx="571.85" cy="334.71" r="0.70" fill="#2563eb"/>
<circle cx="573.18" cy="331.36" r="0.70" fill="#2563eb"/>
<circle cx="574.52" cy="328.01" r="0.70" fill="#2563eb"/>
<circle cx="575.86" cy="324.66" r="0.70" fill="#2563eb"/>
<circle cx="577.20" cy="321.31" r="0.70" fill="#2563eb"/>
<circle cx="578.54" cy="317.96" r="0.70" fill="#2563eb"/>
<circle cx="579.88" cy="314.61" r="0.70" fill="#2563eb"/>
<circle cx="581.22" cy="311.26" r="0.70" fill="#2563eb"/>
<circle cx="582.55" cy="307.91" r="0.70" fill="#2563eb"/>
<circle cx="583.89" cy="304.56" r="0.70" fill="#2563eb"/>
<circle cx="585.23" cy="301.21" r="0.70" fill="#2563eb"/>
<circle cx="586.57" cy="297.86" r="0.70" fill="#2563eb"/>
<circle cx="587.91" cy="294.51" r="0.70" fill="#2563eb"/>
<circle cx="589.25" cy="291.16" r="0.70" fill="#2563eb"/>
<circle cx="590.58" cy="348.08" r="0.70" fill="#2563eb"/>
<circle cx="591.92" cy="344.73" r="0.70" fill="#2563eb"/>
<circle cx="593.26" cy="341.38" r="0.70" fill="#2563eb"/>
<circle cx="594.60" cy="338.03" r="0.70" fill="#2563eb"/>
<circle cx="595.94" cy="334.68" r="0.70" fill="#2563eb"/>
<circle cx="597.28" cy="331.33" r="0.70" fill="#2563eb"/>
<circle cx="598.62" cy="327.98" r="0.70" fill="#2563eb"/>
<circle cx="599.95" cy="324.63" r="0.70" fill="#2563eb"/>
<circle cx="601.29" cy="321.28" r="0.70" fill="#2563eb"/>
<circle cx="602.63" cy="317.93" r="0.70" fill="#2563eb"/>
<circle cx="603.97" cy="314.58" r="0.70" fill="#2563eb"/>
<circle cx="605.31" cy="311.23" r="0.70" fill="#2563eb"/>
<circle cx="606.65" cy="307.88" r="0.70" fill="#2563eb"/>
<circle cx="607.98" cy="304.53" r="0.70" fill="#2563eb"/>
<circle cx="609.32" cy="301.18" r="0.70" fill="#2563eb"/>
<circle cx="610.66" cy="297.83" r="0.70" fill="#2563eb"/>
<circle cx="612.00" cy="294.48" r="0.70" fill="#2563eb"/>
<circle cx="613.34" cy="291.13" r="0.70" fill="#2563eb"/>
<circle cx="614.68" cy="287.78" r="0.70" fill="#2563eb"/>
<circle cx="616.02" cy="284.43" r="0.70" fill="#2563eb"/>
<circle cx="617.35" cy="281.08" r="0.70" fill="#2563eb"/>
<circle cx="618.69" cy="343.04" r="0.70" fill="#2563eb"/>
<circle cx="620.03" cy="339.69" r="0.70" fill="#2563eb"/>
<circle cx="621.37" cy="336.34" r="0.70" fill="#2563eb"/>
<circle cx="622.71" cy="332.99" r="0.70" fill="#2563eb"/>
<circle cx="624.05" cy="329.64" r="0.70" fill="#2563eb"/>
<circle cx="625.38" cy="326.29" r="0.70" fill="#2563eb"/>
<circle cx="626.72" cy="322.94" r="0.70" fill="#2563eb"/>
<circle cx="628.06" cy="319.59" r="0.70" fill="#2563eb"/>
<circle cx="629.40" cy="316.24" r="0.70" fill="#2563eb"/>
<circle cx="630.74" cy="312.89" r="0.70" fill="#2563eb"/>
<circle cx="632.08" cy="309.54" r="0.70" fill="#2563eb"/>
<circle cx="633.42" cy="306.19" r="0.70" fill="#2563eb"/>
<circle cx="634.75" cy="302.84" r="0.70" fill="#2563eb"/>
<circle cx="636.09" cy="299.49" r="0.70" fill="#2563eb"/>
<circle cx="637.43" cy="296.14" r="0.70" fill="#2563eb"/>
<circle cx="638.77" cy="292.79" r="0.70" fill="#2563eb"/>
<circle cx="640.11" cy="289.44" r="0.70" fill="#2563eb"/>
<circle cx="641.45" cy="286.09" r="0.70" fill="#2563eb"/>
<circle cx="642.78" cy="282.74" r="0.70" fill="#2563eb"/>
<circle cx="644.12" cy="279.39" r="0.70" fill="#2563eb"/>
<circle cx="645.46" cy="276.04" r="0.70" fill="#2563eb"/>
<circle cx="646.80" cy="272.69" r="0.70" fill="#2563eb"/>
<circle cx="648.14" cy="269.34" r="0.70" fill="#2563eb"/>
<circle cx="649.48" cy="265.99" r="0.70" fill="#2563eb"/>
<circle cx="650.82" cy="335.50" r="0.70" fill="#2563eb"/>
<circle cx="652.15" cy="332.15" r="0.70" fill="#2563eb"/>
<circle cx="653.49" cy="328.80" r="0.70" fill="#2563eb"/>
<circle cx="654.83" cy="325.45" r="0.70" fill="#2563eb"/>
<circle cx="656.17" cy="322.10" r="0.70" fill="#2563eb"/>
<circle cx="657.51" cy="318.75" r="0.70" fill="#2563eb"/>
<circle cx="658.85" cy="315.40" r="0.70" fill="#2563eb"/>
<circle cx="660.18" cy="312.05" r="0.70" fill="#2563eb"/>
<circle cx="661.52" cy="308.70" r="0.70" fill="#2563eb"/>
<circle cx="662.86" cy="305.35" r="0.70" fill="#2563eb"/>
<circle cx="664.20" cy="302.00" r="0.70" fill="#2563eb"/>
<circle cx="665.54" cy="298.65" r="0.70" fill="#2563eb"/>
<circle cx="666.88" cy="295.30" r="0.70" fill="#2563eb"/>
<circle cx="668.22" cy="291.95" r="0.70" fill="#2563eb"/>
<circle cx="669.55" cy="288.60" r="0.70" fill="#2563eb"/>
<circle cx="670.89" cy="285.25" r="0.70" fill="#2563eb"/>
<circle cx="672.23" cy="281.90" r="0.70" fill="#2563eb"/>
<circle cx="673.57" cy="278.55" r="0.70" fill="#2563eb"/>
<circle cx="674.91" cy="275.20" r="0.70" fill="#2563eb"/>
<circle cx="676.25" cy="271.85" r="0.70" fill="#2563eb"/>
<circle cx="677.58" cy="338.42" r="0.70" fill="#2563eb"/>
<circle cx="678.92" cy="335.07" r="0.70" fill="#2563eb"/>
<circle cx="680.26" cy="331.72" r="0.70" fill="#2563eb"/>
<circle cx="681.60" cy="328.37" r="0.70" fill="#2563eb"/>
<circle cx="682.94" cy="325.02" r="0.70" fill="#2563eb"/>
<circle cx="684.28" cy="321.67" r="0.70" fill="#2563eb"/>
<circle cx="685.62" cy="318.32" r="0.70" fill="#2563eb"/>
<circle cx="686.95" cy="314.97" r="0.70" fill="#2563eb"/>
<circle cx="688.29" cy="311.62" r="0.70" fill="#2563eb"/>
<circle cx="689.63" cy="308.27" r="0.70" fill="#2563eb"/>
<circle cx="690.97" cy="304.92" r="0.70" fill="#2563eb"/>
<circle cx="692.31" cy="301.57" r="0.70" fill="#2563eb"/>
<circle cx="693.65" cy="298.22" r="0.70" fill="#2563eb"/>
<circle cx="694.98" cy="294.87" r="0.70" fill="#2563eb"/>
<circle cx="696.32" cy="291.52" r="0.70" fill="#2563eb"/>
<circle cx="697.66" cy="288.17" r="0.70" fill="#2563eb"/>
<circle cx="699.00" cy="284.82" r="0.70" fill="#2563eb"/>
<circle cx="700.34" cy="281.47" r="0.70" fill="#2563eb"/>
<circle cx="701.68" cy="278.12" r="0.70" fill="#2563eb"/>
<circle cx="703.02" cy="274.77" r="0.70" fill="#2563eb"/>
<circle cx="704.35" cy="271.42" r="0.70" fill="#2563eb"/>
<circle cx="705.69" cy="338.21" r="0.70" fill="#2563eb"/>
<circle cx="707.03" cy="334.86" r="0.70" fill="#2563eb"/>
<circle cx="708.37" cy="331.51" r="0.70" fill="#2563eb"/>
<circle cx="709.71" cy="328.16" r="0.70" fill="#2563eb"/>
<circle cx="711.05" cy="324.81" r="0.70" fill="#2563eb"/>
<circle cx="712.38" cy="321.46" r="0.70" fill="#2563eb"/>
<circle cx="713.72" cy="318.11" r="0.70" fill="#2563eb"/>
<circle cx="715.06" cy="314.76" r="0.70" fill="#2563eb"/>
<circle cx="716.40" cy="311.41" r="0.70" fill="#2563eb"/>
<circle cx="717.74" cy="308.06" r="0.70" fill="#2563eb"/>
<circle cx="719.08" cy="304.71" r="0.70" fill="#2563eb"/>
<circle cx="720.42" cy="301.36" r="0.70" fill="#2563eb"/>
<circle cx="721.75" cy="298.01" r="0.70" fill="#2563eb"/>
<circle cx="723.09" cy="294.66" r="0.70" fill="#2563eb"/>
<circle cx="724.43" cy="291.31" r="0.70" fill="#2563eb"/>
<circle cx="725.77" cy="287.96" r="0.70" fill="#2563eb"/>
<circle cx="727.11" cy="284.61" r="0.70" fill="#2563eb"/>
<circle cx="728.45" cy="281.26" r="0.70" fill="#2563eb"/>
<circle cx="729.78" cy="277.91" r="0.70" fill="#2563eb"/>
<circle cx="731.12" cy="274.56" r="0.70" fill="#2563eb"/>
<circle cx="732.46" cy="271.21" r="0.70" fill="#2563eb"/>
<circle cx="733.80" cy="338.11" r="0.70" fill="#2563eb"/>
<circle cx="735.14" cy="334.76" r="0.70" fill="#2563eb"/>
<circle cx="736.48" cy="331.41" r="0.70" fill="#2563eb"/>
<circle cx="737.82" cy="328.06" r="0.70" fill="#2563eb"/>
<circle cx="739.15" cy="324.71" r="0.70" fill="#2563eb"/>
<circle cx="740.49" cy="321.36" r="0.70" fill="#2563eb"/>
<circle cx="741.83" cy="318.01" r="0.70" fill="#2563eb"/>
<circle cx="743.17" cy="314.66" r="0.70" fill="#2563eb"/>
<circle cx="744.51" cy="311.31" r="0.70" fill="#2563eb"/>
<circle cx="745.85" cy="307.96" r="0.70" fill="#2563eb"/>
<circle cx="747.18" cy="304.61" r="0.70" fill="#2563eb"/>
<circle cx="748.52" cy="301.26" r="0.70" fill="#2563eb"/>
<circle cx="749.86" cy="297.91" r="0.70" fill="#2563eb"/>
<circle cx="751.20" cy="294.56" r="0.70" fill="#2563eb"/>
<circle cx="752.54" cy="291.21" r="0.70" fill="#2563eb"/>
<circle cx="753.88" cy="287.86" r="0.70" fill="#2563eb"/>
<circle cx="755.22" cy="284.51" r="0.70" fill="#2563eb"/>
<circle cx="756.55" cy="281.16" r="0.70" fill="#2563eb"/>
<circle cx="757.89" cy="277.81" r="0.70" fill="#2563eb"/>
<circle cx="759.23" cy="274.46" r="0.70" fill="#2563eb"/>
<circle cx="760.57" cy="339.73" r="0.70" fill="#2563eb"/>
<circle cx="761.91" cy="336.38" r="0.70" fill="#2563eb"/>
<circle cx="763.25" cy="333.03" r="0.70" fill="#2563eb"/>
<circle cx="764.58" cy="329.68" r="0.70" fill="#2563eb"/>
<circle cx="765.92" cy="326.33" r="0.70" fill="#2563eb"/>
<circle cx="767.26" cy="322.98" r="0.70" fill="#2563eb"/>
<circle cx="768.60" cy="319.63" r="0.70" fill="#2563eb"/>
<circle cx="769.94" cy="316.28" r="0.70" fill="#2563eb"/>
<circle cx="771.28" cy="312.93" r="0.70" fill="#2563eb"/>
<circle cx="772.62" cy="309.58" r="0.70" fill="#2563eb"/>
<circle cx="773.95" cy="306.23" r="0.70" fill="#2563eb"/>
<circle cx="775.29" cy="302.88" r="0.70" fill="#2563eb"/>
<circle cx="776.63" cy="299.53" r="0.70" fill="#2563eb"/>
<circle cx="777.97" cy="296.18" r="0.70" fill="#2563eb"/>
<circle cx="779.31" cy="292.83" r="0.70" fill="#2563eb"/>
<circle cx="780.65" cy="289.48" r="0.70" fill="#2563eb"/>
<circle cx="781.98" cy="286.13" r="0.70" fill="#2563eb"/>
<circle cx="783.32" cy="282.78" r="0.70" fill="#2563eb"/>
<circle cx="784.66" cy="279.43" r="0.70" fill="#2563eb"/>
<circle cx="786.00" cy="276.08" r="0.70" fill="#2563eb"/>
<circle cx="787.34" cy="272.73" r="0.70" fill="#2563eb"/>
<circle cx="788.68" cy="269.38" r="0.70" fill="#2563eb"/>
<circle cx="790.02" cy="266.03" r="0.70" fill="#2563eb"/>
<circle cx="791.35" cy="335.51" r="0.70" fill="#2563eb"/>
<circle cx="792.69" cy="332.16" r="0.70" fill="#2563eb"/>
<circle cx="794.03" cy="328.81" r="0.70" fill="#2563eb"/>
<circle cx="795.37" cy="325.46" r="0.70" fill="#2563eb"/>
<circle cx="796.71" cy="322.11" r="0.70" fill="#2563eb"/>
<circle cx="798.05" cy="318.76" r="0.70" fill="#2563eb"/>
<circle cx="799.38" cy="315.41" r="0.70" fill="#2563eb"/>
<circle cx="800.72" cy="312.06" r="0.70" fill="#2563eb"/>
<circle cx="802.06" cy="308.71" r="0.70" fill="#2563eb"/>
<circle cx="803.40" cy="305.36" r="0.70" fill="#2563eb"/>
<circle cx="804.74" cy="302.01" r="0.70" fill="#2563eb"/>
<circle cx="806.08" cy="298.66" r="0.70" fill="#2563eb"/>
<circle cx="807.42" cy="295.31" r="0.70" fill="#2563eb"/>
<circle cx="808.75" cy="291.96" r="0.70" fill="#2563eb"/>
<circle cx="810.09" cy="288.61" r="0.70" fill="#2563eb"/>
<circle cx="811.43" cy="285.26" r="0.70" fill="#2563eb"/>
<circle cx="812.77" cy="345.13" r="0.70" fill="#2563eb"/>
<circle cx="814.11" cy="341.78" r="0.70" fill="#2563eb"/>
<circle cx="815.45" cy="338.43" r="0.70" fill="#2563eb"/>
<circle cx="816.78" cy="335.08" r="0.70" fill="#2563eb"/>
<circle cx="818.12" cy="331.73" r="0.70" fill="#2563eb"/>
<circle cx="819.46" cy="328.38" r="0.70" fill="#2563eb"/>
<circle cx="820.80" cy="325.03" r="0.70" fill="#2563eb"/>
<circle cx="822.14" cy="321.68" r="0.70" fill="#2563eb"/>
<circle cx="823.48" cy="318.33" r="0.70" fill="#2563eb"/>
<circle cx="824.82" cy="314.98" r="0.70" fill="#2563eb"/>
<circle cx="826.15" cy="311.63" r="0.70" fill="#2563eb"/>
<circle cx="827.49" cy="308.28" r="0.70" fill="#2563eb"/>
<circle cx="828.83" cy="304.93" r="0.70" fill="#2563eb"/>
<circle cx="830.17" cy="301.58" r="0.70" fill="#2563eb"/>
<circle cx="831.51" cy="298.23" r="0.70" fill="#2563eb"/>
<circle cx="832.85" cy="294.88" r="0.70" fill="#2563eb"/>
<circle cx="834.18" cy="291.53" r="0.70" fill="#2563eb"/>
<circle cx="835.52" cy="288.18" r="0.70" fill="#2563eb"/>
<circle cx="836.86" cy="284.83" r="0.70" fill="#2563eb"/>
<circle cx="838.20" cy="281.48" r="0.70" fill="#2563eb"/>
<circle cx="839.54" cy="278.13" r="0.70" fill="#2563eb"/>
<circle cx="840.88" cy="274.78" r="0.70" fill="#2563eb"/>
<circle cx="842.22" cy="339.89" r="0.70" fill="#2563eb"/>
<circle cx="843.55" cy="336.54" r="0.70" fill="#2563eb"/>
<circle cx="844.89" cy="333.19" r="0.70" fill="#2563eb"/>
<circle cx="846.23" cy="329.84" r="0.70" fill="#2563eb"/>
<circle cx="847.57" cy="326.49" r="0.70" fill="#2563eb"/>
<circle cx="848.91" cy="323.14" r="0.70" fill="#2563eb"/>
<circle cx="850.25" cy="319.79" r="0.70" fill="#2563eb"/>
<circle cx="851.58" cy="316.44" r="0.70" fill="#2563eb"/>
<circle cx="852.92" cy="313.09" r="0.70" fill="#2563eb"/>
<circle cx="854.26" cy="309.74" r="0.70" fill="#2563eb"/>
<circle cx="855.60" cy="306.39" r="0.70" fill="#2563eb"/>
<circle cx="856.94" cy="303.04" r="0.70" fill="#2563eb"/>
<circle cx="858.28" cy="299.69" r="0.70" fill="#2563eb"/>
<circle cx="859.62" cy="296.34" r="0.70" fill="#2563eb"/>
<circle cx="860.95" cy="292.99" r="0.70" fill="#2563eb"/>
<circle cx="862.29" cy="289.64" r="0.70" fill="#2563eb"/>
<circle cx="863.63" cy="286.29" r="0.70" fill="#2563eb"/>
<circle cx="864.97" cy="282.94" r="0.70" fill="#2563eb"/>
<circle cx="866.31" cy="279.59" r="0.70" fill="#2563eb"/>
<circle cx="867.65" cy="276.24" r="0.70" fill="#2563eb"/>
<circle cx="868.98" cy="272.89" r="0.70" fill="#2563eb"/>
<circle cx="870.32" cy="338.95" r="0.70" fill="#2563eb"/>
<circle cx="871.66" cy="335.60" r="0.70" fill="#2563eb"/>
<circle cx="873.00" cy="332.25" r="0.70" fill="#2563eb"/>
<circle cx="874.34" cy="328.90" r="0.70" fill="#2563eb"/>
<circle cx="875.68" cy="325.55" r="0.70" fill="#2563eb"/>
<circle cx="877.02" cy="322.20" r="0.70" fill="#2563eb"/>
<circle cx="878.35" cy="318.85" r="0.70" fill="#2563eb"/>
<circle cx="879.69" cy="315.50" r="0.70" fill="#2563eb"/>
<circle cx="881.03" cy="312.15" r="0.70" fill="#2563eb"/>
<circle cx="882.37" cy="308.80" r="0.70" fill="#2563eb"/>
<circle cx="883.71" cy="305.45" r="0.70" fill="#2563eb"/>
<circle cx="885.05" cy="302.10" r="0.70" fill="#2563eb"/>
<circle cx="886.38" cy="298.75" r="0.70" fill="#2563eb"/>
<circle cx="887.72" cy="295.40" r="0.70" fill="#2563eb"/>
<circle cx="889.06" cy="292.05" r="0.70" fill="#2563eb"/>
<circle cx="890.40" cy="288.70" r="0.70" fill="#2563eb"/>
<circle cx="891.74" cy="285.35" r="0.70" fill="#2563eb"/>
<circle cx="893.08" cy="282.00" r="0.70" fill="#2563eb"/>
<circle cx="894.42" cy="278.65" r="0.70" fill="#2563eb"/>
<circle cx="895.75" cy="275.30" r="0.70" fill="#2563eb"/>
<circle cx="897.09" cy="271.95" r="0.70" fill="#2563eb"/>
<circle cx="898.43" cy="338.47" r="0.70" fill="#2563eb"/>
<circle cx="899.77" cy="335.12" r="0.70" fill="#2563eb"/>
<circle cx="901.11" cy="331.77" r="0.70" fill="#2563eb"/>
<circle cx="902.45" cy="328.42" r="0.70" fill="#2563eb"/>
<circle cx="903.78" cy="325.07" r="0.70" fill="#2563eb"/>
<circle cx="905.12" cy="321.72" r="0.70" fill="#2563eb"/>
<circle cx="906.46" cy="318.37" r="0.70" fill="#2563eb"/>
<circle cx="907.80" cy="315.02" r="0.70" fill="#2563eb"/>
<circle cx="909.14" cy="311.67" r="0.70" fill="#2563eb"/>
<circle cx="910.48" cy="308.32" r="0.70" fill="#2563eb"/>
<circle cx="911.82" cy="304.97" r="0.70" fill="#2563eb"/>
<circle cx="913.15" cy="301.62" r="0.70" fill="#2563eb"/>
<circle cx="914.49" cy="298.27" r="0.70" fill="#2563eb"/>
<circle cx="915.83" cy="294.92" r="0.70" fill="#2563eb"/>
<circle cx="917.17" cy="291.57" r="0.70" fill="#2563eb"/>
<circle cx="918.51" cy="288.22" r="0.70" fill="#2563eb"/>
<circle cx="919.85" cy="284.87" r="0.70" fill="#2563eb"/>
<circle cx="921.18" cy="281.52" r="0.70" fill="#2563eb"/>
<circle cx="922.52" cy="278.17" r="0.70" fill="#2563eb"/>
<circle cx="923.86" cy="274.82" r="0.70" fill="#2563eb"/>
<circle cx="925.20" cy="271.47" r="0.70" fill="#2563eb"/>
<circle cx="926.54" cy="268.12" r="0.70" fill="#2563eb"/>
<circle cx="927.88" cy="264.77" r="0.70" fill="#2563eb"/>
<circle cx="929.22" cy="334.89" r="0.70" fill="#2563eb"/>
<circle cx="930.55" cy="331.54" r="0.70" fill="#2563eb"/>
<circle cx="931.89" cy="328.19" r="0.70" fill="#2563eb"/>
<circle cx="933.23" cy="324.84" r="0.70" fill="#2563eb"/>
<circle cx="934.57" cy="321.49" r="0.70" fill="#2563eb"/>
<circle cx="935.91" cy="318.14" r="0.70" fill="#2563eb"/>
<circle cx="937.25" cy="314.79" r="0.70" fill="#2563eb"/>
<circle cx="938.58" cy="311.44" r="0.70" fill="#2563eb"/>
<circle cx="939.92" cy="308.09" r="0.70" fill="#2563eb"/>
<circle cx="941.26" cy="304.74" r="0.70" fill="#2563eb"/>
<circle cx="942.60" cy="301.39" r="0.70" fill="#2563eb"/>
<circle cx="943.94" cy="298.04" r="0.70" fill="#2563eb"/>
<circle cx="945.28" cy="294.69" r="0.70" fill="#2563eb"/>
<circle cx="946.62" cy="291.34" r="0.70" fill="#2563eb"/>
<circle cx="947.95" cy="287.99" r="0.70" fill="#2563eb"/>
<circle cx="949.29" cy="346.49" r="0.70" fill="#2563eb"/>
<circle cx="950.63" cy="343.14" r="0.70" fill="#2563eb"/>
<circle cx="951.97" cy="339.79" r="0.70" fill="#2563eb"/>
<circle cx="953.31" cy="336.44" r="0.70" fill="#2563eb"/>
<circle cx="954.65" cy="333.09" r="0.70" fill="#2563eb"/>
<circle cx="955.98" cy="329.74" r="0.70" fill="#2563eb"/>
<circle cx="957.32" cy="326.39" r="0.70" fill="#2563eb"/>
<circle cx="958.66" cy="323.04" r="0.70" fill="#2563eb"/>
<circle cx="960.00" cy="319.69" r="0.70" fill="#2563eb"/>
<circle cx="961.34" cy="316.34" r="0.70" fill="#2563eb"/>
<circle cx="962.68" cy="312.99" r="0.70" fill="#2563eb"/>
<circle cx="964.02" cy="309.64" r="0.70" fill="#2563eb"/>
<circle cx="965.35" cy="306.29" r="0.70" fill="#2563eb"/>
<rect x="740" y="78" width="14" height="14" fill="#2563eb"/>
<text x="762" y="90" font-family="Arial, sans-serif" font-size="12" fill="#1f2937">ubuntu]</text>
<text x="90.00" y="423" text-anchor="middle" font-family="Arial, sans-serif" font-size="11" fill="#4b5563">0,00</text>
<text x="264.00" y="423" text-anchor="middle" font-family="Arial, sans-serif" font-size="11" fill="#4b5563">130,0</text>
<text x="438.00" y="423" text-anchor="middle" font-family="Arial, sans-serif" font-size="11" fill="#4b5563">260,0</text>
<text x="612.00" y="423" text-anchor="middle" font-family="Arial, sans-serif" font-size="11" fill="#4b5563">390,0</text>
<text x="786.00" y="423" text-anchor="middle" font-family="Arial, sans-serif" font-size="11" fill="#4b5563">520,0</text>
<text x="960.00" y="423" text-anchor="middle" font-family="Arial, sans-serif" font-size="11" fill="#4b5563">650,0</text>
</svg>
