<svg xmlns="http://www.w3.org/2000/svg" width="1000" height="520" viewBox="0 0 1000 520">
<rect width="100%" height="100%" fill="#ffffff"/>
<text x="500.0" y="34" text-anchor="middle" font-family="Arial, sans-serif" font-size="24" font-weight="700" fill="#1f2937">Evolução da janela adaptativa - execução 5</text>
<line x1="90" y1="70" x2="90" y2="405" stroke="#374151" stroke-width="1.5"/>
<line x1="90" y1="405" x2="960" y2="405" stroke="#374151" stroke-width="1.5"/>
<line x1="90" y1="405.00" x2="960" y2="405.00" stroke="#e5e7eb" stroke-width="1"/>
<text x="80" y="409.00" text-anchor="end" font-family="Arial, sans-serif" font-size="12" fill="#4b5563">0,00</text>
<line x1="90" y1="338.00" x2="960" y2="338.00" stroke="#e5e7eb" stroke-width="1"/>
<text x="80" y="342.00" text-anchor="end" font-family="Arial, sans-serif" font-size="12" fill="#4b5563">20,0</text>
<line x1="90" y1="271.00" x2="960" y2="271.00" stroke="#e5e7eb" stroke-width="1"/>
<text x="80" y="275.00" text-anchor="end" font-family="Arial, sans-serif" font-size="12" fill="#4b5563">40,0</text>
<line x1="90" y1="204.00" x2="960" y2="204.00" stroke="#e5e7eb" stroke-width="1"/>
<text x="80" y="208.00" text-anchor="end" font-family="Arial, sans-serif" font-size="12" fill="#4b5563">60,0</text>
<line x1="90" y1="137.00" x2="960" y2="137.00" stroke="#e5e7eb" stroke-width="1"/>
<text x="80" y="141.00" text-anchor="end" font-family="Arial, sans-serif" font-size="12" fill="#4b5563">80,0</text>
<line x1="90" y1="70.00" x2="960" y2="70.00" stroke="#e5e7eb" stroke-width="1"/>
<text x="80" y="74.00" text-anchor="end" font-family="Arial, sans-serif" font-size="12" fill="#4b5563">100,0</text>
<text x="500.0" y="502" text-anchor="middle" font-family="Arial, sans-serif" font-size="14" fill="#1f2937">Tarefa</text>
<text x="18" y="237.5" text-anchor="middle" font-family="Arial, sans-serif" font-size="14" fill="#1f2937" transform="rotate(-90 18 237.5)">Janela após ajuste</text>
<polyline points="91.34,364.80 92.68,331.30 94.02,297.80 95.35,264.30 96.69,230.80 98.03,197.30 99.37,163.80 100.71,130.30 102.05,185.24 103.38,151.74 104.72,118.24 106.06,175.59 107.40,142.09 108.74,194.67 110.08,161.17 111.42,209.94 112.75,176.44 114.09,142.94 115.43,195.35 116.77,161.85 118.11,210.48 119.45,176.98 120.78,222.58 122.12,189.08 123.46,155.58 124.80,205.47 126.14,171.97 127.48,218.57 128.82,185.07 130.15,229.06 131.49,195.56 132.83,237.45 134.17,203.95 135.51,244.16 136.85,276.33 138.18,242.83 139.52,275.26 140.86,241.76 142.20,274.41 143.54,240.91 144.88,273.73 146.22,240.23 147.55,273.18 148.89,239.68 150.23,272.75 151.57,239.25 152.91,272.40 154.25,238.90 155.58,205.40 156.92,245.32 158.26,277.25 159.60,243.75 160.94,276.00 162.28,242.50 163.62,275.00 164.95,241.50 166.29,274.20 167.63,240.70 168.97,273.56 170.31,240.06 171.65,206.56 172.98,246.25 174.32,278.00 175.66,244.50 177.00,211.00 178.34,249.80 179.68,280.84 181.02,247.34 182.35,213.84 183.69,252.07 185.03,282.66 186.37,249.16 187.71,280.33 189.05,246.83 190.38,278.46 191.72,244.96 193.06,276.97 194.40,243.47 195.74,209.97 197.08,248.97 198.42,280.18 199.75,246.68 201.09,278.34 202.43,244.84 203.77,276.88 205.11,243.38 206.45,275.70 207.78,242.20 209.12,274.76 210.46,241.26 211.80,274.01 213.14,240.51 214.48,273.41 215.82,239.91 217.15,272.93 218.49,239.43 219.83,272.54 221.17,239.04 222.51,272.23 223.85,238.73 225.18,271.99 226.52,238.49 227.86,271.79 229.20,238.29 230.54,271.63 231.88,238.13 233.22,271.50 234.55,238.00 235.89,271.40 237.23,237.90 238.57,271.32 239.91,237.82 241.25,271.26 242.58,237.76 243.92,271.21 245.26,237.71 246.60,271.17 247.94,237.67 249.28,271.13 250.62,237.63 251.95,271.11 253.29,237.61 254.63,271.08 255.97,237.58 257.31,271.07 258.65,237.57 259.98,271.05 261.32,237.55 262.66,271.04 264.00,237.54 265.34,271.03 266.68,237.53 268.02,271.03 269.35,237.53 270.69,271.02 272.03,237.52 273.37,271.02 274.71,237.52 276.05,271.01 277.38,237.51 278.72,271.01 280.06,237.51 281.40,271.01 282.74,237.51 284.08,271.01 285.42,237.51 286.75,271.01 288.09,237.51 289.43,271.00 290.77,237.50 292.11,271.00 293.45,237.50 294.78,271.00 296.12,237.50 297.46,271.00 298.80,237.50 300.14,271.00 301.48,237.50 302.82,271.00 304.15,237.50 305.49,271.00 306.83,237.50 308.17,271.00 309.51,237.50 310.85,271.00 312.18,237.50 313.52,271.00 314.86,237.50 316.20,271.00 317.54,237.50 318.88,271.00 320.22,237.50 321.55,271.00 322.89,237.50 324.23,271.00 325.57,237.50 326.91,271.00 328.25,237.50 329.58,271.00 330.92,237.50 332.26,271.00 333.60,237.50 334.94,271.00 336.28,237.50 337.62,271.00 338.95,237.50 340.29,271.00 341.63,237.50 342.97,271.00 344.31,237.50 345.65,271.00 346.98,237.50 348.32,271.00 349.66,237.50 351.00,271.00 352.34,237.50 353.68,271.00 355.02,237.50 356.35,271.00 357.69,237.50 359.03,271.00 360.37,237.50 361.71,271.00 363.05,237.50 364.38,271.00 365.72,237.50 367.06,271.00 368.40,237.50 369.74,271.00 371.08,237.50 372.42,271.00 373.75,237.50 375.09,271.00 376.43,237.50 377.77,271.00 379.11,237.50 380.45,271.00 381.78,237.50 383.12,271.00 384.46,237.50 385.80,271.00 387.14,237.50 388.48,271.00 389.82,237.50 391.15,271.00 392.49,237.50 393.83,271.00 395.17,237.50 396.51,271.00 397.85,237.50 399.18,271.00 400.52,237.50 401.86,271.00 403.20,237.50 404.54,271.00 405.88,237.50 407.22,271.00 408.55,237.50 409.89,271.00 411.23,237.50 412.57,271.00 413.91,237.50 415.25,271.00 416.58,237.50 417.92,271.00 419.26,237.50 420.60,271.00 421.94,297.80 423.28,264.30 424.62,292.44 425.95,258.94 427.29,288.15 428.63,254.65 429.97,284.72 431.31,251.22 432.65,281.98 433.98,248.48 435.32,279.78 436.66,246.28 438.00,278.03 439.34,244.53 440.68,276.62 442.02,243.12 443.35,275.50 444.69,242.00 446.03,274.60 447.37,241.10 448.71,273.88 450.05,240.38 451.38,273.30 452.72,239.80 454.06,272.84 455.40,239.34 456.74,272.47 458.08,298.98 459.42,265.48 460.75,293.38 462.09,259.88 463.43,288.91 464.77,255.41 466.11,285.33 467.45,251.83 468.78,282.46 470.12,248.96 471.46,280.17 472.80,246.67 474.14,278.33 475.48,244.83 476.82,276.87 478.15,243.37 479.49,275.69 480.83,242.19 482.17,274.76 483.51,241.26 484.85,274.00 486.18,300.20 487.52,266.70 488.86,294.36 490.20,260.86 491.54,289.69 492.88,256.19 494.22,285.95 495.55,252.45 496.89,282.96 498.23,249.46 499.57,280.57 500.91,247.07 502.25,278.66 503.58,245.16 504.92,277.12 506.26,243.62 507.60,275.90 508.94,242.40 510.28,274.92 511.62,241.42 512.95,274.14 514.29,240.64 515.63,273.51 516.97,240.01 518.31,273.01 519.65,239.51 520.98,272.61 522.32,299.08 523.66,265.58 525.00,293.47 526.34,259.97 527.68,288.97 529.02,255.47 530.35,285.38 531.69,251.88 533.03,282.50 534.37,249.00 535.71,280.20 537.05,246.70 538.38,278.36 539.72,244.86 541.06,276.89 542.40,243.39 543.74,275.71 545.08,242.21 546.42,274.77 547.75,241.27 549.09,274.02 550.43,240.52 551.77,273.41 553.11,239.91 554.45,272.93 555.78,239.43 557.12,272.54 558.46,299.04 559.80,265.54 561.14,293.43 562.48,259.93 563.82,288.94 565.15,255.44 566.49,285.35 567.83,251.85 569.17,282.48 570.51,248.98 571.85,280.19 573.18,246.69 574.52,278.35 575.86,244.85 577.20,276.88 578.54,243.38 579.88,275.70 581.22,242.20 582.55,274.76 583.89,241.26 585.23,274.01 586.57,240.51 587.91,273.41 589.25,239.91 590.58,272.93 591.92,239.43 593.26,272.54 594.60,299.03 595.94,265.53 597.28,293.43 598.62,259.93 599.95,288.94 601.29,255.44 602.63,285.35 603.97,251.85 605.31,282.48 606.65,248.98 607.98,280.19 609.32,246.69 610.66,278.35 612.00,244.85 613.34,276.88 614.68,243.38 616.02,275.70 617.35,242.20 618.69,274.76 620.03,241.26 621.37,274.01 622.71,240.51 624.05,273.41 625.38,239.91 626.72,272.93 628.06,239.43 629.40,272.54 630.74,239.04 632.08,272.23 633.42,298.79 634.75,265.29 636.09,293.23 637.43,259.73 638.77,288.78 640.11,255.28 641.45,285.23 642.78,251.73 644.12,282.38 645.46,248.88 646.80,280.11 648.14,246.61 649.48,278.28 650.82,244.78 652.15,276.83 653.49,302.46 654.83,268.96 656.17,296.17 657.51,262.67 658.85,291.14 660.18,257.64 661.52,287.11 662.86,253.61 664.20,283.89 665.54,250.39 666.88,281.31 668.22,247.81 669.55,279.25 670.89,245.75 672.23,277.60 673.57,244.10 674.91,276.28 676.25,242.78 677.58,275.22 678.92,301.18 680.26,267.68 681.60,295.14 682.94,261.64 684.28,290.31 685.62,256.81 686.95,286.45 688.29,252.95 689.63,283.36 690.97,249.86 692.31,216.36" fill="none" stroke="#2563eb" stroke-width="0.3"/>
<circle cx="91.34" cy="364.80" r="0.70" fill="#2563eb"/>
<circle cx="92.68" cy="331.30" r="0.70" fill="#2563eb"/>
<circle cx="94.02" cy="297.80" r="0.70" fill="#2563eb"/>
<circle cx="95.35" cy="264.30" r="0.70" fill="#2563eb"/>
<circle cx="96.69" cy="230.80" r="0.70" fill="#2563eb"/>
<circle cx="98.03" cy="197.30" r="0.70" fill="#2563eb"/>
<circle cx="99.37" cy="163.80" r="0.70" fill="#2563eb"/>
<circle cx="100.71" cy="130.30" r="0.70" fill="#2563eb"/>
<circle cx="102.05" cy="185.24" r="0.70" fill="#2563eb"/>
<circle cx="103.38" cy="151.74" r="0.70" fill="#2563eb"/>
<circle cx="104.72" cy="118.24" r="0.70" fill="#2563eb"/>
<circle cx="106.06" cy="175.59" r="0.70" fill="#2563eb"/>
<circle cx="107.40" cy="142.09" r="0.70" fill="#2563eb"/>
<circle cx="108.74" cy="194.67" r="0.70" fill="#2563eb"/>
<circle cx="110.08" cy="161.17" r="0.70" fill="#2563eb"/>
<circle cx="111.42" cy="209.94" r="0.70" fill="#2563eb"/>
<circle cx="112.75" cy="176.44" r="0.70" fill="#2563eb"/>
<circle cx="114.09" cy="142.94" r="0.70" fill="#2563eb"/>
<circle cx="115.43" cy="195.35" r="0.70" fill="#2563eb"/>
<circle cx="116.77" cy="161.85" r="0.70" fill="#2563eb"/>
<circle cx="118.11" cy="210.48" r="0.70" fill="#2563eb"/>
<circle cx="119.45" cy="176.98" r="0.70" fill="#2563eb"/>
<circle cx="120.78" cy="222.58" r="0.70" fill="#2563eb"/>
<circle cx="122.12" cy="189.08" r="0.70" fill="#2563eb"/>
<circle cx="123.46" cy="155.58" r="0.70" fill="#2563eb"/>
<circle cx="124.80" cy="205.47" r="0.70" fill="#2563eb"/>
<circle cx="126.14" cy="171.97" r="0.70" fill="#2563eb"/>
<circle cx="127.48" cy="218.57" r="0.70" fill="#2563eb"/>
<circle cx="128.82" cy="185.07" r="0.70" fill="#2563eb"/>
<circle cx="130.15" cy="229.06" r="0.70" fill="#2563eb"/>
<circle cx="131.49" cy="195.56" r="0.70" fill="#2563eb"/>
<circle cx="132.83" cy="237.45" r="0.70" fill="#2563eb"/>
<circle cx="134.17" cy="203.95" r="0.70" fill="#2563eb"/>
<circle cx="135.51" cy="244.16" r="0.70" fill="#2563eb"/>
<circle cx="136.85" cy="276.33" r="0.70" fill="#2563eb"/>
<circle cx="138.18" cy="242.83" r="0.70" fill="#2563eb"/>
<circle cx="139.52" cy="275.26" r="0.70" fill="#2563eb"/>
<circle cx="140.86" cy="241.76" r="0.70" fill="#2563eb"/>
<circle cx="142.20" cy="274.41" r="0.70" fill="#2563eb"/>
<circle cx="143.54" cy="240.91" r="0.70" fill="#2563eb"/>
<circle cx="144.88" cy="273.73" r="0.70" fill="#2563eb"/>
<circle cx="146.22" cy="240.23" r="0.70" fill="#2563eb"/>
<circle cx="147.55" cy="273.18" r="0.70" fill="#2563eb"/>
<circle cx="148.89" cy="239.68" r="0.70" fill="#2563eb"/>
<circle cx="150.23" cy="272.75" r="0.70" fill="#2563eb"/>
<circle cx="151.57" cy="239.25" r="0.70" fill="#2563eb"/>
<circle cx="152.91" cy="272.40" r="0.70" fill="#2563eb"/>
<circle cx="154.25" cy="238.90" r="0.70" fill="#2563eb"/>
<circle cx="155.58" cy="205.40" r="0.70" fill="#2563eb"/>
<circle cx="156.92" cy="245.32" r="0.70" fill="#2563eb"/>
<circle cx="158.26" cy="277.25" r="0.70" fill="#2563eb"/>
<circle cx="159.60" cy="243.75" r="0.70" fill="#2563eb"/>
<circle cx="160.94" cy="276.00" r="0.70" fill="#2563eb"/>
<circle cx="162.28" cy="242.50" r="0.70" fill="#2563eb"/>
<circle cx="163.62" cy="275.00" r="0.70" fill="#2563eb"/>
<circle cx="164.95" cy="241.50" r="0.70" fill="#2563eb"/>
<circle cx="166.29" cy="274.20" r="0.70" fill="#2563eb"/>
<circle cx="167.63" cy="240.70" r="0.70" fill="#2563eb"/>
<circle cx="168.97" cy="273.56" r="0.70" fill="#2563eb"/>
<circle cx="170.31" cy="240.06" r="0.70" fill="#2563eb"/>
<circle cx="171.65" cy="206.56" r="0.70" fill="#2563eb"/>
<circle cx="172.98" cy="246.25" r="0.70" fill="#2563eb"/>
<circle cx="174.32" cy="278.00" r="0.70" fill="#2563eb"/>
<circle cx="175.66" cy="244.50" r="0.70" fill="#2563eb"/>
<circle cx="177.00" cy="211.00" r="0.70" fill="#2563eb"/>
<circle cx="178.34" cy="249.80" r="0.70" fill="#2563eb"/>
<circle cx="179.68" cy="280.84" r="0.70" fill="#2563eb"/>
<circle cx="181.02" cy="247.34" r="0.70" fill="#2563eb"/>
<circle cx="182.35" cy="213.84" r="0.70" fill="#2563eb"/>
<circle cx="183.69" cy="252.07" r="0.70" fill="#2563eb"/>
<circle cx="185.03" cy="282.66" r="0.70" fill="#2563eb"/>
<circle cx="186.37" cy="249.16" r="0.70" fill="#2563eb"/>
<circle cx="187.71" cy="280.33" r="0.70" fill="#2563eb"/>
<circle cx="189.05" cy="246.83" r="0.70" fill="#2563eb"/>
<circle cx="190.38" cy="278.46" r="0.70" fill="#2563eb"/>
<circle cx="191.72" cy="244.96" r="0.70" fill="#2563eb"/>
<circle cx="193.06" cy="276.97" r="0.70" fill="#2563eb"/>
<circle cx="194.40" cy="243.47" r="0.70" fill="#2563eb"/>
<circle cx="195.74" cy="209.97" r="0.70" fill="#2563eb"/>
<circle cx="197.08" cy="248.97" r="0.70" fill="#2563eb"/>
<circle cx="198.42" cy="280.18" r="0.70" fill="#2563eb"/>
<circle cx="199.75" cy="246.68" r="0.70" fill="#2563eb"/>
<circle cx="201.09" cy="278.34" r="0.70" fill="#2563eb"/>
<circle cx="202.43" cy="244.84" r="0.70" fill="#2563eb"/>
<circle cx="203.77" cy="276.88" r="0.70" fill="#2563eb"/>
<circle cx="205.11" cy="243.38" r="0.70" fill="#2563eb"/>
<circle cx="206.45" cy="275.70" r="0.70" fill="#2563eb"/>
<circle cx="207.78" cy="242.20" r="0.70" fill="#2563eb"/>
<circle cx="209.12" cy="274.76" r="0.70" fill="#2563eb"/>
<circle cx="210.46" cy="241.26" r="0.70" fill="#2563eb"/>
<circle cx="211.80" cy="274.01" r="0.70" fill="#2563eb"/>
<circle cx="213.14" cy="240.51" r="0.70" fill="#2563eb"/>
<circle cx="214.48" cy="273.41" r="0.70" fill="#2563eb"/>
<circle cx="215.82" cy="239.91" r="0.70" fill="#2563eb"/>
<circle cx="217.15" cy="272.93" r="0.70" fill="#2563eb"/>
<circle cx="218.49" cy="239.43" r="0.70" fill="#2563eb"/>
<circle cx="219.83" cy="272.54" r="0.70" fill="#2563eb"/>
<circle cx="221.17" cy="239.04" r="0.70" fill="#2563eb"/>
<circle cx="222.51" cy="272.23" r="0.70" fill="#2563eb"/>
<circle cx="223.85" cy="238.73" r="0.70" fill="#2563eb"/>
<circle cx="225.18" cy="271.99" r="0.70" fill="#2563eb"/>
<circle cx="226.52" cy="238.49" r="0.70" fill="#2563eb"/>
<circle cx="227.86" cy="271.79" r="0.70" fill="#2563eb"/>
<circle cx="229.20" cy="238.29" r="0.70" fill="#2563eb"/>
<circle cx="230.54" cy="271.63" r="0.70" fill="#2563eb"/>
<circle cx="231.88" cy="238.13" r="0.70" fill="#2563eb"/>
<circle cx="233.22" cy="271.50" r="0.70" fill="#2563eb"/>
<circle cx="234.55" cy="238.00" r="0.70" fill="#2563eb"/>
<circle cx="235.89" cy="271.40" r="0.70" fill="#2563eb"/>
<circle cx="237.23" cy="237.90" r="0.70" fill="#2563eb"/>
<circle cx="238.57" cy="271.32" r="0.70" fill="#2563eb"/>
<circle cx="239.91" cy="237.82" r="0.70" fill="#2563eb"/>
<circle cx="241.25" cy="271.26" r="0.70" fill="#2563eb"/>
<circle cx="242.58" cy="237.76" r="0.70" fill="#2563eb"/>
<circle cx="243.92" cy="271.21" r="0.70" fill="#2563eb"/>
<circle cx="245.26" cy="237.71" r="0.70" fill="#2563eb"/>
<circle cx="246.60" cy="271.17" r="0.70" fill="#2563eb"/>
<circle cx="247.94" cy="237.67" r="0.70" fill="#2563eb"/>
<circle cx="249.28" cy="271.13" r="0.70" fill="#2563eb"/>
<circle cx="250.62" cy="237.63" r="0.70" fill="#2563eb"/>
<circle cx="251.95" cy="271.11" r="0.70" fill="#2563eb"/>
<circle cx="253.29" cy="237.61" r="0.70" fill="#2563eb"/>
<circle cx="254.63" cy="271.08" r="0.70" fill="#2563eb"/>
<circle cx="255.97" cy="237.58" r="0.70" fill="#2563eb"/>
<circle cx="257.31" cy="271.07" r="0.70" fill="#2563eb"/>
<circle cx="258.65" cy="237.57" r="0.70" fill="#2563eb"/>
<circle cx="259.98" cy="271.05" r="0.70" fill="#2563eb"/>
<circle cx="261.32" cy="237.55" r="0.70" fill="#2563eb"/>
<circle cx="262.66" cy="271.04" r="0.70" fill="#2563eb"/>
<circle cx="264.00" cy="237.54" r="0.70" fill="#2563eb"/>
<circle cx="265.34" cy="271.03" r="0.70" fill="#2563eb"/>
<circle cx="266.68" cy="237.53" r="0.70" fill="#2563eb"/>
<circle cx="268.02" cy="271.03" r="0.70" fill="#2563eb"/>
<circle cx="269.35" cy="237.53" r="0.70" fill="#2563eb"/>
<circle cx="270.69" cy="271.02" r="0.70" fill="#2563eb"/>
<circle cx="272.03" cy="237.52" r="0.70" fill="#2563eb"/>
<circle cx="273.37" cy="271.02" r="0.70" fill="#2563eb"/>
<circle cx="274.71" cy="237.52" r="0.70" fill="#2563eb"/>
<circle cx="276.05" cy="271.01" r="0.70" fill="#2563eb"/>
<circle cx="277.38" cy="237.51" r="0.70" fill="#2563eb"/>
<circle cx="278.72" cy="271.01" r="0.70" fill="#2563eb"/>
<circle cx="280.06" cy="237.51" r="0.70" fill="#2563eb"/>
<circle cx="281.40" cy="271.01" r="0.70" fill="#2563eb"/>
<circle cx="282.74" cy="237.51" r="0.70" fill="#2563eb"/>
<circle cx="284.08" cy="271.01" r="0.70" fill="#2563eb"/>
<circle cx="285.42" cy="237.51" r="0.70" fill="#2563eb"/>
<circle cx="286.75" cy="271.01" r="0.70" fill="#2563eb"/>
<circle cx="288.09" cy="237.51" r="0.70" fill="#2563eb"/>
<circle cx="289.43" cy="271.00" r="0.70" fill="#2563eb"/>
<circle cx="290.77" cy="237.50" r="0.70" fill="#2563eb"/>
<circle cx="292.11" cy="271.00" r="0.70" fill="#2563eb"/>
<circle cx="293.45" cy="237.50" r="0.70" fill="#2563eb"/>
<circle cx="294.78" cy="271.00" r="0.70" fill="#2563eb"/>
<circle cx="296.12" cy="237.50" r="0.70" fill="#2563eb"/>
<circle cx="297.46" cy="271.00" r="0.70" fill="#2563eb"/>
<circle cx="298.80" cy="237.50" r="0.70" fill="#2563eb"/>
<circle cx="300.14" cy="271.00" r="0.70" fill="#2563eb"/>
<circle cx="301.48" cy="237.50" r="0.70" fill="#2563eb"/>
<circle cx="302.82" cy="271.00" r="0.70" fill="#2563eb"/>
<circle cx="304.15" cy="237.50" r="0.70" fill="#2563eb"/>
<circle cx="305.49" cy="271.00" r="0.70" fill="#2563eb"/>
<circle cx="306.83" cy="237.50" r="0.70" fill="#2563eb"/>
<circle cx="308.17" cy="271.00" r="0.70" fill="#2563eb"/>
<circle cx="309.51" cy="237.50" r="0.70" fill="#2563eb"/>
<circle cx="310.85" cy="271.00" r="0.70" fill="#2563eb"/>
<circle cx="312.18" cy="237.50" r="0.70" fill="#2563eb"/>
<circle cx="313.52" cy="271.00" r="0.70" fill="#2563eb"/>
<circle cx="314.86" cy="237.50" r="0.70" fill="#2563eb"/>
<circle cx="316.20" cy="271.00" r="0.70" fill="#2563eb"/>
<circle cx="317.54" cy="237.50" r="0.70" fill="#2563eb"/>
<circle cx="318.88" cy="271.00" r="0.70" fill="#2563eb"/>
<circle cx="320.22" cy="237.50" r="0.70" fill="#2563eb"/>
<circle cx="321.55" cy="271.00" r="0.70" fill="#2563eb"/>
<circle cx="322.89" cy="237.50" r="0.70" fill="#2563eb"/>
<circle cx="324.23" cy="271.00" r="0.70" fill="#2563eb"/>
<circle cx="325.57" cy="237.50" r="0.70" fill="#2563eb"/>
<circle cx="326.91" cy="271.00" r="0.70" fill="#2563eb"/>
<circle cx="328.25" cy="237.50" r="0.70" fill="#2563eb"/>
<circle cx="329.58" cy="271.00" r="0.70" fill="#2563eb"/>
<circle cx="330.92" cy="237.50" r="0.70" fill="#2563eb"/>
<circle cx="332.26" cy="271.00" r="0.70" fill="#2563eb"/>
<circle cx="333.60" cy="237.50" r="0.70" fill="#2563eb"/>
<circle cx="334.94" cy="271.00" r="0.70" fill="#2563eb"/>
<circle cx="336.28" cy="237.50" r="0.70" fill="#2563eb"/>
<circle cx="337.62" cy="271.00" r="0.70" fill="#2563eb"/>
<circle cx="338.95" cy="237.50" r="0.70" fill="#2563eb"/>
<circle cx="340.29" cy="271.00" r="0.70" fill="#2563eb"/>
<circle cx="341.63" cy="237.50" r="0.70" fill="#2563eb"/>
<circle cx="342.97" cy="271.00" r="0.70" fill="#2563eb"/>
<circle cx="344.31" cy="237.50" r="0.70" fill="#2563eb"/>
<circle cx="345.65" cy="271.00" r="0.70" fill="#2563eb"/>
<circle cx="346.98" cy="237.50" r="0.70" fill="#2563eb"/>
<circle cx="348.32" cy="271.00" r="0.70" fill="#2563eb"/>
<circle cx="349.66" cy="237.50" r="0.70" fill="#2563eb"/>
<circle cx="351.00" cy="271.00" r="0.70" fill="#2563eb"/>
<circle cx="352.34" cy="237.50" r="0.70" fill="#2563eb"/>
<circle cx="353.68" cy="271.00" r="0.70" fill="#2563eb"/>
<circle cx="355.02" cy="237.50" r="0.70" fill="#2563eb"/>
<circle cx="356.35" cy="271.00" r="0.70" fill="#2563eb"/>
<circle cx="357.69" cy="237.50" r="0.70" fill="#2563eb"/>
<circle cx="359.03" cy="271.00" r="0.70" fill="#2563eb"/>
<circle cx="360.37" cy="237.50" r="0.70" fill="#2563eb"/>
<circle cx="361.71" cy="271.00" r="0.70" fill="#2563eb"/>
<circle cx="363.05" cy="237.50" r="0.70" fill="#2563eb"/>
<circle cx="364.38" cy="271.00" r="0.70" fill="#2563eb"/>
<circle cx="365.72" cy="237.50" r="0.70" fill="#2563eb"/>
<circle cx="367.06" cy="271.00" r="0.70" fill="#2563eb"/>
<circle cx="368.40" cy="237.50" r="0.70" fill="#2563eb"/>
<circle cx="369.74" cy="271.00" r="0.70" fill="#2563eb"/>
<circle cx="371.08" cy="237.50" r="0.70" fill="#2563eb"/>
<circle cx="372.42" cy="271.00" r="0.70" fill="#2563eb"/>
<circle cx="373.75" cy="237.50" r="0.70" fill="#2563eb"/>
<circle cx="375.09" cy="271.00" r="0.70" fill="#2563eb"/>
<circle cx="376.43" cy="237.50" r="0.70" fill="#2563eb"/>
<circle cx="377.77" cy="271.00" r="0.70" fill="#2563eb"/>
<circle cx="379.11" cy="237.50" r="0.70" fill="#2563eb"/>
<circle cx="380.45" cy="271.00" r="0.70" fill="#2563eb"/>
<circle cx="381.78" cy="237.50" r="0.70" fill="#2563eb"/>
<circle cx="383.12" cy="271.00" r="0.70" fill="#2563eb"/>
<circle cx="384.46" cy="237.50" r="0.70" fill="#2563eb"/>
<circle cx="385.80" cy="271.00" r="0.70" fill="#2563eb"/>
<circle cx="387.14" cy="237.50" r="0.70" fill="#2563eb"/>
<circle cx="388.48" cy="271.00" r="0.70" fill="#2563eb"/>
<circle cx="389.82" cy="237.50" r="0.70" fill="#2563eb"/>
<circle cx="391.15" cy="271.00" r="0.70" fill="#2563eb"/>
<circle cx="392.49" cy="237.50" r="0.70" fill="#2563eb"/>
<circle cx="393.83" cy="271.00" r="0.70" fill="#2563eb"/>
<circle cx="395.17" cy="237.50" r="0.70" fill="#2563eb"/>
<circle cx="396.51" cy="271.00" r="0.70" fill="#2563eb"/>
<circle cx="397.85" cy="237.50" r="0.70" fill="#2563eb"/>
<circle cx="399.18" cy="271.00" r="0.70" fill="#2563eb"/>
<circle cx="400.52" cy="237.50" r="0.70" fill="#2563eb"/>
<circle cx="401.86" cy="271.00" r="0.70" fill="#2563eb"/>
<circle cx="403.20" cy="237.50" r="0.70" fill="#2563eb"/>
<circle cx="404.54" cy="271.00" r="0.70" fill="#2563eb"/>
<circle cx="405.88" cy="237.50" r="0.70" fill="#2563eb"/>
<circle cx="407.22" cy="271.00" r="0.70" fill="#2563eb"/>
<circle cx="408.55" cy="237.50" r="0.70" fill="#2563eb"/>
<circle cx="409.89" cy="271.00" r="0.70" fill="#2563eb"/>
<circle cx="411.23" cy="237.50" r="0.70" fill="#2563eb"/>
<circle cx="412.57" cy="271.00" r="0.70" fill="#2563eb"/>
<circle cx="413.91" cy="237.50" r="0.70" fill="#2563eb"/>
<circle cx="415.25" cy="271.00" r="0.70" fill="#2563eb"/>
<circle cx="416.58" cy="237.50" r="0.70" fill="#2563eb"/>
<circle cx="417.92" cy="271.00" r="0.70" fill="#2563eb"/>
<circle cx="419.26" cy="237.50" r="0.70" fill="#2563eb"/>
<circle cx="420.60" cy="271.00" r="0.70" fill="#2563eb"/>
<circle cx="421.94" cy="297.80" r="0.70" fill="#2563eb"/>
<circle cx="423.28" cy="264.30" r="0.70" fill="#2563eb"/>
<circle cx="424.62" cy="292.44" r="0.70" fill="#2563eb"/>
<circle cx="425.95" cy="258.94" r="0.70" fill="#2563eb"/>
<circle cx="427.29" cy="288.15" r="0.70" fill="#2563eb"/>
<circle cx="428.63" cy="254.65" r="0.70" fill="#2563eb"/>
<circle cx="429.97" cy="284.72" r="0.70" fill="#2563eb"/>
<circle cx="431.31" cy="251.22" r="0.70" fill="#2563eb"/>
<circle cx="432.65" cy="281.98" r="0.70" fill="#2563eb"/>
<circle cx="433.98" cy="248.48" r="0.70" fill="#2563eb"/>
<circle cx="435.32" cy="279.78" r="0.70" fill="#2563eb"/>
<circle cx="436.66" cy="246.28" r="0.70" fill="#2563eb"/>
<circle cx="438.00" cy="278.03" r="0.70" fill="#2563eb"/>
<circle cx="439.34" cy="244.53" r="0.70" fill="#2563eb"/>
<circle cx="440.68" cy="276.62" r="0.70" fill="#2563eb"/>
<circle cx="442.02" cy="243.12" r="0.70" fill="#2563eb"/>
<circle cx="443.35" cy="275.50" r="0.70" fill="#2563eb"/>
<circle cx="444.69" cy="242.00" r="0.70" fill="#2563eb"/>
<circle cx="446.03" cy="274.60" r="0.70" fill="#2563eb"/>
<circle cx="447.37" cy="241.10" r="0.70" fill="#2563eb"/>
<circle cx="448.71" cy="273.88" r="0.70" fill="#2563eb"/>
<circle cx="450.05" cy="240.38" r="0.70" fill="#2563eb"/>
<circle cx="451.38" cy="273.30" r="0.70" fill="#2563eb"/>
<circle cx="452.72" cy="239.80" r="0.70" fill="#2563eb"/>
<circle cx="454.06" cy="272.84" r="0.70" fill="#2563eb"/>
<circle cx="455.40" cy="239.34" r="0.70" fill="#2563eb"/>
<circle cx="456.74" cy="272.47" r="0.70" fill="#2563eb"/>
<circle cx="458.08" cy="298.98" r="0.70" fill="#2563eb"/>
<circle cx="459.42" cy="265.48" r="0.70" fill="#2563eb"/>
<circle cx="460.75" cy="293.38" r="0.70" fill="#2563eb"/>
<circle cx="462.09" cy="259.88" r="0.70" fill="#2563eb"/>
<circle cx="463.43" cy="288.91" r="0.70" fill="#2563eb"/>
<circle cx="464.77" cy="255.41" r="0.70" fill="#2563eb"/>
<circle cx="466.11" cy="285.33" r="0.70" fill="#2563eb"/>
<circle cx="467.45" cy="251.83" r="0.70" fill="#2563eb"/>
<circle cx="468.78" cy="282.46" r="0.70" fill="#2563eb"/>
<circle cx="470.12" cy="248.96" r="0.70" fill="#2563eb"/>
<circle cx="471.46" cy="280.17" r="0.70" fill="#2563eb"/>
<circle cx="472.80" cy="246.67" r="0.70" fill="#2563eb"/>
<circle cx="474.14" cy="278.33" r="0.70" fill="#2563eb"/>
<circle cx="475.48" cy="244.83" r="0.70" fill="#2563eb"/>
<circle cx="476.82" cy="276.87" r="0.70" fill="#2563eb"/>
<circle cx="478.15" cy="243.37" r="0.70" fill="#2563eb"/>
<circle cx="479.49" cy="275.69" r="0.70" fill="#2563eb"/>
<circle cx="480.83" cy="242.19" r="0.70" fill="#2563eb"/>
<circle cx="482.17" cy="274.76" r="0.70" fill="#2563eb"/>
<circle cx="483.51" cy="241.26" r="0.70" fill="#2563eb"/>
<circle cx="484.85" cy="274.00" r="0.70" fill="#2563eb"/>
<circle cx="486.18" cy="300.20" r="0.70" fill="#2563eb"/>
<circle cx="487.52" cy="266.70" r="0.70" fill="#2563eb"/>
<circle cx="488.86" cy="294.36" r="0.70" fill="#2563eb"/>
<circle cx="490.20" cy="260.86" r="0.70" fill="#2563eb"/>
<circle cx="491.54" cy="289.69" r="0.70" fill="#2563eb"/>
<circle cx="492.88" cy="256.19" r="0.70" fill="#2563eb"/>
<circle cx="494.22" cy="285.95" r="0.70" fill="#2563eb"/>
<circle cx="495.55" cy="252.45" r="0.70" fill="#2563eb"/>
<circle cx="496.89" cy="282.96" r="0.70" fill="#2563eb"/>
<circle cx="498.23" cy="249.46" r="0.70" fill="#2563eb"/>
<circle cx="499.57" cy="280.57" r="0.70" fill="#2563eb"/>
<circle cx="500.91" cy="247.07" r="0.70" fill="#2563eb"/>
<circle cx="502.25" cy="278.66" r="0.70" fill="#2563eb"/>
<circle cx="503.58" cy="245.16" r="0.70" fill="#2563eb"/>
<circle cx="504.92" cy="277.12" r="0.70" fill="#2563eb"/>
<circle cx="506.26" cy="243.62" r="0.70" fill="#2563eb"/>
<circle cx="507.60" cy="275.90" r="0.70" fill="#2563eb"/>
<circle cx="508.94" cy="242.40" r="0.70" fill="#2563eb"/>
<circle cx="510.28" cy="274.92" r="0.70" fill="#2563eb"/>
<circle cx="511.62" cy="241.42" r="0.70" fill="#2563eb"/>
<circle cx="512.95" cy="274.14" r="0.70" fill="#2563eb"/>
<circle cx="514.29" cy="240.64" r="0.70" fill="#2563eb"/>
<circle cx="515.63" cy="273.51" r="0.70" fill="#2563eb"/>
<circle cx="516.97" cy="240.01" r="0.70" fill="#2563eb"/>
<circle cx="518.31" cy="273.01" r="0.70" fill="#2563eb"/>
<circle cx="519.65" cy="239.51" r="0.70" fill="#2563eb"/>
<circle cx="520.98" cy="272.61" r="0.70" fill="#2563eb"/>
<circle cx="522.32" cy="299.08" r="0.70" fill="#2563eb"/>
<circle cx="523.66" cy="265.58" r="0.70" fill="#2563eb"/>
<circle cx="525.00" cy="293.47" r="0.70" fill="#2563eb"/>
<circle cx="526.34" cy="259.97" r="0.70" fill="#2563eb"/>
<circle cx="527.68" cy="288.97" r="0.70" fill="#2563eb"/>
<circle cx="529.02" cy="255.47" r="0.70" fill="#2563eb"/>
<circle cx="530.35" cy="285.38" r="0.70" fill="#2563eb"/>
<circle cx="531.69" cy="251.88" r="0.70" fill="#2563eb"/>
<circle cx="533.03" cy="282.50" r="0.70" fill="#2563eb"/>
<circle cx="534.37" cy="249.00" r="0.70" fill="#2563eb"/>
<circle cx="535.71" cy="280.20" r="0.70" fill="#2563eb"/>
<circle cx="537.05" cy="246.70" r="0.70" fill="#2563eb"/>
<circle cx="538.38" cy="278.36" r="0.70" fill="#2563eb"/>
<circle cx="539.72" cy="244.86" r="0.70" fill="#2563eb"/>
<circle cx="541.06" cy="276.89" r="0.70" fill="#2563eb"/>
<circle cx="542.40" cy="243.39" r="0.70" fill="#2563eb"/>
<circle cx="543.74" cy="275.71" r="0.70" fill="#2563eb"/>
<circle cx="545.08" cy="242.21" r="0.70" fill="#2563eb"/>
<circle cx="546.42" cy="274.77" r="0.70" fill="#2563eb"/>
<circle cx="547.75" cy="241.27" r="0.70" fill="#2563eb"/>
<circle cx="549.09" cy="274.02" r="0.70" fill="#2563eb"/>
<circle cx="550.43" cy="240.52" r="0.70" fill="#2563eb"/>
<circle cx="551.77" cy="273.41" r="0.70" fill="#2563eb"/>
<circle cx="553.11" cy="239.91" r="0.70" fill="#2563eb"/>
<circle cx="554.45" cy="272.93" r="0.70" fill="#2563eb"/>
<circle cx="555.78" cy="239.43" r="0.70" fill="#2563eb"/>
<circle cx="557.12" cy="272.54" r="0.70" fill="#2563eb"/>
<circle cx="558.46" cy="299.04" r="0.70" fill="#2563eb"/>
<circle cx="559.80" cy="265.54" r="0.70" fill="#2563eb"/>
<circle cx="561.14" cy="293.43" r="0.70" fill="#2563eb"/>
<circle cx="562.48" cy="259.93" r="0.70" fill="#2563eb"/>
<circle cx="563.82" cy="288.94" r="0.70" fill="#2563eb"/>
<circle cx="565.15" cy="255.44" r="0.70" fill="#2563eb"/>
<circle cx="566.49" cy="285.35" r="0.70" fill="#2563eb"/>
<circle cx="567.83" cy="251.85" r="0.70" fill="#2563eb"/>
<circle cx="569.17" cy="282.48" r="0.70" fill="#2563eb"/>
<circle cx="570.51" cy="248.98" r="0.70" fill="#2563eb"/>
<circle cx="571.85" cy="280.19" r="0.70" fill="#2563eb"/>
<circle cx="573.18" cy="246.69" r="0.70" fill="#2563eb"/>
<circle cx="574.52" cy="278.35" r="0.70" fill="#2563eb"/>
<circle cx="575.86" cy="244.85" r="0.70" fill="#2563eb"/>
<circle cx="577.20" cy="276.88" r="0.70" fill="#2563eb"/>
<circle cx="578.54" cy="243.38" r="0.70" fill="#2563eb"/>
<circle cx="579.88" cy="275.70" r="0.70" fill="#2563eb"/>
<circle cx="581.22" cy="242.20" r="0.70" fill="#2563eb"/>
<circle cx="582.55" cy="274.76" r="0.70" fill="#2563eb"/>
<circle cx="583.89" cy="241.26" r="0.70" fill="#2563eb"/>
<circle cx="585.23" cy="274.01" r="0.70" fill="#2563eb"/>
<circle cx="586.57" cy="240.51" r="0.70" fill="#2563eb"/>
<circle cx="587.91" cy="273.41" r="0.70" fill="#2563eb"/>
<circle cx="589.25" cy="239.91" r="0.70" fill="#2563eb"/>
<circle cx="590.58" cy="272.93" r="0.70" fill="#2563eb"/>
<circle cx="591.92" cy="239.43" r="0.70" fill="#2563eb"/>
<circle cx="593.26" cy="272.54" r="0.70" fill="#2563eb"/>
<circle cx="594.60" cy="299.03" r="0.70" fill="#2563eb"/>
<circle cx="595.94" cy="265.53" r="0.70" fill="#2563eb"/>
<circle cx="597.28" cy="293.43" r="0.70" fill="#2563eb"/>
<circle cx="598.62" cy="259.93" r="0.70" fill="#2563eb"/>
<circle cx="599.95" cy="288.94" r="0.70" fill="#2563eb"/>
<circle cx="601.29" cy="255.44" r="0.70" fill="#2563eb"/>
<circle cx="602.63" cy="285.35" r="0.70" fill="#2563eb"/>
<circle cx="603.97" cy="251.85" r="0.70" fill="#2563eb"/>
<circle cx="605.31" cy="282.48" r="0.70" fill="#2563eb"/>
<circle cx="606.65" cy="248.98" r="0.70" fill="#2563eb"/>
<circle cx="607.98" cy="280.19" r="0.70" fill="#2563eb"/>
<circle cx="609.32" cy="246.69" r="0.70" fill="#2563eb"/>
<circle cx="610.66" cy="278.35" r="0.70" fill="#2563eb"/>
<circle cx="612.00" cy="244.85" r="0.70" fill="#2563eb"/>
<circle cx="613.34" cy="276.88" r="0.70" fill="#2563eb"/>
<circle cx="614.68" cy="243.38" r="0.70" fill="#2563eb"/>
<circle cx="616.02" cy="275.70" r="0.70" fill="#2563eb"/>
<circle cx="617.35" cy="242.20" r="0.70" fill="#2563eb"/>
<circle cx="618.69" cy="274.76" r="0.70" fill="#2563eb"/>
<circle cx="620.03" cy="241.26" r="0.70" fill="#2563eb"/>
<circle cx="621.37" cy="274.01" r="0.70" fill="#2563eb"/>
<circle cx="622.71" cy="240.51" r="0.70" fill="#2563eb"/>
<circle cx="624.05" cy="273.41" r="0.70" fill="#2563eb"/>
<circle cx="625.38" cy="239.91" r="0.70" fill="#2563eb"/>
<circle cx="626.72" cy="272.93" r="0.70" fill="#2563eb"/>
<circle cx="628.06" cy="239.43" r="0.70" fill="#2563eb"/>
<circle cx="629.40" cy="272.54" r="0.70" fill="#2563eb"/>
<circle cx="630.74" cy="239.04" r="0.70" fill="#2563eb"/>
<circle cx="632.08" cy="272.23" r="0.70" fill="#2563eb"/>
<circle cx="633.42" cy="298.79" r="0.70" fill="#2563eb"/>
<circle cx="634.75" cy="265.29" r="0.70" fill="#2563eb"/>
<circle cx="636.09" cy="293.23" r="0.70" fill="#2563eb"/>
<circle cx="637.43" cy="259.73" r="0.70" fill="#2563eb"/>
<circle cx="638.77" cy="288.78" r="0.70" fill="#2563eb"/>
<circle cx="640.11" cy="255.28" r="0.70" fill="#2563eb"/>
<circle cx="641.45" cy="285.23" r="0.70" fill="#2563eb"/>
<circle cx="642.78" cy="251.73" r="0.70" fill="#2563eb"/>
<circle cx="644.12" cy="282.38" r="0.70" fill="#2563eb"/>
<circle cx="645.46" cy="248.88" r="0.70" fill="#2563eb"/>
<circle cx="646.80" cy="280.11" r="0.70" fill="#2563eb"/>
<circle cx="648.14" cy="246.61" r="0.70" fill="#2563eb"/>
<circle cx="649.48" cy="278.28" r="0.70" fill="#2563eb"/>
<circle cx="650.82" cy="244.78" r="0.70" fill="#2563eb"/>
<circle cx="652.15" cy="276.83" r="0.70" fill="#2563eb"/>
<circle cx="653.49" cy="302.46" r="0.70" fill="#2563eb"/>
<circle cx="654.83" cy="268.96" r="0.70" fill="#2563eb"/>
<circle cx="656.17" cy="296.17" r="0.70" fill="#2563eb"/>
<circle cx="657.51" cy="262.67" r="0.70" fill="#2563eb"/>
<circle cx="658.85" cy="291.14" r="0.70" fill="#2563eb"/>
<circle cx="660.18" cy="257.64" r="0.70" fill="#2563eb"/>
<circle cx="661.52" cy="287.11" r="0.70" fill="#2563eb"/>
<circle cx="662.86" cy="253.61" r="0.70" fill="#2563eb"/>
<circle cx="664.20" cy="283.89" r="0.70" fill="#2563eb"/>
<circle cx="665.54" cy="250.39" r="0.70" fill="#2563eb"/>
<circle cx="666.88" cy="281.31" r="0.70" fill="#2563eb"/>
<circle cx="668.22" cy="247.81" r="0.70" fill="#2563eb"/>
<circle cx="669.55" cy="279.25" r="0.70" fill="#2563eb"/>
<circle cx="670.89" cy="245.75" r="0.70" fill="#2563eb"/>
<circle cx="672.23" cy="277.60" r="0.70" fill="#2563eb"/>
<circle cx="673.57" cy="244.10" r="0.70" fill="#2563eb"/>
<circle cx="674.91" cy="276.28" r="0.70" fill="#2563eb"/>
<circle cx="676.25" cy="242.78" r="0.70" fill="#2563eb"/>
<circle cx="677.58" cy="275.22" r="0.70" fill="#2563eb"/>
<circle cx="678.92" cy="301.18" r="0.70" fill="#2563eb"/>
<circle cx="680.26" cy="267.68" r="0.70" fill="#2563eb"/>
<circle cx="681.60" cy="295.14" r="0.70" fill="#2563eb"/>
<circle cx="682.94" cy="261.64" r="0.70" fill="#2563eb"/>
<circle cx="684.28" cy="290.31" r="0.70" fill="#2563eb"/>
<circle cx="685.62" cy="256.81" r="0.70" fill="#2563eb"/>
<circle cx="686.95" cy="286.45" r="0.70" fill="#2563eb"/>
<circle cx="688.29" cy="252.95" r="0.70" fill="#2563eb"/>
<circle cx="689.63" cy="283.36" r="0.70" fill="#2563eb"/>
<circle cx="690.97" cy="249.86" r="0.70" fill="#2563eb"/>
<circle cx="692.31" cy="216.36" r="0.70" fill="#2563eb"/>
<rect x="740" y="78" width="14" height="14" fill="#2563eb"/>
<text x="762" y="90" font-family="Arial, sans-serif" font-size="12" fill="#1f2937">ubuntu]</text>
<text x="90.00" y="423" text-anchor="middle" font-family="Arial, sans-serif" font-size="11" fill="#4b5563">0,00</text>
<text x="264.00" y="423" text-anchor="middle" font-family="Arial, sans-serif" font-size="11" fill="#4b5563">130,0</text>
<text x="438.00" y="423" text-anchor="middle" font-family="Arial, sans-serif" font-size="11" fill="#4b5563">260,0</text>
<text x="612.00" y="423" text-anchor="middle" font-family="Arial, sans-serif" font-size="11" fill="#4b5563">390,0</text>
<text x="786.00" y="423" text-anchor="middle" font-family="Arial, sans-serif" font-size="11" fill="#4b5563">520,0</text>
<text x="960.00" y="423" text-anchor="middle" font-family="Arial, sans-serif" font-size="11" fill="#4b5563">650,0</text>
</svg>
