<svg xmlns="http://www.w3.org/2000/svg" width="1000" height="520" viewBox="0 0 1000 520">
<rect width="100%" height="100%" fill="#ffffff"/>
<text x="500.0" y="34" text-anchor="middle" font-family="Arial, sans-serif" font-size="24" font-weight="700" fill="#1f2937">Evolução da janela adaptativa - execução 3</text>
<line x1="90" y1="70" x2="90" y2="405" stroke="#374151" stroke-width="1.5"/>
<line x1="90" y1="405" x2="960" y2="405" stroke="#374151" stroke-width="1.5"/>
<line x1="90" y1="405.00" x2="960" y2="405.00" stroke="#e5e7eb" stroke-width="1"/>
<text x="80" y="409.00" text-anchor="end" font-family="Arial, sans-serif" font-size="12" fill="#4b5563">0,00</text>
<line x1="90" y1="338.00" x2="960" y2="338.00" stroke="#e5e7eb" stroke-width="1"/>
<text x="80" y="342.00" text-anchor="end" font-family="Arial, sans-serif" font-size="12" fill="#4b5563">20,0</text>
<line x1="90" y1="271.00" x2="960" y2="271.00" stroke="#e5e7eb" stroke-width="1"/>
<text x="80" y="275.00" text-anchor="end" font-family="Arial, sans-serif" font-size="12" fill="#4b5563">40,0</text>
<line x1="90" y1="204.00" x2="960" y2="204.00" stroke="#e5e7eb" stroke-width="1"/>
<text x="80" y="208.00" text-anchor="end" font-family="Arial, sans-serif" font-size="12" fill="#4b5563">60,0</text>
<line x1="90" y1="137.00" x2="960" y2="137.00" stroke="#e5e7eb" stroke-width="1"/>
<text x="80" y="141.00" text-anchor="end" font-family="Arial, sans-serif" font-size="12" fill="#4b5563">80,0</text>
<line x1="90" y1="70.00" x2="960" y2="70.00" stroke="#e5e7eb" stroke-width="1"/>
<text x="80" y="74.00" text-anchor="end" font-family="Arial, sans-serif" font-size="12" fill="#4b5563">100,0</text>
<text x="500.0" y="502" text-anchor="middle" font-family="Arial, sans-serif" font-size="14" fill="#1f2937">Tarefa</text>
<text x="18" y="237.5" text-anchor="middle" font-family="Arial, sans-serif" font-size="14" fill="#1f2937" transform="rotate(-90 18 237.5)">Janela após ajuste</text>
<polyline points="91.34,394.95 92.68,391.60 94.02,388.25 95.35,384.90 96.69,381.55 98.03,378.20 99.37,374.85 100.71,371.50 102.05,368.15 103.38,364.80 104.72,361.45 106.06,358.10 107.40,354.75 108.74,351.40 110.08,348.05 111.42,344.70 112.75,341.35 114.09,338.00 115.43,334.65 116.77,331.30 118.11,327.95 119.45,324.60 120.78,321.25 122.12,317.90 123.46,314.55 124.80,311.20 126.14,307.85 127.48,304.50 128.82,301.15 130.15,297.80 131.49,294.45 132.83,291.10 134.17,287.75 135.51,284.40 136.85,281.05 138.18,277.70 139.52,274.35 140.86,271.00 142.20,267.65 143.54,264.30 144.88,260.95 146.22,257.60 147.55,254.25 148.89,250.90 150.23,247.55 151.57,244.20 152.91,240.85 154.25,237.50 155.58,234.15 156.92,230.80 158.26,227.45 159.60,224.10 160.94,220.75 162.28,217.40 163.62,214.05 164.95,309.52 166.29,306.18 167.63,302.82 168.97,299.48 170.31,296.12 171.65,292.77 172.98,289.43 174.32,286.07 175.66,282.73 177.00,279.38 178.34,276.02 179.68,272.67 181.02,269.32 182.35,265.98 183.69,262.62 185.03,259.27 186.37,255.93 187.71,252.57 189.05,328.79 190.38,325.44 191.72,322.09 193.06,318.74 194.40,315.39 195.74,312.04 197.08,308.69 198.42,305.34 199.75,301.99 201.09,298.64 202.43,295.29 203.77,291.94 205.11,288.59 206.45,285.24 207.78,281.89 209.12,278.54 210.46,275.19 211.80,271.84 213.14,268.49 214.48,265.14 215.82,261.79 217.15,258.44 218.49,255.09 219.83,330.04 221.17,326.69 222.51,323.34 223.85,319.99 225.18,316.64 226.52,313.29 227.86,309.94 229.20,306.59 230.54,303.24 231.88,299.89 233.22,296.54 234.55,293.19 235.89,289.84 237.23,286.49 238.57,283.14 239.91,279.79 241.25,276.44 242.58,273.09 243.92,269.74 245.26,266.39 246.60,263.04 247.94,259.69 249.28,256.34 250.62,252.99 251.95,329.00 253.29,325.65 254.63,322.30 255.97,318.95 257.31,315.60 258.65,312.25 259.98,308.90 261.32,305.55 262.66,302.20 264.00,298.85 265.34,295.50 266.68,292.15 268.02,288.80 269.35,285.45 270.69,282.10 272.03,278.75 273.37,275.40 274.71,272.05 276.05,268.70 277.38,265.35 278.72,262.00 280.06,258.65 281.40,255.30 282.74,251.95 284.08,328.47 285.42,325.12 286.75,321.77 288.09,318.42 289.43,315.07 290.77,311.72 292.11,308.37 293.45,305.02 294.78,301.67 296.12,298.32 297.46,294.97 298.80,291.62 300.14,288.27 301.48,284.92 302.82,281.57 304.15,278.22 305.49,274.87 306.83,271.52 308.17,268.17 309.51,264.82 310.85,261.47 312.18,258.12 313.52,331.56 314.86,328.21 316.20,324.86 317.54,321.51 318.88,318.16 320.22,314.81 321.55,311.46 322.89,308.11 324.23,304.76 325.57,301.41 326.91,298.06 328.25,294.71 329.58,291.36 330.92,288.01 332.26,284.66 333.60,281.31 334.94,277.96 336.28,274.61 337.62,271.26 338.95,267.91 340.29,264.56 341.63,261.21 342.97,257.86 344.31,254.51 345.65,251.16 346.98,328.08 348.32,324.73 349.66,321.38 351.00,318.03 352.34,314.68 353.68,311.33 355.02,307.98 356.35,304.63 357.69,301.28 359.03,297.93 360.37,294.58 361.71,291.23 363.05,287.88 364.38,284.53 365.72,281.18 367.06,277.83 368.40,274.48 369.74,271.13 371.08,267.78 372.42,264.43 373.75,261.08 375.09,333.04 376.43,329.69 377.77,326.34 379.11,322.99 380.45,319.64 381.78,316.29 383.12,312.94 384.46,309.59 385.80,306.24 387.14,302.89 388.48,299.54 389.82,296.19 391.15,292.84 392.49,289.49 393.83,286.14 395.17,282.79 396.51,279.44 397.85,276.09 399.18,272.74 400.52,269.39 401.86,266.04 403.20,262.69 404.54,259.34 405.88,332.17 407.22,328.82 408.55,325.47 409.89,322.12 411.23,318.77 412.57,315.42 413.91,312.07 415.25,308.72 416.58,305.37 417.92,302.02 419.26,298.67 420.60,295.32 421.94,291.97 423.28,288.62 424.62,285.27 425.95,281.92 427.29,278.57 428.63,275.22 429.97,271.87 431.31,268.52 432.65,265.17 433.98,335.09 435.32,331.74 436.66,328.39 438.00,325.04 439.34,321.69 440.68,318.34 442.02,314.99 443.35,311.64 444.69,308.29 446.03,304.94 447.37,301.59 448.71,298.24 450.05,294.89 451.38,291.54 452.72,288.19 454.06,284.84 455.40,281.49 456.74,278.14 458.08,274.79 459.42,271.44 460.75,268.09 462.09,336.54 463.43,333.19 464.77,329.84 466.11,326.49 467.45,323.14 468.78,319.79 470.12,316.44 471.46,313.09 472.80,309.74 474.14,306.39 475.48,303.04 476.82,299.69 478.15,296.34 479.49,292.99 480.83,289.64 482.17,286.29 483.51,282.94 484.85,279.59 486.18,276.24 487.52,272.89 488.86,269.54 490.20,266.19 491.54,262.84 492.88,259.49 494.22,332.25 495.55,328.90 496.89,325.55 498.23,322.20 499.57,318.85 500.91,315.50 502.25,312.15 503.58,308.80 504.92,305.45 506.26,302.10 507.60,298.75 508.94,295.40 510.28,292.05 511.62,288.70 512.95,285.35 514.29,282.00 515.63,278.65 516.97,275.30 518.31,271.95 519.65,268.60 520.98,265.25 522.32,335.12 523.66,331.77 525.00,328.42 526.34,325.07 527.68,321.72 529.02,318.37 530.35,315.02 531.69,311.67 533.03,308.32 534.37,304.97 535.71,301.62 537.05,298.27 538.38,294.92 539.72,291.57 541.06,288.22 542.40,284.87 543.74,281.52 545.08,278.17 546.42,274.82 547.75,271.47 549.09,268.12 550.43,336.56 551.77,333.21 553.11,329.86 554.45,326.51 555.78,323.16 557.12,319.81 558.46,316.46 559.80,313.11 561.14,309.76 562.48,306.41 563.82,303.06 565.15,299.71 566.49,296.36 567.83,293.01 569.17,289.66 570.51,286.31 571.85,282.96 573.18,279.61 574.52,276.26 575.86,272.91 577.20,338.96 578.54,335.61 579.88,332.26 581.22,328.91 582.55,325.56 583.89,322.21 585.23,318.86 586.57,315.51 587.91,312.16 589.25,308.81 590.58,305.46 591.92,302.11 593.26,298.76 594.60,295.41 595.94,292.06 597.28,288.71 598.62,285.36 599.95,282.01 601.29,278.66 602.63,275.31 603.97,271.96 605.31,338.48 606.65,335.13 607.98,331.78 609.32,328.43 610.66,325.08 612.00,321.73 613.34,318.38 614.68,315.03 616.02,311.68 617.35,308.33 618.69,304.98 620.03,301.63 621.37,298.28 622.71,294.93 624.05,291.58 625.38,288.23 626.72,284.88 628.06,281.53 629.40,278.18 630.74,274.83 632.08,271.48 633.42,268.13 634.75,336.56 636.09,333.21 637.43,329.86 638.77,326.51 640.11,323.16 641.45,319.81 642.78,316.46 644.12,313.11 645.46,309.76 646.80,306.41 648.14,303.06 649.48,299.71 650.82,296.36 652.15,293.01 653.49,289.66 654.83,286.31 656.17,282.96 657.51,279.61 658.85,276.26 660.18,272.91 661.52,269.56 662.86,266.21 664.20,335.61 665.54,332.26 666.88,328.91 668.22,325.56 669.55,322.21 670.89,318.86 672.23,315.51 673.57,312.16 674.91,308.81 676.25,305.46 677.58,302.11 678.92,298.76 680.26,295.41 681.60,292.06 682.94,288.71 684.28,285.36 685.62,282.01 686.95,278.66 688.29,275.31 689.63,271.96 690.97,268.61 692.31,336.80 693.65,333.45 694.98,330.10 696.32,326.75 697.66,323.40 699.00,320.05 700.34,316.70 701.68,313.35 703.02,310.00 704.35,306.65 705.69,303.30 707.03,299.95 708.37,296.60 709.71,293.25 711.05,289.90 712.38,286.55 713.72,283.20 715.06,279.85 716.40,276.50 717.74,273.15 719.08,269.80 720.42,266.45 721.75,335.73 723.09,332.38 724.43,329.03 725.77,325.68 727.11,322.33 728.45,318.98 729.78,315.63 731.12,312.28 732.46,308.93 733.80,305.58 735.14,302.23 736.48,298.88 737.82,295.53 739.15,292.18 740.49,288.83 741.83,285.48 743.17,282.13 744.51,278.78 745.85,275.43 747.18,272.08 748.52,268.73 749.86,336.86 751.20,333.51 752.54,330.16 753.88,326.81 755.22,323.46 756.55,320.11 757.89,316.76 759.23,313.41 760.57,310.06 761.91,306.71 763.25,303.36 764.58,300.01 765.92,296.66 767.26,293.31 768.60,289.96 769.94,286.61 771.28,283.26 772.62,279.91 773.95,276.56 775.29,273.21 776.63,269.86 777.97,337.43 779.31,334.08 780.65,330.73 781.98,327.38 783.32,324.03 784.66,320.68 786.00,317.33 787.34,313.98 788.68,310.63 790.02,307.28 791.35,303.93 792.69,300.58 794.03,297.23 795.37,293.88 796.71,290.53 798.05,287.18 799.38,283.83 800.72,280.48 802.06,277.13 803.40,273.78 804.74,270.43 806.08,337.72 807.42,334.37 808.75,331.02 810.09,327.67 811.43,324.32 812.77,320.97 814.11,317.62 815.45,314.27 816.78,310.92 818.12,307.57 819.46,304.22 820.80,300.87 822.14,297.52 823.48,294.17 824.82,290.82 826.15,287.47 827.49,284.12 828.83,280.77 830.17,277.42 831.51,274.07 832.85,270.72 834.18,337.86 835.52,334.51 836.86,331.16 838.20,327.81 839.54,324.46 840.88,321.11 842.22,317.76 843.55,314.41 844.89,311.06 846.23,307.71 847.57,304.36 848.91,301.01 850.25,297.66 851.58,294.31 852.92,290.96 854.26,287.61 855.60,284.26 856.94,280.91 858.28,277.56 859.62,274.21 860.95,339.60 862.29,336.25 863.63,332.90 864.97,329.55 866.31,326.20 867.65,322.85 868.98,319.50 870.32,316.15 871.66,312.80 873.00,309.45 874.34,306.10 875.68,302.75 877.02,299.40 878.35,296.05 879.69,292.70 881.03,289.35 882.37,286.00 883.71,282.65 885.05,279.30 886.38,275.95 887.72,272.60 889.06,269.25 890.40,337.13 891.74,333.78 893.08,330.43 894.42,327.08 895.75,323.73 897.09,320.38 898.43,317.03 899.77,313.68 901.11,310.33 902.45,306.98 903.78,303.63 905.12,300.28 906.46,296.93 907.80,293.58 909.14,290.23 910.48,286.88 911.82,283.53 913.15,280.18 914.49,276.83 915.83,273.48 917.17,270.13 918.51,337.56 919.85,334.21 921.18,330.86 922.52,327.51 923.86,324.16 925.20,320.81 926.54,317.46 927.88,314.11 929.22,310.76 930.55,307.41 931.89,304.06 933.23,300.71 934.57,297.36 935.91,294.01 937.25,290.66 938.58,287.31 939.92,283.96 941.26,280.61 942.60,277.26 943.94,273.91" fill="none" stroke="#2563eb" stroke-width="0.3"/>
<circle cx="91.34" cy="394.95" r="0.70" fill="#2563eb"/>
<circle cx="92.68" cy="391.60" r="0.70" fill="#2563eb"/>
<circle cx="94.02" cy="388.25" r="0.70" fill="#2563eb"/>
<circle cx="95.35" cy="384.90" r="0.70" fill="#2563eb"/>
<circle cx="96.69" cy="381.55" r="0.70" fill="#2563eb"/>
<circle cx="98.03" cy="378.20" r="0.70" fill="#2563eb"/>
<circle cx="99.37" cy="374.85" r="0.70" fill="#2563eb"/>
<circle cx="100.71" cy="371.50" r="0.70" fill="#2563eb"/>
<circle cx="102.05" cy="368.15" r="0.70" fill="#2563eb"/>
<circle cx="103.38" cy="364.80" r="0.70" fill="#2563eb"/>
<circle cx="104.72" cy="361.45" r="0.70" fill="#2563eb"/>
<circle cx="106.06" cy="358.10" r="0.70" fill="#2563eb"/>
<circle cx="107.40" cy="354.75" r="0.70" fill="#2563eb"/>
<circle cx="108.74" cy="351.40" r="0.70" fill="#2563eb"/>
<circle cx="110.08" cy="348.05" r="0.70" fill="#2563eb"/>
<circle cx="111.42" cy="344.70" r="0.70" fill="#2563eb"/>
<circle cx="112.75" cy="341.35" r="0.70" fill="#2563eb"/>
<circle cx="114.09" cy="338.00" r="0.70" fill="#2563eb"/>
<circle cx="115.43" cy="334.65" r="0.70" fill="#2563eb"/>
<circle cx="116.77" cy="331.30" r="0.70" fill="#2563eb"/>
<circle cx="118.11" cy="327.95" r="0.70" fill="#2563eb"/>
<circle cx="119.45" cy="324.60" r="0.70" fill="#2563eb"/>
<circle cx="120.78" cy="321.25" r="0.70" fill="#2563eb"/>
<circle cx="122.12" cy="317.90" r="0.70" fill="#2563eb"/>
<circle cx="123.46" cy="314.55" r="0.70" fill="#2563eb"/>
<circle cx="124.80" cy="311.20" r="0.70" fill="#2563eb"/>
<circle cx="126.14" cy="307.85" r="0.70" fill="#2563eb"/>
<circle cx="127.48" cy="304.50" r="0.70" fill="#2563eb"/>
<circle cx="128.82" cy="301.15" r="0.70" fill="#2563eb"/>
<circle cx="130.15" cy="297.80" r="0.70" fill="#2563eb"/>
<circle cx="131.49" cy="294.45" r="0.70" fill="#2563eb"/>
<circle cx="132.83" cy="291.10" r="0.70" fill="#2563eb"/>
<circle cx="134.17" cy="287.75" r="0.70" fill="#2563eb"/>
<circle cx="135.51" cy="284.40" r="0.70" fill="#2563eb"/>
<circle cx="136.85" cy="281.05" r="0.70" fill="#2563eb"/>
<circle cx="138.18" cy="277.70" r="0.70" fill="#2563eb"/>
<circle cx="139.52" cy="274.35" r="0.70" fill="#2563eb"/>
<circle cx="140.86" cy="271.00" r="0.70" fill="#2563eb"/>
<circle cx="142.20" cy="267.65" r="0.70" fill="#2563eb"/>
<circle cx="143.54" cy="264.30" r="0.70" fill="#2563eb"/>
<circle cx="144.88" cy="260.95" r="0.70" fill="#2563eb"/>
<circle cx="146.22" cy="257.60" r="0.70" fill="#2563eb"/>
<circle cx="147.55" cy="254.25" r="0.70" fill="#2563eb"/>
<circle cx="148.89" cy="250.90" r="0.70" fill="#2563eb"/>
<circle cx="150.23" cy="247.55" r="0.70" fill="#2563eb"/>
<circle cx="151.57" cy="244.20" r="0.70" fill="#2563eb"/>
<circle cx="152.91" cy="240.85" r="0.70" fill="#2563eb"/>
<circle cx="154.25" cy="237.50" r="0.70" fill="#2563eb"/>
<circle cx="155.58" cy="234.15" r="0.70" fill="#2563eb"/>
<circle cx="156.92" cy="230.80" r="0.70" fill="#2563eb"/>
<circle cx="158.26" cy="227.45" r="0.70" fill="#2563eb"/>
<circle cx="159.60" cy="224.10" r="0.70" fill="#2563eb"/>
<circle cx="160.94" cy="220.75" r="0.70" fill="#2563eb"/>
<circle cx="162.28" cy="217.40" r="0.70" fill="#2563eb"/>
<circle cx="163.62" cy="214.05" r="0.70" fill="#2563eb"/>
<circle cx="164.95" cy="309.52" r="0.70" fill="#2563eb"/>
<circle cx="166.29" cy="306.18" r="0.70" fill="#2563eb"/>
<circle cx="167.63" cy="302.82" r="0.70" fill="#2563eb"/>
<circle cx="168.97" cy="299.48" r="0.70" fill="#2563eb"/>
<circle cx="170.31" cy="296.12" r="0.70" fill="#2563eb"/>
<circle cx="171.65" cy="292.77" r="0.70" fill="#2563eb"/>
<circle cx="172.98" cy="289.43" r="0.70" fill="#2563eb"/>
<circle cx="174.32" cy="286.07" r="0.70" fill="#2563eb"/>
<circle cx="175.66" cy="282.73" r="0.70" fill="#2563eb"/>
<circle cx="177.00" cy="279.38" r="0.70" fill="#2563eb"/>
<circle cx="178.34" cy="276.02" r="0.70" fill="#2563eb"/>
<circle cx="179.68" cy="272.67" r="0.70" fill="#2563eb"/>
<circle cx="181.02" cy="269.32" r="0.70" fill="#2563eb"/>
<circle cx="182.35" cy="265.98" r="0.70" fill="#2563eb"/>
<circle cx="183.69" cy="262.62" r="0.70" fill="#2563eb"/>
<circle cx="185.03" cy="259.27" r="0.70" fill="#2563eb"/>
<circle cx="186.37" cy="255.93" r="0.70" fill="#2563eb"/>
<circle cx="187.71" cy="252.57" r="0.70" fill="#2563eb"/>
<circle cx="189.05" cy="328.79" r="0.70" fill="#2563eb"/>
<circle cx="190.38" cy="325.44" r="0.70" fill="#2563eb"/>
<circle cx="191.72" cy="322.09" r="0.70" fill="#2563eb"/>
<circle cx="193.06" cy="318.74" r="0.70" fill="#2563eb"/>
<circle cx="194.40" cy="315.39" r="0.70" fill="#2563eb"/>
<circle cx="195.74" cy="312.04" r="0.70" fill="#2563eb"/>
<circle cx="197.08" cy="308.69" r="0.70" fill="#2563eb"/>
<circle cx="198.42" cy="305.34" r="0.70" fill="#2563eb"/>
<circle cx="199.75" cy="301.99" r="0.70" fill="#2563eb"/>
<circle cx="201.09" cy="298.64" r="0.70" fill="#2563eb"/>
<circle cx="202.43" cy="295.29" r="0.70" fill="#2563eb"/>
<circle cx="203.77" cy="291.94" r="0.70" fill="#2563eb"/>
<circle cx="205.11" cy="288.59" r="0.70" fill="#2563eb"/>
<circle cx="206.45" cy="285.24" r="0.70" fill="#2563eb"/>
<circle cx="207.78" cy="281.89" r="0.70" fill="#2563eb"/>
<circle cx="209.12" cy="278.54" r="0.70" fill="#2563eb"/>
<circle cx="210.46" cy="275.19" r="0.70" fill="#2563eb"/>
<circle cx="211.80" cy="271.84" r="0.70" fill="#2563eb"/>
<circle cx="213.14" cy="268.49" r="0.70" fill="#2563eb"/>
<circle cx="214.48" cy="265.14" r="0.70" fill="#2563eb"/>
<circle cx="215.82" cy="261.79" r="0.70" fill="#2563eb"/>
<circle cx="217.15" cy="258.44" r="0.70" fill="#2563eb"/>
<circle cx="218.49" cy="255.09" r="0.70" fill="#2563eb"/>
<circle cx="219.83" cy="330.04" r="0.70" fill="#2563eb"/>
<circle cx="221.17" cy="326.69" r="0.70" fill="#2563eb"/>
<circle cx="222.51" cy="323.34" r="0.70" fill="#2563eb"/>
<circle cx="223.85" cy="319.99" r="0.70" fill="#2563eb"/>
<circle cx="225.18" cy="316.64" r="0.70" fill="#2563eb"/>
<circle cx="226.52" cy="313.29" r="0.70" fill="#2563eb"/>
<circle cx="227.86" cy="309.94" r="0.70" fill="#2563eb"/>
<circle cx="229.20" cy="306.59" r="0.70" fill="#2563eb"/>
<circle cx="230.54" cy="303.24" r="0.70" fill="#2563eb"/>
<circle cx="231.88" cy="299.89" r="0.70" fill="#2563eb"/>
<circle cx="233.22" cy="296.54" r="0.70" fill="#2563eb"/>
<circle cx="234.55" cy="293.19" r="0.70" fill="#2563eb"/>
<circle cx="235.89" cy="289.84" r="0.70" fill="#2563eb"/>
<circle cx="237.23" cy="286.49" r="0.70" fill="#2563eb"/>
<circle cx="238.57" cy="283.14" r="0.70" fill="#2563eb"/>
<circle cx="239.91" cy="279.79" r="0.70" fill="#2563eb"/>
<circle cx="241.25" cy="276.44" r="0.70" fill="#2563eb"/>
<circle cx="242.58" cy="273.09" r="0.70" fill="#2563eb"/>
<circle cx="243.92" cy="269.74" r="0.70" fill="#2563eb"/>
<circle cx="245.26" cy="266.39" r="0.70" fill="#2563eb"/>
<circle cx="246.60" cy="263.04" r="0.70" fill="#2563eb"/>
<circle cx="247.94" cy="259.69" r="0.70" fill="#2563eb"/>
<circle cx="249.28" cy="256.34" r="0.70" fill="#2563eb"/>
<circle cx="250.62" cy="252.99" r="0.70" fill="#2563eb"/>
<circle cx="251.95" cy="329.00" r="0.70" fill="#2563eb"/>
<circle cx="253.29" cy="325.65" r="0.70" fill="#2563eb"/>
<circle cx="254.63" cy="322.30" r="0.70" fill="#2563eb"/>
<circle cx="255.97" cy="318.95" r="0.70" fill="#2563eb"/>
<circle cx="257.31" cy="315.60" r="0.70" fill="#2563eb"/>
<circle cx="258.65" cy="312.25" r="0.70" fill="#2563eb"/>
<circle cx="259.98" cy="308.90" r="0.70" fill="#2563eb"/>
<circle cx="261.32" cy="305.55" r="0.70" fill="#2563eb"/>
<circle cx="262.66" cy="302.20" r="0.70" fill="#2563eb"/>
<circle cx="264.00" cy="298.85" r="0.70" fill="#2563eb"/>
<circle cx="265.34" cy="295.50" r="0.70" fill="#2563eb"/>
<circle cx="266.68" cy="292.15" r="0.70" fill="#2563eb"/>
<circle cx="268.02" cy="288.80" r="0.70" fill="#2563eb"/>
<circle cx="269.35" cy="285.45" r="0.70" fill="#2563eb"/>
<circle cx="270.69" cy="282.10" r="0.70" fill="#2563eb"/>
<circle cx="272.03" cy="278.75" r="0.70" fill="#2563eb"/>
<circle cx="273.37" cy="275.40" r="0.70" fill="#2563eb"/>
<circle cx="274.71" cy="272.05" r="0.70" fill="#2563eb"/>
<circle cx="276.05" cy="268.70" r="0.70" fill="#2563eb"/>
<circle cx="277.38" cy="265.35" r="0.70" fill="#2563eb"/>
<circle cx="278.72" cy="262.00" r="0.70" fill="#2563eb"/>
<circle cx="280.06" cy="258.65" r="0.70" fill="#2563eb"/>
<circle cx="281.40" cy="255.30" r="0.70" fill="#2563eb"/>
<circle cx="282.74" cy="251.95" r="0.70" fill="#2563eb"/>
<circle cx="284.08" cy="328.47" r="0.70" fill="#2563eb"/>
<circle cx="285.42" cy="325.12" r="0.70" fill="#2563eb"/>
<circle cx="286.75" cy="321.77" r="0.70" fill="#2563eb"/>
<circle cx="288.09" cy="318.42" r="0.70" fill="#2563eb"/>
<circle cx="289.43" cy="315.07" r="0.70" fill="#2563eb"/>
<circle cx="290.77" cy="311.72" r="0.70" fill="#2563eb"/>
<circle cx="292.11" cy="308.37" r="0.70" fill="#2563eb"/>
<circle cx="293.45" cy="305.02" r="0.70" fill="#2563eb"/>
<circle cx="294.78" cy="301.67" r="0.70" fill="#2563eb"/>
<circle cx="296.12" cy="298.32" r="0.70" fill="#2563eb"/>
<circle cx="297.46" cy="294.97" r="0.70" fill="#2563eb"/>
<circle cx="298.80" cy="291.62" r="0.70" fill="#2563eb"/>
<circle cx="300.14" cy="288.27" r="0.70" fill="#2563eb"/>
<circle cx="301.48" cy="284.92" r="0.70" fill="#2563eb"/>
<circle cx="302.82" cy="281.57" r="0.70" fill="#2563eb"/>
<circle cx="304.15" cy="278.22" r="0.70" fill="#2563eb"/>
<circle cx="305.49" cy="274.87" r="0.70" fill="#2563eb"/>
<circle cx="306.83" cy="271.52" r="0.70" fill="#2563eb"/>
<circle cx="308.17" cy="268.17" r="0.70" fill="#2563eb"/>
<circle cx="309.51" cy="264.82" r="0.70" fill="#2563eb"/>
<circle cx="310.85" cy="261.47" r="0.70" fill="#2563eb"/>
<circle cx="312.18" cy="258.12" r="0.70" fill="#2563eb"/>
<circle cx="313.52" cy="331.56" r="0.70" fill="#2563eb"/>
<circle cx="314.86" cy="328.21" r="0.70" fill="#2563eb"/>
<circle cx="316.20" cy="324.86" r="0.70" fill="#2563eb"/>
<circle cx="317.54" cy="321.51" r="0.70" fill="#2563eb"/>
<circle cx="318.88" cy="318.16" r="0.70" fill="#2563eb"/>
<circle cx="320.22" cy="314.81" r="0.70" fill="#2563eb"/>
<circle cx="321.55" cy="311.46" r="0.70" fill="#2563eb"/>
<circle cx="322.89" cy="308.11" r="0.70" fill="#2563eb"/>
<circle cx="324.23" cy="304.76" r="0.70" fill="#2563eb"/>
<circle cx="325.57" cy="301.41" r="0.70" fill="#2563eb"/>
<circle cx="326.91" cy="298.06" r="0.70" fill="#2563eb"/>
<circle cx="328.25" cy="294.71" r="0.70" fill="#2563eb"/>
<circle cx="329.58" cy="291.36" r="0.70" fill="#2563eb"/>
<circle cx="330.92" cy="288.01" r="0.70" fill="#2563eb"/>
<circle cx="332.26" cy="284.66" r="0.70" fill="#2563eb"/>
<circle cx="333.60" cy="281.31" r="0.70" fill="#2563eb"/>
<circle cx="334.94" cy="277.96" r="0.70" fill="#2563eb"/>
<circle cx="336.28" cy="274.61" r="0.70" fill="#2563eb"/>
<circle cx="337.62" cy="271.26" r="0.70" fill="#2563eb"/>
<circle cx="338.95" cy="267.91" r="0.70" fill="#2563eb"/>
<circle cx="340.29" cy="264.56" r="0.70" fill="#2563eb"/>
<circle cx="341.63" cy="261.21" r="0.70" fill="#2563eb"/>
<circle cx="342.97" cy="257.86" r="0.70" fill="#2563eb"/>
<circle cx="344.31" cy="254.51" r="0.70" fill="#2563eb"/>
<circle cx="345.65" cy="251.16" r="0.70" fill="#2563eb"/>
<circle cx="346.98" cy="328.08" r="0.70" fill="#2563eb"/>
<circle cx="348.32" cy="324.73" r="0.70" fill="#2563eb"/>
<circle cx="349.66" cy="321.38" r="0.70" fill="#2563eb"/>
<circle cx="351.00" cy="318.03" r="0.70" fill="#2563eb"/>
<circle cx="352.34" cy="314.68" r="0.70" fill="#2563eb"/>
<circle cx="353.68" cy="311.33" r="0.70" fill="#2563eb"/>
<circle cx="355.02" cy="307.98" r="0.70" fill="#2563eb"/>
<circle cx="356.35" cy="304.63" r="0.70" fill="#2563eb"/>
<circle cx="357.69" cy="301.28" r="0.70" fill="#2563eb"/>
<circle cx="359.03" cy="297.93" r="0.70" fill="#2563eb"/>
<circle cx="360.37" cy="294.58" r="0.70" fill="#2563eb"/>
<circle cx="361.71" cy="291.23" r="0.70" fill="#2563eb"/>
<circle cx="363.05" cy="287.88" r="0.70" fill="#2563eb"/>
<circle cx="364.38" cy="284.53" r="0.70" fill="#2563eb"/>
<circle cx="365.72" cy="281.18" r="0.70" fill="#2563eb"/>
<circle cx="367.06" cy="277.83" r="0.70" fill="#2563eb"/>
<circle cx="368.40" cy="274.48" r="0.70" fill="#2563eb"/>
<circle cx="369.74" cy="271.13" r="0.70" fill="#2563eb"/>
<circle cx="371.08" cy="267.78" r="0.70" fill="#2563eb"/>
<circle cx="372.42" cy="264.43" r="0.70" fill="#2563eb"/>
<circle cx="373.75" cy="261.08" r="0.70" fill="#2563eb"/>
<circle cx="375.09" cy="333.04" r="0.70" fill="#2563eb"/>
<circle cx="376.43" cy="329.69" r="0.70" fill="#2563eb"/>
<circle cx="377.77" cy="326.34" r="0.70" fill="#2563eb"/>
<circle cx="379.11" cy="322.99" r="0.70" fill="#2563eb"/>
<circle cx="380.45" cy="319.64" r="0.70" fill="#2563eb"/>
<circle cx="381.78" cy="316.29" r="0.70" fill="#2563eb"/>
<circle cx="383.12" cy="312.94" r="0.70" fill="#2563eb"/>
<circle cx="384.46" cy="309.59" r="0.70" fill="#2563eb"/>
<circle cx="385.80" cy="306.24" r="0.70" fill="#2563eb"/>
<circle cx="387.14" cy="302.89" r="0.70" fill="#2563eb"/>
<circle cx="388.48" cy="299.54" r="0.70" fill="#2563eb"/>
<circle cx="389.82" cy="296.19" r="0.70" fill="#2563eb"/>
<circle cx="391.15" cy="292.84" r="0.70" fill="#2563eb"/>
<circle cx="392.49" cy="289.49" r="0.70" fill="#2563eb"/>
<circle cx="393.83" cy="286.14" r="0.70" fill="#2563eb"/>
<circle cx="395.17" cy="282.79" r="0.70" fill="#2563eb"/>
<circle cx="396.51" cy="279.44" r="0.70" fill="#2563eb"/>
<circle cx="397.85" cy="276.09" r="0.70" fill="#2563eb"/>
<circle cx="399.18" cy="272.74" r="0.70" fill="#2563eb"/>
<circle cx="400.52" cy="269.39" r="0.70" fill="#2563eb"/>
<circle cx="401.86" cy="266.04" r="0.70" fill="#2563eb"/>
<circle cx="403.20" cy="262.69" r="0.70" fill="#2563eb"/>
<circle cx="404.54" cy="259.34" r="0.70" fill="#2563eb"/>
<circle cx="405.88" cy="332.17" r="0.70" fill="#2563eb"/>
<circle cx="407.22" cy="328.82" r="0.70" fill="#2563eb"/>
<circle cx="408.55" cy="325.47" r="0.70" fill="#2563eb"/>
<circle cx="409.89" cy="322.12" r="0.70" fill="#2563eb"/>
<circle cx="411.23" cy="318.77" r="0.70" fill="#2563eb"/>
<circle cx="412.57" cy="315.42" r="0.70" fill="#2563eb"/>
<circle cx="413.91" cy="312.07" r="0.70" fill="#2563eb"/>
<circle cx="415.25" cy="308.72" r="0.70" fill="#2563eb"/>
<circle cx="416.58" cy="305.37" r="0.70" fill="#2563eb"/>
<circle cx="417.92" cy="302.02" r="0.70" fill="#2563eb"/>
<circle cx="419.26" cy="298.67" r="0.70" fill="#2563eb"/>
<circle cx="420.60" cy="295.32" r="0.70" fill="#2563eb"/>
<circle cx="421.94" cy="291.97" r="0.70" fill="#2563eb"/>
<circle cx="423.28" cy="288.62" r="0.70" fill="#2563eb"/>
<circle cx="424.62" cy="285.27" r="0.70" fill="#2563eb"/>
<circle cx="425.95" cy="281.92" r="0.70" fill="#2563eb"/>
<circle cx="427.29" cy="278.57" r="0.70" fill="#2563eb"/>
<circle cx="428.63" cy="275.22" r="0.70" fill="#2563eb"/>
<circle cx="429.97" cy="271.87" r="0.70" fill="#2563eb"/>
<circle cx="431.31" cy="268.52" r="0.70" fill="#2563eb"/>
<circle cx="432.65" cy="265.17" r="0.70" fill="#2563eb"/>
<circle cx="433.98" cy="335.09" r="0.70" fill="#2563eb"/>
<circle cx="435.32" cy="331.74" r="0.70" fill="#2563eb"/>
<circle cx="436.66" cy="328.39" r="0.70" fill="#2563eb"/>
<circle cx="438.00" cy="325.04" r="0.70" fill="#2563eb"/>
<circle cx="439.34" cy="321.69" r="0.70" fill="#2563eb"/>
<circle cx="440.68" cy="318.34" r="0.70" fill="#2563eb"/>
<circle cx="442.02" cy="314.99" r="0.70" fill="#2563eb"/>
<circle cx="443.35" cy="311.64" r="0.70" fill="#2563eb"/>
<circle cx="444.69" cy="308.29" r="0.70" fill="#2563eb"/>
<circle cx="446.03" cy="304.94" r="0.70" fill="#2563eb"/>
<circle cx="447.37" cy="301.59" r="0.70" fill="#2563eb"/>
<circle cx="448.71" cy="298.24" r="0.70" fill="#2563eb"/>
<circle cx="450.05" cy="294.89" r="0.70" fill="#2563eb"/>
<circle cx="451.38" cy="291.54" r="0.70" fill="#2563eb"/>
<circle cx="452.72" cy="288.19" r="0.70" fill="#2563eb"/>
<circle cx="454.06" cy="284.84" r="0.70" fill="#2563eb"/>
<circle cx="455.40" cy="281.49" r="0.70" fill="#2563eb"/>
<circle cx="456.74" cy="278.14" r="0.70" fill="#2563eb"/>
<circle cx="458.08" cy="274.79" r="0.70" fill="#2563eb"/>
<circle cx="459.42" cy="271.44" r="0.70" fill="#2563eb"/>
<circle cx="460.75" cy="268.09" r="0.70" fill="#2563eb"/>
<circle cx="462.09" cy="336.54" r="0.70" fill="#2563eb"/>
<circle cx="463.43" cy="333.19" r="0.70" fill="#2563eb"/>
<circle cx="464.77" cy="329.84" r="0.70" fill="#2563eb"/>
<circle cx="466.11" cy="326.49" r="0.70" fill="#2563eb"/>
<circle cx="467.45" cy="323.14" r="0.70" fill="#2563eb"/>
<circle cx="468.78" cy="319.79" r="0.70" fill="#2563eb"/>
<circle cx="470.12" cy="316.44" r="0.70" fill="#2563eb"/>
<circle cx="471.46" cy="313.09" r="0.70" fill="#2563eb"/>
<circle cx="472.80" cy="309.74" r="0.70" fill="#2563eb"/>
<circle cx="474.14" cy="306.39" r="0.70" fill="#2563eb"/>
<circle cx="475.48" cy="303.04" r="0.70" fill="#2563eb"/>
<circle cx="476.82" cy="299.69" r="0.70" fill="#2563eb"/>
<circle cx="478.15" cy="296.34" r="0.70" fill="#2563eb"/>
<circle cx="479.49" cy="292.99" r="0.70" fill="#2563eb"/>
<circle cx="480.83" cy="289.64" r="0.70" fill="#2563eb"/>
<circle cx="482.17" cy="286.29" r="0.70" fill="#2563eb"/>
<circle cx="483.51" cy="282.94" r="0.70" fill="#2563eb"/>
<circle cx="484.85" cy="279.59" r="0.70" fill="#2563eb"/>
<circle cx="486.18" cy="276.24" r="0.70" fill="#2563eb"/>
<circle cx="487.52" cy="272.89" r="0.70" fill="#2563eb"/>
<circle cx="488.86" cy="269.54" r="0.70" fill="#2563eb"/>
<circle cx="490.20" cy="266.19" r="0.70" fill="#2563eb"/>
<circle cx="491.54" cy="262.84" r="0.70" fill="#2563eb"/>
<circle cx="492.88" cy="259.49" r="0.70" fill="#2563eb"/>
<circle cx="494.22" cy="332.25" r="0.70" fill="#2563eb"/>
<circle cx="495.55" cy="328.90" r="0.70" fill="#2563eb"/>
<circle cx="496.89" cy="325.55" r="0.70" fill="#2563eb"/>
<circle cx="498.23" cy="322.20" r="0.70" fill="#2563eb"/>
<circle cx="499.57" cy="318.85" r="0.70" fill="#2563eb"/>
<circle cx="500.91" cy="315.50" r="0.70" fill="#2563eb"/>
<circle cx="502.25" cy="312.15" r="0.70" fill="#2563eb"/>
<circle cx="503.58" cy="308.80" r="0.70" fill="#2563eb"/>
<circle cx="504.92" cy="305.45" r="0.70" fill="#2563eb"/>
<circle cx="506.26" cy="302.10" r="0.70" fill="#2563eb"/>
<circle cx="507.60" cy="298.75" r="0.70" fill="#2563eb"/>
<circle cx="508.94" cy="295.40" r="0.70" fill="#2563eb"/>
<circle cx="510.28" cy="292.05" r="0.70" fill="#2563eb"/>
<circle cx="511.62" cy="288.70" r="0.70" fill="#2563eb"/>
<circle cx="512.95" cy="285.35" r="0.70" fill="#2563eb"/>
<circle cx="514.29" cy="282.00" r="0.70" fill="#2563eb"/>
<circle cx="515.63" cy="278.65" r="0.70" fill="#2563eb"/>
<circle cx="516.97" cy="275.30" r="0.70" fill="#2563eb"/>
<circle cx="518.31" cy="271.95" r="0.70" fill="#2563eb"/>
<circle cx="519.65" cy="268.60" r="0.70" fill="#2563eb"/>
<circle cx="520.98" cy="265.25" r="0.70" fill="#2563eb"/>
<circle cx="522.32" cy="335.12" r="0.70" fill="#2563eb"/>
<circle cx="523.66" cy="331.77" r="0.70" fill="#2563eb"/>
<circle cx="525.00" cy="328.42" r="0.70" fill="#2563eb"/>
<circle cx="526.34" cy="325.07" r="0.70" fill="#2563eb"/>
<circle cx="527.68" cy="321.72" r="0.70" fill="#2563eb"/>
<circle cx="529.02" cy="318.37" r="0.70" fill="#2563eb"/>
<circle cx="530.35" cy="315.02" r="0.70" fill="#2563eb"/>
<circle cx="531.69" cy="311.67" r="0.70" fill="#2563eb"/>
<circle cx="533.03" cy="308.32" r="0.70" fill="#2563eb"/>
<circle cx="534.37" cy="304.97" r="0.70" fill="#2563eb"/>
<circle cx="535.71" cy="301.62" r="0.70" fill="#2563eb"/>
<circle cx="537.05" cy="298.27" r="0.70" fill="#2563eb"/>
<circle cx="538.38" cy="294.92" r="0.70" fill="#2563eb"/>
<circle cx="539.72" cy="291.57" r="0.70" fill="#2563eb"/>
<circle cx="541.06" cy="288.22" r="0.70" fill="#2563eb"/>
<circle cx="542.40" cy="284.87" r="0.70" fill="#2563eb"/>
<circle cx="543.74" cy="281.52" r="0.70" fill="#2563eb"/>
<circle cx="545.08" cy="278.17" r="0.70" fill="#2563eb"/>
<circle cx="546.42" cy="274.82" r="0.70" fill="#2563eb"/>
<circle cx="547.75" cy="271.47" r="0.70" fill="#2563eb"/>
<circle cx="549.09" cy="268.12" r="0.70" fill="#2563eb"/>
<circle cx="550.43" cy="336.56" r="0.70" fill="#2563eb"/>
<circle cx="551.77" cy="333.21" r="0.70" fill="#2563eb"/>
<circle cx="553.11" cy="329.86" r="0.70" fill="#2563eb"/>
<circle cx="554.45" cy="326.51" r="0.70" fill="#2563eb"/>
<circle cx="555.78" cy="323.16" r="0.70" fill="#2563eb"/>
<circle cx="557.12" cy="319.81" r="0.70" fill="#2563eb"/>
<circle cx="558.46" cy="316.46" r="0.70" fill="#2563eb"/>
<circle cx="559.80" cy="313.11" r="0.70" fill="#2563eb"/>
<circle cx="561.14" cy="309.76" r="0.70" fill="#2563eb"/>
<circle cx="562.48" cy="306.41" r="0.70" fill="#2563eb"/>
<circle cx="563.82" cy="303.06" r="0.70" fill="#2563eb"/>
<circle cx="565.15" cy="299.71" r="0.70" fill="#2563eb"/>
<circle cx="566.49" cy="296.36" r="0.70" fill="#2563eb"/>
<circle cx="567.83" cy="293.01" r="0.70" fill="#2563eb"/>
<circle cx="569.17" cy="289.66" r="0.70" fill="#2563eb"/>
<circle cx="570.51" cy="286.31" r="0.70" fill="#2563eb"/>
<circle cx="571.85" cy="282.96" r="0.70" fill="#2563eb"/>
<circle cx="573.18" cy="279.61" r="0.70" fill="#2563eb"/>
<circle cx="574.52" cy="276.26" r="0.70" fill="#2563eb"/>
<circle cx="575.86" cy="272.91" r="0.70" fill="#2563eb"/>
<circle cx="577.20" cy="338.96" r="0.70" fill="#2563eb"/>
<circle cx="578.54" cy="335.61" r="0.70" fill="#2563eb"/>
<circle cx="579.88" cy="332.26" r="0.70" fill="#2563eb"/>
<circle cx="581.22" cy="328.91" r="0.70" fill="#2563eb"/>
<circle cx="582.55" cy="325.56" r="0.70" fill="#2563eb"/>
<circle cx="583.89" cy="322.21" r="0.70" fill="#2563eb"/>
<circle cx="585.23" cy="318.86" r="0.70" fill="#2563eb"/>
<circle cx="586.57" cy="315.51" r="0.70" fill="#2563eb"/>
<circle cx="587.91" cy="312.16" r="0.70" fill="#2563eb"/>
<circle cx="589.25" cy="308.81" r="0.70" fill="#2563eb"/>
<circle cx="590.58" cy="305.46" r="0.70" fill="#2563eb"/>
<circle cx="591.92" cy="302.11" r="0.70" fill="#2563eb"/>
<circle cx="593.26" cy="298.76" r="0.70" fill="#2563eb"/>
<circle cx="594.60" cy="295.41" r="0.70" fill="#2563eb"/>
<circle cx="595.94" cy="292.06" r="0.70" fill="#2563eb"/>
<circle cx="597.28" cy="288.71" r="0.70" fill="#2563eb"/>
<circle cx="598.62" cy="285.36" r="0.70" fill="#2563eb"/>
<circle cx="599.95" cy="282.01" r="0.70" fill="#2563eb"/>
<circle cx="601.29" cy="278.66" r="0.70" fill="#2563eb"/>
<circle cx="602.63" cy="275.31" r="0.70" fill="#2563eb"/>
<circle cx="603.97" cy="271.96" r="0.70" fill="#2563eb"/>
<circle cx="605.31" cy="338.48" r="0.70" fill="#2563eb"/>
<circle cx="606.65" cy="335.13" r="0.70" fill="#2563eb"/>
<circle cx="607.98" cy="331.78" r="0.70" fill="#2563eb"/>
<circle cx="609.32" cy="328.43" r="0.70" fill="#2563eb"/>
<circle cx="610.66" cy="325.08" r="0.70" fill="#2563eb"/>
<circle cx="612.00" cy="321.73" r="0.70" fill="#2563eb"/>
<circle cx="613.34" cy="318.38" r="0.70" fill="#2563eb"/>
<circle cx="614.68" cy="315.03" r="0.70" fill="#2563eb"/>
<circle cx="616.02" cy="311.68" r="0.70" fill="#2563eb"/>
<circle cx="617.35" cy="308.33" r="0.70" fill="#2563eb"/>
<circle cx="618.69" cy="304.98" r="0.70" fill="#2563eb"/>
<circle cx="620.03" cy="301.63" r="0.70" fill="#2563eb"/>
<circle cx="621.37" cy="298.28" r="0.70" fill="#2563eb"/>
<circle cx="622.71" cy="294.93" r="0.70" fill="#2563eb"/>
<circle cx="624.05" cy="291.58" r="0.70" fill="#2563eb"/>
<circle cx="625.38" cy="288.23" r="0.70" fill="#2563eb"/>
<circle cx="626.72" cy="284.88" r="0.70" fill="#2563eb"/>
<circle cx="628.06" cy="281.53" r="0.70" fill="#2563eb"/>
<circle cx="629.40" cy="278.18" r="0.70" fill="#2563eb"/>
<circle cx="630.74" cy="274.83" r="0.70" fill="#2563eb"/>
<circle cx="632.08" cy="271.48" r="0.70" fill="#2563eb"/>
<circle cx="633.42" cy="268.13" r="0.70" fill="#2563eb"/>
<circle cx="634.75" cy="336.56" r="0.70" fill="#2563eb"/>
<circle cx="636.09" cy="333.21" r="0.70" fill="#2563eb"/>
<circle cx="637.43" cy="329.86" r="0.70" fill="#2563eb"/>
<circle cx="638.77" cy="326.51" r="0.70" fill="#2563eb"/>
<circle cx="640.11" cy="323.16" r="0.70" fill="#2563eb"/>
<circle cx="641.45" cy="319.81" r="0.70" fill="#2563eb"/>
<circle cx="642.78" cy="316.46" r="0.70" fill="#2563eb"/>
<circle cx="644.12" cy="313.11" r="0.70" fill="#2563eb"/>
<circle cx="645.46" cy="309.76" r="0.70" fill="#2563eb"/>
<circle cx="646.80" cy="306.41" r="0.70" fill="#2563eb"/>
<circle cx="648.14" cy="303.06" r="0.70" fill="#2563eb"/>
<circle cx="649.48" cy="299.71" r="0.70" fill="#2563eb"/>
<circle cx="650.82" cy="296.36" r="0.70" fill="#2563eb"/>
<circle cx="652.15" cy="293.01" r="0.70" fill="#2563eb"/>
<circle cx="653.49" cy="289.66" r="0.70" fill="#2563eb"/>
<circle cx="654.83" cy="286.31" r="0.70" fill="#2563eb"/>
<circle cx="656.17" cy="282.96" r="0.70" fill="#2563eb"/>
<circle cx="657.51" cy="279.61" r="0.70" fill="#2563eb"/>
<circle cx="658.85" cy="276.26" r="0.70" fill="#2563eb"/>
<circle cx="660.18" cy="272.91" r="0.70" fill="#2563eb"/>
<circle cx="661.52" cy="269.56" r="0.70" fill="#2563eb"/>
<circle cx="662.86" cy="266.21" r="0.70" fill="#2563eb"/>
<circle cx="664.20" cy="335.61" r="0.70" fill="#2563eb"/>
<circle cx="665.54" cy="332.26" r="0.70" fill="#2563eb"/>
<circle cx="666.88" cy="328.91" r="0.70" fill="#2563eb"/>
<circle cx="668.22" cy="325.56" r="0.70" fill="#2563eb"/>
<circle cx="669.55" cy="322.21" r="0.70" fill="#2563eb"/>
<circle cx="670.89" cy="318.86" r="0.70" fill="#2563eb"/>
<circle cx="672.23" cy="315.51" r="0.70" fill="#2563eb"/>
<circle cx="673.57" cy="312.16" r="0.70" fill="#2563eb"/>
<circle cx="674.91" cy="308.81" r="0.70" fill="#2563eb"/>
<circle cx="676.25" cy="305.46" r="0.70" fill="#2563eb"/>
<circle cx="677.58" cy="302.11" r="0.70" fill="#2563eb"/>
<circle cx="678.92" cy="298.76" r="0.70" fill="#2563eb"/>
<circle cx="680.26" cy="295.41" r="0.70" fill="#2563eb"/>
<circle cx="681.60" cy="292.06" r="0.70" fill="#2563eb"/>
<circle cx="682.94" cy="288.71" r="0.70" fill="#2563eb"/>
<circle cx="684.28" cy="285.36" r="0.70" fill="#2563eb"/>
<circle cx="685.62" cy="282.01" r="0.70" fill="#2563eb"/>
<circle cx="686.95" cy="278.66" r="0.70" fill="#2563eb"/>
<circle cx="688.29" cy="275.31" r="0.70" fill="#2563eb"/>
<circle cx="689.63" cy="271.96" r="0.70" fill="#2563eb"/>
<circle cx="690.97" cy="268.61" r="0.70" fill="#2563eb"/>
<circle cx="692.31" cy="336.80" r="0.70" fill="#2563eb"/>
<circle cx="693.65" cy="333.45" r="0.70" fill="#2563eb"/>
<circle cx="694.98" cy="330.10" r="0.70" fill="#2563eb"/>
<circle cx="696.32" cy="326.75" r="0.70" fill="#2563eb"/>
<circle cx="697.66" cy="323.40" r="0.70" fill="#2563eb"/>
<circle cx="699.00" cy="320.05" r="0.70" fill="#2563eb"/>
<circle cx="700.34" cy="316.70" r="0.70" fill="#2563eb"/>
<circle cx="701.68" cy="313.35" r="0.70" fill="#2563eb"/>
<circle cx="703.02" cy="310.00" r="0.70" fill="#2563eb"/>
<circle cx="704.35" cy="306.65" r="0.70" fill="#2563eb"/>
<circle cx="705.69" cy="303.30" r="0.70" fill="#2563eb"/>
<circle cx="707.03" cy="299.95" r="0.70" fill="#2563eb"/>
<circle cx="708.37" cy="296.60" r="0.70" fill="#2563eb"/>
<circle cx="709.71" cy="293.25" r="0.70" fill="#2563eb"/>
<circle cx="711.05" cy="289.90" r="0.70" fill="#2563eb"/>
<circle cx="712.38" cy="286.55" r="0.70" fill="#2563eb"/>
<circle cx="713.72" cy="283.20" r="0.70" fill="#2563eb"/>
<circle cx="715.06" cy="279.85" r="0.70" fill="#2563eb"/>
<circle cx="716.40" cy="276.50" r="0.70" fill="#2563eb"/>
<circle cx="717.74" cy="273.15" r="0.70" fill="#2563eb"/>
<circle cx="719.08" cy="269.80" r="0.70" fill="#2563eb"/>
<circle cx="720.42" cy="266.45" r="0.70" fill="#2563eb"/>
<circle cx="721.75" cy="335.73" r="0.70" fill="#2563eb"/>
<circle cx="723.09" cy="332.38" r="0.70" fill="#2563eb"/>
<circle cx="724.43" cy="329.03" r="0.70" fill="#2563eb"/>
<circle cx="725.77" cy="325.68" r="0.70" fill="#2563eb"/>
<circle cx="727.11" cy="322.33" r="0.70" fill="#2563eb"/>
<circle cx="728.45" cy="318.98" r="0.70" fill="#2563eb"/>
<circle cx="729.78" cy="315.63" r="0.70" fill="#2563eb"/>
<circle cx="731.12" cy="312.28" r="0.70" fill="#2563eb"/>
<circle cx="732.46" cy="308.93" r="0.70" fill="#2563eb"/>
<circle cx="733.80" cy="305.58" r="0.70" fill="#2563eb"/>
<circle cx="735.14" cy="302.23" r="0.70" fill="#2563eb"/>
<circle cx="736.48" cy="298.88" r="0.70" fill="#2563eb"/>
<circle cx="737.82" cy="295.53" r="0.70" fill="#2563eb"/>
<circle cx="739.15" cy="292.18" r="0.70" fill="#2563eb"/>
<circle cx="740.49" cy="288.83" r="0.70" fill="#2563eb"/>
<circle cx="741.83" cy="285.48" r="0.70" fill="#2563eb"/>
<circle cx="743.17" cy="282.13" r="0.70" fill="#2563eb"/>
<circle cx="744.51" cy="278.78" r="0.70" fill="#2563eb"/>
<circle cx="745.85" cy="275.43" r="0.70" fill="#2563eb"/>
<circle cx="747.18" cy="272.08" r="0.70" fill="#2563eb"/>
<circle cx="748.52" cy="268.73" r="0.70" fill="#2563eb"/>
<circle cx="749.86" cy="336.86" r="0.70" fill="#2563eb"/>
<circle cx="751.20" cy="333.51" r="0.70" fill="#2563eb"/>
<circle cx="752.54" cy="330.16" r="0.70" fill="#2563eb"/>
<circle cx="753.88" cy="326.81" r="0.70" fill="#2563eb"/>
<circle cx="755.22" cy="323.46" r="0.70" fill="#2563eb"/>
<circle cx="756.55" cy="320.11" r="0.70" fill="#2563eb"/>
<circle cx="757.89" cy="316.76" r="0.70" fill="#2563eb"/>
<circle cx="759.23" cy="313.41" r="0.70" fill="#2563eb"/>
<circle cx="760.57" cy="310.06" r="0.70" fill="#2563eb"/>
<circle cx="761.91" cy="306.71" r="0.70" fill="#2563eb"/>
<circle cx="763.25" cy="303.36" r="0.70" fill="#2563eb"/>
<circle cx="764.58" cy="300.01" r="0.70" fill="#2563eb"/>
<circle cx="765.92" cy="296.66" r="0.70" fill="#2563eb"/>
<circle cx="767.26" cy="293.31" r="0.70" fill="#2563eb"/>
<circle cx="768.60" cy="289.96" r="0.70" fill="#2563eb"/>
<circle cx="769.94" cy="286.61" r="0.70" fill="#2563eb"/>
<circle cx="771.28" cy="283.26" r="0.70" fill="#2563eb"/>
<circle cx="772.62" cy="279.91" r="0.70" fill="#2563eb"/>
<circle cx="773.95" cy="276.56" r="0.70" fill="#2563eb"/>
<circle cx="775.29" cy="273.21" r="0.70" fill="#2563eb"/>
<circle cx="776.63" cy="269.86" r="0.70" fill="#2563eb"/>
<circle cx="777.97" cy="337.43" r="0.70" fill="#2563eb"/>
<circle cx="779.31" cy="334.08" r="0.70" fill="#2563eb"/>
<circle cx="780.65" cy="330.73" r="0.70" fill="#2563eb"/>
<circle cx="781.98" cy="327.38" r="0.70" fill="#2563eb"/>
<circle cx="783.32" cy="324.03" r="0.70" fill="#2563eb"/>
<circle cx="784.66" cy="320.68" r="0.70" fill="#2563eb"/>
<circle cx="786.00" cy="317.33" r="0.70" fill="#2563eb"/>
<circle cx="787.34" cy="313.98" r="0.70" fill="#2563eb"/>
<circle cx="788.68" cy="310.63" r="0.70" fill="#2563eb"/>
<circle cx="790.02" cy="307.28" r="0.70" fill="#2563eb"/>
<circle cx="791.35" cy="303.93" r="0.70" fill="#2563eb"/>
<circle cx="792.69" cy="300.58" r="0.70" fill="#2563eb"/>
<circle cx="794.03" cy="297.23" r="0.70" fill="#2563eb"/>
<circle cx="795.37" cy="293.88" r="0.70" fill="#2563eb"/>
<circle cx="796.71" cy="290.53" r="0.70" fill="#2563eb"/>
<circle cx="798.05" cy="287.18" r="0.70" fill="#2563eb"/>
<circle cx="799.38" cy="283.83" r="0.70" fill="#2563eb"/>
<circle cx="800.72" cy="280.48" r="0.70" fill="#2563eb"/>
<circle cx="802.06" cy="277.13" r="0.70" fill="#2563eb"/>
<circle cx="803.40" cy="273.78" r="0.70" fill="#2563eb"/>
<circle cx="804.74" cy="270.43" r="0.70" fill="#2563eb"/>
<circle cx="806.08" cy="337.72" r="0.70" fill="#2563eb"/>
<circle cx="807.42" cy="334.37" r="0.70" fill="#2563eb"/>
<circle cx="808.75" cy="331.02" r="0.70" fill="#2563eb"/>
<circle cx="810.09" cy="327.67" r="0.70" fill="#2563eb"/>
<circle cx="811.43" cy="324.32" r="0.70" fill="#2563eb"/>
<circle cx="812.77" cy="320.97" r="0.70" fill="#2563eb"/>
<circle cx="814.11" cy="317.62" r="0.70" fill="#2563eb"/>
<circle cx="815.45" cy="314.27" r="0.70" fill="#2563eb"/>
<circle cx="816.78" cy="310.92" r="0.70" fill="#2563eb"/>
<circle cx="818.12" cy="307.57" r="0.70" fill="#2563eb"/>
<circle cx="819.46" cy="304.22" r="0.70" fill="#2563eb"/>
<circle cx="820.80" cy="300.87" r="0.70" fill="#2563eb"/>
<circle cx="822.14" cy="297.52" r="0.70" fill="#2563eb"/>
<circle cx="823.48" cy="294.17" r="0.70" fill="#2563eb"/>
<circle cx="824.82" cy="290.82" r="0.70" fill="#2563eb"/>
<circle cx="826.15" cy="287.47" r="0.70" fill="#2563eb"/>
<circle cx="827.49" cy="284.12" r="0.70" fill="#2563eb"/>
<circle cx="828.83" cy="280.77" r="0.70" fill="#2563eb"/>
<circle cx="830.17" cy="277.42" r="0.70" fill="#2563eb"/>
<circle cx="831.51" cy="274.07" r="0.70" fill="#2563eb"/>
<circle cx="832.85" cy="270.72" r="0.70" fill="#2563eb"/>
<circle cx="834.18" cy="337.86" r="0.70" fill="#2563eb"/>
<circle cx="835.52" cy="334.51" r="0.70" fill="#2563eb"/>
<circle cx="836.86" cy="331.16" r="0.70" fill="#2563eb"/>
<circle cx="838.20" cy="327.81" r="0.70" fill="#2563eb"/>
<circle cx="839.54" cy="324.46" r="0.70" fill="#2563eb"/>
<circle cx="840.88" cy="321.11" r="0.70" fill="#2563eb"/>
<circle cx="842.22" cy="317.76" r="0.70" fill="#2563eb"/>
<circle cx="843.55" cy="314.41" r="0.70" fill="#2563eb"/>
<circle cx="844.89" cy="311.06" r="0.70" fill="#2563eb"/>
<circle cx="846.23" cy="307.71" r="0.70" fill="#2563eb"/>
<circle cx="847.57" cy="304.36" r="0.70" fill="#2563eb"/>
<circle cx="848.91" cy="301.01" r="0.70" fill="#2563eb"/>
<circle cx="850.25" cy="297.66" r="0.70" fill="#2563eb"/>
<circle cx="851.58" cy="294.31" r="0.70" fill="#2563eb"/>
<circle cx="852.92" cy="290.96" r="0.70" fill="#2563eb"/>
<circle cx="854.26" cy="287.61" r="0.70" fill="#2563eb"/>
<circle cx="855.60" cy="284.26" r="0.70" fill="#2563eb"/>
<circle cx="856.94" cy="280.91" r="0.70" fill="#2563eb"/>
<circle cx="858.28" cy="277.56" r="0.70" fill="#2563eb"/>
<circle cx="859.62" cy="274.21" r="0.70" fill="#2563eb"/>
<circle cx="860.95" cy="339.60" r="0.70" fill="#2563eb"/>
<circle cx="862.29" cy="336.25" r="0.70" fill="#2563eb"/>
<circle cx="863.63" cy="332.90" r="0.70" fill="#2563eb"/>
<circle cx="864.97" cy="329.55" r="0.70" fill="#2563eb"/>
<circle cx="866.31" cy="326.20" r="0.70" fill="#2563eb"/>
<circle cx="867.65" cy="322.85" r="0.70" fill="#2563eb"/>
<circle cx="868.98" cy="319.50" r="0.70" fill="#2563eb"/>
<circle cx="870.32" cy="316.15" r="0.70" fill="#2563eb"/>
<circle cx="871.66" cy="312.80" r="0.70" fill="#2563eb"/>
<circle cx="873.00" cy="309.45" r="0.70" fill="#2563eb"/>
<circle cx="874.34" cy="306.10" r="0.70" fill="#2563eb"/>
<circle cx="875.68" cy="302.75" r="0.70" fill="#2563eb"/>
<circle cx="877.02" cy="299.40" r="0.70" fill="#2563eb"/>
<circle cx="878.35" cy="296.05" r="0.70" fill="#2563eb"/>
<circle cx="879.69" cy="292.70" r="0.70" fill="#2563eb"/>
<circle cx="881.03" cy="289.35" r="0.70" fill="#2563eb"/>
<circle cx="882.37" cy="286.00" r="0.70" fill="#2563eb"/>
<circle cx="883.71" cy="282.65" r="0.70" fill="#2563eb"/>
<circle cx="885.05" cy="279.30" r="0.70" fill="#2563eb"/>
<circle cx="886.38" cy="275.95" r="0.70" fill="#2563eb"/>
<circle cx="887.72" cy="272.60" r="0.70" fill="#2563eb"/>
<circle cx="889.06" cy="269.25" r="0.70" fill="#2563eb"/>
<circle cx="890.40" cy="337.13" r="0.70" fill="#2563eb"/>
<circle cx="891.74" cy="333.78" r="0.70" fill="#2563eb"/>
<circle cx="893.08" cy="330.43" r="0.70" fill="#2563eb"/>
<circle cx="894.42" cy="327.08" r="0.70" fill="#2563eb"/>
<circle cx="895.75" cy="323.73" r="0.70" fill="#2563eb"/>
<circle cx="897.09" cy="320.38" r="0.70" fill="#2563eb"/>
<circle cx="898.43" cy="317.03" r="0.70" fill="#2563eb"/>
<circle cx="899.77" cy="313.68" r="0.70" fill="#2563eb"/>
<circle cx="901.11" cy="310.33" r="0.70" fill="#2563eb"/>
<circle cx="902.45" cy="306.98" r="0.70" fill="#2563eb"/>
<circle cx="903.78" cy="303.63" r="0.70" fill="#2563eb"/>
<circle cx="905.12" cy="300.28" r="0.70" fill="#2563eb"/>
<circle cx="906.46" cy="296.93" r="0.70" fill="#2563eb"/>
<circle cx="907.80" cy="293.58" r="0.70" fill="#2563eb"/>
<circle cx="909.14" cy="290.23" r="0.70" fill="#2563eb"/>
<circle cx="910.48" cy="286.88" r="0.70" fill="#2563eb"/>
<circle cx="911.82" cy="283.53" r="0.70" fill="#2563eb"/>
<circle cx="913.15" cy="280.18" r="0.70" fill="#2563eb"/>
<circle cx="914.49" cy="276.83" r="0.70" fill="#2563eb"/>
<circle cx="915.83" cy="273.48" r="0.70" fill="#2563eb"/>
<circle cx="917.17" cy="270.13" r="0.70" fill="#2563eb"/>
<circle cx="918.51" cy="337.56" r="0.70" fill="#2563eb"/>
<circle cx="919.85" cy="334.21" r="0.70" fill="#2563eb"/>
<circle cx="921.18" cy="330.86" r="0.70" fill="#2563eb"/>
<circle cx="922.52" cy="327.51" r="0.70" fill="#2563eb"/>
<circle cx="923.86" cy="324.16" r="0.70" fill="#2563eb"/>
<circle cx="925.20" cy="320.81" r="0.70" fill="#2563eb"/>
<circle cx="926.54" cy="317.46" r="0.70" fill="#2563eb"/>
<circle cx="927.88" cy="314.11" r="0.70" fill="#2563eb"/>
<circle cx="929.22" cy="310.76" r="0.70" fill="#2563eb"/>
<circle cx="930.55" cy="307.41" r="0.70" fill="#2563eb"/>
<circle cx="931.89" cy="304.06" r="0.70" fill="#2563eb"/>
<circle cx="933.23" cy="300.71" r="0.70" fill="#2563eb"/>
<circle cx="934.57" cy="297.36" r="0.70" fill="#2563eb"/>
<circle cx="935.91" cy="294.01" r="0.70" fill="#2563eb"/>
<circle cx="937.25" cy="290.66" r="0.70" fill="#2563eb"/>
<circle cx="938.58" cy="287.31" r="0.70" fill="#2563eb"/>
<circle cx="939.92" cy="283.96" r="0.70" fill="#2563eb"/>
<circle cx="941.26" cy="280.61" r="0.70" fill="#2563eb"/>
<circle cx="942.60" cy="277.26" r="0.70" fill="#2563eb"/>
<circle cx="943.94" cy="273.91" r="0.70" fill="#2563eb"/>
<rect x="740" y="78" width="14" height="14" fill="#2563eb"/>
<text x="762" y="90" font-family="Arial, sans-serif" font-size="12" fill="#1f2937">ubuntu]</text>
<text x="90.00" y="423" text-anchor="middle" font-family="Arial, sans-serif" font-size="11" fill="#4b5563">0,00</text>
<text x="264.00" y="423" text-anchor="middle" font-family="Arial, sans-serif" font-size="11" fill="#4b5563">130,0</text>
<text x="438.00" y="423" text-anchor="middle" font-family="Arial, sans-serif" font-size="11" fill="#4b5563">260,0</text>
<text x="612.00" y="423" text-anchor="middle" font-family="Arial, sans-serif" font-size="11" fill="#4b5563">390,0</text>
<text x="786.00" y="423" text-anchor="middle" font-family="Arial, sans-serif" font-size="11" fill="#4b5563">520,0</text>
<text x="960.00" y="423" text-anchor="middle" font-family="Arial, sans-serif" font-size="11" fill="#4b5563">650,0</text>
</svg>
